<svg width="1291" height="1045" viewBox="-400 0 1691 1045" fill="none" xmlns="http://www.w3.org/2000/svg">
<path d="M1090.23 138.871C1089.09 143.348 1087 147.208 1084.07 149.481C1083.85 149.65 1083.64 149.804 1083.42 149.978C1082.08 150.861 1080.54 151.398 1078.94 151.54C1072 152.247 1063.16 146.596 1058.28 137.532C1052.25 126.36 1050.13 116.172 1061.57 109.517C1070.25 104.468 1081.75 104.279 1087.78 115.451C1091.45 122.211 1092.13 131.429 1090.23 138.871Z" fill="#603F24"/>
<path d="M1120.52 157.415C1120.56 160.153 1119.95 162.861 1118.76 165.325C1117.56 167.788 1115.81 169.939 1113.63 171.607C1110.69 173.866 1107.2 175.302 1103.52 175.771C1102.94 175.85 1102.36 175.89 1101.78 175.89C1097.86 175.93 1094.15 174.313 1091.11 171.741C1087.04 168.309 1084.18 163.161 1083.65 157.982C1083.59 157.425 1083.56 156.868 1083.56 156.316C1083.54 154.025 1083.71 151.735 1084.06 149.471C1084.8 145.128 1086.52 141.154 1090.23 138.861C1092.97 137.164 1096.8 136.374 1102.13 137.08C1102.58 137.14 1103.03 137.204 1103.5 137.284C1107.32 137.981 1110.86 139.73 1113.73 142.332C1116.61 144.934 1118.7 148.287 1119.77 152.013C1120.27 153.77 1120.52 155.588 1120.52 157.415Z" fill="#603F24"/>
<path d="M1130.21 193.395C1128.72 198.245 1125.42 202.722 1121.13 205.214C1120.67 205.483 1120.2 205.746 1119.73 206C1115.82 208.134 1111.49 209.845 1107.41 209.587C1102.66 209.293 1098.25 206.318 1095.25 198.21C1094.87 197.163 1094.58 196.082 1094.4 194.982C1093.65 190.232 1094.61 185.369 1097.11 181.262C1098.34 179.218 1099.91 177.403 1101.77 175.9C1102.57 175.252 1103.43 174.665 1104.32 174.144C1107.14 172.469 1110.35 171.592 1113.62 171.607C1117.48 171.659 1121.22 172.938 1124.31 175.258C1125.78 176.341 1127.09 177.62 1128.21 179.059C1131.37 183.068 1131.74 188.425 1130.21 193.395Z" fill="#603F24"/>
<path d="M1128.61 226.469C1126.31 234.742 1119.47 238.955 1112.82 238.209C1107.81 237.647 1104.33 232.687 1103.3 226.982C1102.77 224.176 1102.87 221.284 1103.62 218.525C1103.99 217.167 1104.43 215.789 1104.94 214.456C1105.58 212.734 1106.41 211.091 1107.43 209.561C1110.01 205.806 1113.82 203.672 1119.74 205.975C1120.37 206.218 1120.98 206.494 1121.57 206.801C1122.37 207.211 1123.12 207.712 1123.8 208.293C1126.37 210.529 1128.15 213.543 1128.86 216.879C1129.59 220.046 1129.5 223.344 1128.61 226.469Z" fill="#603F24"/>
<path d="M798.89 418.053C798.89 418.053 789.394 398.653 798.89 377.293C808.386 355.933 862.184 451.521 862.184 451.521C862.184 451.521 833.014 479.208 798.89 418.053Z" fill="#CC5817"/>
<path d="M655.747 465.509H967.865L839.954 593.416C839.954 593.416 782.928 600.191 717.833 547.094C656.772 497.286 649.574 504.842 648.917 472.478C648.898 471.57 649.061 470.666 649.395 469.821C649.73 468.976 650.23 468.206 650.866 467.557C651.502 466.908 652.262 466.392 653.1 466.041C653.938 465.689 654.838 465.508 655.747 465.509Z" fill="url(#paint0_linear_1510_6333)"/>
<path d="M1298.87 464.196V972.475C1249.73 1004.24 1192.45 1021.09 1133.94 1021C1015.05 1021 912.202 952.477 862.687 852.776C852.65 832.566 844.921 811.291 839.645 789.352C834.109 766.274 831.298 742.627 831.269 718.895V718.333C831.221 649.375 854.736 582.472 897.917 528.709C941.098 474.945 1001.35 437.55 1068.7 422.719C1125.33 410.318 1184.32 414.34 1238.74 434.315C1259.82 442.035 1279.99 452.056 1298.87 464.196Z" fill="url(#paint1_linear_1510_6333)"/>
<path opacity="0.22" d="M1298.87 464.196V487.924C1268.83 497.47 1144.28 593.555 1099.25 524.506C1067.74 476.185 1037.83 450.168 1020.38 437.693C1036.03 431.354 1052.2 426.345 1068.7 422.72C1096.1 446.323 1135.17 479.652 1158.69 498.231C1188.98 522.173 1224.35 462.386 1238.74 434.315C1259.82 442.036 1279.99 452.056 1298.87 464.196Z" fill="white"/>
<path opacity="0.22" d="M1298.87 655.695V790.004C1258.12 753.905 1182.65 700.116 1069.88 672.543C952.933 643.951 873.148 685.681 831.269 718.88V718.318C831.193 668.74 843.352 619.909 866.667 576.155C875.302 575.264 884.729 580.134 894.941 592.943C960.16 674.707 971.049 614.015 1062.01 595.261C1125.28 582.233 1237 627.142 1298.87 655.695Z" fill="white"/>
<path opacity="0.22" d="M1298.87 853.502V924.228C1178.19 890.124 923.762 781.96 862.687 852.776C852.65 832.567 844.921 811.291 839.646 789.352C869.785 760.65 942.033 708.334 1047.11 736.937C1149.43 764.789 1250.93 823.323 1298.87 853.502Z" fill="white"/>
<path d="M785.265 607.737L784.554 602.927C784.554 602.927 792.209 597.614 806.571 605.33C820.932 613.045 872.481 658.093 867.378 697.853C864.209 722.561 788.026 628.441 785.265 607.737Z" fill="#CC5817"/>
<path d="M1144.8 274.264C1145.54 274.135 1146.22 273.787 1146.76 273.266C1147.3 272.745 1147.67 272.075 1147.82 271.342C1147.97 270.609 1147.9 269.847 1147.62 269.155C1147.33 268.463 1146.85 267.872 1146.22 267.459C1137.89 261.987 1125.95 251.73 1120.49 235.707C1117.73 227.609 1109.44 257.018 1108.51 270.453C1108.44 271.56 1108.59 272.671 1108.96 273.717C1109.32 274.764 1109.9 275.725 1110.65 276.543C1111.4 277.36 1112.31 278.016 1113.32 278.472C1114.33 278.927 1115.43 279.173 1116.53 279.193C1116.76 279.196 1116.99 279.176 1117.22 279.134L1144.8 274.264Z" fill="#603F24"/>
<path d="M1041.71 200.692L1041 199.916L1000.11 154.649L997.065 152.933C997.065 152.933 998.558 131.255 1013.94 123.385C1016.9 121.888 1020.13 120.978 1023.43 120.704C1047.73 118.46 1069.8 133.269 1076.35 154.649C1082.9 176.029 1041.71 200.692 1041.71 200.692Z" fill="#603F24"/>
<path d="M1041.71 200.692L1041 199.916C1090.57 164.981 1070.29 147.62 1048.24 130.533C1034.58 119.958 1021.91 122.529 1013.94 123.405C1016.9 121.908 1020.13 120.998 1023.43 120.724C1047.73 118.48 1069.8 133.289 1076.35 154.669C1082.9 176.049 1041.71 200.692 1041.71 200.692Z" fill="#442915"/>
<path d="M888.922 617.497L865.274 689.526L862.234 698.789C861.85 699.961 861.033 700.943 859.949 701.534C858.866 702.124 857.598 702.279 856.404 701.967L834.402 696.227C833.319 695.937 832.304 695.436 831.415 694.753C830.525 694.07 829.779 693.219 829.219 692.247C821.971 679.97 807.884 678.279 807.884 678.279C750.942 672.837 717.639 655.695 708.809 650.96C704.999 648.915 703.088 643.682 703.133 638.569C703.163 634.863 704.217 631.221 706.327 628.898C724.16 609.235 751.594 615.612 787.623 612.921C813.042 611.02 835.333 595.271 835.333 595.271L888.922 617.497Z" fill="#BDA6FF"/>
<path d="M857.956 378.99L848.395 474.911L848.127 477.627C848.127 477.706 848.127 477.781 848.097 477.856C847.926 479.045 847.36 480.141 846.49 480.97C845.62 481.798 844.497 482.309 843.302 482.422H842.949C832.736 482.686 809.292 483.253 807.133 482.984C804.387 482.641 800.611 470.28 789.623 479.209C778.634 488.138 727.493 496.714 719.598 467.877C719.099 466.103 718.79 464.28 718.678 462.44C717.39 439.135 755.369 439.757 756.329 440.055C757.289 440.354 789.16 426.371 794.264 423.386C799.368 420.401 819.489 361.102 819.489 361.102L857.956 378.99Z" fill="#BDA6FF"/>
<path d="M1038.85 387.078L989.365 429.654L961.508 397.186L924.484 354.028L892.105 316.302L862.185 451.521C862.185 451.521 850.017 450.362 831.115 412.969C824.15 399.161 817.912 390.684 812.838 385.486C804.188 376.612 798.91 377.293 798.91 377.293C798.91 377.293 866.806 213.884 911.113 235.175C911.446 235.334 911.784 235.508 912.137 235.702C931.393 246.178 975.705 302.17 1006.47 343.015C1015.65 355.212 1023.62 366.061 1029.35 373.94C1035.29 382.098 1038.85 387.078 1038.85 387.078Z" fill="#EF843D"/>
<path opacity="0.24" d="M912.117 235.702C893.215 236.02 854.837 255.629 812.838 385.486C804.188 376.612 798.91 377.293 798.91 377.293C798.91 377.293 866.806 213.884 911.113 235.175C911.426 235.334 911.764 235.508 912.117 235.702Z" fill="#FFBD99"/>
<path opacity="0.63" d="M1029.35 373.94L961.493 397.186L924.469 354.028L1006.45 343.015C1015.63 355.212 1023.6 366.061 1029.35 373.94Z" fill="#CC5817"/>
<path d="M1098.15 433.235C1063.1 464.41 978.411 427.927 978.411 427.927L867.378 697.863C845.49 637.956 817.34 615.83 800.139 607.672C790.687 603.195 784.554 602.927 784.554 602.927C784.554 602.927 911.754 390.719 925.737 380.133C941.267 368.384 1006.16 372.856 1010.94 368.692C1011.03 368.626 1011.1 368.537 1011.15 368.434C1011.2 368.332 1011.22 368.218 1011.21 368.105C1011.17 367.646 1011.15 367.184 1011.17 366.722V366.673C1011.31 359.922 1015.24 342.403 1015.24 342.403C1033.38 355.625 1075.08 350.003 1085.38 348.372C1086.87 348.128 1087.72 347.974 1087.72 347.974L1088.22 349.397L1089.78 353.998L1106.15 402.279C1108 407.655 1108.22 413.456 1106.8 418.96C1105.38 424.463 1102.37 429.428 1098.15 433.235Z" fill="#EF843D"/>
<path opacity="0.24" d="M934.084 387.093C918.47 400.852 816.191 579.502 800.139 607.672C790.687 603.195 784.554 602.927 784.554 602.927C784.554 602.927 911.754 390.719 925.737 380.134C941.267 368.384 1006.16 372.856 1010.94 368.692C1013.83 370.351 1016.71 372.188 1019.6 374.204C1021.39 375.448 951.037 372.15 934.084 387.093Z" fill="#FFBD99"/>
<path d="M1091.62 350.202C1086.07 352.025 1080.38 353.4 1074.61 354.316C1061.24 356.54 1042.03 357.525 1024.63 350.202C1006.08 342.403 990.648 323.838 979.65 307.652C977.214 304.08 975.524 300.053 974.683 295.812C973.841 291.572 973.866 287.205 974.755 282.974C974.755 282.974 961.613 282.745 943.914 281.322C930.742 280.263 915.062 278.546 900.353 275.771C887.753 273.388 875.894 270.224 867.025 266.031C864.044 264.673 861.221 262.995 858.603 261.027C856.912 259.76 855.406 258.265 854.126 256.584C848.007 248.257 844.331 244.467 870.163 230.718C896.259 216.839 911.854 224.017 923.763 229.603C935.671 235.19 959.867 235.573 959.867 235.573C979.431 226.34 997.971 220.232 1013.74 217.053C1025.47 214.68 1035.67 213.934 1043.59 214.73L1044.05 214.78C1046.9 215.102 1049.71 215.634 1052.48 216.371C1067.81 220.381 1081.25 229.459 1081.25 229.459L1082.69 246.253L1091.62 350.202Z" fill="#5A00C4"/>
<path opacity="0.26" d="M1044.08 214.775C1024.48 219.749 999.11 229.593 987.574 249.446C967.209 284.491 923.524 220.391 870.178 230.728C896.274 216.849 911.869 224.027 923.777 229.613C935.686 235.2 959.882 235.583 959.882 235.583C979.446 226.35 997.985 220.242 1013.75 217.063C1025.49 214.69 1035.69 213.944 1043.6 214.74L1044.08 214.775Z" fill="#BDA6FF"/>
<path d="M1091.62 350.203C1091.62 350.203 1090.54 351.237 1080.33 352.933L1074.67 310.427C1071.48 294.156 1060.19 274.064 1061.49 257.535L1064.28 246.248H1082.69L1091.62 350.203Z" fill="#3F1777"/>
<path d="M1018.11 240.035C1009.79 232.573 1012.07 221.928 1013.74 217.048C1025.47 214.675 1035.67 213.929 1043.59 214.725C1046.59 215.04 1049.56 215.589 1052.47 216.367C1054.14 242.85 1028.96 249.755 1018.11 240.035Z" fill="#3F1777"/>
<path d="M1241.81 481.199C1240.61 483.005 1239.11 484.586 1237.37 485.87C1234.48 487.919 1198.73 480.96 1193.59 479.94H1193.53C1193.37 479.921 1193.21 479.961 1193.08 480.053C1192.94 480.144 1192.84 480.281 1192.8 480.437C1192.78 480.527 1192.77 480.621 1192.78 480.713C1192.79 480.806 1192.82 480.896 1192.87 480.976C1192.91 481.057 1192.98 481.128 1193.05 481.184C1193.12 481.24 1193.21 481.281 1193.3 481.303L1201.88 483.666C1201.96 483.692 1202.05 483.733 1202.12 483.785L1221.43 498.858C1221.53 498.938 1221.61 499.047 1221.66 499.171C1221.7 499.296 1221.71 499.43 1221.68 499.559C1221.65 499.687 1221.59 499.805 1221.49 499.897C1221.4 499.99 1221.28 500.054 1221.15 500.081C1212.32 501.922 1198.07 490.938 1196.46 489.67C1196.37 489.593 1196.25 489.543 1196.13 489.526C1193.85 489.262 1172.08 486.71 1169.85 486.044C1167.49 485.367 1162.47 491.889 1167.05 499.733C1171.62 507.578 1169.03 512.353 1165.48 513.164C1161.93 513.975 1161.97 506.663 1160.68 502.041C1159.39 497.42 1154.26 489.108 1149.29 481.223C1146.58 476.926 1147.48 471.608 1148.87 467.663C1149.53 465.787 1150.37 463.98 1151.38 462.266C1151.47 462.117 1151.5 461.939 1151.47 461.769L1150.99 452.959C1150.93 452.586 1150.92 447.731 1151.29 447.661L1171.49 443.866C1171.59 443.848 1171.69 443.85 1171.78 443.873C1171.87 443.895 1171.96 443.937 1172.04 443.996C1172.12 444.054 1172.18 444.128 1172.23 444.213C1172.27 444.298 1172.3 444.391 1172.31 444.488C1172.39 445.547 1172.66 456.55 1173.44 457.535C1173.73 457.904 1177.66 458.451 1183.35 459.072C1198.1 460.679 1224.64 462.754 1230.53 463.206C1230.66 463.216 1230.79 463.263 1230.89 463.34C1231 463.418 1231.08 463.523 1231.12 463.644C1231.17 463.765 1231.18 463.897 1231.16 464.024C1231.13 464.152 1231.07 464.27 1230.99 464.365C1229.95 465.347 1228.7 466.081 1227.33 466.509C1224.6 467.504 1212.41 467.255 1205.4 467.007C1205.24 467.002 1205.07 467.058 1204.95 467.163C1204.82 467.268 1204.73 467.416 1204.7 467.58C1204.68 467.743 1204.71 467.912 1204.79 468.054C1204.88 468.196 1205.01 468.303 1205.17 468.355L1241.48 480.124C1241.59 480.159 1241.68 480.218 1241.76 480.297C1241.83 480.376 1241.89 480.472 1241.92 480.578C1241.95 480.683 1241.96 480.794 1241.94 480.902C1241.92 481.01 1241.87 481.112 1241.81 481.199Z" fill="#FFCBA4"/>
<path d="M1151.35 462.251C1151.44 462.102 1151.47 461.924 1151.44 461.753L1150.71 457.55C1150.68 457.371 1150.72 457.187 1150.82 457.037C1150.93 456.887 1151.08 456.784 1151.26 456.749L1171.46 444.651C1171.56 444.634 1171.65 444.636 1171.75 444.658C1171.84 444.68 1171.93 444.721 1172.01 444.779C1172.08 444.837 1172.15 444.911 1172.19 444.995C1172.24 445.079 1172.27 445.172 1172.28 445.268C1172.36 446.333 1172.63 456.535 1173.41 457.52C1173.7 457.888 1177.63 458.435 1183.32 459.057C1178.93 460.117 1172.83 458.216 1168.36 459.321C1159.59 461.495 1152.94 466.583 1148.84 467.628C1149.5 465.759 1150.34 463.958 1151.35 462.251Z" fill="#EDAC80"/>
<path d="M1053.22 186.968C1048.59 190.351 1044.5 185.366 1044.5 185.366L1043.08 224.619C1043.02 226.597 1042.49 228.53 1041.52 230.257C1040.55 231.983 1039.19 233.452 1037.53 234.538C1034.52 236.488 1031.68 237.025 1029.15 236.831C1022.75 236.284 1017.98 230.648 1018.11 224.226L1018.47 206.358H1018.42C1015.35 206.923 1012.19 206.91 1009.12 206.318C981.261 200.488 1001.29 151.501 1001.29 151.501L1003.6 151.869L1024.92 155.276L1030.26 141.751L1027.91 157.052L1045.74 163.832L1044.64 176.477L1045.92 176.825C1045.92 176.825 1050.65 155.599 1058.2 159.738C1066.15 164.101 1057.84 183.585 1053.22 186.968Z" fill="#FFCBA4"/>
<path d="M943.909 281.322C930.736 280.263 915.057 278.547 900.348 275.771C887.748 273.388 875.889 270.224 867.019 266.031C863.806 260.256 852.917 249.347 863.493 243.378C863.493 243.378 903.964 221.381 928.473 241.612C948.893 258.475 945.58 275.97 943.909 281.322Z" fill="#3F1777"/>
<path d="M913.764 271.423C892.105 282.417 867.348 267.817 858.583 261.027C857.477 257.813 857.648 254.297 859.06 251.206C860.471 248.114 863.016 245.682 866.169 244.412C879.968 238.851 900.199 233.926 920.484 240.552C920.484 240.552 912.157 254.262 920.484 266.26C924.096 271.463 917.415 272.07 913.764 271.423Z" fill="#5A00C4"/>
<path d="M41.1333 997.897L68.6864 987.067L46.9732 1006.9L66.4679 1028.28L40.213 1015.24L25.26 1044.67L30.1946 1011.38L0 1008.34L30.7617 1000.67L29.6872 972L41.1333 997.897Z" fill="#FFD297"/>
<path d="M538.741 904.112C542.751 897.645 533.394 885.369 518.346 872.276C518.033 873.505 517.665 874.723 517.247 875.917C519.59 877.997 521.774 880.041 523.773 882.041C534.941 893.218 537.294 899.819 535.772 902.267C534.249 904.714 527.29 905.53 512.322 900.466C509.074 899.367 505.647 898.053 502.08 896.561C490.495 891.706 477.467 884.876 464.389 876.748C453.465 870.024 443.01 862.567 433.095 854.428C428.937 850.946 425.171 847.563 421.893 844.285C410.72 833.108 408.367 826.512 409.889 824.059C411.412 821.607 418.371 820.796 433.339 825.86C437.149 827.148 441.208 828.73 445.436 830.556C446.332 829.67 447.272 828.825 448.252 828.009C428.195 819.149 411.213 815.329 406.935 822.224C402.458 829.407 414.561 843.808 432.608 858.497C442.14 866.182 452.141 873.266 462.553 879.708C474.116 886.938 486.178 893.338 498.648 898.859C518.182 907.336 534.548 910.857 538.741 904.112Z" fill="#5A00C4"/>
<path d="M498.658 898.865C497.593 899.506 496.494 900.113 495.355 900.67C493.78 901.446 492.161 902.127 490.505 902.71C483.689 905.094 476.388 905.748 469.257 904.612C462.126 903.477 455.389 900.588 449.65 896.205C443.911 891.823 439.351 886.083 436.379 879.502C433.407 872.921 432.117 865.705 432.623 858.502C435.662 860.99 438.866 863.477 442.194 865.909C446.81 869.322 451.645 872.684 456.59 875.908C458.579 877.201 460.569 878.47 462.559 879.713C465.31 881.424 468.105 883.096 470.916 884.722C476.437 887.926 482.029 890.94 487.515 893.676C491.321 895.547 495.037 897.288 498.658 898.865Z" fill="#3938FA"/>
<path d="M518.356 872.281C518.287 872.555 518.212 872.824 518.138 873.097C517.879 874.047 517.585 874.992 517.262 875.918C515.601 880.674 513.133 885.108 509.965 889.025C507.669 891.861 505.023 894.393 502.09 896.561C497.001 894.427 491.644 891.92 486.112 889.1C480.979 886.463 475.706 883.548 470.393 880.4C468.404 879.226 466.414 878.015 464.424 876.768C461.827 875.157 459.284 873.527 456.793 871.878C451.57 868.431 446.591 864.914 441.95 861.432C438.849 859.094 435.907 856.773 433.125 854.468C434.203 848.008 436.715 841.872 440.477 836.51C441.955 834.394 443.619 832.414 445.452 830.596C446.342 829.71 447.282 828.865 448.262 828.049C453.333 823.84 459.292 820.836 465.691 819.262C472.091 817.688 478.764 817.585 485.208 818.962C491.653 820.338 497.702 823.158 502.899 827.209C508.097 831.26 512.309 836.437 515.218 842.35C519.801 851.633 520.914 862.249 518.356 872.281Z" fill="#3938FA"/>
<path opacity="0.22" d="M470.075 818.364C461.201 830.476 457.848 851.583 456.773 871.843C456.704 873.197 456.639 874.545 456.589 875.888C456.246 884.633 456.296 893.089 456.47 900.456C451.626 898.023 447.281 894.702 443.661 890.667L442.194 865.889L441.93 861.412L440.438 836.476C441.915 834.359 443.58 832.379 445.412 830.561C446.302 829.676 447.242 828.83 448.222 828.014C454.463 822.849 462.014 819.515 470.035 818.384L470.075 818.364Z" fill="white"/>
<path opacity="0.22" d="M518.137 873.082C517.879 874.032 517.585 874.977 517.262 875.902C515.601 880.659 513.132 885.093 509.964 889.01C507.781 872.634 501.826 843.743 487.022 843.415C474.885 843.151 479.899 868.287 486.112 889.065C486.58 890.622 487.047 892.154 487.52 893.646C488.539 896.874 489.554 899.929 490.504 902.689C485.306 904.516 479.808 905.335 474.303 905.102C473.223 899.69 471.93 892.477 470.92 884.707C470.731 883.278 470.556 881.832 470.393 880.369C467.951 858.567 468.363 834.252 482.078 833.083C499.951 831.575 512.437 857.86 518.137 873.082Z" fill="white"/>
<path opacity="0.3" d="M972.964 59.6036C969.089 59.5598 965.266 60.503 961.856 62.3445C961.729 58.9456 960.639 55.6528 958.713 52.8493C956.787 50.0458 954.104 47.8469 950.977 46.5086C947.85 45.1702 944.408 44.7475 941.05 45.2895C937.692 45.8316 934.557 47.3161 932.01 49.5703C928.851 41.8968 923.484 35.3348 916.589 30.717C909.694 26.0992 901.583 23.6339 893.284 23.6338C892.936 23.6338 892.593 23.6338 892.245 23.6587C889.303 15.688 883.65 9.00642 876.277 4.78443C868.904 0.562442 860.281 -0.930785 851.918 0.566306C843.554 2.0634 835.984 6.45535 830.534 12.9728C825.083 19.4903 822.1 27.7178 822.106 36.214C812.73 36.2049 803.719 39.8484 796.985 46.3718C793.63 38.7153 788.041 32.2506 780.95 27.8246C773.859 23.3987 765.596 21.2179 757.244 21.5679C748.892 21.918 740.841 24.7825 734.145 29.7863C727.449 34.7901 722.42 41.6997 719.718 49.6101C714.614 46.7797 707.879 45.0535 700.497 45.0535C684.539 45.0535 671.601 62.4639 671.601 72.4127H990.957C990.937 65.3391 982.888 59.6036 972.964 59.6036Z" fill="url(#paint2_linear_1510_6333)"/>
<path opacity="0.3" d="M1137.53 88.1562C1141.41 88.1141 1145.23 89.059 1148.64 90.9021C1148.77 87.5036 1149.86 84.2115 1151.79 81.4086C1153.71 78.6056 1156.39 76.407 1159.52 75.0684C1162.65 73.7298 1166.09 73.3062 1169.45 73.847C1172.8 74.3877 1175.94 75.8704 1178.49 78.1228C1181.65 70.4501 1187.01 63.8889 1193.91 59.2712C1200.8 54.6536 1208.91 52.1877 1217.21 52.1863C1217.56 52.1863 1217.91 52.1863 1218.25 52.2162C1221.19 44.2459 1226.85 37.5646 1234.22 33.3426C1241.59 29.1205 1250.21 27.627 1258.58 29.1234C1266.94 30.6198 1274.51 35.0109 1279.96 41.5275C1285.41 48.0441 1288.4 56.2708 1288.39 64.7666C1297.77 64.7572 1306.78 68.4006 1313.52 74.9243C1316.87 67.2675 1322.46 60.8025 1329.55 56.3764C1336.64 51.9504 1344.9 49.7698 1353.26 50.1204C1361.61 50.471 1369.66 53.3364 1376.36 58.3412C1383.05 63.346 1388.08 70.2566 1390.78 78.1676C1395.89 75.3322 1402.62 73.6111 1410 73.6111C1425.96 73.6111 1438.9 91.0214 1438.9 100.97H1119.56C1119.56 93.8867 1127.61 88.1562 1137.53 88.1562Z" fill="url(#paint3_linear_1510_6333)"/>
<path d="M1005.09 167.115C1005.41 165.252 1004.95 163.618 1004.07 163.466C1003.18 163.314 1002.2 164.701 1001.88 166.564C1001.56 168.427 1002.02 170.061 1002.91 170.213C1003.8 170.365 1004.77 168.978 1005.09 167.115Z" fill="black"/>
<path d="M1025.7 171.037C1026.01 169.181 1025.55 167.556 1024.66 167.407C1023.78 167.259 1022.81 168.643 1022.5 170.498C1022.19 172.354 1022.65 173.979 1023.53 174.128C1024.41 174.277 1025.38 172.893 1025.7 171.037Z" fill="black"/>
<path d="M1029.94 164.981C1029.78 164.981 1029.61 164.941 1029.47 164.864C1029.32 164.787 1029.2 164.675 1029.11 164.538C1027.54 162.18 1025.85 160.912 1024.08 160.773C1021.68 160.589 1019.85 162.519 1019.83 162.538C1019.65 162.724 1019.41 162.832 1019.15 162.839C1018.89 162.846 1018.64 162.751 1018.45 162.576C1018.26 162.4 1018.14 162.157 1018.13 161.898C1018.11 161.64 1018.2 161.386 1018.37 161.19C1018.48 161.081 1020.88 158.524 1024.24 158.788C1026.64 158.977 1028.84 160.544 1030.77 163.434C1030.87 163.584 1030.92 163.758 1030.93 163.937C1030.94 164.117 1030.9 164.296 1030.82 164.455C1030.73 164.613 1030.61 164.746 1030.45 164.839C1030.3 164.931 1030.12 164.981 1029.94 164.981Z" fill="#603F24"/>
<path d="M1013.79 179.352H1013.72L1010.34 179.108C1009.75 179.065 1009.18 178.88 1008.67 178.571C1008.17 178.262 1007.74 177.837 1007.43 177.331C1007.12 176.824 1006.94 176.252 1006.9 175.66C1006.85 175.069 1006.95 174.476 1007.18 173.93L1010.97 165.021C1011.08 164.788 1011.28 164.607 1011.52 164.515C1011.76 164.423 1012.03 164.428 1012.26 164.528C1012.5 164.629 1012.69 164.817 1012.79 165.053C1012.89 165.29 1012.9 165.556 1012.8 165.797L1009 174.706C1008.89 174.959 1008.85 175.235 1008.87 175.511C1008.89 175.787 1008.97 176.053 1009.12 176.288C1009.26 176.525 1009.46 176.724 1009.69 176.869C1009.93 177.013 1010.2 177.099 1010.47 177.119L1013.85 177.362C1014.12 177.372 1014.37 177.486 1014.55 177.68C1014.73 177.874 1014.82 178.131 1014.81 178.394C1014.8 178.658 1014.69 178.907 1014.49 179.087C1014.3 179.267 1014.04 179.362 1013.78 179.352H1013.79Z" fill="#D89568"/>
<path d="M1005.61 183.232C1005.61 183.232 1014.91 184.869 1019.6 180.695C1019.6 180.675 1016.66 206.363 1005.61 183.232Z" fill="white"/>
<path d="M1018.45 206.333L1018.41 206.373C1015.33 206.938 1012.17 206.925 1009.1 206.333C981.241 200.503 1001.27 151.516 1001.27 151.516L1003.58 151.884C1000.5 161.211 986.345 208.602 1018.45 206.333Z" fill="#EAAE86"/>
<path d="M1031.31 198.28C1031.31 198.28 1025.84 205.244 1018.47 206.333V214.422C1018.47 214.422 1026.29 213.631 1031.31 198.28Z" fill="#EAAE86"/>
<path d="M1051.7 181.242C1051.49 181.242 1051.29 181.176 1051.12 181.055C1050.95 180.934 1050.83 180.763 1050.76 180.566C1047.62 171.373 1052.99 166.14 1056.26 164.648C1056.38 164.587 1056.51 164.552 1056.64 164.543C1056.78 164.535 1056.91 164.553 1057.04 164.598C1057.17 164.642 1057.28 164.712 1057.38 164.803C1057.48 164.893 1057.56 165.003 1057.61 165.125C1057.67 165.247 1057.7 165.38 1057.7 165.514C1057.71 165.648 1057.68 165.781 1057.63 165.906C1057.58 166.03 1057.51 166.143 1057.41 166.238C1057.32 166.333 1057.21 166.408 1057.08 166.458C1056.75 166.618 1049.32 170.189 1052.64 179.924C1052.72 180.174 1052.71 180.447 1052.59 180.684C1052.48 180.92 1052.27 181.102 1052.02 181.188C1051.92 181.222 1051.81 181.241 1051.7 181.242Z" fill="#D89568"/>
<path d="M1011.18 161.593C1011.02 161.593 1010.86 161.551 1010.71 161.473C1010.57 161.395 1010.45 161.283 1010.36 161.146C1008.78 158.788 1007.09 157.519 1005.32 157.38C1002.91 157.191 1001.09 159.131 1001.08 159.151C1000.9 159.345 1000.65 159.46 1000.39 159.47C1000.12 159.48 999.866 159.385 999.672 159.206C999.478 159.026 999.363 158.777 999.353 158.513C999.343 158.249 999.437 157.992 999.617 157.798C999.716 157.689 1002.1 155.137 1005.48 155.4C1007.88 155.589 1010.08 157.151 1012.01 160.046C1012.16 160.266 1012.21 160.535 1012.16 160.793C1012.11 161.051 1011.95 161.278 1011.73 161.424C1011.57 161.534 1011.38 161.593 1011.18 161.593Z" fill="#603F24"/>
<path d="M978.411 427.928L987.276 405.732L993.28 433.514L978.411 427.928Z" fill="#CC5817"/>
<path d="M1089.78 353.973C1088.56 354.779 1086.55 355.615 1083.61 356.461C1046.48 367.404 1016.76 352.362 1016.76 352.362C1016.39 363.838 1029.35 367.285 1029.35 367.285L1011.21 368.086L1011.17 366.703V366.653C1011.31 359.903 1015.24 342.383 1015.24 342.383C1033.38 355.605 1075.08 349.984 1085.38 348.352C1086.33 348.643 1087.28 348.985 1088.2 349.377C1091.41 350.765 1092.32 352.302 1089.78 353.973Z" fill="#CC5817"/>
<path d="M1149.6 463.151C1149.6 463.151 1164.57 447.571 1174.65 449.72C1184.73 451.869 1119.66 224.559 1072.61 227.614C1072.61 227.614 1053.9 233.871 1072.61 280.66C1091.32 327.45 1066.71 425.52 1138.52 435.782C1138.52 435.782 1143.44 462.201 1149.6 463.151Z" fill="#5A00C4"/>
<path d="M892.105 316.302L897.214 287.759L902.228 328.106L892.105 316.302Z" fill="#CC5817"/>
<path d="M987.574 247.591L974.755 282.974L938.735 280.884L987.574 247.591Z" fill="#3F1777"/>
<path d="M970.835 305.448L969.159 324.793C969.159 324.793 963.214 320.814 964.453 311.427C965.692 302.04 962.961 291.624 962.961 291.624C962.961 291.624 962.215 303.757 957.986 310.437C953.758 317.118 945.859 324.793 945.859 324.793C945.859 324.793 939.178 313.407 940.909 310.686C944.297 305.363 946.356 294.842 945.61 288.654C945.227 285.436 941.959 280.616 938.915 276.716C937.267 274.605 936.144 272.134 935.638 269.505C935.133 266.876 935.258 264.165 936.004 261.594L936.701 259.191L916.405 264.141C914.842 261.503 913.768 258.604 913.237 255.585C912.331 250.867 912.919 245.984 914.918 241.616L938.616 240.035C939.329 239.988 940.043 240.106 940.703 240.379C941.363 240.653 941.951 241.074 942.421 241.611L949.271 249.391C953.424 254.132 956.753 259.534 959.121 265.374L967.716 285.66C970.354 291.903 971.425 298.696 970.835 305.448Z" fill="#FFCBA4"/>
<path d="M1138.52 435.782C1138.52 435.782 1150.32 426.191 1159.62 427.743C1159.62 427.743 1140.3 439.801 1141.15 447.014C1142 454.227 1138.52 435.782 1138.52 435.782Z" fill="#3F1777"/>
<path d="M1085.31 240.035C1088.07 242.975 1090.64 246.076 1093.03 249.322C1093.63 250.128 1094.25 250.924 1094.83 251.75L1096.57 254.237C1097.76 255.873 1098.84 257.575 1099.97 259.241C1104.37 265.996 1108.42 272.965 1112.25 280.074C1116.07 287.182 1119.56 294.455 1122.83 301.822L1125.28 307.353C1126.07 309.209 1126.82 311.079 1127.59 312.94L1129.88 318.536L1132.04 324.182C1137.7 339.274 1142.98 354.441 1148.21 369.668C1150.8 377.295 1153.33 384.922 1155.8 392.55C1158.22 400.225 1160.65 407.896 1162.76 415.666C1160.14 408.06 1157.4 400.504 1154.66 392.948L1146.39 370.289L1138.09 347.646L1133.95 336.319C1133.26 334.434 1132.58 332.539 1131.87 330.663L1129.73 325.042L1127.61 319.411L1125.35 313.835C1124.6 311.98 1123.86 310.114 1123.09 308.264L1120.7 302.747C1117.57 295.36 1114.08 288.137 1110.55 280.939C1108.7 277.383 1106.89 273.801 1104.93 270.304L1103.5 267.663C1103 266.777 1102.5 265.922 1102 265.051C1101.01 263.32 1100.02 261.569 1098.96 259.863C1097.91 258.157 1096.9 256.421 1095.8 254.744L1094.17 252.212C1093.62 251.372 1093.05 250.551 1092.49 249.725C1091.39 248.049 1090.21 246.422 1089.04 244.795C1087.86 243.169 1086.6 241.562 1085.31 240.035Z" fill="#3F1777"/>
<path d="M1091.62 412.601C1090.09 413.765 1088.47 414.815 1086.79 415.745C1085.11 416.7 1083.37 417.546 1081.61 418.342C1078.07 419.916 1074.41 421.214 1070.67 422.222C1066.93 423.246 1063.13 424.014 1059.28 424.52C1055.44 425.006 1051.57 425.278 1047.69 425.336C1045.75 425.336 1043.82 425.311 1041.88 425.187C1039.95 425.062 1038.02 424.928 1036.09 424.754C1032.25 424.33 1028.43 423.701 1024.65 422.868C1017.13 421.235 1009.79 418.823 1002.77 415.67C1010.08 417.882 1017.51 419.649 1025.04 420.963C1032.52 422.257 1040.09 422.89 1047.68 422.854C1055.26 422.817 1062.82 421.983 1070.22 420.366C1073.93 419.547 1077.58 418.501 1081.16 417.232C1082.96 416.616 1084.73 415.914 1086.48 415.153C1088.24 414.396 1089.96 413.544 1091.62 412.601Z" fill="#CC5817"/>
<path d="M975.058 415.67L971.994 422.868L968.89 430.046L962.677 444.388C958.499 453.945 954.299 463.489 950.077 473.02C945.869 482.561 941.581 492.062 937.333 501.583L924.464 530.096L911.471 558.55C907.098 568.001 902.766 577.497 898.353 586.944C893.941 596.39 889.534 605.846 885.091 615.298L878.371 629.425L875.008 636.484L871.606 643.527L874.665 636.33L877.769 629.152L883.982 614.795C888.161 605.238 892.361 595.694 896.582 586.163C900.791 576.622 905.079 567.121 909.327 557.595L922.201 529.087L935.194 500.633C939.566 491.182 943.899 481.686 948.316 472.239C952.733 462.793 957.131 453.336 961.573 443.885L968.293 429.763L971.656 422.699L975.058 415.67Z" fill="#CC5817"/>
<path d="M884.534 287.759C881.913 298.986 879.192 310.179 876.476 321.366L872.437 338.16C871.094 343.756 869.751 349.352 868.457 354.958C867.164 360.564 865.86 366.17 864.637 371.786C863.413 377.403 862.219 383.029 861.085 388.665C859.951 394.301 858.941 399.956 858.16 405.642C857.757 408.483 857.434 411.338 857.255 414.198C857.175 415.626 857.141 417.058 857.19 418.491C857.204 419.927 857.435 421.353 857.877 422.719C857.313 421.382 856.955 419.966 856.817 418.521C856.653 417.078 856.593 415.631 856.568 414.183C856.539 411.283 856.718 408.393 856.946 405.508C857.444 399.748 858.235 394.017 859.175 388.321C859.633 385.469 860.13 382.626 860.667 379.79C861.204 376.955 861.757 374.124 862.324 371.299C863.488 365.648 864.746 360.017 866.03 354.386C867.313 348.755 868.716 343.169 870.144 337.583C871.571 331.996 873.034 326.425 874.591 320.874C877.68 309.771 880.923 298.708 884.534 287.759Z" fill="#CC5817"/>
<path d="M1003.6 151.893C1003.6 151.893 1006.96 130.722 1016.03 127.166C1016.03 127.166 1007.67 136.453 1006.39 152.341L1003.6 151.893Z" fill="#442915"/>
<path d="M1032.35 136.836C1032.22 137.472 1030.09 157.877 1030.09 157.877L1027.91 157.052L1032.35 136.836Z" fill="#442915"/>
<path d="M1045.22 176.825C1045.22 176.825 1051.22 154.042 1049.12 147.357C1049.12 147.357 1054.11 154.803 1045.22 176.825Z" fill="#442915"/>
<path d="M1083.88 158.027L1083.64 157.992C1083.59 157.435 1083.56 156.878 1083.56 156.326C1083.54 154.034 1083.7 151.745 1084.06 149.481C1083.84 149.65 1083.63 149.804 1083.41 149.979C1082.07 150.861 1080.53 151.398 1078.93 151.541C1090.37 142.93 1087.77 115.451 1087.77 115.451C1091.43 122.236 1092.11 131.454 1090.21 138.896C1092.95 137.199 1096.79 136.408 1102.11 137.115C1102.25 138.252 1102.36 139.385 1102.46 140.512C1102.67 142.959 1102.33 145.422 1101.45 147.718C1100.58 150.013 1099.19 152.08 1097.41 153.765C1095.62 155.449 1093.47 156.708 1091.13 157.446C1088.79 158.184 1086.31 158.383 1083.88 158.027Z" fill="#442915"/>
<path d="M1124.32 175.273C1120.83 186.068 1112.72 193.32 1097.11 181.277C1098.33 179.233 1099.91 177.418 1101.76 175.915C1097.84 175.955 1094.13 174.338 1091.09 171.766C1098.25 171.532 1112.58 168.851 1119.77 152.038C1120.27 153.792 1120.52 155.606 1120.52 157.43C1120.56 160.168 1119.95 162.876 1118.76 165.339C1117.56 167.803 1115.81 169.954 1113.63 171.622C1117.49 171.674 1121.23 172.953 1124.32 175.273Z" fill="#442915"/>
<path d="M1121.13 205.214C1120.67 205.482 1120.2 205.746 1119.73 206C1120.35 206.243 1120.96 206.518 1121.56 206.825C1122.36 207.235 1123.1 207.736 1123.78 208.318C1118.18 213.988 1111.39 217.769 1104.94 214.506C1105.58 212.783 1106.41 211.14 1107.43 209.611C1102.68 209.318 1098.27 206.343 1095.27 198.235C1094.88 197.188 1094.6 196.107 1094.41 195.006C1100.77 201.08 1115.8 211.641 1130.23 193.419C1128.72 198.245 1125.4 202.721 1121.13 205.214Z" fill="#442915"/>
<path d="M1128.61 226.469C1126.31 234.742 1119.47 238.955 1112.82 238.209C1107.81 237.647 1104.33 232.687 1103.3 226.982C1117.97 236.503 1125.75 224.141 1128.85 216.879C1129.58 220.044 1129.5 223.343 1128.61 226.469Z" fill="#442915"/>
<path d="M774.829 427.405C785.206 428.226 805.118 440.836 805.118 440.836L789.862 450.755C783.917 445.074 760.264 437.24 760.264 437.24C760.264 437.24 773.197 437.081 789.414 446.472L800.164 440.846L774.829 427.405Z" fill="#5A00C4"/>
<path d="M796.597 400.922L821.106 410.801L824.319 394.51L800.89 387.118C800.89 387.118 800.392 389.525 804.466 390.416C808.54 391.306 821.504 396.091 821.504 396.091L819.574 407.115C819.574 407.115 799.01 397.534 796.597 400.922Z" fill="#5A00C4"/>
<path d="M792.269 420.401L816.773 430.285L819.977 413.994L796.562 406.582C796.562 406.582 796.065 408.99 800.134 409.881C804.203 410.771 817.171 415.551 817.171 415.551L815.241 426.58C815.241 426.58 794.657 417.029 792.269 420.401Z" fill="#5A00C4"/>
<path d="M770.233 455.297C770.233 455.297 768.203 444.587 755.533 440.095L758.493 439.13C758.493 439.13 770.939 442.652 770.233 455.297Z" fill="#5A00C4"/>
<path d="M718.996 461.007C718.996 461.007 723.006 496.107 785.514 475.214C785.524 475.229 727.363 489.754 718.996 461.007Z" fill="#5A00C4"/>
<path d="M805.118 476.224C805.118 476.224 829.647 478.9 844.187 475.229L805.118 476.224Z" fill="#5A00C4"/>
<path d="M812.784 466.494C812.784 466.494 820.32 434.554 838.969 432.569C838.969 432.569 826.274 435.349 812.784 466.494Z" fill="#5A00C4"/>
<path opacity="0.37" d="M848.395 474.911L848.127 477.627C848.127 477.706 848.127 477.781 848.097 477.856C847.926 479.044 847.36 480.141 846.49 480.969C845.62 481.798 844.497 482.309 843.302 482.422H842.948C832.736 482.686 809.292 483.253 807.133 482.984C804.387 482.641 800.611 470.28 789.623 479.209C778.634 488.138 727.493 496.714 719.598 467.877C719.099 466.103 718.79 464.28 718.678 462.44C723.085 472.782 739.013 489.118 796.547 474.403C796.567 474.423 816.34 478.055 848.395 474.911Z" fill="#5A00C4"/>
<path opacity="0.37" d="M865.274 689.531L862.234 698.793C861.85 699.966 861.033 700.948 859.949 701.539C858.866 702.129 857.598 702.284 856.404 701.972L834.402 696.227C833.319 695.937 832.304 695.436 831.415 694.753C830.525 694.07 829.779 693.219 829.219 692.247C821.971 679.97 807.884 678.279 807.884 678.279C750.942 672.837 717.639 655.695 708.809 650.96C704.999 648.915 703.088 643.682 703.133 638.568C705.58 642.269 710.281 646.239 719.26 648.696C737.461 653.681 841.262 682.796 865.274 689.531Z" fill="#5A00C4"/>
<path d="M768.148 638.598C768.039 637.882 767.935 637.24 767.805 636.568C767.676 635.897 767.542 635.245 767.402 634.579C767.119 633.26 766.795 631.957 766.437 630.659C765.729 628.054 764.852 625.499 763.811 623.008C762.768 620.497 761.461 618.104 759.911 615.87C759.118 614.757 758.222 613.721 757.235 612.776C756.264 611.833 755.144 611.057 753.922 610.478C754.876 611.361 755.712 612.364 756.409 613.462C757.095 614.541 757.702 615.668 758.224 616.835C758.747 618.004 759.219 619.193 759.622 620.402C760.025 621.61 760.403 622.834 760.741 624.068C761.423 626.555 761.975 629.042 762.458 631.569C762.697 632.833 762.91 634.096 763.114 635.365L763.189 635.862C760.493 635.255 757.793 634.673 755.091 634.116C751.31 633.44 747.629 632.733 743.943 631.883C740.284 631.064 736.686 629.995 733.173 628.684C731.433 628.013 729.749 627.206 728.134 626.271C726.491 625.326 725.024 624.105 723.797 622.66C724.572 624.493 725.739 626.135 727.214 627.47C728.686 628.822 730.297 630.014 732.019 631.027C735.449 632.996 739.081 634.587 742.854 635.773C746.568 636.954 750.346 637.924 754.17 638.678C757.911 639.513 761.632 640.334 765.417 641.06L768.626 641.682L768.148 638.598Z" fill="#5A00C4"/>
<path d="M809.65 632.072C809.61 631.858 809.57 631.694 809.53 631.52C809.49 631.345 809.446 631.171 809.401 631.022C809.317 630.689 809.232 630.351 809.137 630.027C808.963 629.366 808.759 628.719 808.56 628.072C808.361 627.426 808.113 626.799 807.894 626.162L807.157 624.287L806.347 622.446L805.466 620.636C805.168 620.039 804.82 619.462 804.501 618.875C804.183 618.288 803.845 617.711 803.476 617.149C802.785 616.004 801.984 614.915 801.218 613.841C800.815 613.308 800.387 612.796 799.965 612.279L799.333 611.513L798.651 610.781C798.189 610.284 797.741 609.816 797.273 609.349L795.781 608.016C795.532 607.802 795.284 607.578 795.035 607.369L794.239 606.777C793.707 606.389 793.184 605.996 792.647 605.623C793.01 606.175 793.393 606.707 793.761 607.235C793.945 607.503 794.13 607.767 794.319 608.025C794.508 608.284 794.662 608.573 794.816 608.846L795.846 610.458L796.791 612.119L797.288 612.935L797.716 613.781C797.995 614.348 798.303 614.895 798.577 615.457C799.074 616.611 799.651 617.726 800.104 618.89L800.467 619.75C800.591 620.039 800.691 620.332 800.805 620.626C801.019 621.208 801.258 621.785 801.457 622.372L802.064 624.133L802.616 625.908L803.113 627.689L803.561 629.485C803.631 629.779 803.705 630.072 803.77 630.365L802.417 630.614L798.437 631.39C797.109 631.644 795.791 631.937 794.458 632.211L792.966 632.534C792.752 631.942 792.523 631.365 792.279 630.808C791.687 629.447 791.022 628.119 790.289 626.829C789.583 625.56 788.797 624.341 788.021 623.143C787.245 621.944 786.399 620.79 785.534 619.661C783.826 617.382 782.024 615.195 780.127 613.099C778.237 610.994 776.225 609.001 774.103 607.13C776.789 612.105 779.574 616.935 782.186 621.8C782.849 623.013 783.483 624.23 784.086 625.451C784.39 626.058 784.693 626.67 784.977 627.281C785.26 627.893 785.559 628.5 785.837 629.112C786.375 630.336 786.892 631.554 787.33 632.768C787.757 633.925 788.09 635.114 788.325 636.325L788.822 638.986L791.598 638.489C792.926 638.25 794.259 637.991 795.577 637.733C796.895 637.474 798.234 637.235 799.557 636.932L803.536 636.091L807.516 635.196L810.142 634.604L809.65 632.072Z" fill="#5A00C4"/>
<path d="M705.829 633.723C706.738 635.213 707.904 636.53 709.272 637.613C709.61 637.887 709.918 638.185 710.266 638.444L711.311 639.215C711.987 639.747 712.729 640.21 713.455 640.673C716.382 642.507 719.449 644.107 722.628 645.458C729.003 648.158 735.553 650.428 742.232 652.253L747.271 653.571C748.937 654.039 750.638 654.422 752.33 654.81L757.409 655.999L762.572 657.173C766.019 657.944 769.437 658.814 772.864 659.66C776.292 660.506 779.694 661.426 783.111 662.301C796.745 665.926 810.257 669.947 823.648 674.364C830.35 676.566 837.014 678.873 843.64 681.284C850.266 683.716 856.862 686.223 863.368 689.014C849.485 686.293 835.79 683.005 822.131 679.627C808.471 676.25 794.886 672.663 781.341 669.032L761 663.56L755.917 662.192C754.205 661.719 752.489 661.197 750.778 660.7C747.341 659.774 743.973 658.546 740.59 657.421C733.885 654.934 727.269 652.119 721.081 648.468C719.519 647.587 718.031 646.557 716.544 645.548L715.992 645.164L715.455 644.752L714.385 643.926L713.321 643.095C712.977 642.807 712.644 642.498 712.326 642.2C711.638 641.615 710.983 640.994 710.361 640.339L709.431 639.344C709.122 639.016 708.844 638.653 708.56 638.31C707.991 637.612 707.466 636.88 706.988 636.116C706.494 635.375 706.104 634.57 705.829 633.723Z" fill="#5A00C4"/>
<path d="M1231.41 481.616L1195.46 470.508L1203.28 470.802L1231.3 482.526L1231.41 481.616Z" fill="#EDAC80"/>
<path d="M951.162 287.759C951.162 287.759 951.843 306.617 943.561 312.452C943.561 312.452 949.261 305.557 951.162 287.759Z" fill="#EDAC80"/>
<path d="M957.121 287.759C957.121 287.759 956.867 314.218 946.411 317.75C946.411 317.75 956.017 305.284 957.121 287.759Z" fill="#EDAC80"/>
<path d="M936.731 259.201L916.435 264.151C914.872 261.513 913.798 258.614 913.267 255.595L936.731 259.201Z" fill="#EDAC80"/>
<defs>
<linearGradient id="paint0_linear_1510_6333" x1="640.904" y1="346.895" x2="930.975" y2="577.015" gradientUnits="userSpaceOnUse">
<stop stop-color="#BDA6FF"/>
<stop offset="1" stop-color="#071232" stop-opacity="0.1"/>
</linearGradient>
<linearGradient id="paint1_linear_1510_6333" x1="741.72" y1="407.871" x2="1434.12" y2="957.158" gradientUnits="userSpaceOnUse">
<stop stop-color="#BDA6FF"/>
<stop offset="1" stop-color="#071232" stop-opacity="0.1"/>
</linearGradient>
<linearGradient id="paint2_linear_1510_6333" x1="671.601" y1="36.214" x2="990.937" y2="36.214" gradientUnits="userSpaceOnUse">
<stop stop-color="#3939FA"/>
<stop offset="1" stop-color="white" stop-opacity="0"/>
</linearGradient>
<linearGradient id="paint3_linear_1510_6333" x1="1438.9" y1="64.7666" x2="1119.56" y2="64.7666" gradientUnits="userSpaceOnUse">
<stop stop-color="#3939FA"/>
<stop offset="1" stop-color="white" stop-opacity="0"/>
</linearGradient>
</defs>
</svg>
