<?xml version="1.0" encoding="UTF-8" standalone="no"?>
<!-- Created with Inkscape (http://www.inkscape.org/) -->

<svg
   width="500"
   height="500"
   viewBox="0 0 132.29167 132.29167"
   version="1.1"
   id="svg118953"
   inkscape:version="1.1.1 (3bf5ae0d25, 2021-09-20)"
   sodipodi:docname="anvil.svg"
   xmlns:inkscape="http://www.inkscape.org/namespaces/inkscape"
   xmlns:sodipodi="http://sodipodi.sourceforge.net/DTD/sodipodi-0.dtd"
   xmlns="http://www.w3.org/2000/svg"
   xmlns:svg="http://www.w3.org/2000/svg">
  <sodipodi:namedview
     id="namedview118955"
     pagecolor="#ffffff"
     bordercolor="#666666"
     borderopacity="1.0"
     inkscape:pageshadow="2"
     inkscape:pageopacity="0.0"
     inkscape:pagecheckerboard="0"
     inkscape:document-units="mm"
     showgrid="true"
     units="px"
     gridtolerance="10"
     inkscape:zoom="2.8284271"
     inkscape:cx="746.88154"
     inkscape:cy="45.078057"
     inkscape:window-width="1920"
     inkscape:window-height="1001"
     inkscape:window-x="-9"
     inkscape:window-y="-9"
     inkscape:window-maximized="1"
     inkscape:current-layer="layer1">
    <inkscape:grid
       type="xygrid"
       id="grid119014"
       visible="false" />
  </sodipodi:namedview>
  <defs
     id="defs118950" />
  <g
     inkscape:groupmode="layer"
     id="layer10"
     inkscape:label="shadow"
     style="display:inline" />
  <g
     inkscape:label="letter forms"
     inkscape:groupmode="layer"
     id="layer1"
     style="display:inline">
    <path
       id="path162587"
       style="fill:#179232;fill-opacity:1;stroke:none;stroke-width:0.264583px;stroke-linecap:butt;stroke-linejoin:miter;stroke-opacity:1"
       d="m 120.38542,33.072917 v 6.614583 3.96875 h 3.96875 l 3.96875,10e-7 v -3.96875 l -3.96875,-10e-7 v -6.614583 z"
       sodipodi:nodetypes="ccccccccc" />
    <path
       style="fill:#c30606;fill-opacity:1;stroke:none;stroke-width:0.264583px;stroke-linecap:butt;stroke-linejoin:miter;stroke-opacity:1"
       d="M 113.77083,33.072917 V 43.65625 h 3.96875 V 33.072917 h -3.96875"
       id="path162567" />
    <path
       id="path162529"
       style="fill:#bcc006;fill-opacity:1;stroke:none;stroke-width:0.264583px;stroke-linecap:butt;stroke-linejoin:miter;stroke-opacity:1"
       d="m 100.54167,33.072917 2.64583,10.583333 h 1.32292 2.64583 1.32292 L 111.125,33.072917 h -3.96875 l -1.32292,5.291666 -1.32291,-5.291666 z" />
    <path
       id="path162509"
       style="fill:#3b1caf;fill-opacity:1;stroke:none;stroke-width:0.264583px;stroke-linecap:butt;stroke-linejoin:miter;stroke-opacity:1"
       d="m 87.3125,32.820736 v 10.583333 h 3.96875 v -5.039486 l 2.645833,5.039486 h 2.645833 1.322917 V 32.820736 h -3.96875 v 5.291666 L 91.28125,32.820736 Z" />
    <path
       id="path162489"
       style="fill:#c00606;fill-opacity:1;stroke:none;stroke-width:0.264583px;stroke-linecap:butt;stroke-linejoin:miter;stroke-opacity:1"
       d="M 76.729166,33.072916 74.083333,43.65625 h 3.96875 l 0.400544,-2.645834 h 1.820598 l 0.424691,2.645833 3.96875,10e-7 -2.645833,-10.583334 z m 2.645833,2.645834 0.400542,2.645833 h -0.929708 z"
       sodipodi:nodetypes="ccccccccccccc" />
    <path
       style="display:inline;fill:#5e3636;fill-opacity:1;stroke:none;stroke-width:0.264583px;stroke-linecap:butt;stroke-linejoin:miter;stroke-opacity:1"
       d="m 10.847916,23.547917 1.322917,1.322916 h 2.645833 L 13.49375,23.547917 h -2.645834"
       id="path139050" />
    <path
       style="display:inline;fill:#702a2a;fill-opacity:1;stroke:none;stroke-width:0.264583px;stroke-linecap:butt;stroke-linejoin:miter;stroke-opacity:1"
       d="M 14.816666,24.870833 15.478125,22.225 14.155208,20.902083 13.49375,23.547917 14.816666,24.870833"
       id="path139052" />
    <path
       style="display:inline;fill:#5e3636;fill-opacity:1;stroke:none;stroke-width:0.264583px;stroke-linecap:butt;stroke-linejoin:miter;stroke-opacity:1"
       d="m 17.462499,23.547917 1.322917,1.322916 h 2.645833 l -1.322916,-1.322916 h -2.645834"
       id="path139054" />
    <path
       style="display:inline;fill:#b21a1a;fill-opacity:1;stroke:none;stroke-width:0.264583px;stroke-linecap:butt;stroke-linejoin:miter;stroke-opacity:1"
       d="m 17.462499,12.964583 1.322917,1.322917 2.645833,10.583333 -1.322916,-1.322916 z"
       id="path139056" />
    <path
       style="display:inline;fill:#5e3636;fill-opacity:1;stroke:none;stroke-width:0.264583px;stroke-linecap:butt;stroke-linejoin:miter;stroke-opacity:1"
       d="m 15.478125,22.225 h 1.647444 l -0.324528,-1.322917 h -2.645833 z"
       id="path139058"
       sodipodi:nodetypes="ccccc" />
    <path
       style="display:inline;fill:#3f365e;fill-opacity:1;stroke:none;stroke-width:0.264583px;stroke-linecap:butt;stroke-linejoin:miter;stroke-opacity:1"
       d="m 22.754166,23.547917 1.322917,1.322916 h 2.645833 l -1.322917,-1.322916 h -2.645833"
       id="path139060" />
    <path
       style="display:inline;fill:#392a70;fill-opacity:1;stroke:none;stroke-width:0.264583px;stroke-linecap:butt;stroke-linejoin:miter;stroke-opacity:1"
       d="M 26.722916,24.870833 V 21.166667 L 25.399999,18.25625 v 5.291667 z"
       id="path139062"
       sodipodi:nodetypes="ccccc" />
    <path
       style="display:inline;fill:#584e7e;fill-opacity:1;stroke:none;stroke-width:0.264583px;stroke-linecap:butt;stroke-linejoin:miter;stroke-opacity:1"
       d="m 27.781249,23.547917 1.322917,1.322916 h 2.910417 V 14.2875 l -1.322917,-1.322917 v 10.583334 z"
       id="path139064" />
    <path
       style="display:inline;fill:#392a70;fill-opacity:1;stroke:none;stroke-width:0.264583px;stroke-linecap:butt;stroke-linejoin:miter;stroke-opacity:1"
       d="m 25.399999,12.964583 1.322917,1.322917 1.322917,2.645833 v 1.852084 z"
       id="path139066" />
    <path
       style="display:inline;fill:#64652f;fill-opacity:1;stroke:none;stroke-width:0.264583px;stroke-linecap:butt;stroke-linejoin:miter;stroke-opacity:1"
       d="m 35.983333,23.547917 1.322916,1.322916 h 3.704167 l -1.322917,-1.322916 z"
       id="path139068" />
    <path
       style="display:inline;fill:#a1a329;fill-opacity:1;stroke:none;stroke-width:0.264583px;stroke-linecap:butt;stroke-linejoin:miter;stroke-opacity:1"
       d="M 41.010416,24.870833 43.656249,14.2875 42.333332,12.964583 39.687499,23.547917 Z"
       id="path139070" />
    <path
       style="display:inline;fill:#777a20;fill-opacity:1;stroke:none;stroke-width:0.264583px;stroke-linecap:butt;stroke-linejoin:miter;stroke-opacity:1"
       d="m 35.983333,12.964583 1.322916,1.322917 1.058334,4.233333 -0.529167,1.852084 z"
       id="path139072"
       sodipodi:nodetypes="ccccc" />
    <path
       style="display:inline;fill:#5e3636;fill-opacity:1;stroke:none;stroke-width:0.264583px;stroke-linecap:butt;stroke-linejoin:miter;stroke-opacity:1"
       d="m 45.243749,23.547917 1.322917,1.322916 h 2.645833 l -1.322917,-1.322916 h -2.645833"
       id="path139074" />
    <path
       style="display:inline;fill:#b21a1a;fill-opacity:1;stroke:none;stroke-width:0.264583px;stroke-linecap:butt;stroke-linejoin:miter;stroke-opacity:1"
       d="M 49.212499,24.870833 V 14.2875 l -1.322917,-1.322917 v 10.583334 l 1.322917,1.322916"
       id="path139076" />
    <path
       style="display:inline;fill:#365e3f;fill-opacity:1;stroke:none;stroke-width:0.264583px;stroke-linecap:butt;stroke-linejoin:miter;stroke-opacity:1"
       d="m 50.535416,23.547917 1.322916,1.322916 h 6.614584 l -1.322917,-1.322916 h -6.614583"
       id="path139078" />
    <path
       style="display:inline;fill:#4e7e58;fill-opacity:1;stroke:none;stroke-width:0.264583px;stroke-linecap:butt;stroke-linejoin:miter;stroke-opacity:1"
       d="M 57.149999,20.902083 58.472916,22.225 v 2.645833 l -1.322917,-1.322916 v -2.645834"
       id="path139080" />
    <path
       style="display:inline;fill:#4e7e58;fill-opacity:1;stroke:none;stroke-width:0.264583px;stroke-linecap:butt;stroke-linejoin:miter;stroke-opacity:1"
       d="m 53.181249,12.964583 1.322917,1.322917 v 6.614583 h -1.322917 v -7.9375"
       id="path139082" />
    <path
       style="display:inline;fill:#3f365e;fill-opacity:1;stroke:none;stroke-width:0.264583px;stroke-linecap:butt;stroke-linejoin:miter;stroke-opacity:1"
       d="m 27.781249,23.547917 1.322917,1.322916 h 2.910417 l -1.322917,-1.322916 z"
       id="path139084" />
    <path
       id="path139086"
       style="fill:#f81717;fill-opacity:1;stroke:none;stroke-width:0.264583px;stroke-linecap:butt;stroke-linejoin:miter;stroke-opacity:1"
       d="m 13.49375,12.964583 -2.645833,10.583334 h 2.645833 l 0.661458,-2.645834 h 2.645833 l 0.661459,2.645834 h 2.645833 L 17.4625,12.964583 h -1.322917 -1.322917 z m 1.984375,2.645834 0.992187,3.96875 h -1.984375 z" />
    <path
       id="path139088"
       style="fill:#5631de;fill-opacity:1;stroke:none;stroke-width:0.264583px;stroke-linecap:butt;stroke-linejoin:miter;stroke-opacity:1"
       d="M 22.754166,12.964584 V 23.547917 H 25.4 V 18.25625 l 2.38125,5.291667 h 0.264583 2.38125 0.264583 V 12.964584 h -2.645833 v 5.820833 L 25.4,12.964584 Z"
       sodipodi:nodetypes="ccccccccccccc" />
    <path
       id="path139090"
       style="fill:#f3f817;fill-opacity:1;stroke:none;stroke-width:0.264583px;stroke-linecap:butt;stroke-linejoin:miter;stroke-opacity:1"
       d="m 33.3375,12.964584 2.645833,10.583334 h 1.058333 1.5875 1.058334 L 42.333333,12.964584 H 39.6875 l -1.852084,7.408334 -1.852083,-7.408334 z" />
    <path
       style="fill:#f81717;fill-opacity:1;stroke:none;stroke-width:0.264583px;stroke-linecap:butt;stroke-linejoin:miter;stroke-opacity:1"
       d="m 45.24375,12.964583 v 10.583334 h 2.645833 V 12.964583 H 45.24375"
       id="path139092" />
    <path
       id="path139094"
       style="fill:#31de57;fill-opacity:1;stroke:none;stroke-width:0.264583px;stroke-linecap:butt;stroke-linejoin:miter;stroke-opacity:1"
       d="m 50.535416,12.964584 v 7.9375 2.645833 h 2.645833 3.96875 v -2.645833 h -3.96875 v -7.9375 z" />
    <path
       style="fill:#702a2a;fill-opacity:1;stroke:none;stroke-width:0.264583px;stroke-linecap:butt;stroke-linejoin:miter;stroke-opacity:1"
       d="m 14.485937,19.579167 0.992187,-3.96875 0.664377,2.657506 -0.267501,1.311244 z"
       id="path139096"
       sodipodi:nodetypes="ccccc" />
    <path
       style="display:inline;fill:#5e3636;fill-opacity:1;stroke:#ffffff;stroke-width:0.13229167;stroke-linecap:butt;stroke-linejoin:miter;stroke-opacity:1;stroke-miterlimit:4;stroke-dasharray:none"
       d="m 8.73125,42.862499 1.322917,1.322916 H 12.7 L 11.377084,42.862499 H 8.73125"
       id="path139163" />
    <path
       style="display:inline;fill:#702a2a;fill-opacity:1;stroke:#ffffff;stroke-width:0.13229167;stroke-linecap:butt;stroke-linejoin:miter;stroke-opacity:1;stroke-miterlimit:4;stroke-dasharray:none"
       d="M 12.7,44.185415 13.361459,41.539582 12.038542,40.216665 11.377084,42.862499 12.7,44.185415"
       id="path139165" />
    <path
       style="display:inline;fill:#5e3636;fill-opacity:1;stroke:#ffffff;stroke-width:0.13229167;stroke-linecap:butt;stroke-linejoin:miter;stroke-opacity:1;stroke-miterlimit:4;stroke-dasharray:none"
       d="m 15.345833,42.862499 1.322917,1.322916 h 2.645833 l -1.322916,-1.322916 h -2.645834"
       id="path139167" />
    <path
       style="display:inline;fill:#b21a1a;fill-opacity:1;stroke:#ffffff;stroke-width:0.13229167;stroke-linecap:butt;stroke-linejoin:miter;stroke-opacity:1;stroke-miterlimit:4;stroke-dasharray:none"
       d="m 15.345833,32.279165 1.322917,1.322917 2.645833,10.583333 -1.322916,-1.322916 z"
       id="path139169" />
    <path
       style="display:inline;fill:#5e3636;fill-opacity:1;stroke:#ffffff;stroke-width:0.13229167;stroke-linecap:butt;stroke-linejoin:miter;stroke-opacity:1;stroke-miterlimit:4;stroke-dasharray:none"
       d="m 13.361459,41.539582 h 1.647444 l -0.324528,-1.322917 h -2.645833 z"
       id="path139171"
       sodipodi:nodetypes="ccccc" />
    <path
       style="display:inline;fill:#3f365e;fill-opacity:1;stroke:#ffffff;stroke-width:0.13229167;stroke-linecap:butt;stroke-linejoin:miter;stroke-opacity:1;stroke-miterlimit:4;stroke-dasharray:none"
       d="m 20.6375,42.862499 1.322917,1.322916 H 24.60625 L 23.283333,42.862499 H 20.6375"
       id="path139173" />
    <path
       style="display:inline;fill:#392a70;fill-opacity:1;stroke:#ffffff;stroke-width:0.13229167;stroke-linecap:butt;stroke-linejoin:miter;stroke-opacity:1;stroke-miterlimit:4;stroke-dasharray:none"
       d="m 24.60625,44.185415 v -3.704166 l -1.322917,-2.910417 v 5.291667 z"
       id="path139175"
       sodipodi:nodetypes="ccccc" />
    <path
       style="display:inline;fill:#584e7e;fill-opacity:1;stroke:#ffffff;stroke-width:0.13229167;stroke-linecap:butt;stroke-linejoin:miter;stroke-opacity:1;stroke-miterlimit:4;stroke-dasharray:none"
       d="m 25.664583,42.862499 1.322917,1.322916 h 2.910417 V 33.602082 L 28.575,32.279165 v 10.583334 z"
       id="path139177" />
    <path
       style="display:inline;fill:#392a70;fill-opacity:1;stroke:#ffffff;stroke-width:0.13229167;stroke-linecap:butt;stroke-linejoin:miter;stroke-opacity:1;stroke-miterlimit:4;stroke-dasharray:none"
       d="m 23.283333,32.279165 1.322917,1.322917 1.322917,2.645833 v 1.852084 z"
       id="path139179" />
    <path
       style="display:inline;fill:#64652f;fill-opacity:1;stroke:#ffffff;stroke-width:0.13229167;stroke-linecap:butt;stroke-linejoin:miter;stroke-opacity:1;stroke-miterlimit:4;stroke-dasharray:none"
       d="m 33.866667,42.862499 1.322916,1.322916 h 3.704167 l -1.322917,-1.322916 z"
       id="path139181" />
    <path
       style="display:inline;fill:#a1a329;fill-opacity:1;stroke:#ffffff;stroke-width:0.13229167;stroke-linecap:butt;stroke-linejoin:miter;stroke-opacity:1;stroke-miterlimit:4;stroke-dasharray:none"
       d="M 38.89375,44.185415 41.539583,33.602082 40.216666,32.279165 37.570833,42.862499 Z"
       id="path139183" />
    <path
       style="display:inline;fill:#777a20;fill-opacity:1;stroke:#ffffff;stroke-width:0.13229167;stroke-linecap:butt;stroke-linejoin:miter;stroke-opacity:1;stroke-miterlimit:4;stroke-dasharray:none"
       d="m 33.866667,32.279165 1.322916,1.322917 1.058334,4.233333 -0.529167,1.852084 z"
       id="path139185"
       sodipodi:nodetypes="ccccc" />
    <path
       style="display:inline;fill:#5e3636;fill-opacity:1;stroke:#ffffff;stroke-width:0.13229167;stroke-linecap:butt;stroke-linejoin:miter;stroke-opacity:1;stroke-miterlimit:4;stroke-dasharray:none"
       d="M 43.127083,42.862499 44.45,44.185415 h 2.645833 l -1.322917,-1.322916 h -2.645833"
       id="path139187" />
    <path
       style="display:inline;fill:#b21a1a;fill-opacity:1;stroke:#ffffff;stroke-width:0.13229167;stroke-linecap:butt;stroke-linejoin:miter;stroke-opacity:1;stroke-miterlimit:4;stroke-dasharray:none"
       d="M 47.095833,44.185415 V 33.602082 l -1.322917,-1.322917 v 10.583334 l 1.322917,1.322916"
       id="path139189" />
    <path
       style="display:inline;fill:#365e3f;fill-opacity:1;stroke:#ffffff;stroke-width:0.13229167;stroke-linecap:butt;stroke-linejoin:miter;stroke-opacity:1;stroke-miterlimit:4;stroke-dasharray:none"
       d="m 48.41875,42.862499 1.322916,1.322916 H 56.35625 L 55.033333,42.862499 H 48.41875"
       id="path139191" />
    <path
       style="display:inline;fill:#4e7e58;fill-opacity:1;stroke:#ffffff;stroke-width:0.13229167;stroke-linecap:butt;stroke-linejoin:miter;stroke-opacity:1;stroke-miterlimit:4;stroke-dasharray:none"
       d="m 55.033333,40.216665 1.322917,1.322917 v 2.645833 l -1.322917,-1.322916 v -2.645834"
       id="path139193" />
    <path
       style="display:inline;fill:#4e7e58;fill-opacity:1;stroke:#ffffff;stroke-width:0.13229167;stroke-linecap:butt;stroke-linejoin:miter;stroke-opacity:1;stroke-miterlimit:4;stroke-dasharray:none"
       d="m 51.064583,32.279165 1.322917,1.322917 v 6.614583 h -1.322917 v -7.9375"
       id="path139195" />
    <path
       style="display:inline;fill:#3f365e;fill-opacity:1;stroke:#ffffff;stroke-width:0.13229167;stroke-linecap:butt;stroke-linejoin:miter;stroke-opacity:1;stroke-miterlimit:4;stroke-dasharray:none"
       d="m 25.664583,42.862499 1.322917,1.322916 h 2.910417 L 28.575,42.862499 Z"
       id="path139197" />
    <path
       id="path139199"
       style="fill:#f81717;fill-opacity:1;stroke:#ffffff;stroke-width:0.13229167;stroke-linecap:butt;stroke-linejoin:miter;stroke-opacity:1;stroke-miterlimit:4;stroke-dasharray:none"
       d="M 11.377083,32.279165 8.7312502,42.862498 h 2.6458328 l 0.661459,-2.645833 h 2.645833 l 0.661458,2.645833 h 2.645834 L 15.345833,32.279165 H 14.022917 12.7 Z m 1.984375,2.645834 0.992188,3.96875 h -1.984375 z" />
    <path
       id="path139201"
       style="fill:#5631de;fill-opacity:1;stroke:#ffffff;stroke-width:0.13229167;stroke-linecap:butt;stroke-linejoin:miter;stroke-opacity:1;stroke-miterlimit:4;stroke-dasharray:none"
       d="m 20.6375,32.279166 v 10.583333 h 2.645834 v -5.291667 l 2.38125,5.291667 h 0.264583 2.38125 H 28.575 V 32.279166 h -2.645833 v 5.820833 l -2.645833,-5.820833 z"
       sodipodi:nodetypes="ccccccccccccc" />
    <path
       id="path139203"
       style="fill:#f3f817;fill-opacity:1;stroke:#ffffff;stroke-width:0.13229167;stroke-linecap:butt;stroke-linejoin:miter;stroke-opacity:1;stroke-miterlimit:4;stroke-dasharray:none"
       d="M 31.220834,32.279166 33.866667,42.8625 H 34.925 36.5125 37.570834 L 40.216667,32.279166 H 37.570834 L 35.71875,39.6875 33.866667,32.279166 Z" />
    <path
       style="fill:#f81717;fill-opacity:1;stroke:#ffffff;stroke-width:0.13229167;stroke-linecap:butt;stroke-linejoin:miter;stroke-opacity:1;stroke-miterlimit:4;stroke-dasharray:none"
       d="m 43.127084,32.279165 v 10.583334 h 2.645833 V 32.279165 h -2.645833"
       id="path139205" />
    <path
       id="path139207"
       style="fill:#31de57;fill-opacity:1;stroke:#ffffff;stroke-width:0.13229167;stroke-linecap:butt;stroke-linejoin:miter;stroke-opacity:1;stroke-miterlimit:4;stroke-dasharray:none"
       d="m 48.41875,32.279166 v 7.9375 2.645833 h 2.645833 3.96875 v -2.645833 h -3.96875 v -7.9375 z" />
    <path
       style="fill:#702a2a;fill-opacity:1;stroke:#ffffff;stroke-width:0.13229167;stroke-linecap:butt;stroke-linejoin:miter;stroke-opacity:1;stroke-miterlimit:4;stroke-dasharray:none"
       d="m 12.369271,38.893749 0.992187,-3.96875 0.664377,2.657506 -0.267501,1.311244 z"
       id="path139209"
       sodipodi:nodetypes="ccccc" />
    <path
       id="path148537"
       style="fill:#f81717;stroke:none;stroke-width:0.999999px;stroke-linecap:butt;stroke-linejoin:miter;stroke-opacity:1;fill-opacity:1"
       d="m 285,50.000001 -10,40 h 15 l 1.51387,-10 6.881,0 L 300,90 l 15,10e-7 -10,-40 z m 10,10 1.51386,10 -3.51386,10e-7 z"
       transform="scale(0.26458333)"
       sodipodi:nodetypes="ccccccccccccc" />
    <path
       id="path149765"
       style="fill:#5631de;stroke:none;stroke-width:0.264583px;stroke-linecap:butt;stroke-linejoin:miter;stroke-opacity:1;fill-opacity:1"
       d="M 84.666667,13.229167 V 23.8125 h 3.96875 V 18.773014 L 91.28125,23.8125 H 93.927083 95.25 V 13.229167 h -3.96875 v 5.291666 l -2.645833,-5.291666 z" />
    <path
       id="path151507"
       style="fill:#f3f817;stroke:none;stroke-width:0.264583px;stroke-linecap:butt;stroke-linejoin:miter;stroke-opacity:1;fill-opacity:1"
       d="M 96.572917,13.229167 99.21875,23.8125 h 1.32292 2.64583 1.32292 l 2.64583,-10.583333 h -3.96875 l -1.32292,5.291666 -1.32291,-5.291666 z" />
    <path
       style="fill:#f81717;stroke:none;stroke-width:0.264583px;stroke-linecap:butt;stroke-linejoin:miter;stroke-opacity:1;fill-opacity:1"
       d="M 108.47917,13.229167 V 23.8125 h 3.96875 V 13.229167 h -3.96875"
       id="path152638" />
    <path
       id="path152640"
       style="fill:#31de57;stroke:none;stroke-width:0.999999px;stroke-linecap:butt;stroke-linejoin:miter;stroke-opacity:1;fill-opacity:1"
       d="m 430,50 v 25 15 h 15 l 15.00001,10e-7 v -15 L 445,75 V 50 Z"
       transform="scale(0.26458333)"
       sodipodi:nodetypes="ccccccccc" />
    <path
       id="path162479"
       style="fill:#f81717;fill-opacity:1;stroke:#ffffff;stroke-width:0.264583px;stroke-linecap:butt;stroke-linejoin:miter;stroke-opacity:1"
       d="m 75.406249,31.75 -2.645833,10.583334 h 3.96875 L 77.12971,39.6875 h 1.820598 l 0.424691,2.645833 3.96875,10e-7 L 80.697916,31.75 Z m 2.645833,2.645834 0.400542,2.645833 h -0.929708 z"
       sodipodi:nodetypes="ccccccccccccc" />
    <path
       id="path162481"
       style="fill:#5631de;fill-opacity:1;stroke:#ffffff;stroke-width:0.264583px;stroke-linecap:butt;stroke-linejoin:miter;stroke-opacity:1"
       d="m 85.989583,31.49782 v 10.583333 h 3.96875 v -5.039486 l 2.645833,5.039486 h 2.645833 1.322917 V 31.49782 h -3.96875 v 5.291666 L 89.958333,31.49782 Z" />
    <path
       id="path162483"
       style="fill:#f3f817;fill-opacity:1;stroke:#ffffff;stroke-width:0.264583px;stroke-linecap:butt;stroke-linejoin:miter;stroke-opacity:1"
       d="m 99.218757,31.750001 2.645833,10.583333 h 1.32292 2.64583 1.32292 l 2.64583,-10.583333 h -3.96875 l -1.32292,5.291666 -1.32291,-5.291666 z" />
    <path
       style="fill:#f81717;fill-opacity:1;stroke:#ffffff;stroke-width:0.264583px;stroke-linecap:butt;stroke-linejoin:miter;stroke-opacity:1"
       d="m 112.44792,31.75 v 10.583333 h 3.96875 V 31.75 h -3.96875"
       id="path162485" />
    <path
       id="path162487"
       style="fill:#31de57;fill-opacity:1;stroke:#ffffff;stroke-width:0.264583px;stroke-linecap:butt;stroke-linejoin:miter;stroke-opacity:1"
       d="m 119.0625,31.75 v 6.614583 3.96875 h 3.96875 l 3.96875,10e-7 v -3.96875 l -3.96875,-10e-7 V 31.75 Z"
       sodipodi:nodetypes="ccccccccc" />
    <path
       id="path924"
       style="fill:#000000;fill-opacity:1;stroke:none;stroke-width:0.264583px;stroke-linecap:butt;stroke-linejoin:miter;stroke-opacity:1"
       d="M 173.30208,9.2604164 170.65625,19.84375 h 3.96875 l 0.40054,-2.645834 h 1.8206 l 0.42469,2.645833 3.96875,1e-6 -2.64583,-10.5833336 z m 2.64583,2.6458336 0.40054,2.645833 h -0.9297 z"
       sodipodi:nodetypes="ccccccccccccc" />
    <path
       id="path926"
       style="fill:#000000;fill-opacity:1;stroke:none;stroke-width:0.264583px;stroke-linecap:butt;stroke-linejoin:miter;stroke-opacity:1"
       d="M 182.5625,9.2604167 V 19.84375 h 3.96875 v -5.039486 l 2.64583,5.039486 h 2.64583 1.32292 V 9.2604167 h -3.96875 v 5.2916663 l -2.64583,-5.2916663 z" />
    <path
       id="path928"
       style="fill:#000000;fill-opacity:1;stroke:none;stroke-width:0.264583px;stroke-linecap:butt;stroke-linejoin:miter;stroke-opacity:1"
       d="m 194.46875,9.2604167 2.64583,10.5833333 h 1.32292 2.64583 1.32292 l 2.64583,-10.5833333 h -3.96875 l -1.32292,5.2916663 -1.32291,-5.2916663 z" />
    <path
       style="fill:#000000;fill-opacity:1;stroke:none;stroke-width:0.13229167;stroke-linecap:butt;stroke-linejoin:bevel;stroke-opacity:1;stroke-miterlimit:4;stroke-dasharray:none"
       d="M 206.375,9.2604167 V 19.84375 h 3.96875 V 9.2604167 H 206.375"
       id="path930" />
    <path
       id="path932"
       style="fill:#000000;fill-opacity:1;stroke:none;stroke-width:0.13229167;stroke-linecap:butt;stroke-linejoin:bevel;stroke-opacity:1;stroke-miterlimit:4;stroke-dasharray:none"
       d="m 211.66666,9.2604162 v 6.6145828 3.96875 h 3.96875 l 3.96875,1e-6 V 15.875 l -3.96875,-10e-7 V 9.2604162 Z"
       sodipodi:nodetypes="ccccccccc" />
    <path
       style="fill:none;stroke:#000000;stroke-width:0.13229167;stroke-linecap:round;stroke-linejoin:bevel;stroke-opacity:1;stroke-miterlimit:4;stroke-dasharray:none"
       d="m 170.65625,19.84375 0.52916,0.529166 h 3.96875 L 174.625,19.84375 h -3.96875"
       id="path1018" />
    <path
       style="fill:none;stroke:#000000;stroke-width:0.132292;stroke-linecap:round;stroke-linejoin:bevel;stroke-miterlimit:4;stroke-dasharray:none;stroke-opacity:1"
       d="m 175.15416,20.372916 0.39657,-2.616912 -0.51661,-0.571579 -0.40912,2.659325"
       id="path1372"
       sodipodi:nodetypes="cccc" />
    <path
       style="fill:none;stroke:#000000;stroke-width:0.132292;stroke-linecap:round;stroke-linejoin:bevel;stroke-miterlimit:4;stroke-dasharray:none;stroke-opacity:1"
       d="m 175.02554,17.197916 0.52519,0.558088 1.7201,-1.5e-5 -0.42469,-0.55811 z"
       id="path1844"
       sodipodi:nodetypes="ccccc" />
    <path
       style="fill:none;stroke:#000000;stroke-width:0.13229167;stroke-linecap:round;stroke-linejoin:bevel;stroke-opacity:1;stroke-miterlimit:4;stroke-dasharray:none"
       d="M 177.27083,19.843749 177.8,20.372916 h 3.96875 l -0.52917,-0.529166 z"
       id="path2050" />
    <path
       style="fill:none;stroke:#000000;stroke-width:0.13229167;stroke-linecap:butt;stroke-linejoin:bevel;stroke-opacity:1;stroke-miterlimit:4;stroke-dasharray:none"
       d="m 178.59375,9.2604166 0.52916,0.5291666 2.64584,10.5833328 -0.52917,-0.529166 z"
       id="path2052" />
    <path
       style="fill:none;stroke:#000000;stroke-width:0.132292;stroke-linecap:round;stroke-linejoin:bevel;stroke-miterlimit:4;stroke-dasharray:none;stroke-opacity:1"
       d="m 175.94791,14.552083 h -0.52916 l 0.52916,-2.645833 0.19068,1.229373 z"
       id="path2089"
       sodipodi:nodetypes="ccccc" />
    <path
       style="fill:none;stroke:#000000;stroke-width:0.132292;stroke-linecap:butt;stroke-linejoin:bevel;stroke-miterlimit:4;stroke-dasharray:none;stroke-opacity:1"
       d="m 182.5625,19.84375 0.52916,0.529166 h 3.96875 l -0.52916,-0.529166 h -3.96875"
       id="path3061"
       sodipodi:nodetypes="ccccc" />
    <path
       style="fill:none;stroke:#000000;stroke-width:0.132292;stroke-linecap:butt;stroke-linejoin:bevel;stroke-miterlimit:4;stroke-dasharray:none;stroke-opacity:1"
       d="m 187.06041,20.372916 v -4.597135 l -0.52916,-0.959115 v 5.027084 l 0.52916,0.529166"
       id="path3063"
       sodipodi:nodetypes="ccccc" />
    <path
       style="fill:none;stroke:#000000;stroke-width:0.132292;stroke-linecap:butt;stroke-linejoin:bevel;stroke-miterlimit:4;stroke-dasharray:none;stroke-opacity:1"
       d="m 189.17708,19.84375 0.52917,0.529166 h 3.96875 l -0.52917,-0.529166 h -3.96875"
       id="path3065"
       sodipodi:nodetypes="ccccc" />
    <path
       style="fill:none;stroke:#000000;stroke-width:0.132292;stroke-linecap:butt;stroke-linejoin:bevel;stroke-miterlimit:4;stroke-dasharray:none;stroke-opacity:1"
       d="m 193.14583,19.84375 0.52917,0.529166 V 9.7895832 l -0.52917,-0.5291666 z"
       id="path3067"
       sodipodi:nodetypes="ccccc" />
    <path
       style="fill:none;stroke:#000000;stroke-width:0.132292;stroke-linecap:butt;stroke-linejoin:bevel;stroke-miterlimit:4;stroke-dasharray:none;stroke-opacity:1"
       d="m 186.53125,9.2604166 0.52916,0.5291666 2.11667,4.2333338 0,0.529166 z"
       id="path3069"
       sodipodi:nodetypes="ccccc" />
    <path
       style="fill:none;stroke:#000000;stroke-width:0.13229167;stroke-linecap:butt;stroke-linejoin:bevel;stroke-opacity:1;stroke-miterlimit:4;stroke-dasharray:none"
       d="m 198.4375,9.2604166 0.52916,0.5291666 1.05834,3.9687498 -0.26459,0.79375 -1.32291,-5.2916664"
       id="path3430" />
    <path
       style="fill:none;stroke:#000000;stroke-width:0.13229167;stroke-linecap:butt;stroke-linejoin:bevel;stroke-opacity:1;stroke-miterlimit:4;stroke-dasharray:none"
       d="m 197.64375,20.372916 h 5.29166 l -0.52916,-0.529166 h -5.29167 z"
       id="path3432" />
    <path
       style="fill:none;stroke:#000000;stroke-width:0.13229167;stroke-linecap:butt;stroke-linejoin:bevel;stroke-opacity:1;stroke-miterlimit:4;stroke-dasharray:none"
       d="m 202.93541,20.372916 2.64584,-10.5833328 -0.52917,-0.5291666 -2.64583,10.5833334 0.52916,0.529166"
       id="path3434" />
    <path
       style="fill:none;stroke:#000000;stroke-width:0.13229167;stroke-linecap:butt;stroke-linejoin:bevel;stroke-opacity:1;stroke-miterlimit:4;stroke-dasharray:none"
       d="m 206.375,19.84375 0.52916,0.529166 h 3.96875 l -0.52916,-0.529166 z"
       id="path3436" />
    <path
       style="fill:none;stroke:#000000;stroke-width:0.13229167;stroke-linecap:butt;stroke-linejoin:bevel;stroke-opacity:1;stroke-miterlimit:4;stroke-dasharray:none"
       d="m 210.34375,19.84375 0.52916,0.529166 V 9.7895832 l -0.52916,-0.5291666 z"
       id="path3438" />
    <path
       style="fill:none;stroke:#000000;stroke-width:0.13229167;stroke-linecap:butt;stroke-linejoin:bevel;stroke-opacity:1;stroke-miterlimit:4;stroke-dasharray:none"
       d="m 215.63541,9.2604166 0.52917,0.5291666 V 15.875 h -0.52917 z"
       id="path3440" />
    <path
       style="fill:none;stroke:#000000;stroke-width:0.13229167;stroke-linecap:butt;stroke-linejoin:bevel;stroke-opacity:1;stroke-miterlimit:4;stroke-dasharray:none"
       d="m 212.19583,20.372916 h 7.9375 l -0.52917,-0.529166 -7.9375,-1e-6 0.52917,0.529167"
       id="path3442"
       sodipodi:nodetypes="ccccc" />
    <path
       style="fill:none;stroke:#000000;stroke-width:0.13229167;stroke-linecap:butt;stroke-linejoin:bevel;stroke-opacity:1;stroke-miterlimit:4;stroke-dasharray:none"
       d="m 219.60416,15.875 0.52917,0.529166 v 3.96875 l -0.52917,-0.529166 z"
       id="path3444" />
    <path
       style="fill:#5e3636;stroke:none;stroke-width:0.132292;stroke-linecap:round;stroke-linejoin:bevel;stroke-miterlimit:4;stroke-dasharray:none;stroke-opacity:1;fill-opacity:1"
       d="m 7.54429,-10.583334 0.52519,0.558088 1.7201,-1.5e-5 -0.42469,-0.55811 z"
       id="path3765"
       sodipodi:nodetypes="ccccc" />
    <path
       id="path3751"
       style="fill:#f81717;fill-opacity:1;stroke:none;stroke-width:0.264583px;stroke-linecap:butt;stroke-linejoin:miter;stroke-opacity:1"
       d="M 5.82083,-18.520833 3.175,-7.9374997 h 3.96875 l 0.40054,-2.6458343 h 1.8206 l 0.42469,2.6458333 3.96875,1e-6 L 11.1125,-18.520833 Z M 8.46666,-15.875 8.8672,-13.229167 H 7.9375 Z"
       sodipodi:nodetypes="ccccccccccccc" />
    <path
       id="path3753"
       style="fill:#5631de;fill-opacity:1;stroke:none;stroke-width:0.264583px;stroke-linecap:butt;stroke-linejoin:miter;stroke-opacity:1"
       d="M 15.08125,-18.520833 V -7.9374997 H 19.05 v -5.0394863 l 2.64583,5.0394863 h 2.64583 1.32292 V -18.520833 h -3.96875 v 5.291666 L 19.05,-18.520833 Z" />
    <path
       id="path3755"
       style="fill:#f3f817;fill-opacity:1;stroke:none;stroke-width:0.264583px;stroke-linecap:butt;stroke-linejoin:miter;stroke-opacity:1"
       d="m 26.9875,-18.520833 2.64583,10.5833333 h 1.32292 2.64583 1.32292 l 2.64583,-10.5833333 h -3.96875 l -1.32292,5.291666 -1.32291,-5.291666 z" />
    <path
       style="fill:#f81717;fill-opacity:1;stroke:none;stroke-width:0.132292;stroke-linecap:butt;stroke-linejoin:bevel;stroke-miterlimit:4;stroke-dasharray:none;stroke-opacity:1"
       d="M 38.89375,-18.520833 V -7.9374997 H 42.8625 V -18.520833 h -3.96875"
       id="path3757" />
    <path
       id="path3759"
       style="fill:#31de57;fill-opacity:1;stroke:none;stroke-width:0.132292;stroke-linecap:butt;stroke-linejoin:bevel;stroke-miterlimit:4;stroke-dasharray:none;stroke-opacity:1"
       d="m 44.18541,-18.520833 v 6.614582 3.9687503 h 3.96875 l 3.96875,1e-6 V -11.90625 l -3.96875,-10e-7 v -6.614582 z"
       sodipodi:nodetypes="ccccccccc" />
    <path
       style="fill:#5e3636;stroke:none;stroke-width:0.132292;stroke-linecap:round;stroke-linejoin:bevel;stroke-miterlimit:4;stroke-dasharray:none;stroke-opacity:1;fill-opacity:1"
       d="m 3.175,-7.9374997 0.52916,0.529166 H 7.67291 L 7.14375,-7.9374997 H 3.175"
       id="path3761" />
    <path
       style="fill:#702a2a;stroke:none;stroke-width:0.132292;stroke-linecap:round;stroke-linejoin:bevel;stroke-miterlimit:4;stroke-dasharray:none;stroke-opacity:1;fill-opacity:1"
       d="M 7.67291,-7.4083337 8.06948,-10.025246 7.55287,-10.596825 7.14375,-7.9374997"
       id="path3763"
       sodipodi:nodetypes="cccc" />
    <path
       style="fill:#5e3636;stroke:none;stroke-width:0.132292;stroke-linecap:round;stroke-linejoin:bevel;stroke-miterlimit:4;stroke-dasharray:none;stroke-opacity:1;fill-opacity:1"
       d="m 9.78958,-7.9375007 0.52917,0.529167 h 3.96875 l -0.52917,-0.529166 z"
       id="path3767" />
    <path
       style="fill:#b21a1a;stroke:none;stroke-width:0.132292;stroke-linecap:butt;stroke-linejoin:bevel;stroke-miterlimit:4;stroke-dasharray:none;stroke-opacity:1;fill-opacity:1"
       d="m 11.1125,-18.520833 0.52916,0.529167 2.64584,10.5833323 -0.52917,-0.529166 z"
       id="path3769" />
    <path
       style="fill:#702a2a;stroke:none;stroke-width:0.132292;stroke-linecap:round;stroke-linejoin:bevel;stroke-miterlimit:4;stroke-dasharray:none;stroke-opacity:1;fill-opacity:1"
       d="M 8.46666,-13.229167 H 7.9375 l 0.52916,-2.645833 0.19068,1.229373 z"
       id="path3771"
       sodipodi:nodetypes="ccccc" />
    <path
       style="fill:#3f365e;stroke:none;stroke-width:0.132292;stroke-linecap:butt;stroke-linejoin:bevel;stroke-miterlimit:4;stroke-dasharray:none;stroke-opacity:1;fill-opacity:1"
       d="m 15.08125,-7.9374997 0.52916,0.529166 h 3.96875 L 19.05,-7.9374997 h -3.96875"
       id="path3773"
       sodipodi:nodetypes="ccccc" />
    <path
       style="fill:#392a70;stroke:none;stroke-width:0.132292;stroke-linecap:butt;stroke-linejoin:bevel;stroke-miterlimit:4;stroke-dasharray:none;stroke-opacity:1;fill-opacity:1"
       d="M 19.57916,-7.4083337 V -12.005469 L 19.05,-12.964584 v 5.0270843 l 0.52916,0.529166"
       id="path3775"
       sodipodi:nodetypes="ccccc" />
    <path
       style="fill:#3f365e;stroke:none;stroke-width:0.132292;stroke-linecap:butt;stroke-linejoin:bevel;stroke-miterlimit:4;stroke-dasharray:none;stroke-opacity:1;fill-opacity:1"
       d="m 21.69583,-7.9374997 0.52917,0.529166 h 3.96875 l -0.52917,-0.529166 h -3.96875"
       id="path3777"
       sodipodi:nodetypes="ccccc" />
    <path
       style="fill:#584e7e;stroke:none;stroke-width:0.132292;stroke-linecap:butt;stroke-linejoin:bevel;stroke-miterlimit:4;stroke-dasharray:none;stroke-opacity:1;fill-opacity:1"
       d="m 25.66458,-7.9374997 0.52917,0.529166 V -17.991666 l -0.52917,-0.529167 z"
       id="path3779"
       sodipodi:nodetypes="ccccc" />
    <path
       style="fill:#392a70;stroke:none;stroke-width:0.132292;stroke-linecap:butt;stroke-linejoin:bevel;stroke-miterlimit:4;stroke-dasharray:none;stroke-opacity:1;fill-opacity:1"
       d="m 19.05,-18.520833 0.52916,0.529167 2.11667,4.233333 v 0.529166 z"
       id="path3781"
       sodipodi:nodetypes="ccccc" />
    <path
       style="fill:#777a20;stroke:none;stroke-width:0.132292;stroke-linecap:butt;stroke-linejoin:bevel;stroke-miterlimit:4;stroke-dasharray:none;stroke-opacity:1;fill-opacity:1"
       d="m 30.95625,-18.520833 0.52916,0.529167 1.05834,3.968749 -0.26459,0.79375 -1.32291,-5.291666"
       id="path3783" />
    <path
       style="fill:#64652f;stroke:none;stroke-width:0.132292;stroke-linecap:butt;stroke-linejoin:bevel;stroke-miterlimit:4;stroke-dasharray:none;stroke-opacity:1;fill-opacity:1"
       d="m 30.1625,-7.4083337 h 5.29166 L 34.925,-7.9374997 h -5.29167 z"
       id="path3785" />
    <path
       style="fill:#a1a329;stroke:none;stroke-width:0.132292;stroke-linecap:butt;stroke-linejoin:bevel;stroke-miterlimit:4;stroke-dasharray:none;stroke-opacity:1;fill-opacity:1"
       d="M 35.45416,-7.4083337 38.1,-17.991666 37.57083,-18.520833 34.925,-7.9374997 l 0.52916,0.529166"
       id="path3787" />
    <path
       style="fill:#5e3636;stroke:none;stroke-width:0.132292;stroke-linecap:butt;stroke-linejoin:bevel;stroke-miterlimit:4;stroke-dasharray:none;stroke-opacity:1;fill-opacity:1"
       d="m 38.89375,-7.9374997 0.52916,0.529166 h 3.96875 l -0.52916,-0.529166 z"
       id="path3789" />
    <path
       style="fill:#b21a1a;stroke:none;stroke-width:0.132292;stroke-linecap:butt;stroke-linejoin:bevel;stroke-miterlimit:4;stroke-dasharray:none;stroke-opacity:1;fill-opacity:1"
       d="m 42.8625,-7.9374997 0.52916,0.529166 V -17.991666 l -0.52916,-0.529167 z"
       id="path3791" />
    <path
       style="fill:#4e7e58;stroke:none;stroke-width:0.132292;stroke-linecap:butt;stroke-linejoin:bevel;stroke-miterlimit:4;stroke-dasharray:none;stroke-opacity:1;fill-opacity:1"
       d="m 48.15416,-18.520833 0.52917,0.529167 v 6.085416 h -0.52917 z"
       id="path3793" />
    <path
       style="fill:#365e3f;stroke:none;stroke-width:0.132292;stroke-linecap:butt;stroke-linejoin:bevel;stroke-miterlimit:4;stroke-dasharray:none;stroke-opacity:1;fill-opacity:1"
       d="m 44.71458,-7.4083337 h 7.9375 l -0.52917,-0.529166 -7.9375,-1e-6 0.52917,0.529167"
       id="path3795"
       sodipodi:nodetypes="ccccc" />
    <path
       style="fill:#4e7e58;stroke:none;stroke-width:0.132292;stroke-linecap:butt;stroke-linejoin:bevel;stroke-miterlimit:4;stroke-dasharray:none;stroke-opacity:1;fill-opacity:1"
       d="m 52.12291,-11.90625 0.52917,0.529166 v 3.9687503 l -0.52917,-0.529166 z"
       id="path3797" />
  </g>
  <g
     inkscape:groupmode="layer"
     id="layer11"
     inkscape:label="highlights"
     style="display:inline">
    <g
       id="g139161"
       transform="translate(9.9999999e-7,17.197918)">
      <g
         id="g139048"
         transform="translate(0.264583,9.2604156)"
         style="display:inline">
        <path
           style="display:inline;fill:#5e3636;fill-opacity:1;stroke:none;stroke-width:0.264583px;stroke-linecap:butt;stroke-linejoin:miter;stroke-opacity:1"
           d="m 10.583333,39.6875 1.322917,1.322916 h 2.645833 L 13.229167,39.6875 h -2.645834"
           id="path121043" />
        <path
           style="display:inline;fill:#702a2a;fill-opacity:1;stroke:none;stroke-width:0.264583px;stroke-linecap:butt;stroke-linejoin:miter;stroke-opacity:1"
           d="m 14.552083,41.010416 0.661459,-2.645833 -1.322917,-1.322917 -0.661458,2.645834 1.322916,1.322916"
           id="path121045" />
        <path
           style="display:inline;fill:#5e3636;fill-opacity:1;stroke:none;stroke-width:0.264583px;stroke-linecap:butt;stroke-linejoin:miter;stroke-opacity:1"
           d="m 17.197916,39.6875 1.322917,1.322916 h 2.645833 L 19.84375,39.6875 h -2.645834"
           id="path121047" />
        <path
           style="display:inline;fill:#b21a1a;fill-opacity:1;stroke:none;stroke-width:0.264583px;stroke-linecap:butt;stroke-linejoin:miter;stroke-opacity:1"
           d="m 17.197916,29.104166 1.322917,1.322917 2.645833,10.583333 L 19.84375,39.6875 Z"
           id="path121049" />
        <path
           style="display:inline;fill:#5e3636;fill-opacity:1;stroke:none;stroke-width:0.264583px;stroke-linecap:butt;stroke-linejoin:miter;stroke-opacity:1"
           d="m 15.213542,38.364583 h 1.647444 l -0.324528,-1.322917 h -2.645833 z"
           id="path121244"
           sodipodi:nodetypes="ccccc" />
        <path
           style="display:inline;fill:#3f365e;fill-opacity:1;stroke:none;stroke-width:0.264583px;stroke-linecap:butt;stroke-linejoin:miter;stroke-opacity:1"
           d="m 22.489583,39.6875 1.322917,1.322916 h 2.645833 L 25.135416,39.6875 h -2.645833"
           id="path122110" />
        <path
           style="display:inline;fill:#392a70;fill-opacity:1;stroke:none;stroke-width:0.264583px;stroke-linecap:butt;stroke-linejoin:miter;stroke-opacity:1"
           d="M 26.458333,41.010416 V 37.30625 L 25.135416,34.395833 V 39.6875 Z"
           id="path122112"
           sodipodi:nodetypes="ccccc" />
        <path
           style="display:inline;fill:#584e7e;fill-opacity:1;stroke:none;stroke-width:0.264583px;stroke-linecap:butt;stroke-linejoin:miter;stroke-opacity:1"
           d="m 27.516666,39.6875 1.322917,1.322916 H 31.75 V 30.427083 L 30.427083,29.104166 V 39.6875 Z"
           id="path122114" />
        <path
           style="display:inline;fill:#392a70;fill-opacity:1;stroke:none;stroke-width:0.264583px;stroke-linecap:butt;stroke-linejoin:miter;stroke-opacity:1"
           d="m 25.135416,29.104166 1.322917,1.322917 1.322917,2.645833 V 34.925 Z"
           id="path122118" />
        <path
           style="display:inline;fill:#64652f;fill-opacity:1;stroke:none;stroke-width:0.264583px;stroke-linecap:butt;stroke-linejoin:miter;stroke-opacity:1"
           d="m 35.71875,39.6875 1.322916,1.322916 h 3.704167 L 39.422916,39.6875 Z"
           id="path122519" />
        <path
           style="display:inline;fill:#a1a329;fill-opacity:1;stroke:none;stroke-width:0.264583px;stroke-linecap:butt;stroke-linejoin:miter;stroke-opacity:1"
           d="M 40.745833,41.010416 43.391666,30.427083 42.068749,29.104166 39.422916,39.6875 Z"
           id="path122521" />
        <path
           style="display:inline;fill:#777a20;fill-opacity:1;stroke:none;stroke-width:0.264583px;stroke-linecap:butt;stroke-linejoin:miter;stroke-opacity:1"
           d="M 35.71875,29.104166 37.041666,30.427083 38.1,34.660416 37.570833,36.5125 Z"
           id="path122523"
           sodipodi:nodetypes="ccccc" />
        <path
           style="display:inline;fill:#5e3636;fill-opacity:1;stroke:none;stroke-width:0.264583px;stroke-linecap:butt;stroke-linejoin:miter;stroke-opacity:1"
           d="m 44.979166,39.6875 1.322917,1.322916 h 2.645833 L 47.624999,39.6875 h -2.645833"
           id="path122808" />
        <path
           style="display:inline;fill:#b21a1a;fill-opacity:1;stroke:none;stroke-width:0.264583px;stroke-linecap:butt;stroke-linejoin:miter;stroke-opacity:1"
           d="M 48.947916,41.010416 V 30.427083 L 47.624999,29.104166 V 39.6875 l 1.322917,1.322916"
           id="path122810" />
        <path
           style="display:inline;fill:#365e3f;fill-opacity:1;stroke:none;stroke-width:0.264583px;stroke-linecap:butt;stroke-linejoin:miter;stroke-opacity:1"
           d="m 50.270833,39.6875 1.322916,1.322916 h 6.614584 L 56.885416,39.6875 h -6.614583"
           id="path122812" />
        <path
           style="display:inline;fill:#4e7e58;fill-opacity:1;stroke:none;stroke-width:0.264583px;stroke-linecap:butt;stroke-linejoin:miter;stroke-opacity:1"
           d="m 56.885416,37.041666 1.322917,1.322917 v 2.645833 L 56.885416,39.6875 v -2.645834"
           id="path122814" />
        <path
           style="display:inline;fill:#4e7e58;fill-opacity:1;stroke:none;stroke-width:0.264583px;stroke-linecap:butt;stroke-linejoin:miter;stroke-opacity:1"
           d="m 52.916666,29.104166 1.322917,1.322917 v 6.614583 h -1.322917 v -7.9375"
           id="path122816" />
        <path
           style="display:inline;fill:#3f365e;fill-opacity:1;stroke:none;stroke-width:0.264583px;stroke-linecap:butt;stroke-linejoin:miter;stroke-opacity:1"
           d="m 27.516666,39.6875 1.322917,1.322916 H 31.75 L 30.427083,39.6875 Z"
           id="path125643" />
        <path
           id="path119049"
           style="fill:#f81717;fill-opacity:1;stroke:none;stroke-width:0.999999px;stroke-linecap:butt;stroke-linejoin:miter;stroke-opacity:1"
           d="m 50,110 -10,40 h 10 l 2.5,-10 h 10 L 65,150 H 75 L 65,110 h -5 -5 z m 7.5,10 3.75,15 h -7.5 z"
           transform="scale(0.26458333)" />
        <path
           id="path119283"
           style="fill:#5631de;fill-opacity:1;stroke:none;stroke-width:0.264583px;stroke-linecap:butt;stroke-linejoin:miter;stroke-opacity:1"
           d="M 22.489583,29.104167 V 39.6875 h 2.645834 v -5.291667 l 2.38125,5.291667 h 0.264583 2.38125 0.264583 V 29.104167 H 27.78125 V 34.925 l -2.645833,-5.820833 z"
           sodipodi:nodetypes="ccccccccccccc" />
        <path
           id="path119655"
           style="fill:#f3f817;fill-opacity:1;stroke:none;stroke-width:0.264583px;stroke-linecap:butt;stroke-linejoin:miter;stroke-opacity:1"
           d="m 33.072917,29.104167 2.645833,10.583334 h 1.058333 1.5875 1.058334 L 42.06875,29.104167 h -2.645833 l -1.852084,7.408334 -1.852083,-7.408334 z" />
        <path
           style="fill:#f81717;fill-opacity:1;stroke:none;stroke-width:0.264583px;stroke-linecap:butt;stroke-linejoin:miter;stroke-opacity:1"
           d="M 44.979167,29.104166 V 39.6875 H 47.625 V 29.104166 h -2.645833"
           id="path119773" />
        <path
           id="path119775"
           style="fill:#31de57;fill-opacity:1;stroke:none;stroke-width:0.264583px;stroke-linecap:butt;stroke-linejoin:miter;stroke-opacity:1"
           d="m 50.270833,29.104167 v 7.9375 2.645833 h 2.645833 3.96875 v -2.645833 h -3.96875 v -7.9375 z" />
        <path
           style="fill:#702a2a;fill-opacity:1;stroke:none;stroke-width:0.264583px;stroke-linecap:butt;stroke-linejoin:miter;stroke-opacity:1"
           d="M 14.221354,35.71875 15.213541,31.75 15.877918,34.407506 15.610417,35.71875 Z"
           id="path121811"
           sodipodi:nodetypes="ccccc" />
      </g>
      <path
         style="display:inline;fill:none;stroke:#ffffff;stroke-width:0.132292;stroke-linecap:butt;stroke-linejoin:miter;stroke-miterlimit:4;stroke-dasharray:none;stroke-opacity:1;paint-order:fill markers stroke"
         d="m 17.462499,38.364582 2.645834,10.583334"
         id="path131452" />
      <path
         style="display:inline;fill:none;stroke:#ffffff;stroke-width:0.132292;stroke-linecap:butt;stroke-linejoin:miter;stroke-miterlimit:4;stroke-dasharray:none;stroke-opacity:1;paint-order:fill markers stroke"
         d="m 14.485937,44.979166 0.992187,-3.96875"
         id="path131520" />
      <path
         style="display:inline;fill:none;stroke:#ffffff;stroke-width:0.132292;stroke-linecap:butt;stroke-linejoin:miter;stroke-miterlimit:4;stroke-dasharray:none;stroke-opacity:1;paint-order:fill markers stroke"
         d="M 14.155208,46.302082 13.49375,48.947916"
         id="path131687" />
      <path
         style="display:inline;fill:none;stroke:#ffffff;stroke-width:0.132292;stroke-linecap:butt;stroke-linejoin:miter;stroke-miterlimit:4;stroke-dasharray:none;stroke-opacity:1;paint-order:fill markers stroke"
         d="m 25.4,43.656249 -10e-7,5.291667"
         id="path131915"
         sodipodi:nodetypes="cc" />
      <path
         style="display:inline;fill:none;stroke:#ffffff;stroke-width:0.132292;stroke-linecap:butt;stroke-linejoin:miter;stroke-miterlimit:4;stroke-dasharray:none;stroke-opacity:1;paint-order:fill markers stroke"
         d="M 30.691666,38.364582 V 48.947916"
         id="path131950" />
      <path
         style="display:inline;fill:none;stroke:#ffffff;stroke-width:0.132292;stroke-linecap:butt;stroke-linejoin:miter;stroke-miterlimit:4;stroke-dasharray:none;stroke-opacity:1;paint-order:fill markers stroke"
         d="m 25.4,38.364582 2.645833,5.820834"
         id="path131985" />
      <path
         style="display:inline;fill:none;stroke:#ffffff;stroke-width:0.132292;stroke-linecap:butt;stroke-linejoin:miter;stroke-miterlimit:4;stroke-dasharray:none;stroke-opacity:1;paint-order:fill markers stroke"
         d="m 35.983333,38.364582 1.852083,7.408334"
         id="path132228" />
      <path
         style="display:inline;fill:none;stroke:#ffffff;stroke-width:0.132292;stroke-linecap:butt;stroke-linejoin:miter;stroke-miterlimit:4;stroke-dasharray:none;stroke-opacity:1;paint-order:fill markers stroke"
         d="M 42.333332,38.364582 39.687499,48.947916"
         id="path132263" />
      <path
         style="display:inline;fill:none;stroke:#ffffff;stroke-width:0.132292;stroke-linecap:butt;stroke-linejoin:miter;stroke-miterlimit:4;stroke-dasharray:none;stroke-opacity:1;paint-order:fill markers stroke"
         d="M 47.889582,38.364582 V 48.947916"
         id="path132298" />
      <path
         style="display:inline;fill:none;stroke:#ffffff;stroke-width:0.132292;stroke-linecap:butt;stroke-linejoin:miter;stroke-miterlimit:4;stroke-dasharray:none;stroke-opacity:1;paint-order:fill markers stroke"
         d="m 53.181249,38.364582 v 7.9375"
         id="path132333" />
      <path
         style="display:inline;fill:none;stroke:#ffffff;stroke-width:0.132292;stroke-linecap:butt;stroke-linejoin:miter;stroke-miterlimit:4;stroke-dasharray:none;stroke-opacity:1;paint-order:fill markers stroke"
         d="m 57.149999,46.302082 v 2.645834"
         id="path132368" />
    </g>
  </g>
</svg>
