<?xml version="1.0" encoding="utf-8"?>
<!-- Generator: Adobe Illustrator 27.0.0, SVG Export Plug-In . SVG Version: 6.00 Build 0)  -->
<svg version="1.1" xmlns="http://www.w3.org/2000/svg" xmlns:xlink="http://www.w3.org/1999/xlink" x="0px" y="0px"
	 viewBox="0 0 1600 742" style="enable-background:new 0 0 1600 742;" xml:space="preserve">
<style type="text/css">
	.st0{clip-path:url(#SVGID_00000088841127856774975870000005723934891505165998_);}
	.st1{fill:url(#SVGID_00000021810779245534595150000013796633227121815692_);}
	.st2{fill:url(#SVGID_00000178895214778934397730000007646448842337716137_);}
	.st3{opacity:0.3;fill:url(#SVGID_00000154404889669484815470000014748414925644650894_);enable-background:new    ;}
	.st4{opacity:0.3;fill:url(#SVGID_00000004541243841506623790000007530996266528115379_);enable-background:new    ;}
	.st5{opacity:0.3;fill:url(#SVGID_00000129924017904293890960000010831049154420322464_);enable-background:new    ;}
	.st6{fill:#FFD297;}
	.st7{fill:#9C9EF9;}
	.st8{fill:#8E37F5;}
	.st9{fill:#712CCA;}
	.st10{fill:#FFFFFF;}
	.st11{opacity:0.39;fill:url(#SVGID_00000165937884263514199830000004098813723946965149_);enable-background:new    ;}
	.st12{fill:#E9E9E9;}
	.st13{opacity:0.17;fill:#0000FF;enable-background:new    ;}
	.st14{fill:#EF843D;}
	.st15{fill:#8C563F;}
	.st16{fill:#452313;}
	.st17{fill:#703A1B;}
	.st18{opacity:0.27;fill:#FFFFFF;enable-background:new    ;}
	.st19{opacity:0.46;fill:#A54400;enable-background:new    ;}
	.st20{fill:#5637A2;}
	.st21{fill:none;stroke:url(#SVGID_00000173856367176196225570000003693994584024104597_);stroke-width:1.91;stroke-miterlimit:10;}
	.st22{opacity:0.58;fill:#5C24AB;enable-background:new    ;}
	.st23{opacity:0.72;fill:url(#SVGID_00000031917865001489064590000012834838932748189593_);enable-background:new    ;}
	.st24{opacity:0.72;fill:url(#SVGID_00000105420844389655382160000015097176665025540287_);enable-background:new    ;}
	.st25{opacity:0.72;fill:url(#SVGID_00000122716000394181431810000015099163346691707286_);enable-background:new    ;}
	.st26{opacity:0.72;fill:url(#SVGID_00000093856908951781730140000010175356528185404301_);enable-background:new    ;}
	.st27{opacity:0.72;fill:url(#SVGID_00000059996367010600750010000006608232621750476964_);enable-background:new    ;}
	.st28{fill:#63392A;}
	.st29{opacity:0.43;fill:url(#SVGID_00000043420502731374492630000001457614013190464917_);enable-background:new    ;}
	.st30{fill:#F1F3FF;}
</style>
<g id="Layer_1">
	<g>
		<defs>
			<rect id="SVGID_1_" width="1610" height="742"/>
		</defs>
		<clipPath id="SVGID_00000148632469315417024630000009042323636141853340_">
			<use xlink:href="#SVGID_1_"  style="overflow:visible;"/>
		</clipPath>
		<g style="clip-path:url(#SVGID_00000148632469315417024630000009042323636141853340_);">
			
				<linearGradient id="SVGID_00000054253316972801264470000016016700554459366575_" gradientUnits="userSpaceOnUse" x1="186.1675" y1="301.0277" x2="201.8385" y2="280.9627" gradientTransform="matrix(1 0 0 -1 0 744)">
				<stop  offset="0" style="stop-color:#3939FA"/>
				<stop  offset="1" style="stop-color:#ADADFF"/>
			</linearGradient>
			<path style="fill:url(#SVGID_00000054253316972801264470000016016700554459366575_);" d="M194.8,464.1c5.5,0,10-4.5,10-10
				c0-5.5-4.5-10-10-10c-5.5,0-10,4.5-10,10C184.8,459.6,189.3,464.1,194.8,464.1z"/>
			
				<linearGradient id="SVGID_00000146482536320666023830000010824264970718993547_" gradientUnits="userSpaceOnUse" x1="159.6643" y1="736.0624" x2="170.9983" y2="721.5521" gradientTransform="matrix(1 0 0 -1 0 744)">
				<stop  offset="0" style="stop-color:#FFE2BC"/>
				<stop  offset="1" style="stop-color:#FF7E21"/>
			</linearGradient>
			<path style="fill:url(#SVGID_00000146482536320666023830000010824264970718993547_);" d="M165.9,23.2c4,0,7.3-3.2,7.3-7.3
				s-3.2-7.3-7.3-7.3s-7.3,3.2-7.3,7.3S161.9,23.2,165.9,23.2z"/>
			
				<linearGradient id="SVGID_00000045599382746323120390000010251547328888635293_" gradientUnits="userSpaceOnUse" x1="1444.3898" y1="92.1526" x2="873.5537" y2="-130.2463" gradientTransform="matrix(1 0 0 -1 0 744)">
				<stop  offset="0" style="stop-color:#3939FA"/>
				<stop  offset="1" style="stop-color:#FFFFFF;stop-opacity:0"/>
			</linearGradient>
			<path style="opacity:0.3;fill:url(#SVGID_00000045599382746323120390000010251547328888635293_);enable-background:new    ;" d="
				M1099.8,693.5c6.4-0.1,12.7,1.5,18.3,4.6c0.2-5.7,2-11.2,5.2-15.9c3.2-4.7,7.6-8.3,12.8-10.6c5.2-2.2,10.9-2.9,16.4-2
				c5.6,0.9,10.7,3.4,14.9,7.2c5.2-12.8,14-23.7,25.5-31.5c11.3-7.7,24.8-11.8,38.5-11.8c0.6,0,1.1,0,1.7,0
				c4.8-13.3,14.2-24.4,26.4-31.5c12.2-7,26.4-9.5,40.3-7c13.8,2.5,26.3,9.8,35.2,20.7c9,10.9,13.9,24.6,13.9,38.8
				c15.5,0,30.4,6.1,41.5,17c5.5-12.8,14.7-23.6,26.5-31c11.7-7.4,25.3-11,39.2-10.4c13.8,0.6,27.1,5.4,38.1,13.7
				c11.1,8.4,19.4,19.9,23.8,33.1c8.4-4.7,19.6-7.6,31.7-7.6c26.4,0,47.7,29.1,47.7,45.7h-527.3
				C1070.1,703.1,1083.4,693.5,1099.8,693.5z"/>
			
				<linearGradient id="SVGID_00000160873350612803925320000017342792781469225620_" gradientUnits="userSpaceOnUse" x1="878.4953" y1="210.9097" x2="571.8543" y2="91.0837" gradientTransform="matrix(1 0 0 -1 0 744)">
				<stop  offset="0" style="stop-color:#3939FA"/>
				<stop  offset="1" style="stop-color:#FFFFFF;stop-opacity:0"/>
			</linearGradient>
			<path style="opacity:0.3;fill:url(#SVGID_00000160873350612803925320000017342792781469225620_);enable-background:new    ;" d="
				M693.2,555.4c3.4,0,6.8,0.8,9.9,2.5c0.1-3,1.1-6,2.8-8.5c1.7-2.5,4.1-4.5,6.9-5.7c2.8-1.2,5.8-1.6,8.8-1.1c3,0.5,5.8,1.8,8,3.8
				c2.8-6.9,7.6-12.7,13.7-16.9c6.1-4.1,13.3-6.3,20.7-6.3c0.3,0,0.6,0,0.9,0c2.6-7.1,7.6-13.1,14.2-16.9c6.5-3.8,14.2-5.1,21.6-3.8
				c7.4,1.3,14.1,5.3,19,11.1c4.9,5.9,7.5,13.2,7.5,20.8c8.3,0,16.3,3.3,22.3,9.1c3-6.8,7.9-12.6,14.2-16.6c6.3-4,13.6-5.9,21.1-5.6
				c7.4,0.3,14.6,2.9,20.5,7.4c6,4.5,10.4,10.7,12.8,17.8c4.5-2.5,10.5-4.1,17.1-4.1c14.2,0,25.7,15.6,25.7,24.5H677.3
				C677.3,560.6,684.4,555.4,693.2,555.4z"/>
			
				<linearGradient id="SVGID_00000067200803361738146540000009948762745526205571_" gradientUnits="userSpaceOnUse" x1="177.7434" y1="74.6904" x2="839.3064" y2="-185.1756" gradientTransform="matrix(1 0 0 -1 0 744)">
				<stop  offset="0" style="stop-color:#3939FA"/>
				<stop  offset="1" style="stop-color:#FFFFFF;stop-opacity:0"/>
			</linearGradient>
			<path style="opacity:0.3;fill:url(#SVGID_00000067200803361738146540000009948762745526205571_);enable-background:new    ;" d="
				M578,717.4c-7.4-0.1-14.8,1.7-21.3,5.3c-0.2-6.5-2.3-12.9-6-18.3c-3.7-5.4-8.8-9.6-14.8-12.2c-6-2.6-12.6-3.4-19.1-2.4
				c-6.5,1-12.5,3.9-17.4,8.2c-6-14.7-16.3-27.4-29.5-36.3c-13.2-8.9-28.8-13.6-44.7-13.7c-0.7,0-1.3,0-2,0
				c-5.6-15.3-16.5-28.1-30.6-36.2c-14.1-8.1-30.7-11-46.7-8.1s-30.6,11.3-41,23.8c-10.4,12.5-16.2,28.3-16.1,44.6
				c-18,0-35.3,7-48.2,19.6c-6.4-14.7-17.1-27.1-30.7-35.7c-13.6-8.5-29.5-12.7-45.5-12s-31.5,6.2-44.3,15.8
				c-12.8,9.6-22.5,22.9-27.6,38.1c-9.8-5.5-22.7-8.8-36.9-8.8C24.8,689.4,0,722.9,0,742h612.5C612.5,728.4,597,717.4,578,717.4z"/>
			<path class="st6" d="M1308,447.4l26.7-10.5l-21,19.2l18.9,20.7l-25.4-12.6l-14.5,28.5l4.8-32.2l-29.2-2.9l29.8-7.4l-1-27.7
				L1308,447.4z"/>
			<path class="st7" d="M1325.3,213.4c0,0,58.5-154.9,124.3-16.5c62.6,131.7-156.5,67.9-85.6,233.4c88.6,206.8,246,29.1,246,29.1
				v14.8c0,0-155.6,154.6-244.3-29.1C1295,298.6,1425,307,1452.6,259.2c19.2-33.3-36.8-104.6-36.8-104.6
				c-46-53.5-97.9,89.6-97.9,89.6L1325.3,213.4z"/>
			<path class="st8" d="M1274.4,280.2l-3.5,21.8c-0.3,2-1.4,3.9-2.9,5.2c-1.6,1.3-3.5,2.1-5.6,2.1l-0.2-0.2
				c-11.6-14.1-21.6-3.2-21.6-3.2c-1.3-0.3-2.4-1.1-3.1-2.2c-0.7-1.1-1-2.4-0.8-3.7l3.6-23.5c0.5-3.5,3.3-6,6.4-5.7l21.1,1.4
				l0.8,0.1C1272.3,272.4,1275,276.1,1274.4,280.2z"/>
			<path class="st9" d="M1267.8,274.5l-5.4,33.5c-0.1,0.3-0.1,0.6-0.3,0.9c-11.6-14.1-21.6-3.2-21.6-3.2c-1.2-0.3-2.3-1.1-3.1-2.2
				s-1-2.4-0.8-3.7l3.6-23.5c0.5-3.5,3.3-6,6.4-5.7l21.1,1.4C1267.9,272.9,1267.9,273.7,1267.8,274.5L1267.8,274.5z"/>
			<path class="st9" d="M1307.2,290.8l-3.1,22c-0.3,2-1.3,3.9-2.8,5.2c-0.1,0.1-0.3,0.2-0.4,0.3c-1.5,1.1-3.3,1.7-5.1,1.7
				c-0.2-0.3-21.8-3.3-21.8-3.3c-1.2-0.3-2.3-1.1-3.1-2.1c-0.7-1.1-1-2.4-0.9-3.7l3.1-23.9c0.6-4.9,4.7-8.4,9.2-8.1l13.4,0.9
				l3.3,0.2c0.2,0,0.4,0,0.6,0.1c1.9,0.3,3.7,1.2,5,2.6c1,1.1,1.8,2.4,2.2,3.8C1307.3,287.9,1307.4,289.4,1307.2,290.8L1307.2,290.8
				z"/>
			<path class="st8" d="M1307.5,290.3l-3.1,22c-0.3,2-1.3,3.9-2.8,5.2c-0.1,0.1-0.3,0.2-0.4,0.3c-1.5,1.1-3.3,1.7-5.1,1.7
				c-0.2-0.3-0.3-0.5-0.5-0.7c2.5-11,5.1-26.8,5.6-32c0.2-2.5-0.2-5-1.1-7.3c1.9,0.3,3.7,1.2,5,2.6c1,1.1,1.8,2.4,2.2,3.8
				C1307.6,287.4,1307.8,288.8,1307.5,290.3L1307.5,290.3z"/>
			<path class="st8" d="M1328,201.5l-18.7,78.8c-0.5,2.1-1.8,3.9-3.5,5.2c-1.8,1.2-3.9,1.8-6.1,1.5l-6.3-0.8l-36-4.4l1-6.3v-0.1
				l15.3-99.9c0.4-2.4,1.6-4.6,3.3-6.3c0.6-0.5,1.2-1,1.9-1.4l19.8,2.2l1.9,0.6h0l12.5,3.8c5.5,1.7,10.1,5.4,12.9,10.5
				C1328.7,190,1329.5,195.9,1328,201.5L1328,201.5z"/>
			<path class="st10" d="M1304.8,176.2c5-0.1,9.9,1.7,13.6,5.2c0.9,0.9,1.7,1.8,2.5,2.9c0.2,0.3,0.4,0.5,0.5,0.8
				c0.2,0.3,0.3,0.5,0.5,0.8l0.5,0.8c0.1,0.3,0.3,0.6,0.4,1c0.3,1.2,0.5,2.5,0.5,3.8c0,1.3,0,2.5-0.1,3.7c-0.2,2.5-0.5,4.9-0.9,7.4
				c-0.4,2.4-0.8,4.9-1.3,7.3c-1.1,4.8-2.2,9.6-3.5,14.3c-1.2,4.8-2.6,9.5-4,14.2s-2.9,9.4-4.4,14c-3.1,9.3-6.3,18.6-9.9,27.7
				l8.3-28.2c1.4-4.7,2.7-9.4,4.1-14.1c1.3-4.7,2.6-9.4,3.9-14.1s2.5-9.5,3.5-14.2c1.1-4.7,2-9.5,2.6-14.3c0.1-1.2,0.2-2.4,0.2-3.6
				c0-1.2-0.1-2.3-0.3-3.4c-0.1-0.3-0.2-0.5-0.3-0.8l-0.4-0.8c-0.1-0.3-0.3-0.5-0.4-0.8c-0.1-0.3-0.3-0.5-0.5-0.8
				c-0.6-1-1.3-1.9-2.1-2.8C1314.3,178.6,1309.7,176.5,1304.8,176.2L1304.8,176.2z"/>
			<path class="st9" d="M1309.1,194.6l-18.7,78.8c-0.3,1.2-0.8,2.3-1.5,3.3c-0.8,1-1.7,1.8-2.8,2.4l-27.8-3.4v-0.1l-2.4-99.9
				c0.4-2.4,1.5-4.6,3.3-6.3c1.8-1.7,4.1-2.6,6.5-2.8l13.1,1.4l19.8,2.2l1.9,0.6c3.7,2.6,6.5,6.3,8,10.6
				C1310.1,185.6,1310.3,190.2,1309.1,194.6L1309.1,194.6z"/>
			
				<linearGradient id="SVGID_00000149373847429260098300000006707748909513170334_" gradientUnits="userSpaceOnUse" x1="1197.4399" y1="602.8665" x2="1297.9948" y2="602.8665" gradientTransform="matrix(1 0 0 -1 0 744)">
				<stop  offset="0" style="stop-color:#3939FA;stop-opacity:0.85"/>
				<stop  offset="1" style="stop-color:#ADADFF;stop-opacity:0.51"/>
			</linearGradient>
			
				<path style="opacity:0.39;fill:url(#SVGID_00000149373847429260098300000006707748909513170334_);enable-background:new    ;" d="
				M1247.8,191.4c9.9,0,19.7-3,27.9-8.5c8.3-5.5,14.7-13.4,18.5-22.6c3.8-9.2,4.8-19.3,2.8-29c-1.9-9.7-6.7-18.7-13.8-25.7
				c-7-7-16-11.8-25.7-13.7c-9.8-1.9-19.9-0.9-29,2.9c-9.2,3.8-17,10.2-22.6,18.5c-5.5,8.3-8.5,18-8.5,27.9
				c0,13.3,5.3,26.1,14.8,35.5C1221.6,186.1,1234.4,191.4,1247.8,191.4z"/>
			<path class="st12" d="M1210.4,161.7c0,0,17.7,27.4,69.8,6c0,0-1.5-29.6-6.4-39.7c-6.1-12.4-19.8-23.8-33-11.9
				c0,0-5.2-7.4-14.8,0.9C1216.4,125.5,1223.9,158,1210.4,161.7z"/>
			<path class="st13" d="M1249.8,553.5l4.1-0.8l-28.2-144.4c0,0,36.2-77.8,37.9-127l-17.2-6.5c-13,30.9-42.2,104.1-42.2,136.1
				C1204.2,442.3,1235.1,518.7,1249.8,553.5z"/>
			<path class="st13" d="M1030.3,452.8l8.4,6.7l66.2-121.5l71.7-15.3l-78.4,7.6L1030.3,452.8z"/>
			<path class="st14" d="M1356.8,261.3c-9,19.7-29,47.6-39.7,63.5c-5.6-6.4-13.2-10.7-21.5-12.3l24.2-49.7c0,0-18.7-16.3-23.6-21.6
				c-3.9-4.2-7.1-7.4-7.1-6.8l0,0.1v0.1c-0.1,0.5-0.4,1.6-0.9,3.4c-0.1,0.1-0.1,0.3-0.1,0.5c-0.1,0.5-0.3,1-0.4,1.5
				c-1.8,6.3-5.1,17.4-8.9,29.7c-0.8,2.7-1.7,5.4-2.6,8.1c0,0,3.9,5.5,4.7,15.1c0.1,0.6,0.1,1.3,0.1,2c0.2,4.9-0.5,9.9-1.9,14.6
				c-2.9,10.1-9.6,22.3-23.1,35.9c-3.1,3.1-27.2,56.3-29.9,62.3l-0.2,0.6l28.2,144.4l-4.1,0.8l-24.6,5l-13.2,2.7l-35.2-98.8
				c-12.4-34.9-14.1-72.7-4.9-108.5l8.2-32l-3.7,0.8l-71.7,15.3l-66.1,121.4l-8.4-6.7l-21-16.7l-3.2-2.6l43.6-104.3
				c5.6-13.4,14.3-25.4,25.2-34.9c11-9.5,24.1-16.4,38.1-20.1l43.3-11.3c17-4.4,31.3-3.1,48.8-3.7l-1.6-4.1l-3.4-9.1
				c-8-16.6,0.7-26.7,1.5-27.5l0,0c-0.4,0.2-11.9,8.1-24,15.1c-9.9,5.7-20.2,10.9-25.3,10.8c-12.2-0.3-44.4-31.2-56.7-43.9
				l16.2-11.2c15.4,10.9,41.9,22.2,41.9,22.2l49-26.3c5.5-3.6,13.1-6.9,19.8-6.6l17.7-1.1c0,0,3,12,20.6-2.3c0.2,0,12.4,0,21,1.5
				c9.3,1.6,20.4,4.8,25.8,11.3c1.3,1.6,2.7,3.3,4.2,5l12.6,15.1c4.5,5.4,20.6,24.4,29.7,35.2c2.1,2.5,3.5,5.5,4,8.7
				C1358.6,255,1358.1,258.3,1356.8,261.3L1356.8,261.3z"/>
			<path class="st15" d="M1260.9,181.1c-8.3,5.2-21,2.3-21,2.3l0.5-7.9l0.7-11.5l0.5-8.7l6.7-2.1l5.9-1.8l5.5-1.7L1260.9,181.1z"/>
			<path class="st16" d="M1240.4,178.4l-0.1-1.2l0.6-10.2c0.7-1.1,1.5-2.5,2.3-3.8c1.3-2.1,2.8-4,4.4-5.9c2.2-2.4,4.2-3.6,5.5-1.7
				c0.3,0.5,0.5,1.1,0.6,1.6c0.2,1,0.3,1.9,0.4,2.9C1255,175.2,1243,178,1240.4,178.4z"/>
			<path class="st15" d="M1256.4,143c0,0,2.7-7.3,7.2-4.6c4.5,2.7-0.3,17.2-4.8,13.4c0,0-2.1,18.2-21.3,20.4
				c-19.2,2.2-11.2-41.4-9.9-44.1c3.5-6.9,12.3,23,22.9,5.3c0,0,4.6,3.5,1.1,12.6C1249.9,150.6,1256.4,143,1256.4,143z"/>
			<path d="M1239.8,147.6c0.5,0,1-0.8,1-1.9c0-1-0.4-1.9-0.9-1.9s-0.9,0.8-1,1.8C1238.9,146.7,1239.3,147.6,1239.8,147.6z"/>
			<path d="M1226.8,147.6c0.5,0,1-0.8,1-1.9c0-1-0.4-1.9-0.9-1.9s-0.9,0.8-1,1.8C1225.9,146.7,1226.3,147.6,1226.8,147.6z"/>
			<path class="st17" d="M1228.9,138.1c-0.2,0-0.4-0.1-0.5-0.2c-2.1-2.3-4.8-0.7-4.9-0.7c-0.1,0.1-0.2,0.1-0.3,0.1
				c-0.1,0-0.2,0-0.3,0c-0.1,0-0.2-0.1-0.3-0.1c-0.1-0.1-0.1-0.1-0.2-0.2c-0.1-0.1-0.1-0.2-0.1-0.3c0-0.1,0-0.2,0-0.3
				c0-0.1,0.1-0.2,0.1-0.3c0.1-0.1,0.1-0.1,0.2-0.2c1.3-0.8,4.4-1.6,6.7,0.9c0.1,0.1,0.2,0.2,0.2,0.4c0,0.1,0,0.3,0,0.4
				c-0.1,0.1-0.2,0.2-0.3,0.3C1229.2,138.1,1229,138.1,1228.9,138.1L1228.9,138.1z"/>
			<path class="st17" d="M1235.7,138.3c-0.2,0-0.4-0.1-0.5-0.2c-0.1-0.1-0.1-0.1-0.2-0.2c0-0.1-0.1-0.2-0.1-0.3c0-0.1,0-0.2,0.1-0.3
				c0-0.1,0.1-0.2,0.2-0.2c0,0,3.9-3.6,9.8-0.2c0.2,0.1,0.3,0.3,0.3,0.5c0,0.2,0,0.4-0.1,0.6c-0.1,0.1-0.1,0.2-0.2,0.2
				c-0.1,0.1-0.2,0.1-0.2,0.1c-0.1,0-0.2,0-0.3,0c-0.1,0-0.2,0-0.3-0.1c-4.9-2.8-7.8-0.1-7.9,0
				C1236.1,138.2,1236,138.3,1235.7,138.3L1235.7,138.3z"/>
			<path class="st16" d="M1231.2,156.6c-0.3,0-0.5-0.1-0.7-0.2c-0.9-0.5-1.8-2.2,0.7-10.7c0-0.1,0.1-0.1,0.1-0.2
				c0-0.1,0.1-0.1,0.1-0.1c0.1,0,0.1-0.1,0.2-0.1c0.1,0,0.1,0,0.2,0c0.1,0,0.1,0,0.2,0.1s0.1,0.1,0.1,0.2c0,0.1,0.1,0.1,0.1,0.2
				c0,0.1,0,0.1,0,0.2c-2.4,8.1-1.5,9.4-1.2,9.6c0.6,0.3,2-0.7,2.9-1.6c0,0,0.1-0.1,0.2-0.1c0.1,0,0.1,0,0.2,0c0.1,0,0.1,0,0.2,0
				c0.1,0,0.1,0.1,0.2,0.1c0.1,0.1,0.1,0.2,0.1,0.4c0,0.1,0,0.3-0.1,0.4C1234.2,155,1232.6,156.6,1231.2,156.6z"/>
			<path class="st16" d="M1260.1,149.7c-0.1,0-0.2,0-0.3-0.1c-0.1-0.1-0.2-0.2-0.2-0.3c-1.2-4-1.1-6.7,0.2-8.2
				c0.4-0.4,0.8-0.7,1.3-0.8c0.5-0.2,1-0.2,1.5-0.1c0.1,0,0.2,0.1,0.3,0.2c0.1,0.1,0.1,0.2,0.1,0.4c0,0.1-0.1,0.3-0.2,0.3
				s-0.2,0.1-0.4,0.1c-0.3,0-0.7,0-1,0.1c-0.3,0.1-0.6,0.3-0.9,0.5c-0.7,0.8-1.3,2.7,0.1,7.2c0,0.1,0,0.3,0,0.4
				c-0.1,0.1-0.2,0.2-0.3,0.2C1260.2,149.7,1260.2,149.7,1260.1,149.7z"/>
			<path class="st18" d="M1176.9,462.4l35.2,98.8l13.2-2.7c-7.9-25.2-33.6-106.2-44.8-134.5c-13.2-33.6,10.3-123.8,10.5-124.5
				c-0.2,0.3-10.8,22.4-10.8,22.4l-8.2,32C1162.8,389.7,1164.5,427.5,1176.9,462.4z"/>
			<path class="st18" d="M1156.3,262.9c17-4.4,31.3-3.1,48.8-3.7c-38.5,4.8-118.6,18.2-133.3,46.6c-15.6,30.2-49.7,102.8-62.6,130.3
				l-3.2-2.6l43.6-104.3c5.6-13.4,14.3-25.4,25.2-34.9c11-9.5,24.1-16.4,38.1-20.1L1156.3,262.9z"/>
			<path class="st19" d="M1249.1,257.4c0,0-25.2,11.5-44,1.8l-1.6-4.1C1217.2,255.5,1214.8,260.8,1249.1,257.4z"/>
			<path class="st19" d="M1289.1,234.4l0,0.1v0.1l-1,3.3v0c0,0.1-0.1,0.3-0.1,0.5l-0.4,1.5c-1.8,6.3-5.1,17.4-9,29.7
				c-0.8,2.7-1.7,5.4-2.5,8.1c0,0,3.9,5.5,4.7,15.2c-0.1,0.7-0.1,1.4,0.1,2c0.1,5-0.5,9.9-1.9,14.6c-2.9,10.1-9.5,22.3-23.1,35.9
				c-3.1,3.1-27.2,56.3-29.9,62.3c0,0,7.2-33.5,12.9-44.4c44.7-67.8,26.2-88.5,38.4-143.8L1289.1,234.4z"/>
			<path class="st20" d="M1172,309c-9.1,1-18.2,2.2-27.2,3.5c-9.1,1.3-18.1,2.8-27.1,4.6c-4.5,0.9-9,1.8-13.5,2.9
				c-2.2,0.6-4.5,1.2-6.7,1.9c-1.1,0.4-2.3,0.8-3.3,1.3c-0.6,0.3-1.2,0.6-1.7,1c-0.3,0.2-0.6,0.5-0.9,0.8l-0.2,0.2l-0.2,0.2
				l-0.3,0.4c-0.7,1-1.3,2-1.9,2.9s-1.2,2-1.8,3c-1.2,2-2.3,4-3.4,6c-2.2,4-4.4,8-6.6,12c-4.3,8.1-8.5,16.2-12.7,24.3l-6.2,12.2
				l-3.1,6.1l-3,6.1c-8.1,16.4-16.1,32.8-23.7,49.4c8.8-16,17.3-32.2,25.8-48.4l12.8-24.2c4.2-8.1,8.5-16.2,12.8-24.2
				c2.1-4,4.3-8,6.5-12c1.1-2,2.2-4,3.3-5.9c0.6-1,1.1-2,1.7-2.9c0.6-1,1.2-1.9,1.8-2.8l0.2-0.3l0.1-0.1l0.1-0.1
				c0.1-0.1,0.1-0.1,0.2-0.2c0.1-0.1,0.1-0.1,0.2-0.2c0.4-0.3,0.8-0.5,1.2-0.7c1-0.5,2-0.9,3-1.2c2.1-0.7,4.3-1.4,6.5-2
				c2.2-0.6,4.4-1.1,6.6-1.7c2.2-0.5,4.4-1,6.7-1.5c4.5-1,8.9-1.9,13.4-2.8c4.5-0.9,9-1.8,13.4-2.6C1154,312.3,1163,310.7,1172,309z
				"/>
			<path class="st20" d="M1236.9,333.9c-4.5,8.5-8.6,17.2-12.3,26.1c-3.7,8.9-7,18-9.7,27.2c-1.4,4.7-2.5,9.4-3.4,14.1
				c-0.2,1.2-0.4,2.4-0.6,3.6l-0.2,1.8c-0.1,0.6-0.2,1.2-0.2,1.8l-0.2,1.8l0,0.5v0.5l0,0.9l-0.1,1.9l0,1.8l0,1.8l0.1,1.8
				c0.1,1.2,0.1,2.4,0.3,3.6c0.1,1.2,0.2,2.4,0.3,3.6l0.4,3.6c0.6,4.8,1.4,9.6,2.2,14.3c3.4,19,7.9,37.7,12.7,56.3
				c4.8,18.6,10.1,37.1,16,55.4c-4.6-18.7-9.2-37.3-13.7-56l-3.2-14c-0.5-2.3-1.1-4.7-1.6-7c-0.5-2.4-1-4.7-1.5-7l-1.5-7l-1.5-7
				c-0.9-4.7-1.8-9.4-2.7-14.1c-0.8-4.7-1.6-9.4-2.2-14.2c-0.7-4.7-1.1-9.4-1.3-14.2l-0.1-1.8l0-1.8v-1.3l0-0.4l0.2-1.8
				c0-0.6,0.1-1.2,0.2-1.8l0.2-1.8c0.2-1.2,0.3-2.3,0.5-3.5c0.8-4.7,1.8-9.3,3-14c1.2-4.6,2.6-9.2,4.1-13.8
				c1.4-4.6,3.1-9.1,4.7-13.5C1229.3,351.6,1233,342.7,1236.9,333.9z"/>
			<path class="st9" d="M1021,482.7l5.3,2.6l25.1-49.3l-37.4-21.9l-12.9,31.4c0,0-6.4,1.3-8.6,1.4c-2,0-4.1,0.1-6.3,0.2
				c-1.8,0.1-3.7,0.2-5.5,0.3c-2.4,0.2-4.9,0.3-7.4,0.6c-1.8,0.2-3.6,0.4-5.3,0.6c-6.5,0.8-12.6,1.9-17.1,3.6
				c-0.9,0.3-1.7,0.7-2.6,1.1C934.6,460.5,1021,482.7,1021,482.7z"/>
			<path class="st9" d="M1258.6,588.6l5-2.9l-16.4-67.3l-45.1,15l1.4,5.3c3.8,14.8,10.1,28.8,18,41.8c0.6,1,0.8,1.7,0.4,2.1
				c-1.1,1-2.6,2.2-4.1,3.7c-1.3,1.1-2.7,2.4-4.1,3.8c-1.2,1.1-2.4,2.2-3.6,3.4l-0.2,0.2c-1.4,1.4-2.8,2.7-4.2,4.2
				c-1.2,1.2-2.3,2.5-3.5,3.7c-6,6.6-10.8,13.4-10.7,17.9v0.3C1192.3,631.3,1258.6,588.6,1258.6,588.6z"/>
			<path class="st10" d="M1264.5,585.2l-1.7-5.2c-10.5,8.6-48.3,36.8-66.1,38.7c-1.9,0.2-3.6,0.4-5.2,0.7v0.3
				C1192.3,631.3,1264.5,585.2,1264.5,585.2z"/>
			<path class="st10" d="M1026.3,485.3l2.3-5.4l-8.2-2.1c0,0-47.8-13.8-57.9-18.3c-15.6-6.5-7.5-5.3-11.6-7.3
				c-0.9,0.3-1.7,0.7-2.6,1.1C934.6,460.5,1026.3,485.3,1026.3,485.3z"/>
			
				<linearGradient id="SVGID_00000168823597598406230600000012150926024685181573_" gradientUnits="userSpaceOnUse" x1="1196.64" y1="602.8665" x2="1298.86" y2="602.8665" gradientTransform="matrix(1 0 0 -1 0 744)">
				<stop  offset="0" style="stop-color:#3939FA"/>
				<stop  offset="1" style="stop-color:#ADADFF"/>
			</linearGradient>
			
				<path style="fill:none;stroke:url(#SVGID_00000168823597598406230600000012150926024685181573_);stroke-width:1.91;stroke-miterlimit:10;" d="
				M1247.8,191.4c9.9,0,19.7-3,27.9-8.5c8.3-5.5,14.7-13.4,18.5-22.6c3.8-9.2,4.8-19.3,2.8-29c-1.9-9.7-6.7-18.7-13.8-25.7
				c-7-7-16-11.8-25.7-13.7c-9.8-1.9-19.9-0.9-29,2.9c-9.2,3.8-17,10.2-22.6,18.5c-5.5,8.3-8.5,18-8.5,27.9
				c0,13.3,5.3,26.1,14.8,35.5C1221.6,186.1,1234.4,191.4,1247.8,191.4L1247.8,191.4z"/>
			<path class="st10" d="M1230.8,159.1l8.3-3C1239.1,156.1,1235.4,172,1230.8,159.1z"/>
			<path class="st8" d="M1276.1,227.9c5.4,23.3,14.4,6.7,14.4,6.7l2.3,7.4l1.4,4.5c0,0-23,19.1-27.4-22.8
				c-4.2-39.8,31.8-47.7,31.8-47.7l0.8,0.7l2.7,2.5l0.7,0.7c-0.2,0.1-0.5,0.2-0.7,0.4C1287.7,187.8,1270.8,205,1276.1,227.9z"/>
			<path class="st22" d="M1290.5,234.6l2.3,7.4c-1.2,1.3-3,2.1-4.8,2.2c-17.4,0.6-17.6-30.1-10.4-45.3c5.4-11.6,16.7-19.3,21.7-22.3
				l0.5,0.2c1.2,0.5,2.2,1.4,2.8,2.6c0.1,0.1,0.1,0.3,0.1,0.4c-14.4,7.6-32,25.2-26.7,48.1C1281.5,251.3,1290.5,234.6,1290.5,234.6z
				"/>
			<path class="st19" d="M1208.2,194.2l-6.6,24.2h0l0,0c-0.4,0.2-11.9,8.1-24,15.1L1208.2,194.2z"/>
			<path class="st19" d="M1319.8,262.8l11.4-10.9l-20.1,4.1L1319.8,262.8z"/>
			<path class="st20" d="M1235,202.1c-2.5,6.2-4.7,12.6-6.5,19c-0.9,3.2-1.5,6.5-2,9.7c-0.1,0.8-0.2,1.6-0.3,2.5l-0.1,1.2l-0.1,1.2
				c-0.1,1.6-0.1,3.4-0.2,5.1c-0.3,3.4-0.8,6.8-1.4,10.1c-0.6,3.3-1.4,6.6-2.3,9.9c-1.7,6.5-3.8,12.9-6.2,19.2
				c1.6-6.5,3.1-13.1,4.5-19.6c1.5-6.5,2.5-13.1,3.1-19.7c0.1-1.7,0.2-3.2,0.3-5l0.1-1.3l0.2-1.3c0.1-0.8,0.2-1.7,0.3-2.5
				c0.6-3.4,1.4-6.7,2.4-9.9C1228.9,214.2,1231.7,208,1235,202.1z"/>
			<path class="st20" d="M1098.5,203.3c0.9-1.4,1.9-2.7,3-4c1.1-1.2,2.2-2.4,3.5-3.5c1.2-1.1,2.5-2.2,3.8-3.2c1.3-1,2.7-1.9,4.2-2.7
				c-0.9,1.4-1.9,2.7-3,4c-1.1,1.2-2.2,2.4-3.4,3.5c-1.2,1.1-2.5,2.2-3.8,3.2C1101.3,201.6,1099.9,202.5,1098.5,203.3z"/>
			<path class="st20" d="M1117.6,196.9c4.1,1.9,8.1,3.9,12.1,5.9c2,1,4,2,6,3.1c2,1,4,2.1,6,3.1l5.9,3.1l5.9,3.2
				c2,1,3.9,2.1,5.9,3.2l5.9,3.3h-1l7.4-3.6l7.4-3.5c2.5-1.2,5-2.3,7.4-3.4c2.5-1.1,5-2.2,7.5-3.3c-2.3,1.4-4.7,2.8-7.1,4.1
				c-2.4,1.3-4.8,2.7-7.2,4l-7.2,3.9l-7.3,3.8c-0.1,0.1-0.3,0.1-0.5,0.1c-0.2,0-0.3,0-0.5-0.1l-6-3.2c-2-1-3.9-2.1-5.9-3.2l-5.9-3.3
				l-5.9-3.3c-2-1.1-3.9-2.2-5.8-3.4c-1.9-1.1-3.9-2.3-5.8-3.4C1125.2,201.6,1121.4,199.3,1117.6,196.9z"/>
			<path class="st20" d="M1301.6,196.9l3,3.1l3,3.2l5.9,6.4c3.9,4.3,7.8,8.5,11.7,12.8c3.9,4.3,7.8,8.6,11.6,12.9l11.5,12.9
				c0.2,0.2,0.2,0.4,0.3,0.6c0,0.2,0,0.4-0.1,0.6l-8,16.2c-2.7,5.4-5.4,10.7-8.1,16.1l-4.1,8l-4.1,8l-4.2,8l-2.1,4l-2.2,3.9l1.8-4.1
				l1.9-4.1l3.8-8.2l3.8-8.2l3.8-8.1c2.6-5.4,5.2-10.8,7.8-16.2l7.9-16.2l0.2,1.2l-11.4-13.1c-3.8-4.4-7.6-8.7-11.4-13.1
				c-3.8-4.4-7.5-8.8-11.2-13.2l-5.6-6.7l-2.8-3.3L1301.6,196.9z"/>
			<path class="st20" d="M1296,311.6c2.3-0.3,4.6-0.2,6.8,0.2c2.3,0.4,4.5,1.1,6.5,2.1c2.1,1,4,2.4,5.6,4.1c0.8,0.9,1.4,1.9,1.9,2.9
				c0.5,1,0.8,2.1,1,3.3c-0.6-0.9-1.2-1.8-1.9-2.7c-0.7-0.8-1.4-1.6-2.2-2.3c-1.6-1.3-3.4-2.5-5.3-3.4c-1.9-0.9-3.9-1.7-6-2.4
				C1300.3,312.8,1298.2,312.2,1296,311.6z"/>
			<path class="st20" d="M1001.2,445.6l15.5,11.9l-10.7-24L1001.2,445.6z"/>
			<path class="st20" d="M1221.9,582.6c0,0,21.8-14.8,20.4-15.4c-1.5-0.6-28,0-28,0L1221.9,582.6z"/>
			
				<linearGradient id="SVGID_00000018205443210546282500000009074458154175220883_" gradientUnits="userSpaceOnUse" x1="384.3526" y1="208.2536" x2="441.6606" y2="223.5006" gradientTransform="matrix(1 0 0 -1 0 744)">
				<stop  offset="0" style="stop-color:#FFFFFF"/>
				<stop  offset="1" style="stop-color:#FFFFFF;stop-opacity:0.41"/>
			</linearGradient>
			
				<path style="opacity:0.72;fill:url(#SVGID_00000018205443210546282500000009074458154175220883_);enable-background:new    ;" d="
				M434.5,518.8l7.7,1.1l-5.6,5.4l1.3,7.7l-6.9-3.6l-6.9,3.6l1.3-7.7l-5.5-5.5l7.7-1.1l3.5-7L434.5,518.8z"/>
			
				<linearGradient id="SVGID_00000114035173902915546180000004629885212800525751_" gradientUnits="userSpaceOnUse" x1="569.1464" y1="38.9661" x2="626.4583" y2="54.2131" gradientTransform="matrix(1 0 0 -1 0 744)">
				<stop  offset="0" style="stop-color:#FFFFFF"/>
				<stop  offset="1" style="stop-color:#FFFFFF;stop-opacity:0.41"/>
			</linearGradient>
			
				<path style="opacity:0.72;fill:url(#SVGID_00000114035173902915546180000004629885212800525751_);enable-background:new    ;" d="
				M619.3,688.1l7.7,1.1l-5.6,5.4l1.3,7.7l-6.9-3.6l-6.9,3.6l1.3-7.7l-5.5-5.5l7.7-1.1l3.5-7L619.3,688.1z"/>
			
				<linearGradient id="SVGID_00000026872498879617106240000013122268072905863847_" gradientUnits="userSpaceOnUse" x1="1463.1514" y1="293.3928" x2="1520.4713" y2="308.6397" gradientTransform="matrix(1 0 0 -1 0 744)">
				<stop  offset="0" style="stop-color:#FFFFFF"/>
				<stop  offset="1" style="stop-color:#FFFFFF;stop-opacity:0.41"/>
			</linearGradient>
			
				<path style="opacity:0.72;fill:url(#SVGID_00000026872498879617106240000013122268072905863847_);enable-background:new    ;" d="
				M1513.3,433.6l7.7,1.1l-5.6,5.4l1.3,7.7l-6.9-3.6l-6.9,3.6l1.3-7.7l-5.5-5.5l7.7-1.1l3.4-7L1513.3,433.6z"/>
			
				<linearGradient id="SVGID_00000120552849065687142360000014677613916699059373_" gradientUnits="userSpaceOnUse" x1="1094.5352" y1="574.8959" x2="1151.8351" y2="590.1439" gradientTransform="matrix(1 0 0 -1 0 744)">
				<stop  offset="0" style="stop-color:#FFFFFF"/>
				<stop  offset="1" style="stop-color:#FFFFFF;stop-opacity:0.41"/>
			</linearGradient>
			
				<path style="opacity:0.72;fill:url(#SVGID_00000120552849065687142360000014677613916699059373_);enable-background:new    ;" d="
				M1144.7,152.1l7.7,1.1l-5.6,5.4l1.3,7.7l-6.9-3.6l-6.9,3.6l1.3-7.7l-5.5-5.5l7.7-1.1l3.4-7L1144.7,152.1z"/>
			
				<linearGradient id="SVGID_00000009556568548882367400000006323999265609579185_" gradientUnits="userSpaceOnUse" x1="1071.6909" y1="699.1168" x2="1178.431" y2="728.313" gradientTransform="matrix(1 0 0 -1 0 744)">
				<stop  offset="0" style="stop-color:#FFFFFF"/>
				<stop  offset="1" style="stop-color:#FFFFFF;stop-opacity:0.41"/>
			</linearGradient>
			
				<path style="opacity:0.72;fill:url(#SVGID_00000009556568548882367400000006323999265609579185_);enable-background:new    ;" d="
				M1165.1,12.7l14.4,2.1l-10.4,9.9l2.4,14l-12.8-6.6l-12.9,6.6l2.5-14l-10.4-9.9l14.4-2l6.4-12.7L1165.1,12.7z"/>
			<path class="st15" d="M1111.9,189.2l-16.1,11.3c-2-2.9-4.3-5.5-6.8-8c-0.7-0.6-1.3-1.3-2-1.8c-12.1-10.8-25.2-13.5-26.2-17.1
				c-0.9-3.2,5.2,0.5,7.5,1.1c1.7,0.5,3.4,1.1,5,1.9c0.3,0.1,1.3,0.4,0.3-0.5c-2.5-2.2-5.2-4-8.1-5.4c-4.5-2.2-5-3.7-5.5-4.9
				c-0.1-0.2-0.1-0.4-0.1-0.6c0-0.2,0.1-0.4,0.3-0.6s0.3-0.3,0.6-0.3c0.2,0,0.4,0,0.6,0.1l13.7,5.9c0.3,0.1,2,1,0.3-0.5
				c-6.9-6-9.7-4.6-12.8-8.1c-1.7-1.9-1.1-2.9-0.8-3.5c0-0.1,0.1-0.2,0.2-0.3c0.1-0.1,0.2-0.2,0.3-0.2c0.1,0,0.2-0.1,0.4-0.1
				s0.2,0,0.3,0.1l18.5,9.6c0.1,0,0.1,0,0.2,0c0.1,0,0.1-0.1,0.2-0.1c0-0.1,0.1-0.1,0.1-0.2c0-0.1,0-0.1-0.1-0.2
				c-2.6-2.6-14.2-7.8-15.3-9.9c-1.4-2.5-0.8-3.9,6.7-0.2c3.7,1.8,9.6,3.6,15.3,8.2c0.3,0.3,0.7,0.5,1,0.8c1.6,1.4,3,2.9,4.3,4.5
				c0,0,0.1,0.1,0.1,0.1c0,0,0.1,0,0.2,0c0.1,0,0.1,0,0.1-0.1c0,0,0.1-0.1,0.1-0.2c0.4-3.5-0.4-12,2.6-14c1.7-1.1,3.7,13.9,4.3,20
				c0.3,2.5,1.3,4.8,3,6.6l0,0C1106.6,185.1,1109.1,187.3,1111.9,189.2z"/>
			<path class="st15" d="M1305.7,337.5c0.2-1.6,10.2-16,10.2-16c-2.1-2.2-4.5-4.1-7.1-5.5c-3.2-1.8-6.7-3-10.3-3.7l-7.9,16.1
				l-25.9,11.3c0.3,0.5,0.7,1,1.1,1.4c1.7,1.6,5.6,3.5,12.7-1.9c0,0-7.8,13.4-6.5,25.6c0.7,6.8,2.2,9.8,3.4,11.1
				c0.4,0.4,0.9-0.4,1.3-1.5c1-2.4,1.3-5,1-7.6l-0.7-5.6l3-7.4l0.4-1.1c0,0-0.8,26.2,2.4,29.8c0,0,0,0,0.1,0c0.1,0,0.1-0.1,0.2-0.2
				c1.1-0.9,1.8-2.2,2-3.5l3.1-21.5l0.1-0.6c0,0.3,0,0.6-0.1,0.9c-0.1,1.8-0.1,4.6,0,7.8c0.1,5.6,0.4,12.3,0.5,15.9
				c6.2,1.9,7.9-23.6,8-25.4c0,0.2,0,0.6,0,1.1c0,1.4,0.2,3.8,0.8,5.1c1.4,3.1,3.8,7.5,6.8,13.6c0.1,0.1,0.1,0.2,0.2,0.2
				c0.1,0,0.2,0.1,0.3,0.1c0.1,0,0.2-0.1,0.3-0.1c0.1-0.1,0.2-0.2,0.2-0.3c0.1-0.4,0.3-1,0.4-1.6c0.7-3.4,0.8-9.5-4-15.7
				C1301.8,358,1304.9,344.2,1305.7,337.5z"/>
			<path class="st28" d="M1088.3,168.5c0.8,0.3,1.4,0.7,2,1.2c0.6,0.5,1,1.2,1.3,1.9c1.1,2.5-0.5,7.8,2.6,11c0,0-5.2-1.3-3.4-10.3
				L1088.3,168.5z"/>
			<path class="st28" d="M1301.7,358.3c4.8,6.2,4.7,12.3,4,15.7c-0.8-5.7-2.7-11.2-5.7-16.1l3.8-21.8l5-20.2
				c2.7,1.4,5.1,3.3,7.1,5.5c0,0-10,14.4-10.2,16C1304.9,344.2,1301.8,358,1301.7,358.3z"/>
			<path class="st28" d="M1278.4,339.2c-7.1,5.4-11,3.5-12.7,1.9c3.7,0.3,7.4-0.1,10.9-1.3L1278.4,339.2z"/>
			<path class="st28" d="M1280.4,352.7l-3.5,8.5l0.7,5.6c0.3,2.6,0,5.2-1,7.6c-0.5,1.1-1,2-1.3,1.6c0.8-3.1,0.3-14.6,0.3-14.6
				l4.6-10.6C1280.2,350.7,1280.6,350.8,1280.4,352.7z"/>
			<path class="st28" d="M1296.2,353.4l0.5,2.6c-0.1,1.9-1.8,27.3-8,25.4C1293.4,379.4,1296.2,353.4,1296.2,353.4z"/>
			<path class="st28" d="M1296.7,356v1.1C1296.7,356.6,1296.7,356.1,1296.7,356z"/>
			<path class="st28" d="M1288.2,357.3l-3.1,21.5c-0.2,1.4-0.9,2.6-2,3.5c-0.1,0.1-0.1,0.1-0.2,0.2c0,0-0.1,0-0.1,0
				c0,0,0.9-22.2,4.5-31L1288.2,357.3z"/>
			<path class="st28" d="M1288.2,365.4c-0.1-3.1-0.1-6,0-7.8C1288.2,358.1,1288.3,361.4,1288.2,365.4z"/>
			
				<linearGradient id="SVGID_00000160162620700454304860000011548561942580557486_" gradientUnits="userSpaceOnUse" x1="995.8984" y1="530.2978" x2="1334.4803" y2="648.2297" gradientTransform="matrix(1 0 0 -1 0 744)">
				<stop  offset="0" style="stop-color:#FFFFFF"/>
				<stop  offset="1" style="stop-color:#FFFFFF;stop-opacity:0"/>
			</linearGradient>
			
				<path style="opacity:0.43;fill:url(#SVGID_00000160162620700454304860000011548561942580557486_);enable-background:new    ;" d="
				M1011,167l271.7-182.2l70.8,233.3l-269,54.4L1011,167z"/>
		</g>
	</g>
</g>
<g id="Layer_2">
	<g>
		<path class="st30" d="M1043.6,226l-43.5,22.5l86.4,30.9l45.7-23.2L1043.6,226z"/>
		<path class="st10" d="M1086.2,191.6l-70.9-23.5c-0.8-0.3-1.7-0.4-2.6-0.3c-0.9,0.1-1.7,0.4-2.5,0.9s-1.4,1.1-1.8,1.9
			c-0.5,0.8-0.7,1.6-0.8,2.5l-7.4,75.4l86.4,30.9l6.7-77.2c0.2-2.3-0.4-4.6-1.7-6.5C1090.3,193.7,1088.4,192.3,1086.2,191.6z"/>
		<path class="st14" d="M1040.3,216.2c-0.6-3.6,0.6-6.7,2.8-7.1s4.4,2.3,5,5.8c0.6,3.6-0.6,6.7-2.8,7.1S1041,219.8,1040.3,216.2z"/>
	</g>
</g>
</svg>
