<svg width="160" height="103" viewBox="0 0 160 103" fill="none" xmlns="http://www.w3.org/2000/svg">
<path fill-rule="evenodd" clip-rule="evenodd" d="M123.643 14.1705C130.95 15.8968 136.203 20.1776 141.383 24.847C158.366 40.1764 161.337 59.5006 144.782 74.7743C119.052 98.4496 67.9328 107.405 32.5534 92.0214C24.7164 88.6235 13.9408 84.8907 7.52696 74.3751C1.55987 64.597 3.76544 54.7468 8.97967 46.2327C14.3012 37.4984 22.7547 30.1381 29.2326 25.6061C57.5452 5.84224 109.179 -7.179 149.848 12.6377C150.687 13.0301 151.642 12.8128 152.027 12.1612C152.413 11.5096 152.115 10.6752 151.339 10.2948C109.475 -10.1014 56.2395 3.10541 27.0991 23.4448C19.0364 29.0988 8.0098 39.0011 3.20399 50.5063C-0.0593145 58.3739 -0.460566 66.9763 4.69949 75.5105C11.5056 86.7069 22.926 90.8243 31.244 94.4376C67.7679 110.323 120.624 101.152 147.157 76.6926C164.974 60.2804 161.887 39.5116 143.622 23.0326C138.059 17.9771 132.271 13.421 124.339 11.5479C123.464 11.3419 122.601 11.7627 122.461 12.4964C122.258 13.2181 122.831 13.9765 123.643 14.1705Z" fill="#FF7E21"/>
</svg>
