<svg width="356" height="81" viewBox="0 0 356 81" fill="none" xmlns="http://www.w3.org/2000/svg">
<path opacity="0.3" d="M20.0292 66.6679C24.3503 66.622 28.6119 67.6813 32.4124 69.7459C32.5547 65.9406 33.7706 62.254 35.9188 59.1154C38.0669 55.9768 41.0589 53.5153 44.5464 52.0173C48.0338 50.5193 51.8734 50.0466 55.6181 50.654C59.3628 51.2614 62.8586 52.9241 65.6986 55.4485C69.2213 46.8609 75.2057 39.5173 82.8924 34.3495C90.5792 29.1818 99.6219 26.4228 108.873 26.4226C109.256 26.4226 109.64 26.4419 110.023 26.4496C113.308 17.5362 119.61 10.0663 127.827 5.34685C136.044 0.627451 145.653 -1.04084 154.972 0.633906C164.291 2.30865 172.726 7.21976 178.802 14.5079C184.878 21.796 188.208 30.997 188.208 40.5008C198.661 40.4916 208.706 44.568 216.217 51.8664C219.957 43.2982 226.189 36.0639 234.094 31.1113C242 26.1587 251.211 23.7186 260.522 24.1108C269.832 24.5029 278.808 27.7091 286.272 33.3091C293.737 38.9091 299.342 46.642 302.355 55.4947C308.046 52.3243 315.554 50.3967 323.783 50.3967C341.574 50.3967 356 69.8922 356 81H0C0 73.0972 8.96832 66.6679 20.0292 66.6679Z" fill="url(#paint0_linear_1480_5772)"/>
<defs>
<linearGradient id="paint0_linear_1480_5772" x1="219.542" y1="-45.6654" x2="-165.037" y2="105.352" gradientUnits="userSpaceOnUse">
<stop stop-color="#3939FA"/>
<stop offset="1" stop-color="white" stop-opacity="0"/>
</linearGradient>
</defs>
</svg>
