<svg width="437" height="123" viewBox="0 0 437 123" fill="none" xmlns="http://www.w3.org/2000/svg">
<path opacity="0.3" d="M30.8315 101.236C37.4831 101.167 44.0431 102.775 49.8933 105.911C50.1123 100.132 51.984 94.5339 55.2907 89.7679C58.5974 85.0019 63.203 81.2639 68.5714 78.9892C73.9397 76.7145 79.85 75.9966 85.6144 76.919C91.3787 77.8414 96.7598 80.3662 101.132 84.1996C106.554 71.1591 115.766 60.0077 127.598 52.1604C139.431 44.3131 153.351 40.1235 167.591 40.1232C168.181 40.1232 168.771 40.1525 169.361 40.1642C174.417 26.629 184.119 15.2858 196.768 8.11929C209.417 0.952796 224.208 -1.58053 238.552 0.962598C252.897 3.50573 265.882 10.9633 275.235 22.0305C284.588 33.0976 289.713 47.0695 289.714 61.5012C305.804 61.4872 321.267 67.6774 332.828 78.7601C338.586 65.7491 348.178 54.7638 360.347 47.2431C372.517 39.7224 386.696 36.0172 401.028 36.6127C415.36 37.2082 429.176 42.0767 440.666 50.5805C452.157 59.0843 460.785 70.8267 465.423 84.2697C474.184 79.4554 485.741 76.5283 498.408 76.5283C525.794 76.5283 548 106.133 548 123H0C0 110.999 13.8052 101.236 30.8315 101.236Z" fill="url(#paint0_linear_1480_6315)"/>
<defs>
<linearGradient id="paint0_linear_1480_6315" x1="337.947" y1="-69.3438" x2="-251.872" y2="165.441" gradientUnits="userSpaceOnUse">
<stop stop-color="#3939FA"/>
<stop offset="1" stop-color="white" stop-opacity="0"/>
</linearGradient>
</defs>
</svg>
