<svg width="41" height="41" viewBox="0 0 41 41" fill="none" xmlns="http://www.w3.org/2000/svg">
<path opacity="0.3" d="M18.6243 3.06901C19.2686 1.32778 21.7314 1.32778 22.3757 3.06901L26.2579 13.5605C26.4605 14.1079 26.8921 14.5395 27.4395 14.7421L37.931 18.6243C39.6722 19.2686 39.6722 21.7314 37.931 22.3757L27.4395 26.2579C26.8921 26.4605 26.4605 26.8921 26.2579 27.4395L22.3757 37.931C21.7314 39.6722 19.2686 39.6722 18.6243 37.931L14.7421 27.4395C14.5395 26.8921 14.1079 26.4605 13.5605 26.2579L3.06901 22.3757C1.32778 21.7314 1.32778 19.2686 3.06901 18.6243L13.5605 14.7421C14.1079 14.5395 14.5395 14.1079 14.7421 13.5605L18.6243 3.06901Z" stroke="#FCFCFD" stroke-width="3"/>
</svg>
