<svg width="631" height="996" viewBox="0 0 631 996" fill="none" xmlns="http://www.w3.org/2000/svg">
<path d="M630.948 363.798C630.913 414.104 630.861 466.138 630.794 518.34C630.744 555.595 630.688 592.937 630.632 629.801C630.551 680.611 630.459 730.512 630.368 778.025C630.21 860.095 630.048 935.04 629.907 995.239C526.898 958.132 438.728 889.944 376.721 801.993C351.852 766.736 331.404 728.56 315.834 688.322C302.926 654.935 293.467 620.316 287.605 585.004C282.825 556.169 280.428 526.989 280.439 497.76C280.434 475.681 281.798 453.622 284.523 431.711C302.043 291.157 374.744 167.731 480.266 83.7897C500.643 67.5758 522.19 52.8884 544.731 39.8474C572.089 24.0132 600.819 10.6768 630.572 0C630.706 25.1636 630.801 56.3148 630.868 92.0392C630.938 130.736 630.977 174.809 630.984 222.448C631.012 266.929 630.984 314.537 630.948 363.798Z" fill="url(#paint0_linear_1512_7503)"/>
<path d="M187.119 533.127C179.78 547.278 171.913 564.005 168.971 572.285C167.663 575.964 163.728 580.263 159.754 583.916C156.243 587.143 150.614 584.297 151.149 579.559L152.047 571.598L155.565 540.45C156.73 530.141 156.252 519.712 154.15 509.552L152.022 499.268L172.808 487.297C172.808 487.297 173.86 501.969 179.081 506.308C181.989 508.721 186.425 512.375 188.517 517.58C190.188 521.728 190.373 526.855 187.119 533.127Z" fill="white"/>
<path d="M159.931 567.394L152.033 571.598L155.551 540.45C156.716 530.141 156.238 519.712 154.136 509.552L152.007 499.267L161.235 497.391L165.696 518.709C166.887 524.402 167.188 530.245 166.587 536.029L159.931 567.394Z" fill="#5A00C4"/>
<path d="M187.111 533.123C179.772 547.274 171.905 564.001 168.963 572.28C167.655 575.96 163.72 580.259 159.746 583.911C156.235 587.138 150.606 584.292 151.141 579.555C161.869 590.514 172.381 553.422 177.863 544.215C181.966 537.324 186.493 523.897 188.509 517.578C190.18 521.723 190.365 526.85 187.111 533.123Z" fill="#5A00C4"/>
<path d="M183.979 490.435C169.809 508.295 149.013 506.131 143.149 505.094C142.127 504.914 141.559 504.767 141.559 504.767C141.559 504.767 84.8369 427.276 88.6842 394.96C92.5314 362.644 185.821 307.66 185.821 307.66L232.835 333.552L137.762 400.306C137.762 400.306 141.485 404.403 146.88 410.904C163.644 431.113 196.579 474.57 183.979 490.435Z" fill="#FF7E21"/>
<path d="M118.193 433.801C118.193 433.801 111.893 486.638 97.6342 514.502C95.177 519.307 91.7539 522.254 87.8304 523.878C79.2816 527.422 68.3537 524.685 59.8363 521.188C58.2173 520.524 56.6864 519.832 55.275 519.15C51.7567 517.444 48.9845 514.509 47.4816 510.899C45.9788 507.289 45.849 503.254 47.117 499.555C51.8337 485.739 60.8374 459.689 75.4496 418.583C87.8785 383.627 175.825 329.447 175.825 329.447L178.674 329.652L232.837 333.553C207.808 399.505 118.193 433.801 118.193 433.801Z" fill="#FF7E21"/>
<path opacity="0.52" d="M118.188 433.8C118.188 433.8 111.888 486.637 97.6297 514.501C95.1725 519.306 91.7494 522.253 87.8259 523.877C94.5589 505.815 114.27 471.176 107.778 428.336C107.778 428.336 214.338 379.503 232.832 333.552C207.803 399.504 118.188 433.8 118.188 433.8Z" fill="#FF5014"/>
<path opacity="0.13" d="M83.1756 419.032C74.2764 444.219 63.7359 499.761 59.834 521.195C58.215 520.531 56.6841 519.84 55.2727 519.158C51.7544 517.452 48.9822 514.517 47.4793 510.907C45.9764 507.297 45.8467 503.262 47.1147 499.563C51.8314 485.746 60.8351 459.697 75.4473 418.59C87.8762 383.635 175.822 329.454 175.822 329.454L178.672 329.66C158.061 344.317 92.5535 392.488 83.1756 419.032Z" fill="white"/>
<path d="M84.1648 511.484C85.7466 507.945 87.1676 504.338 88.5536 500.721C89.9395 497.103 91.211 493.443 92.415 489.762C93.619 486.082 94.7187 482.368 95.7523 478.639C96.7858 474.91 97.7211 471.154 98.5187 467.37C98.7311 466.424 98.9151 465.472 99.1038 464.521C99.2925 463.57 99.4931 462.622 99.6534 461.664L100.158 458.81L100.595 455.946C100.753 454.988 100.851 454.031 100.978 453.077C101.106 452.122 101.227 451.161 101.309 450.198C101.391 449.236 101.492 448.277 101.586 447.318L101.78 444.433L101.827 443.711L101.853 442.987L101.905 441.543L101.956 440.099C101.977 439.608 101.961 439.135 101.965 438.654C101.958 437.691 101.975 436.729 101.948 435.764L101.83 432.882C101.613 429.045 101.119 425.229 100.354 421.463C100.322 421.307 100.345 421.145 100.418 421.004C100.491 420.863 100.611 420.752 100.757 420.689C112.583 415.579 124.191 409.911 135.62 403.947C141.334 400.959 146.988 397.859 152.581 394.649C155.373 393.039 158.152 391.406 160.918 389.749C163.684 388.092 166.424 386.389 169.137 384.641C179.99 377.696 190.532 370.217 200.195 361.689C201.407 360.627 202.585 359.531 203.765 358.435L205.504 356.759C206.086 356.202 206.645 355.625 207.217 355.058C209.47 352.765 211.66 350.391 213.71 347.909C215.772 345.432 217.67 342.824 219.392 340.101C221.128 337.38 222.612 334.506 223.826 331.516C222.698 334.548 221.289 337.469 219.617 340.238C217.945 343.011 216.093 345.671 214.074 348.202C212.068 350.731 209.927 353.176 207.711 355.526C205.494 357.877 203.153 360.13 200.763 362.311C198.374 364.491 195.928 366.616 193.419 368.663C190.911 370.709 188.362 372.702 185.771 374.644C183.179 376.585 180.551 378.47 177.894 380.325C175.238 382.179 172.543 383.963 169.835 385.717C167.126 387.47 164.38 389.195 161.623 390.888C158.866 392.581 156.087 394.232 153.287 395.85C147.686 399.082 142.023 402.204 136.299 405.215C130.575 408.226 124.797 411.127 118.965 413.918C116.049 415.314 113.121 416.685 110.18 418.029C107.236 419.37 104.292 420.693 101.3 421.951L101.705 421.175C102.461 425.014 102.938 428.902 103.133 432.81L103.221 435.735C103.25 436.712 103.218 437.684 103.218 438.659C103.208 439.154 103.222 439.636 103.199 440.123L103.14 441.582L103.078 443.043L103.044 443.781L102.986 444.513C102.407 452.275 101.223 459.98 99.445 467.558C98.5956 471.34 97.5751 475.1 96.494 478.83C95.4129 482.561 94.2112 486.264 92.9343 489.916C91.6573 493.568 90.2849 497.213 88.8338 500.811C87.3826 504.409 85.8412 507.989 84.1648 511.484Z" fill="white"/>
<path d="M362.239 174.04C362.239 174.04 343.663 206.622 328.491 222.692C325.604 225.751 322.086 228.135 318.288 229.989C311.637 233.231 304.122 234.847 297.58 235.625C293.036 236.166 288.762 238.069 285.32 241.085C281.878 244.1 279.429 248.086 278.295 252.52C277.514 255.587 276.581 258.658 275.524 261.717C262.424 299.638 230.197 335.475 230.197 335.475C230.197 335.475 206.389 325.376 191.966 317.15C187.175 314.418 183.424 311.892 181.924 310.013C175.965 302.553 191.269 263.41 191.57 262.634L191.573 262.622L176.879 277.274L180.883 276.684L178.773 287.581L176.198 300.875C176.198 300.875 174.42 301.173 171.701 301.37L171.603 301.378L171.505 301.383L171.404 301.39C163.683 301.911 148.959 301.533 145.018 291.715C141.525 283.004 157.72 256.038 169.418 239.379C176.654 229.059 186.226 220.594 197.355 214.676C202.444 211.972 207.815 209.836 213.37 208.306C241.833 200.473 274.968 200.782 288.768 202.1C308.547 203.984 320.516 188.262 328.554 175.235C336.593 162.207 341.881 162.637 341.881 162.637C358.441 165.692 362.239 174.04 362.239 174.04Z" fill="#BDA6FF"/>
<path opacity="0.19" d="M318.283 229.986C311.632 233.228 304.117 234.844 297.575 235.622C293.031 236.163 288.757 238.066 285.315 241.081C281.873 244.097 279.424 248.083 278.29 252.516C277.51 255.584 276.577 258.655 275.52 261.713C269.913 248.907 264.144 235.48 264.144 235.48L268.115 228.326C268.115 228.326 290.182 232.052 314.556 218.759C322.641 214.349 322.34 220.214 318.283 229.986Z" fill="#5A00C4"/>
<path opacity="0.18" d="M191.949 317.158C187.159 314.425 183.408 311.899 181.908 310.02C175.949 302.561 191.253 263.418 191.554 262.641L191.556 262.629C191.556 262.629 201.603 240.74 199.373 234.003C197.143 227.267 207.439 236.172 200.785 261.046C194.131 285.92 185.467 307.849 191.712 314.954C192.806 316.185 192.76 316.868 191.949 317.158Z" fill="#5A00C4"/>
<path d="M252.34 195.909C245.196 206.5 229.839 194.69 209.189 202.942C189.642 210.753 183.102 185.909 190.869 176.302C202.514 161.893 191.563 152.866 201.833 141.069C203.259 139.399 204.967 137.993 206.879 136.915C216.264 131.692 226.556 137.671 226.556 137.671C230.592 136.906 233.495 139.149 235.294 141.334C237.247 143.695 239.295 144.805 243.179 145.769C264.901 151.164 259.09 185.897 252.34 195.909Z" fill="#725131"/>
<path d="M252.342 195.902C245.198 206.493 229.841 194.683 209.191 202.935C189.644 210.746 183.104 185.902 190.872 176.295C202.516 161.886 191.565 152.859 201.835 141.062C203.261 139.393 204.969 137.986 206.881 136.908C203.492 142.199 199.392 151.045 200.612 161.66C202.613 179.08 192.27 188.283 200.734 194.028C209.199 199.773 246.307 190.109 252.342 195.902Z" fill="#603F24"/>
<path opacity="0.52" d="M183.981 490.444C169.811 508.304 149.015 506.14 143.151 505.103C149.155 503.146 154.335 499.24 157.866 494.004C168.401 478.542 146.623 410.751 146.623 410.751L146.875 410.912C163.646 431.123 196.581 474.579 183.981 490.444Z" fill="#FF5014"/>
<path d="M242.581 194.237L243.031 218.541L234.206 251.048L224.203 251.471L220.655 229.285L218.574 216.287L221.571 188.568C214.839 195.631 205.991 184.118 207.271 179.26C208.55 174.402 218.007 179.002 218.007 179.002C218.007 179.002 212.905 171.29 211.287 164.525C210.163 159.822 210.721 155.579 215.841 154.697C228.328 152.547 231.25 144.626 231.25 144.626L254.488 171.911C255.85 173.488 256.879 175.323 257.513 177.308C258.148 179.292 258.375 181.384 258.18 183.458C256.933 195.57 242.581 194.237 242.581 194.237Z" fill="#F6C5A6"/>
<path d="M251.431 168.347C243.029 166.828 231.538 181.668 231.538 181.668C220.656 180.806 209.585 160.184 209.585 160.184C209.585 160.184 208.034 173.591 224.811 189.408C241.588 205.225 257.064 190.41 259.003 187.836C260.942 185.261 259.83 169.863 251.431 168.347ZM253.767 182.2C250.396 186.981 241.741 186.321 239.67 183.554C238.232 181.632 239.119 179.968 241.784 178.565C244.316 177.239 246.548 175.528 248.634 173.682C249.511 172.907 250.55 172.44 251.603 172.99C254.307 174.409 257.133 177.418 253.762 182.199L253.767 182.2Z" fill="#603F24"/>
<path d="M75.6796 525.539L60.6336 579.945L59.6862 583.368C59.6862 583.368 53.9555 582.081 31.2482 592.364C19.5184 597.676 10.4794 598.15 4.48403 597.367C3.56943 597.254 2.7184 596.84 2.06495 596.19C1.41151 595.54 0.992766 594.692 0.874652 593.778C0.764121 593.053 0.848129 592.313 1.11805 591.632C1.38796 590.95 1.83407 590.353 2.41073 589.901C4.92745 587.884 8.10822 585.22 11.83 581.884C17.0454 577.204 23.3208 571.189 30.3104 563.729C39.281 554.171 50.4659 515.62 50.4659 515.62L63.6182 520.794L75.6796 525.539Z" fill="white"/>
<path d="M343.199 163.674C343.199 163.674 357.688 131.043 359.631 125.224C361.979 118.197 361.899 114.094 375.014 110.634C388.128 107.174 389.506 108.105 394.208 121.58C398.427 133.67 386.066 121.033 386.066 121.033C386.066 121.033 377.322 128.258 373.214 126.287C369.107 124.317 372.013 140.784 361.248 172.544L343.199 163.674Z" fill="#F6C5A6"/>
<path d="M243.03 218.554L238.023 230.323C238.023 230.323 229.681 229.871 220.654 229.299L218.574 216.301L221.57 188.581L223.142 189.873C223.142 189.873 221.455 214.241 225.338 219.451C230.679 226.635 243.03 218.554 243.03 218.554Z" fill="#DD9E7A"/>
<path d="M349.541 96.0897C346.566 94.0758 348.64 89.4307 352.124 90.3149L352.273 90.3484C357.272 91.7193 385.352 116.168 385.352 116.168L381.089 117.458L349.541 96.0897Z" fill="#BDA6FF"/>
<path d="M386.074 121.029L388.731 119.182L405.654 131.001L404.232 132.698L386.074 121.029Z" fill="#BDA6FF"/>
<path d="M196.548 313.57L218.797 325.822C218.797 325.822 247.65 247.008 243.03 218.539C243.03 218.539 228.194 239.443 218.575 216.276C218.568 216.285 229.089 261.003 196.548 313.57Z" fill="#5A00C4"/>
<path d="M425.147 147.088C425.147 147.088 409.089 122.02 402.199 129.997C395.197 138.1 423.72 147.073 425.147 147.088Z" fill="white"/>
<path d="M260.591 205.436C260.591 205.436 242.944 227.797 241.552 245.287C240.16 262.778 242.741 202.923 242.741 202.923L260.591 205.436Z" fill="white"/>
<path d="M219.401 208.674L219.885 243.708C219.885 243.708 210.517 220.72 205.163 219.085L219.401 208.674Z" fill="white"/>
<path d="M234.66 280.319C222.602 275.257 221.531 255.599 232.774 246.527C239.274 241.281 247.377 236.252 255.805 234.737C275.425 231.216 327.766 234.589 319.635 249.942C315.102 258.503 272.166 253.19 275.266 260.077C276.236 262.229 283.059 260.431 287.313 263.937C298.377 273.057 258.817 290.465 234.66 280.319Z" fill="#F1F3FF"/>
<path d="M266.619 273.334C265.624 277.765 257.849 282.22 253.451 284.244C250.912 285.414 248.165 286.063 245.371 286.155C237.621 286.451 230.616 282.953 225.528 283.271C225.231 283.289 224.939 283.32 224.655 283.366C223.882 283.49 219.828 284.822 214.44 286.654C201.092 291.201 179.567 298.829 179.567 298.829L184.504 276.843L220.493 272.296C220.493 272.296 223.282 267.273 233.392 268.878C243.501 270.482 249.937 267.681 248.169 271.106C246.402 274.531 236.98 273.92 236.98 273.92L237.7 275.05C241.758 275.438 251.953 276.331 256.553 275.241C263.401 273.61 267.614 268.906 266.619 273.334Z" fill="#F6C5A6"/>
<path d="M179.246 275.727L189.775 274.933C189.775 274.933 183.533 297.654 185.335 301.749C187.138 305.844 175.319 307.529 174.141 304.411C172.964 301.293 176.075 283.6 179.246 275.727Z" fill="#5A00C4"/>
<path d="M222.402 168.388C222.237 168.351 222.091 168.257 221.988 168.124C221.884 167.99 221.831 167.824 221.837 167.655C221.913 165.502 223.153 161.316 227.312 160.869C227.503 160.848 227.694 160.905 227.844 161.025C227.994 161.146 228.09 161.321 228.111 161.513C228.121 161.607 228.113 161.704 228.086 161.795C228.059 161.887 228.014 161.972 227.955 162.047C227.895 162.121 227.821 162.183 227.737 162.229C227.653 162.275 227.561 162.304 227.466 162.314C223.527 162.738 223.298 167.504 223.29 167.706C223.287 167.802 223.265 167.895 223.225 167.982C223.185 168.069 223.129 168.147 223.059 168.212C222.989 168.277 222.907 168.328 222.817 168.361C222.728 168.394 222.633 168.41 222.537 168.406C222.492 168.404 222.447 168.398 222.402 168.388Z" fill="#603F24"/>
<path d="M233.966 156.644C233.797 156.609 233.647 156.515 233.541 156.379C233.435 156.243 233.381 156.073 233.388 155.901C233.465 154.023 234.555 150.397 238.126 150.118C238.222 150.111 238.317 150.123 238.408 150.152C238.499 150.182 238.583 150.23 238.656 150.292C238.728 150.355 238.788 150.431 238.831 150.516C238.874 150.602 238.9 150.695 238.907 150.79C238.914 150.886 238.902 150.981 238.872 151.072C238.843 151.163 238.795 151.247 238.733 151.32C238.67 151.392 238.594 151.452 238.509 151.495C238.423 151.538 238.33 151.564 238.235 151.571C235.042 151.82 234.836 155.921 234.835 155.962C234.827 156.155 234.743 156.337 234.601 156.467C234.46 156.598 234.272 156.667 234.08 156.66C234.041 156.657 234.004 156.652 233.966 156.644Z" fill="#603F24"/>
<path d="M244.87 180.392C244.698 180.355 244.546 180.258 244.44 180.117C244.335 179.977 244.284 179.803 244.297 179.628C244.311 179.436 244.401 179.258 244.547 179.132C244.692 179.007 244.881 178.944 245.073 178.958C245.109 178.966 247.66 179.116 249.172 177.757C249.891 177.109 250.259 176.233 250.3 175.078C250.303 174.982 250.325 174.888 250.365 174.801C250.404 174.714 250.46 174.636 250.53 174.57C250.6 174.505 250.682 174.454 250.771 174.421C250.861 174.387 250.956 174.372 251.052 174.375C251.147 174.378 251.241 174.401 251.328 174.44C251.414 174.48 251.493 174.536 251.558 174.606C251.623 174.676 251.673 174.758 251.706 174.848C251.74 174.937 251.755 175.033 251.752 175.128C251.698 176.681 251.155 177.929 250.137 178.843C248.154 180.633 245.098 180.416 244.967 180.414C244.934 180.409 244.902 180.401 244.87 180.392Z" fill="#DD9E7A"/>
<path d="M238.327 170.134C238.225 170.112 238.13 170.069 238.046 170.008C237.963 169.946 237.894 169.868 237.843 169.777C237.752 169.607 237.733 169.408 237.788 169.224C237.844 169.039 237.971 168.885 238.141 168.794L238.706 168.491C238.96 168.356 239.178 168.162 239.343 167.926C239.507 167.69 239.613 167.419 239.651 167.134C239.692 166.848 239.663 166.558 239.568 166.286C239.473 166.014 239.315 165.769 239.106 165.571L235.558 162.169C235.421 162.035 235.341 161.852 235.338 161.66C235.335 161.468 235.407 161.283 235.54 161.144C235.674 161.006 235.857 160.926 236.05 160.923C236.243 160.92 236.429 160.993 236.567 161.127L240.115 164.526C240.49 164.882 240.775 165.323 240.945 165.812C241.115 166.301 241.166 166.823 241.093 167.336C241.026 167.849 240.836 168.338 240.541 168.763C240.245 169.188 239.853 169.536 239.395 169.778L238.83 170.081C238.674 170.158 238.496 170.177 238.327 170.134Z" fill="#DD9E7A"/>
<path d="M229.77 168.332C230.101 168.122 229.993 167.358 229.529 166.625C229.065 165.893 228.421 165.469 228.09 165.679C227.758 165.889 227.866 166.652 228.33 167.385C228.794 168.118 229.438 168.542 229.77 168.332Z" fill="black"/>
<path d="M240.873 161.295C241.204 161.085 241.097 160.322 240.633 159.589C240.169 158.856 239.524 158.432 239.193 158.642C238.862 158.852 238.969 159.616 239.433 160.349C239.897 161.081 240.542 161.505 240.873 161.295Z" fill="black"/>
<path d="M217.269 187.394C217.15 187.368 217.041 187.312 216.949 187.232C216.858 187.152 216.788 187.05 216.746 186.937C214.311 180.385 211.085 181.039 210.951 181.071C210.764 181.115 210.568 181.084 210.404 180.984C210.241 180.884 210.123 180.723 210.077 180.537C210.031 180.352 210.06 180.157 210.157 179.993C210.253 179.829 210.411 179.709 210.595 179.66C210.782 179.61 215.187 178.56 218.112 186.429C218.179 186.609 218.171 186.809 218.091 186.985C218.011 187.16 217.864 187.296 217.683 187.363C217.551 187.414 217.407 187.424 217.269 187.394Z" fill="#DD9E7A"/>
<path d="M237.451 265.022C241.249 265.875 244.735 264.757 245.236 262.524C245.738 260.291 243.065 257.79 239.267 256.937C235.469 256.084 231.983 257.202 231.482 259.435C230.98 261.668 233.653 264.169 237.451 265.022Z" fill="#FF7E21"/>
<path d="M248.688 254.786C253.334 255.829 257.491 254.932 257.974 252.781C258.457 250.631 255.083 248.042 250.437 246.999C245.791 245.955 241.634 246.853 241.151 249.003C240.668 251.154 244.043 253.743 248.688 254.786Z" fill="#FF661A"/>
<path d="M262.01 244.974C265.756 245.815 269.116 245.057 269.514 243.282C269.913 241.506 267.2 239.385 263.454 238.543C259.708 237.702 256.348 238.46 255.949 240.235C255.55 242.011 258.264 244.133 262.01 244.974Z" fill="#3939FA"/>
<path d="M280.769 244.697C284.605 245.559 288.023 244.884 288.403 243.191C288.784 241.497 285.982 239.426 282.146 238.565C278.31 237.703 274.892 238.378 274.512 240.071C274.131 241.765 276.933 243.836 280.769 244.697Z" fill="#BDA6FF"/>
<path d="M301.207 247.326C304.851 248.145 308.142 247.31 308.557 245.463C308.972 243.615 306.354 241.454 302.71 240.636C299.065 239.818 295.775 240.652 295.36 242.499C294.945 244.347 297.563 246.508 301.207 247.326Z" fill="#FF8F3E"/>
<path d="M274.571 272.28C277.675 272.977 280.545 271.962 280.983 270.012C281.421 268.063 279.26 265.918 276.156 265.221C273.053 264.524 270.182 265.539 269.744 267.488C269.306 269.438 271.467 271.583 274.571 272.28Z" fill="#5A00C4"/>
<path d="M135.056 428.966C139.141 433.178 143.021 437.586 146.787 442.085C148.68 444.327 150.508 446.623 152.331 448.925C154.153 451.226 155.907 453.582 157.648 455.947C159.389 458.312 161.043 460.732 162.677 463.19C163.481 464.419 164.275 465.658 165.047 466.911C165.818 468.165 166.575 469.427 167.292 470.716C168.758 473.275 170.053 475.929 171.167 478.661C171.719 480.034 172.168 481.447 172.51 482.886L172.636 483.431C172.673 483.611 172.701 483.796 172.732 483.977C172.802 484.34 172.834 484.71 172.878 485.077C172.936 485.813 172.915 486.552 172.815 487.283C172.897 485.811 172.558 484.377 172.129 482.992C171.687 481.608 171.15 480.256 170.522 478.946C169.91 477.626 169.236 476.335 168.525 475.065C167.815 473.796 167.085 472.532 166.321 471.29C164.786 468.812 163.205 466.368 161.543 463.959C159.881 461.549 158.209 459.162 156.481 456.805C154.753 454.448 153.019 452.096 151.254 449.763C149.488 447.429 147.697 445.118 145.917 442.796C142.324 438.172 138.695 433.575 135.056 428.966Z" fill="white"/>
<path d="M63.637 520.766L56.6266 543.347C53.4191 553.683 47.0198 562.738 38.3471 569.211L19.1978 583.511L11.8383 581.859C17.0537 577.179 23.3291 571.163 30.3187 563.703C39.2893 554.145 50.4742 515.595 50.4742 515.595L63.637 520.766Z" fill="#5A00C4"/>
<path d="M60.6435 579.918L59.696 583.341C59.696 583.341 53.9654 582.054 31.258 592.337C19.5282 597.65 10.4892 598.123 4.49384 597.341C3.57924 597.227 2.72821 596.813 2.07476 596.164C1.42132 595.514 1.00258 594.665 0.884462 593.751C3.05011 595.608 7.33389 597.544 14.9639 595.05C25.8596 591.495 51.5907 580.232 60.6435 579.918Z" fill="#5A00C4"/>
<path opacity="0.05" d="M171.396 301.417C163.675 301.938 148.952 301.56 145.011 291.742C141.518 283.031 157.713 256.066 169.411 239.407C176.647 229.086 186.219 220.621 197.348 214.703C187.634 222.664 173.03 237.778 162.077 262.919C145.25 301.556 168.467 301.557 171.396 301.417Z" fill="#5A00C4"/>
<path opacity="0.54" d="M176.881 277.277L160.827 278.534L180.711 273.459L176.881 277.277Z" fill="#5A00C4"/>
<path d="M212.366 260.473C213.053 260.628 213.864 259.619 214.178 258.221C214.492 256.822 214.19 255.564 213.503 255.409C212.817 255.255 212.005 256.264 211.691 257.662C211.377 259.061 211.679 260.319 212.366 260.473Z" fill="#5A00C4"/>
<path d="M209.875 271.566C210.562 271.72 211.373 270.712 211.687 269.314C212.001 267.915 211.699 266.656 211.012 266.502C210.325 266.348 209.514 267.357 209.2 268.755C208.886 270.153 209.188 271.412 209.875 271.566Z" fill="#5A00C4"/>
<path d="M200.966 299.716C201.653 299.87 202.464 298.862 202.778 297.463C203.092 296.065 202.79 294.806 202.103 294.652C201.416 294.498 200.605 295.507 200.291 296.905C199.977 298.303 200.279 299.562 200.966 299.716Z" fill="#5A00C4"/>
<path d="M245.375 286.149C237.625 286.445 230.621 282.947 225.533 283.265C225.236 283.283 224.943 283.314 224.66 283.359C223.887 283.484 219.833 284.816 214.445 286.648C222.246 277.034 236.305 278.005 241.167 278.68C241.684 278.749 242.173 278.957 242.581 279.282C242.989 279.607 243.301 280.036 243.485 280.524C244.031 281.995 244.846 284.259 245.375 286.149Z" fill="#DD9E7A"/>
<path d="M378.157 115.479L373.838 118.689L381.093 117.467L378.157 115.479Z" fill="#DD9E7A"/>
<path d="M630.996 222.304C615.799 207.186 594.47 184.415 568.812 152.864C536.77 113.473 501.651 93.2263 478.803 83.3602C499.379 67.1141 521.136 52.3976 543.896 39.3307C554.794 68.1679 598.847 83.8536 630.878 91.626C630.949 130.414 630.989 174.57 630.996 222.304Z" fill="white" fill-opacity="0.28"/>
<path d="M630.995 364.67C630.96 414.741 630.907 466.531 630.84 518.489C597.789 510.852 551.888 502.067 495.237 495.757C400.257 485.176 319.45 553.293 287.606 584.831C282.825 556.131 280.428 527.087 280.439 497.995C280.434 476.019 281.798 454.063 284.524 432.255C326.185 442.031 392.973 446.457 463.688 405.973C530.016 367.993 590.843 362.408 630.995 364.67Z" fill="white" fill-opacity="0.28"/>
<path d="M630.996 629.945C630.915 681.216 630.823 731.571 630.732 779.516C561.041 756.726 444.75 724.905 416.06 755.377C401.502 770.826 388.281 787.957 377.208 803.715C352.349 768.133 331.911 729.606 316.35 688.998C334.986 660.563 369.447 629.633 431.747 625.81C513.823 620.776 585.807 628.77 630.996 629.945Z" fill="white" fill-opacity="0.28"/>
<defs>
<linearGradient id="paint0_linear_1512_7503" x1="616.482" y1="178.518" x2="303.014" y2="724.257" gradientUnits="userSpaceOnUse">
<stop stop-color="#7E7EFD"/>
<stop offset="1" stop-color="#3B264D"/>
</linearGradient>
</defs>
</svg>
