<svg width="875" height="886" viewBox="0 0 875 886" fill="none" xmlns="http://www.w3.org/2000/svg">
<path d="M258.809 494.575C253.375 492.563 243.69 479.453 243.69 479.453L231.296 456.582C231.296 456.582 193.694 422.135 170.361 397.73C160.766 387.692 153.584 379.353 152.434 375.816C149.907 368.058 175.382 312.339 175.382 312.339L213.894 319.436L193.177 368.428C193.177 368.428 241.882 430.962 252.825 446.014C263.769 461.066 261.054 476.151 262.28 488.13C262.867 494.106 261.284 495.495 258.809 494.575Z" fill="#FFBB99"/>
<path d="M878.991 42.3762V885.741C795.809 862.777 722.561 815.848 667.152 752.849C600.967 677.62 560.232 579.463 558.355 471.835C558.308 469.251 558.285 466.659 558.285 464.059C558.301 368.373 589.672 275.33 647.595 199.172C705.518 123.014 786.801 67.9383 879.001 42.3762H878.991Z" fill="url(#paint0_linear_1530_4482)"/>
<path opacity="0.44" d="M879.001 376.881V633.595C810.974 587.699 771.884 603.415 679.073 648.247C590.123 691.212 685.728 392.536 613.96 441.729C593.47 455.775 574.932 465.882 558.355 472.509C558.308 469.927 558.285 467.336 558.285 464.738C558.213 408.273 569.123 352.332 590.41 300.026C597.553 304.318 608.098 303.549 623.121 295.524C713.197 247.424 688.933 511.731 768.679 486.129C817.736 470.366 847.791 408.96 879.001 376.881Z" fill="url(#paint1_linear_1530_4482)"/>
<path opacity="0.44" d="M879.001 265.206V309.599C829.762 342.763 781.653 352.461 770.408 293.133C759.501 235.591 733.848 180.716 707.304 135.956C723.287 121.901 740.275 109.031 758.132 97.4496C784.001 150.886 816.46 216.551 838.068 255.512C849.256 275.691 863.5 275.532 879.001 265.206Z" fill="url(#paint2_linear_1530_4482)"/>
<path opacity="0.44" d="M878.999 820.995V885.74C796.051 862.757 723.01 815.79 667.756 752.74C664.611 713.82 677.205 654.157 793.173 738.541C831.233 766.221 858.9 794.343 878.999 820.995Z" fill="url(#paint3_linear_1530_4482)"/>
<path d="M630.327 517.511L626.513 513.214L601.479 485.011L621.12 454.94L636.061 469.228C636.061 469.228 638.657 468.328 642.882 466.977C644.81 466.357 647.084 465.649 649.587 464.889C651.893 464.19 654.41 463.449 657.057 462.699C659.176 462.098 661.385 461.492 663.649 460.9C666.535 460.141 669.504 459.4 672.483 458.71C674.63 458.216 676.778 457.745 678.907 457.312C686.816 455.718 694.399 454.693 700.216 454.907C701.37 454.942 702.52 455.045 703.662 455.215C722.603 458.132 630.327 517.511 630.327 517.511Z" fill="#9C9EF9"/>
<path d="M392.531 734.908L392.456 728.09L391.985 682.989L429.986 678.411L428.626 711.56C428.626 711.56 430.462 712.266 433.469 713.499C435.215 714.219 437.361 715.117 439.766 716.167C441.724 717.018 443.861 717.964 446.097 718.99C447.904 719.823 449.777 720.703 451.688 721.625L451.928 721.743C454.089 722.797 456.277 723.898 458.452 725.036C460.311 726.015 462.156 727.022 463.949 728.048C473.588 733.539 481.862 739.614 483.561 744.936C483.599 745.063 483.636 745.185 483.669 745.312C487.331 759.4 392.531 734.908 392.531 734.908Z" fill="#9C9EF9"/>
<path d="M259.543 211.631L222.371 229.648L222.243 229.681C221.347 229.907 220.436 230.065 219.516 230.153H219.469C214.864 230.625 205.911 230.101 200.6 220.01C193.222 205.98 186.479 198.96 195.384 192.392C195.384 192.392 183.748 174.994 198.983 164.591C200.254 163.723 201.463 162.982 202.621 162.35C212.877 156.736 218.525 159.722 218.525 159.722C218.525 159.722 224.898 138.431 243.354 145.215C262.701 152.33 258.054 171.422 258.054 171.422C258.054 171.422 265.489 163.638 269.359 175.819C276.301 197.775 259.543 211.631 259.543 211.631Z" fill="#563823"/>
<path d="M345.968 264.154L371.516 283.429C371.516 283.429 419.538 268.903 435.631 255.51C451.725 242.116 462.922 224.79 472.019 222.846C481.116 220.903 463.054 240.97 463.054 240.97C463.054 240.97 477.822 226.5 480.369 224.738C482.916 222.977 487.723 232.195 482.558 238.891C477.394 245.588 454.99 268.749 454.99 268.749C454.99 268.749 400.771 317.243 379.955 315.537C359.139 313.832 326.115 291.803 326.115 291.803L345.968 264.154Z" fill="#FFBB99"/>
<path d="M628.476 453.746L625.66 458.057L607.487 485.917L600.256 497.025L475.255 380.106L385.124 390.005L380.525 390.511L402.65 424.887C427.441 463.411 440.158 508.459 439.171 554.255L436.355 683.975L419.871 685.96L389.07 689.67L383.908 690.29L360.728 509.77C360.728 509.77 287.86 432.543 266.725 375.345L284.331 361.047L326.821 326.531L338.448 317.088L341.358 314.742L347.101 314.367L440.761 308.269C458.739 307.1 476.745 310.097 493.374 317.027C510.003 323.957 524.807 334.633 536.632 348.222L628.476 453.746Z" fill="#8E37F5"/>
<path opacity="0.17" d="M389.088 689.674L383.926 690.291L360.742 510.303C360.742 510.303 287.863 433.302 266.725 376.272L284.334 362.016C311.6 393.181 374.441 467.586 386.986 505.05C399.249 541.696 392.847 643.239 389.088 689.674Z" fill="#0000FF"/>
<path opacity="0.17" d="M607.955 485.904L607.951 485.918L600.717 496.994L475.671 380.173L385.506 390.063L480.501 368.492L607.955 485.904Z" fill="#0000FF"/>
<path d="M353.11 314.658C353.11 314.658 352.641 316.924 351.703 320.814C349.828 328.828 346.048 343.752 340.797 360.066C335.845 375.43 329.543 392.011 322.265 405.188C319.161 410.806 315.879 415.758 312.418 419.77C307.401 425.617 302.036 429.404 296.405 430.036C295.04 430.191 292.405 428.164 288.902 424.597C285.479 421.118 281.231 416.17 276.523 410.347C271.238 403.793 265.377 396.153 259.478 388.233C254.489 381.529 249.462 374.629 244.731 368.043C235.441 355.113 227.278 343.377 222.654 336.679L221.247 334.628C219.602 332.227 218.673 330.846 218.659 330.794C218.434 330.041 215.958 335.064 212.985 341.561C208.16 352.089 202.022 366.498 202.022 366.498L186.501 354.926L171.346 343.625L161.114 335.995L158.737 334.226C158.737 334.226 162.361 324.919 166.863 313.408C169.677 306.152 172.889 298.016 175.73 290.789C176.78 288.111 177.789 285.555 178.712 283.219C182.534 273.548 194.215 265.501 204.573 259.996C210.41 256.9 216.456 254.216 222.668 251.963C248.796 261.91 244.355 237.779 244.355 237.779L253.921 232.316C254.929 231.679 255.938 231.084 256.955 230.537C271.257 222.822 286.543 223.843 300.456 228.51C305.675 230.287 310.735 232.498 315.583 235.12C317.318 236.056 319.006 237.014 320.647 237.994C330.808 244.124 340.216 251.421 348.679 259.733L340.051 273.749L336.769 279.109L332.623 285.845L349.293 309.289L353.11 314.658Z" fill="white"/>
<path opacity="0.79" d="M301.28 228.51L176.017 290.743C177.072 288.067 178.084 285.512 179.012 283.177C182.85 273.51 194.58 265.466 204.983 259.964C210.844 256.87 216.917 254.187 223.155 251.934C249.394 261.877 244.935 237.756 244.935 237.756L254.541 232.296C255.554 231.659 256.566 231.065 257.588 230.518C271.956 222.825 287.308 223.845 301.28 228.51Z" fill="#9C9EF9"/>
<path opacity="0.79" d="M333.673 246.271L161.121 336.098L158.737 334.324C158.737 334.324 162.372 324.992 166.887 313.45L321.148 237.831C325.469 240.423 329.65 243.24 333.673 246.271Z" fill="#9C9EF9"/>
<path opacity="0.79" d="M186.813 354.806L213.809 341.495C208.891 351.98 202.634 366.331 202.634 366.331L186.813 354.806Z" fill="#9C9EF9"/>
<path opacity="0.79" d="M349.871 309.269L244.66 368.494C235.314 355.465 227.1 343.639 222.448 336.889L337.245 278.866L333.075 285.655L349.871 309.269Z" fill="#9C9EF9"/>
<path opacity="0.79" d="M352.033 320.981C350.166 329.003 346.404 343.941 341.177 360.27L277.211 410.609C271.951 404.049 266.117 396.402 260.246 388.474L352.033 320.981Z" fill="#9C9EF9"/>
<path opacity="0.79" d="M322.877 405.21C319.762 410.823 316.468 415.772 312.996 419.781C307.962 425.623 302.58 429.407 296.929 430.038C295.56 430.193 292.916 428.167 289.401 424.603L322.877 405.21Z" fill="#9C9EF9"/>
<path opacity="0.17" d="M316.376 235.123C298.998 225.876 277.254 219.892 257.457 230.539C256.986 230.792 256.514 231.054 256.043 231.326L255.831 231.452C255.36 231.729 254.888 232.01 254.417 232.305L244.801 237.769C244.801 237.769 249.265 261.905 223.001 251.956C217.487 253.943 212.103 256.269 206.881 258.923L206.565 259.082L206.202 259.264L205.608 259.574L205.443 259.658L204.812 259.99C194.399 265.496 182.658 273.545 178.816 283.219C171.411 301.863 158.737 334.254 158.737 334.254L171.411 343.656C174.386 329.418 183.313 291.548 215.247 269.528C234.54 286.122 285.21 280.854 292.724 253.571C296.575 239.576 274.2 254.259 269.915 245.785C297.47 237.094 316.395 235.137 316.395 235.137L316.376 235.123Z" fill="url(#paint4_linear_1530_4482)"/>
<path d="M223.699 258.246L220.29 219.468L251.385 225.708L258.084 259.665C258.084 259.665 240.484 281.904 223.699 258.246Z" fill="#FFBB99"/>
<path d="M253.338 231.598C251.814 230.2 248.463 227.267 244.633 224.309C236.411 217.962 226.019 211.619 226.812 220.933C226.957 222.351 227.234 223.754 227.639 225.124C233.568 246.3 252.129 244.596 255.925 244.014L253.338 231.598Z" fill="#E2906A"/>
<path d="M219.631 206.918C219.631 206.918 213.018 198.535 208.361 204.048C203.704 209.561 216.106 226.49 220.262 219.496C220.262 219.496 230.687 242.431 256.235 236.994C281.784 231.557 252.985 177.787 250.096 174.84C242.667 167.249 234.23 185.696 223.025 191.736C223.025 191.736 226.907 202.06 226.967 208.816C227.028 215.572 219.631 206.918 219.631 206.918Z" fill="#FFBB99"/>
<path d="M498.851 194.723L491.176 249.142C491.094 249.713 490.844 250.246 490.456 250.671C490.069 251.095 489.563 251.39 489.007 251.517L487.105 251.959L464.57 257.184C464.121 257.293 463.653 257.289 463.206 257.171C462.759 257.054 462.347 256.827 462.007 256.511C461.667 256.194 461.409 255.798 461.256 255.357C461.103 254.917 461.06 254.444 461.129 253.982L468.805 199.564C468.833 199.375 468.878 199.188 468.941 199.008C469.1 198.554 469.369 198.149 469.725 197.829C470.08 197.509 470.51 197.285 470.974 197.179L495.387 191.478C495.841 191.362 496.317 191.363 496.772 191.48C497.226 191.598 497.644 191.828 497.988 192.15C498.332 192.472 498.592 192.877 498.742 193.326C498.893 193.775 498.93 194.255 498.851 194.723Z" fill="url(#paint5_linear_1530_4482)"/>
<path opacity="0.42" d="M266.789 204.017C263.232 205.329 259.105 202.676 257.575 198.091C256.046 193.506 257.691 188.722 261.261 187.41C264.831 186.098 268.949 188.756 270.474 193.341C271.998 197.926 270.349 202.705 266.789 204.017Z" fill="white"/>
<path d="M267.166 204.008C271.274 202.677 273.221 197.874 271.491 193.302C269.761 188.729 264.984 186.088 260.881 187.42C256.777 188.752 254.826 193.554 256.556 198.131C258.286 202.708 263.057 205.336 267.166 204.008ZM261.4 188.783C264.706 187.713 268.569 189.959 270.02 193.781C271.471 197.603 269.967 201.58 266.657 202.659C263.346 203.737 259.492 201.483 258.041 197.665C256.589 193.848 258.098 189.879 261.404 188.809L261.4 188.783Z" fill="black"/>
<path opacity="0.42" d="M234.891 205.644C236.422 210.222 240.562 212.888 244.111 211.584C247.661 210.28 249.325 205.509 247.799 200.907C246.273 196.305 242.134 193.664 238.579 194.972C235.454 196.117 233.813 199.912 234.472 203.906C234.561 204.498 234.701 205.08 234.891 205.644Z" fill="white"/>
<path d="M244.489 211.551C248.598 210.136 250.545 205.031 248.814 200.166C247.084 195.302 242.311 192.514 238.202 193.924C234.093 195.335 232.156 200.445 233.876 205.3C235.597 210.154 240.379 212.962 244.489 211.551ZM238.721 195.368C242.028 194.231 245.887 196.618 247.339 200.676C248.79 204.733 247.291 208.97 243.974 210.112C240.658 211.254 236.803 208.862 235.352 204.799C233.9 200.737 235.415 196.501 238.712 195.368H238.721Z" fill="black"/>
<path d="M242.503 205.4C242.021 205.604 241.34 204.821 240.999 203.642C240.658 202.463 240.786 201.339 241.271 201.143C241.756 200.947 242.434 201.722 242.775 202.897C243.116 204.071 242.989 205.192 242.503 205.4Z" fill="black"/>
<path d="M262.799 198.923C262.059 199.132 261.05 198.345 260.538 197.167C260.026 195.988 260.202 194.868 260.942 194.669C261.681 194.469 262.68 195.251 263.192 196.425C263.704 197.6 263.528 198.707 262.799 198.923Z" fill="black"/>
<path d="M253.08 189.188C253.35 189.072 253.566 188.846 253.683 188.56C255.499 184.216 259.849 185.153 260.027 185.195C260.164 185.224 260.306 185.224 260.443 185.195C260.582 185.169 260.715 185.113 260.834 185.03C260.953 184.944 261.058 184.838 261.145 184.716C261.222 184.591 261.275 184.452 261.304 184.306C261.329 184.157 261.329 184.003 261.304 183.854C261.278 183.704 261.222 183.563 261.141 183.438C261.067 183.31 260.971 183.198 260.858 183.109C260.743 183.021 260.611 182.961 260.472 182.933C258.33 182.427 253.743 182.747 251.694 187.612C251.613 187.819 251.586 188.045 251.615 188.267C251.645 188.49 251.738 188.698 251.882 188.863C252.026 189.033 252.214 189.151 252.421 189.204C252.623 189.257 252.834 189.246 253.03 189.172L253.08 189.188Z" fill="#3D2617"/>
<path d="M244.424 191.858C244.689 191.76 244.905 191.565 245.028 191.313C245.085 191.192 245.118 191.061 245.126 190.927C245.136 190.79 245.117 190.653 245.071 190.524C245.025 190.394 244.952 190.275 244.858 190.175C244.768 190.075 244.661 189.991 244.541 189.929C244.468 189.895 237.724 186.789 231.349 193.98C231.171 194.19 231.079 194.459 231.091 194.732C231.112 195.008 231.24 195.265 231.447 195.451C231.551 195.542 231.672 195.612 231.803 195.656C231.934 195.701 232.073 195.719 232.212 195.71C232.35 195.701 232.486 195.665 232.61 195.604C232.735 195.543 232.846 195.458 232.937 195.355C238.225 189.399 243.416 191.718 243.621 191.81C243.746 191.869 243.882 191.904 244.02 191.911C244.157 191.92 244.294 191.902 244.424 191.858Z" fill="#3D2617"/>
<path d="M248.166 200.036C249.081 198.345 250.276 197.241 251.75 196.814C253.351 196.437 255.046 196.615 256.516 197.313L257.005 196.526C255.301 195.705 253.326 195.5 251.466 195.951C249.708 196.467 248.298 197.715 247.287 199.656L248.166 200.036Z" fill="black"/>
<path d="M258.882 209.615C259.003 209.586 259.121 209.548 259.235 209.501C259.529 209.338 259.775 209.112 259.951 208.842C260.124 208.574 260.221 208.271 260.235 207.961C260.543 205.207 254.333 198.762 253.627 198.035C253.528 197.943 253.395 197.886 253.254 197.876C253.113 197.868 252.974 197.911 252.866 197.994C252.763 198.084 252.699 198.205 252.687 198.335C252.69 198.462 252.737 198.584 252.821 198.685C254.671 200.567 259.588 205.388 259.196 208.229C258.107 209.256 254.721 208.152 254.621 208.402C254.588 208.457 254.571 208.52 254.571 208.583C254.566 208.648 254.576 208.713 254.601 208.774C254.648 208.896 254.744 208.997 254.87 209.056C255.118 209.161 257.361 210.101 258.882 209.615Z" fill="black"/>
<path d="M257.925 218.8C258.268 218.663 258.602 218.502 258.926 218.316C259.036 218.246 259.117 218.131 259.152 217.997C259.181 217.863 259.166 217.722 259.107 217.6C259.073 217.543 259.033 217.491 258.988 217.445C258.936 217.403 258.877 217.372 258.815 217.353C258.757 217.339 258.696 217.339 258.638 217.353C258.575 217.359 258.515 217.381 258.461 217.416C258.195 217.576 252.228 221.085 245.912 214.222C245.826 214.128 245.71 214.074 245.589 214.072C245.467 214.071 245.35 214.122 245.261 214.212C245.218 214.259 245.183 214.315 245.161 214.376C245.138 214.438 245.127 214.504 245.128 214.57C245.127 214.705 245.173 214.835 245.257 214.933C250.551 220.746 255.774 219.623 257.925 218.8Z" fill="black"/>
<path d="M219.21 208.28L233.869 203.271L234.328 204.746L219.675 209.751L219.21 208.28Z" fill="black"/>
<path d="M210.572 208.284C210.572 208.284 214.588 204.385 217.052 215.155" stroke="#E2906A" stroke-width="2.45" stroke-miterlimit="10" stroke-linecap="round"/>
<path opacity="0.38" d="M340.153 273.227L332.83 285.346L298.039 249.711L340.153 273.227Z" fill="url(#paint6_linear_1530_4482)"/>
<path d="M371.468 283.995V296.143L416.821 266.987L371.468 283.995Z" fill="#E09473"/>
<path d="M192.431 368.493L164.137 338.257L195.453 361.409L192.431 368.493Z" fill="#E09473"/>
<path d="M258.085 494.833C252.711 492.836 243.133 479.826 243.133 479.826L230.876 457.13C230.876 457.13 193.691 422.945 170.616 398.726C171.708 399.476 233.723 442.509 241.113 457.418C248.098 471.513 256.988 492.292 258.085 494.833Z" fill="#E09473"/>
<path d="M219.21 230.15C214.648 230.623 205.777 230.098 200.514 219.991C193.203 205.937 186.521 198.906 195.346 192.328C195.346 192.328 183.815 174.9 198.912 164.481C200.171 163.611 201.369 162.869 202.516 162.236C199.833 167.845 197.977 174.404 200.519 179.9C206.03 191.817 191.789 196.467 199.311 202.884C206.303 208.843 207.661 230.642 219.21 230.15Z" fill="#3D2617"/>
<path opacity="0.27" d="M439.449 554.288L436.642 683.984L420.206 685.968C419.701 653.217 418.293 548.144 420.3 510.604C422.676 466.075 360.107 369.284 359.592 368.492C359.943 368.787 380.954 390.578 380.954 390.578L403.013 424.947C427.738 463.46 440.425 508.498 439.449 554.288Z" fill="white"/>
<path d="M495.62 197.866L487.786 251.49C487.757 251.678 487.709 251.863 487.642 252.042L464.642 257.192C464.184 257.299 463.705 257.294 463.249 257.179C462.793 257.063 462.373 256.839 462.026 256.528C461.679 256.216 461.416 255.826 461.259 255.391C461.103 254.957 461.059 254.492 461.13 254.036L468.964 200.413C468.992 200.226 469.039 200.043 469.103 199.865L492.103 194.716C492.561 194.608 493.039 194.611 493.496 194.727C493.952 194.842 494.373 195.065 494.72 195.376C495.068 195.687 495.331 196.077 495.488 196.511C495.645 196.946 495.69 197.411 495.62 197.866Z" fill="white"/>
<path d="M450.3 240.776C450.366 239.017 471.018 213.098 473.726 215.282C476.434 217.465 461.654 242.147 461.654 242.147L450.3 240.776Z" fill="#FFBB99"/>
<path opacity="0.27" d="M628.476 453.81L625.666 458.121C599.883 430.781 531.783 358.801 501.734 329.368C473.492 301.686 374.519 317.244 327.507 326.553C312.487 329.533 302.772 331.879 302.36 331.977C302.861 331.71 316.327 324.653 339.109 317.108C341.853 316.198 344.731 315.285 347.743 314.368L441.196 308.269C459.134 307.1 477.1 310.098 493.692 317.029C510.284 323.961 525.055 334.639 536.854 348.23L628.476 453.81Z" fill="white"/>
<path opacity="0.38" d="M313.158 419.712C308.131 425.592 302.757 429.401 297.115 430.037C288.899 430.979 234.402 352.528 221.818 334.062V333.996L219.21 330.206L227.276 308.022C248.397 369.976 292.902 405.955 313.158 419.712Z" fill="url(#paint7_linear_1530_4482)"/>
<path opacity="0.6" d="M482.694 196.902L0 0.261719L14.7037 261.586L463.117 253.658L482.694 196.902Z" fill="url(#paint8_linear_1530_4482)"/>
<path d="M393.139 734.899L393.065 728.08C408.731 734.076 455.637 750.905 477.218 746.157C479.471 745.661 481.586 745.253 483.562 744.933C483.599 745.06 483.637 745.183 483.669 745.31C487.307 759.396 393.139 734.899 393.139 734.899Z" fill="white"/>
<path d="M630.137 517.511L626.313 513.211C626.313 513.211 684.159 476.328 689.494 467.833C692.854 462.48 697.342 457.686 700.202 454.879C701.358 454.914 702.512 455.017 703.656 455.187C722.633 458.097 630.137 517.511 630.137 517.511Z" fill="white"/>
<path d="M650.073 464.6L642.47 482.249L634.955 484.038L642.965 466.709C645.009 466.083 647.41 465.367 650.073 464.6Z" fill="white"/>
<path d="M664.111 461.363L657.096 478.01L650.073 479.72L657.573 463.122C659.675 462.532 661.865 461.947 664.111 461.363Z" fill="white"/>
<path d="M679.228 457.038L672.307 474.619L665.19 476.475L672.776 458.488C674.914 457.975 677.09 457.482 679.228 457.038Z" fill="white"/>
<path d="M439.5 715.682L424.813 723.761L418.982 719.271C419.732 719.4 426.734 716.167 433.424 712.962C435.117 713.696 437.188 714.613 439.5 715.682Z" fill="white"/>
<path d="M452.456 722.069L435.608 730.244L428.7 726.397C429.59 726.536 438.751 722.742 446.487 719.446L452.456 722.069Z" fill="white"/>
<path d="M464.335 727.864L449.477 735.641L442.738 731.594C443.56 731.731 451.599 728.166 458.85 724.842C460.705 725.824 462.546 726.835 464.335 727.864Z" fill="white"/>
<path d="M385.506 372.481C396.571 370.111 407.687 368.033 418.836 366.057C429.985 364.081 441.158 362.311 452.406 360.906C458.039 360.18 463.673 359.501 469.348 359.122C472.193 358.921 475.047 358.766 477.948 358.771C479.427 358.763 480.905 358.838 482.375 358.996C483.186 359.079 483.987 359.236 484.769 359.464C485 359.531 485.226 359.613 485.445 359.712C485.664 359.8 485.874 359.907 486.074 360.031L486.37 360.199C486.464 360.255 486.539 360.311 486.624 360.368L487.093 360.695C488.337 361.576 489.44 362.475 490.543 363.397C491.647 364.319 492.717 365.27 493.787 366.206C495.925 368.079 498.034 369.974 500.115 371.891C504.293 375.711 508.432 379.567 512.532 383.456C520.71 391.26 528.828 399.12 536.887 407.036L548.918 418.966L554.918 424.945L560.88 430.962C576.785 447.004 592.534 463.2 607.955 479.714C591.426 464.305 575.095 448.689 558.824 433.046L534.413 409.578C526.282 401.745 518.156 393.911 509.955 386.167C505.886 382.274 501.782 378.413 497.641 374.583C495.573 372.673 493.491 370.783 491.398 368.913C490.346 367.976 489.295 367.04 488.234 366.164C487.173 365.289 486.102 364.366 485.046 363.598L484.661 363.332C484.6 363.289 484.53 363.238 484.473 363.205L484.309 363.107C484.214 363.042 484.111 362.987 484.004 362.943C483.901 362.893 483.795 362.853 483.685 362.821C483.111 362.65 482.524 362.526 481.929 362.451C480.592 362.291 479.248 362.204 477.901 362.189C475.146 362.142 472.348 362.245 469.55 362.404C466.752 362.564 463.95 362.784 461.147 363.022C458.344 363.261 455.514 363.524 452.73 363.814C447.12 364.38 441.52 365.064 435.914 365.738C430.309 366.412 424.704 367.143 419.104 367.897C407.903 369.334 396.716 370.926 385.506 372.481Z" fill="#5637A2"/>
<path d="M318.557 426.803C327.25 434.982 335.443 443.686 343.343 452.643C351.257 461.62 358.644 471.043 365.467 480.865C368.892 485.801 372.064 490.905 374.972 496.158C375.68 497.484 376.38 498.817 377.072 500.158L378.068 502.194C378.398 502.869 378.729 503.549 379.012 504.243L379.932 506.316L380.163 506.837L380.366 507.371L380.772 508.445L381.589 510.593L382.273 512.76L382.957 514.931L383.542 517.112C383.925 518.57 384.326 520.024 384.642 521.487C384.958 522.95 385.331 524.409 385.638 525.872L386.534 530.271C387.658 536.147 388.672 542.032 389.531 547.932C392.943 571.544 395.034 595.265 396.639 619.004C398.243 642.743 399.263 666.515 399.546 690.287C397.691 666.576 395.817 642.884 393.703 619.22L392.037 601.483C391.754 598.522 391.458 595.568 391.15 592.62C390.853 589.665 390.532 586.716 390.206 583.766L389.234 574.921L388.191 566.081C387.45 560.2 386.686 554.319 385.798 548.462C384.911 542.605 383.995 536.738 382.915 530.951C381.834 525.164 380.517 519.386 378.865 513.791L378.238 511.695L377.502 509.66L377.133 508.642L376.949 508.136L376.732 507.629L375.873 505.613C375.595 504.937 375.283 504.276 374.967 503.61L374.023 501.622C373.369 500.308 372.704 498.999 372.027 497.692C369.262 492.496 366.218 487.431 362.99 482.469C359.762 477.507 356.326 472.672 352.81 467.889C349.294 463.105 345.636 458.42 341.894 453.82C334.447 444.563 326.668 435.557 318.557 426.803Z" fill="#5637A2"/>
<defs>
<linearGradient id="paint0_linear_1530_4482" x1="588.808" y1="-40.9306" x2="1156.61" y2="1424.79" gradientUnits="userSpaceOnUse">
<stop stop-color="#FFE2BC"/>
<stop offset="0.72" stop-color="#FF7E21"/>
</linearGradient>
<linearGradient id="paint1_linear_1530_4482" x1="625.599" y1="184.578" x2="924.391" y2="956.477" gradientUnits="userSpaceOnUse">
<stop stop-color="#FFE2BC"/>
<stop offset="0.72" stop-color="white"/>
</linearGradient>
<linearGradient id="paint2_linear_1530_4482" x1="733.459" y1="46.4699" x2="911.194" y2="505.297" gradientUnits="userSpaceOnUse">
<stop stop-color="#FFE2BC"/>
<stop offset="0.72" stop-color="white"/>
</linearGradient>
<linearGradient id="paint3_linear_1530_4482" x1="712.448" y1="628.984" x2="888.609" y2="1082.07" gradientUnits="userSpaceOnUse">
<stop stop-color="#FFE2BC"/>
<stop offset="0.72" stop-color="white"/>
</linearGradient>
<linearGradient id="paint4_linear_1530_4482" x1="158.713" y1="284.263" x2="316.376" y2="284.263" gradientUnits="userSpaceOnUse">
<stop stop-color="#3939FA"/>
<stop offset="1" stop-color="#ADADFF"/>
</linearGradient>
<linearGradient id="paint5_linear_1530_4482" x1="455.5" y1="230.072" x2="504.552" y2="218.925" gradientUnits="userSpaceOnUse">
<stop stop-color="#3939FA"/>
<stop offset="1" stop-color="#ADADFF"/>
</linearGradient>
<linearGradient id="paint6_linear_1530_4482" x1="298.039" y1="267.529" x2="340.153" y2="267.529" gradientUnits="userSpaceOnUse">
<stop stop-color="#3939FA"/>
<stop offset="1" stop-color="#ADADFF"/>
</linearGradient>
<linearGradient id="paint7_linear_1530_4482" x1="219.224" y1="369.034" x2="313.158" y2="369.034" gradientUnits="userSpaceOnUse">
<stop stop-color="#3939FA"/>
<stop offset="1" stop-color="#ADADFF"/>
</linearGradient>
<linearGradient id="paint8_linear_1530_4482" x1="0" y1="130.922" x2="482.694" y2="130.922" gradientUnits="userSpaceOnUse">
<stop stop-color="white" stop-opacity="0"/>
<stop offset="1" stop-color="white" stop-opacity="0.4"/>
</linearGradient>
</defs>
</svg>
