<?xml version="1.0" encoding="UTF-8" standalone="no"?>
<!-- Created with Inkscape (http://www.inkscape.org/) -->

<svg
   width="99.599747mm"
   height="122.96373mm"
   viewBox="0 0 99.599747 122.96373"
   version="1.1"
   id="svg1518"
   xml:space="preserve"
   inkscape:version="1.2.1 (9c6d41e, 2022-07-14)"
   xmlns:inkscape="http://www.inkscape.org/namespaces/inkscape"
   xmlns:sodipodi="http://sodipodi.sourceforge.net/DTD/sodipodi-0.dtd"
   xmlns="http://www.w3.org/2000/svg"
   xmlns:svg="http://www.w3.org/2000/svg"><sodipodi:namedview
     id="namedview1520"
     pagecolor="#ffffff"
     bordercolor="#000000"
     borderopacity="0.25"
     inkscape:showpageshadow="2"
     inkscape:pageopacity="0.0"
     inkscape:pagecheckerboard="0"
     inkscape:deskcolor="#d1d1d1"
     inkscape:document-units="mm"
     showgrid="false"
     inkscape:zoom="0.914906"
     inkscape:cx="-65.580507"
     inkscape:cy="248.65942"
     inkscape:window-width="1390"
     inkscape:window-height="1205"
     inkscape:window-x="0"
     inkscape:window-y="25"
     inkscape:window-maximized="0"
     inkscape:current-layer="layer1" /><defs
     id="defs1515"><linearGradient
       id="paint0_linear_1711_5519"
       x1="30.636299"
       y1="363.21301"
       x2="212.5"
       y2="136"
       gradientUnits="userSpaceOnUse"><stop
         stop-color="white"
         id="stop1997" /><stop
         offset="1"
         stop-color="white"
         stop-opacity="0"
         id="stop1999" /></linearGradient><linearGradient
       id="paint0_linear_1530_4467"
       x1="215.464"
       y1="129.159"
       x2="126.567"
       y2="228.46899"
       gradientUnits="userSpaceOnUse"><stop
         stop-color="#3939FA"
         id="stop2065" /><stop
         offset="0.11"
         stop-color="#3D3DFA"
         stop-opacity="0.98"
         id="stop2067" /><stop
         offset="0.23"
         stop-color="#4848FA"
         stop-opacity="0.92"
         id="stop2069" /><stop
         offset="0.37"
         stop-color="#5B5BFB"
         stop-opacity="0.83"
         id="stop2071" /><stop
         offset="0.51"
         stop-color="#7676FC"
         stop-opacity="0.69"
         id="stop2073" /><stop
         offset="0.66"
         stop-color="#9898FC"
         stop-opacity="0.52"
         id="stop2075" /><stop
         offset="0.81"
         stop-color="#C2C2FD"
         stop-opacity="0.31"
         id="stop2077" /><stop
         offset="0.96"
         stop-color="#F2F2FF"
         stop-opacity="0.06"
         id="stop2079" /><stop
         offset="1"
         stop-color="white"
         stop-opacity="0"
         id="stop2081" /></linearGradient><linearGradient
       id="paint1_linear_1530_4467"
       x1="336.67401"
       y1="141.692"
       x2="191.46001"
       y2="121.18"
       gradientUnits="userSpaceOnUse"><stop
         stop-color="#3939FA"
         id="stop2084" /><stop
         offset="0.11"
         stop-color="#3939F8"
         stop-opacity="0.98"
         id="stop2086" /><stop
         offset="0.23"
         stop-color="#3838F1"
         stop-opacity="0.92"
         id="stop2088" /><stop
         offset="0.37"
         stop-color="#3836E5"
         stop-opacity="0.83"
         id="stop2090" /><stop
         offset="0.51"
         stop-color="#3733D5"
         stop-opacity="0.69"
         id="stop2092" /><stop
         offset="0.66"
         stop-color="#3530C1"
         stop-opacity="0.52"
         id="stop2094" /><stop
         offset="0.81"
         stop-color="#332DA8"
         stop-opacity="0.31"
         id="stop2096" /><stop
         offset="0.96"
         stop-color="#32288B"
         stop-opacity="0.06"
         id="stop2098" /><stop
         offset="1"
         stop-color="#312783"
         stop-opacity="0"
         id="stop2100" /></linearGradient><linearGradient
       id="paint2_linear_1530_4467"
       x1="333.83499"
       y1="158.14799"
       x2="189.202"
       y2="137.58099"
       gradientUnits="userSpaceOnUse"><stop
         stop-color="#3939FA"
         id="stop2103" /><stop
         offset="0.11"
         stop-color="#3939F8"
         stop-opacity="0.98"
         id="stop2105" /><stop
         offset="0.23"
         stop-color="#3838F1"
         stop-opacity="0.92"
         id="stop2107" /><stop
         offset="0.37"
         stop-color="#3836E5"
         stop-opacity="0.83"
         id="stop2109" /><stop
         offset="0.51"
         stop-color="#3733D5"
         stop-opacity="0.69"
         id="stop2111" /><stop
         offset="0.66"
         stop-color="#3530C1"
         stop-opacity="0.52"
         id="stop2113" /><stop
         offset="0.81"
         stop-color="#332DA8"
         stop-opacity="0.31"
         id="stop2115" /><stop
         offset="0.96"
         stop-color="#32288B"
         stop-opacity="0.06"
         id="stop2117" /><stop
         offset="1"
         stop-color="#312783"
         stop-opacity="0"
         id="stop2119" /></linearGradient><linearGradient
       id="paint3_linear_1530_4467"
       x1="200.92799"
       y1="179.58501"
       x2="200.692"
       y2="179.599"
       gradientUnits="userSpaceOnUse"><stop
         stop-color="#3939FA"
         id="stop2122" /><stop
         offset="0.11"
         stop-color="#3939F8"
         stop-opacity="0.98"
         id="stop2124" /><stop
         offset="0.23"
         stop-color="#3838F1"
         stop-opacity="0.92"
         id="stop2126" /><stop
         offset="0.37"
         stop-color="#3836E5"
         stop-opacity="0.83"
         id="stop2128" /><stop
         offset="0.51"
         stop-color="#3733D5"
         stop-opacity="0.69"
         id="stop2130" /><stop
         offset="0.66"
         stop-color="#3530C1"
         stop-opacity="0.52"
         id="stop2132" /><stop
         offset="0.81"
         stop-color="#332DA8"
         stop-opacity="0.31"
         id="stop2134" /><stop
         offset="0.96"
         stop-color="#32288B"
         stop-opacity="0.06"
         id="stop2136" /><stop
         offset="1"
         stop-color="#312783"
         stop-opacity="0"
         id="stop2138" /></linearGradient><linearGradient
       id="paint4_linear_1530_4467"
       x1="201.04401"
       y1="179.29601"
       x2="200.545"
       y2="179.91299"
       gradientUnits="userSpaceOnUse"><stop
         stop-color="#3939FA"
         id="stop2141" /><stop
         offset="0.11"
         stop-color="#3939F8"
         stop-opacity="0.98"
         id="stop2143" /><stop
         offset="0.23"
         stop-color="#3838F1"
         stop-opacity="0.92"
         id="stop2145" /><stop
         offset="0.37"
         stop-color="#3836E5"
         stop-opacity="0.83"
         id="stop2147" /><stop
         offset="0.51"
         stop-color="#3733D5"
         stop-opacity="0.69"
         id="stop2149" /><stop
         offset="0.66"
         stop-color="#3530C1"
         stop-opacity="0.52"
         id="stop2151" /><stop
         offset="0.81"
         stop-color="#332DA8"
         stop-opacity="0.31"
         id="stop2153" /><stop
         offset="0.96"
         stop-color="#32288B"
         stop-opacity="0.06"
         id="stop2155" /><stop
         offset="1"
         stop-color="#312783"
         stop-opacity="0"
         id="stop2157" /></linearGradient><linearGradient
       id="paint5_linear_1530_4467"
       x1="249.12601"
       y1="158.14999"
       x2="213.07401"
       y2="198.65199"
       gradientUnits="userSpaceOnUse"><stop
         stop-color="#3939FA"
         id="stop2160" /><stop
         offset="0.11"
         stop-color="#3939F8"
         stop-opacity="0.98"
         id="stop2162" /><stop
         offset="0.23"
         stop-color="#3838F1"
         stop-opacity="0.92"
         id="stop2164" /><stop
         offset="0.37"
         stop-color="#3836E5"
         stop-opacity="0.83"
         id="stop2166" /><stop
         offset="0.51"
         stop-color="#3733D5"
         stop-opacity="0.69"
         id="stop2168" /><stop
         offset="0.66"
         stop-color="#3530C1"
         stop-opacity="0.52"
         id="stop2170" /><stop
         offset="0.81"
         stop-color="#332DA8"
         stop-opacity="0.31"
         id="stop2172" /><stop
         offset="0.96"
         stop-color="#32288B"
         stop-opacity="0.06"
         id="stop2174" /><stop
         offset="1"
         stop-color="#312783"
         stop-opacity="0"
         id="stop2176" /></linearGradient></defs><g
     inkscape:label="Layer 1"
     inkscape:groupmode="layer"
     id="layer1"
     transform="translate(-217.77036,-82.824853)"><g
       style="fill:none"
       id="g2035"
       transform="matrix(0.26458333,0,0,0.26458333,239.53789,82.824853)"><path
         d="m 209.944,337.943 c -14.439,7.594 -47.55,9.018 -80.789,6.645 -42.8561,-3.062 -85.9112,-12.422 -89.4426,-22.921 -6.2606,-18.649 -2.6817,-45.589 18.777,-43.349 0,0 -10.727,-43.52 10.2855,-51.57 0,0 -18.3308,-25.427 5.8144,-45.766 6.1704,-5.221 11.7333,-8.52 16.6126,-10.575 14.1351,-5.985 22.3081,-1.291 22.3081,-1.291 0,0 13.414,-12.288 37.113,3.389 23.699,15.678 16.37,59.521 21.463,61.348 25.707,9.213 5.986,29.495 22.992,32.3 14.866,2.444 55.899,50.175 14.866,71.79 z"
         fill="#572350"
         id="path1949" /><path
         d="m 129.15,344.588 c -42.856,-3.061 -85.9111,-12.422 -89.4425,-22.921 -6.2606,-18.649 -2.6817,-45.589 18.777,-43.349 0,0 -10.727,-43.52 10.2855,-51.57 0,0 -18.3308,-25.427 5.8145,-45.766 6.1703,-5.221 11.7332,-8.52 16.6125,-10.575 -6.4789,7.595 -7.4376,16.271 -2.7386,25.721 9.3458,18.782 41.0946,80.638 42.4716,104.522 1.376,23.884 -77.6523,-5.027 -62.2881,12.901 15.2457,17.804 59.9331,30.852 60.5081,31.037 z"
         fill="#381334"
         id="path1951" /><path
         d="m 237.47,462.077 -25.503,1.452 -13.338,0.76 c -0.057,-0.447 -0.09,-0.698 -0.09,-0.698 -0.949,-0.745 -4.988,-23.5 -9.768,-52.358 -8.544,-51.49 -19.46,-122.402 -19.46,-122.402 0,0 38.527,-5.871 44.555,24.07 3.502,17.367 15.957,100.463 23.604,149.176 z"
         fill="#ffad9f"
         id="path1953" /><path
         d="m 211.961,463.529 -13.338,0.76 c -0.057,-0.446 -0.09,-0.698 -0.09,-0.698 -0.949,-0.745 -4.989,-23.5 -9.768,-52.358 1.291,-14.78 2.23,-25.076 2.23,-25.076 l 3.798,1.083 c 0,0 6.749,52.301 17.168,76.289 z"
         fill="#d67b70"
         id="path1955" /><path
         d="m 192.711,392.124 5.743,70.157 -37.175,-1.69 -100.1497,-4.547 -24.6294,-1.12 12.8155,-72.179 -16.9069,-1.79 -29.01983,-3.071 c 8.88063,-51.95 26.34763,-76.204 41.16603,-87.515 13.8787,-10.594 25.4363,-9.83 25.4363,-9.83 l 113.948,4.609 v 0.223 c 7.974,0.385 14.633,4.557 20.182,11.017 22.555,26.252 26.784,90.22 26.784,90.22 z"
         fill="#fdfbf7"
         id="path1957" /><path
         opacity="0.13"
         d="m 61.1231,456.044 -24.6293,-1.12 12.8154,-72.179 -16.9069,-1.79 24.0694,-56.691 c -0.1614,0.977 -8.5437,51.736 5.5438,81.506 6.8111,14.343 4.1531,34.179 -0.8924,50.274 z"
         fill="#0000ff"
         id="path1959" /><path
         opacity="0.13"
         d="m 204.804,296.388 -0.854,-0.214 c -48.827,-12.473 -34.649,18.037 -93.225,-2.026 -24.5157,-8.387 -52.909,-5.606 -65.5014,-3.798 13.8787,-10.594 25.4363,-9.83 25.4363,-9.83 l 113.9481,4.609 v 0.223 c 7.988,0.404 14.648,4.576 20.196,11.036 z"
         fill="#0000ff"
         id="path1961" /><path
         d="m 144.628,298.443 c 0,11.519 -8.401,21.174 -19.028,21.174 -10.509,0 -19.029,-9.493 -19.029,-21.217 v -28.127 l 30.985,-36.434 0.983,8.776 5.937,53.16 c 0.1,0.886 0.151,1.776 0.152,2.668 z"
         fill="#ffad9f"
         id="path1963" /><path
         d="m 138.539,242.615 c -8.069,33.933 -26.144,42.395 -31.968,44.275 v -16.613 l 30.985,-36.433 z"
         fill="#e29288"
         id="path1965" /><path
         d="m 76.4439,199.574 c 0,0 -3.1659,37.972 7.0343,60.494 10.2001,22.522 29.9028,33.766 57.6788,-24.62 0,0 8.069,2.815 13.015,-10.2 4.946,-13.015 -5.629,-16.883 -14.069,-2.464 -8.439,14.42 -53.8102,-33.405 -53.8102,-33.405 z"
         fill="#ffad9f"
         id="path1967" /><path
         d="m 80.8931,233.831 c 0.9869,-0.114 1.5962,-1.855 1.3609,-3.889 -0.2353,-2.033 -1.2262,-3.59 -2.2131,-3.475 -0.9869,0.114 -1.5962,1.855 -1.3609,3.889 0.2353,2.034 1.2261,3.59 2.2131,3.475 z"
         fill="#000000"
         id="path1969" /><path
         d="m 104.211,229.962 c 0.987,-0.114 1.597,-1.855 1.361,-3.889 -0.235,-2.034 -1.226,-3.59 -2.213,-3.476 -0.987,0.115 -1.596,1.856 -1.361,3.889 0.236,2.034 1.226,3.59 2.213,3.476 z"
         fill="#000000"
         id="path1971" /><path
         d="m 74.3625,221.128 c -0.161,0.001 -0.3204,-0.032 -0.4682,-0.096 -0.1479,-0.063 -0.281,-0.157 -0.3909,-0.274 -0.2171,-0.226 -0.3356,-0.529 -0.3293,-0.843 0.0062,-0.313 0.1366,-0.611 0.3625,-0.828 1.4849,-1.377 3.387,-2.217 5.4044,-2.389 2.0173,-0.172 4.0343,0.334 5.7308,1.44 0.1319,0.083 0.2462,0.191 0.3361,0.319 0.0899,0.127 0.1536,0.271 0.1876,0.423 0.034,0.153 0.0375,0.31 0.0103,0.464 -0.0271,0.153 -0.0844,0.3 -0.1686,0.431 -0.0826,0.132 -0.1906,0.246 -0.3176,0.336 -0.1271,0.09 -0.2706,0.154 -0.4225,0.188 -0.1518,0.033 -0.3089,0.037 -0.4621,0.01 -0.1532,-0.027 -0.2995,-0.084 -0.4305,-0.168 -4.4474,-2.81 -8.069,0.527 -8.2257,0.669 -0.2218,0.206 -0.5137,0.32 -0.8163,0.318 z"
         fill="#000000"
         id="path1973" /><path
         d="m 96.8934,217.976 c -0.1606,0.001 -0.3197,-0.031 -0.4675,-0.094 -0.1478,-0.062 -0.2811,-0.155 -0.3916,-0.271 -0.2165,-0.227 -0.3341,-0.53 -0.327,-0.844 0.0072,-0.313 0.1384,-0.611 0.3649,-0.827 1.4849,-1.377 3.387,-2.218 5.4048,-2.39 2.017,-0.172 4.034,0.335 5.73,1.441 0.266,0.168 0.454,0.436 0.522,0.743 0.069,0.307 0.013,0.629 -0.156,0.894 -0.169,0.266 -0.436,0.453 -0.743,0.522 -0.307,0.068 -0.629,0.012 -0.895,-0.156 -4.447,-2.81 -8.0686,0.526 -8.2252,0.669 -0.2215,0.206 -0.5141,0.318 -0.8164,0.313 z"
         fill="#000000"
         id="path1975" /><path
         d="m 144.628,231.499 c -0.211,0 -0.417,-0.07 -0.583,-0.2 -0.167,-0.13 -0.286,-0.312 -0.338,-0.517 -2.297,-9.018 6.645,-12.754 6.721,-12.792 0.116,-0.047 0.24,-0.071 0.365,-0.07 0.124,0.001 0.248,0.026 0.363,0.075 0.115,0.048 0.22,0.119 0.307,0.208 0.088,0.089 0.157,0.194 0.204,0.31 0.094,0.232 0.093,0.492 -0.004,0.723 -0.097,0.232 -0.281,0.415 -0.513,0.511 -0.309,0.128 -7.485,3.175 -5.601,10.57 0.031,0.121 0.037,0.247 0.019,0.37 -0.018,0.124 -0.06,0.242 -0.124,0.349 -0.064,0.108 -0.148,0.201 -0.248,0.276 -0.101,0.074 -0.214,0.128 -0.335,0.159 -0.076,0.018 -0.154,0.028 -0.233,0.028 z"
         fill="#e29288"
         id="path1977" /><path
         d="m 88.3923,242.449 c -0.2253,0.003 -0.4502,-0.023 -0.6692,-0.076 -0.7642,-0.195 -2.7957,-0.717 0.2515,-14.239 0.0555,-0.246 0.2062,-0.459 0.4189,-0.593 0.2127,-0.135 0.4701,-0.179 0.7156,-0.124 0.2454,0.055 0.4587,0.206 0.5931,0.419 0.1344,0.212 0.1788,0.47 0.1236,0.715 -1.1059,4.913 -1.8986,10.737 -1.4525,11.99 1.1012,0.066 3.8826,-1.187 5.9996,-2.473 0.2148,-0.13 0.4721,-0.169 0.7158,-0.109 0.2437,0.059 0.4539,0.213 0.5847,0.427 0.0649,0.107 0.1082,0.225 0.1273,0.348 0.0192,0.123 0.0138,0.249 -0.0157,0.37 -0.0296,0.122 -0.0827,0.236 -0.1564,0.337 -0.0737,0.1 -0.1666,0.185 -0.2732,0.25 -0.8069,0.513 -4.6326,2.758 -6.9631,2.758 z"
         fill="#e29288"
         id="path1979" /><path
         d="m 89.9785,251.173 15.0985,-8.876 c 0,0 0.009,27.596 -15.0985,8.876 z"
         fill="#ffffff"
         id="path1981" /><path
         opacity="0.13"
         d="m 199.109,462.3 -37.174,-1.69 7.385,-146.399 c 0.722,30.035 0.926,68.638 6.076,80.186 l 17.97,-2.254 z"
         fill="#0000ff"
         id="path1983" /><path
         d="m 66.088,402.205 c -8.7335,3 -20.9129,6.208 -36.6569,8.164 C 13.5257,405.879 2.02034,390.814 3.9569,374.4 c 0.12815,-1.072 2.1881,-2.373 5.38721,-3.707 1.42389,1.552 10e-6,12.118 4.81769,14.387 10.0102,4.704 19.7547,23.969 32.9878,20.884 13.2331,-3.085 18.9384,-3.759 18.9384,-3.759 z"
         fill="#d67b70"
         id="path1985" /><path
         opacity="0.43"
         d="M 14.4414,344.574 82.8141,0 294.169,121.467 76.3779,411.532 Z"
         fill="url(#paint0_linear_1711_5519)"
         id="path1987"
         style="fill:url(#paint0_linear_1711_5519)" /><path
         d="m 1.29433,439.313 17.91787,-53.161 27.9376,15.241 -8.6148,47.512 c -0.5485,3.024 -1.8121,5.874 -3.6855,8.311 -1.8733,2.436 -4.302,4.39 -7.0837,5.697 -2.7816,1.308 -5.8356,1.931 -8.9071,1.819 -3.0715,-0.113 -6.0717,-0.958 -8.7502,-2.465 -3.91205,-2.201 -6.93321,-5.699 -8.54232,-9.89 -1.6091011,-4.19 -1.705222,-8.811 -0.27185,-13.064 z"
         fill="#ffad9f"
         id="path1989" /><path
         d="M 76.8911,411.513 H 43.158 c -0.6812,-10e-4 -1.3502,-0.18 -1.9406,-0.52 -0.5904,-0.34 -1.0815,-0.828 -1.4246,-1.417 L 3.8574,347.839 c -0.29388,-0.51 -0.44846,-1.088 -0.44822,-1.677 2.4e-4,-0.588 0.15526,-1.166 0.44956,-1.676 0.2943,-0.51 0.71749,-0.933 1.22711,-1.228 0.50962,-0.294 1.08779,-0.449 1.67638,-0.45 H 41.7388 c 0.5875,0 1.1648,0.154 1.6744,0.446 0.5096,0.293 0.9338,0.713 1.2305,1.22 l 35.5984,61.191 c 0.3416,0.591 0.5221,1.261 0.5235,1.944 0.0013,0.682 -0.1765,1.353 -0.5158,1.945 -0.3393,0.592 -0.8281,1.084 -1.4175,1.428 -0.5895,0.344 -1.2588,0.527 -1.9412,0.531 z"
         fill="#2a2b6f"
         id="path1991" /><path
         d="M 76.5408,411.513 H 43.159 c -0.6812,-10e-4 -1.3502,-0.18 -1.9406,-0.52 -0.5904,-0.34 -1.0815,-0.828 -1.4246,-1.417 L 3.8584,347.839 h 33.809 c 0.5868,10e-4 1.1632,0.155 1.672,0.447 0.5088,0.292 0.9322,0.713 1.2281,1.219 l 35.5984,61.196 c 0.1568,0.255 0.2826,0.528 0.3749,0.812 z"
         fill="#0f133a"
         id="path1993" /><path
         d="m 82.9759,394.753 c 0,0 -4.343,2.781 -13.2047,6.128 -1.1486,0.432 -2.3732,0.878 -3.6832,1.324 -8.7335,3 -20.9129,6.208 -36.6569,8.164 C 13.5257,405.879 2.02034,390.813 3.9569,374.4 c 0.12815,-1.073 2.1881,-2.373 5.38721,-3.707 10.38529,-4.272 32.72209,-8.7 39.55689,-5.491 4.9031,2.302 -13.0005,7.565 -25.047,10.532 l 0.2706,3.18 c 14.0068,-3.475 29.6369,-7.832 32.8834,-8.724 6.028,-1.666 14.377,-1.158 12.0418,3.669 -0.9208,1.899 -20.2009,8.947 -32.0908,13.385 0.7405,-0.076 24.4679,-2.587 28.2509,-4.129 9.4596,-3.84 15.3026,-1.652 14.8659,0.408 -0.1756,0.816 -23.552,15.336 -36.6427,15.022 10.2856,2.526 36.2202,-11.173 39.5428,-3.792 z"
         fill="#ffad9f"
         id="path1995" /></g><g
       style="fill:none"
       id="g2259"
       transform="matrix(-0.08788015,0,0,-0.08788015,317.11459,132.12677)"><path
         d="m 85.7697,197.141 c 0.3169,-0.355 0.7401,-0.598 1.206,-0.693 l 158.6593,-32.44 c 0.564,-0.099 1.143,0.026 1.615,0.347 0.472,0.322 0.8,0.815 0.913,1.375 0.113,0.56 0.003,1.142 -0.307,1.624 -0.31,0.481 -0.795,0.824 -1.353,0.954 L 87.8566,200.764 c -0.4514,0.094 -0.9203,0.043 -1.3405,-0.145 -0.4201,-0.187 -0.7702,-0.502 -1.0008,-0.9 -0.2306,-0.398 -0.3299,-0.858 -0.2841,-1.316 0.0459,-0.458 0.2347,-0.891 0.5397,-1.237 z"
         fill="#9c9ef9"
         id="path2037" /><path
         d="m 85.7697,197.141 c 0.3169,-0.355 0.7401,-0.598 1.206,-0.693 l 158.6593,-32.44 c 0.564,-0.099 1.143,0.026 1.615,0.347 0.472,0.322 0.8,0.815 0.913,1.375 0.113,0.56 0.003,1.142 -0.307,1.624 -0.31,0.481 -0.795,0.824 -1.353,0.954 L 87.8566,200.764 c -0.4514,0.094 -0.9203,0.043 -1.3405,-0.145 -0.4201,-0.187 -0.7702,-0.502 -1.0008,-0.9 -0.2306,-0.398 -0.3299,-0.858 -0.2841,-1.316 0.0459,-0.458 0.2347,-0.891 0.5397,-1.237 z"
         fill="url(#paint0_linear_1530_4467)"
         id="path2039"
         style="fill:url(#paint0_linear_1530_4467)" /><path
         d="m 281.686,233.156 -21.345,-76.403 -9.71,-34.766 -4.432,-15.866 c 2.995,-0.703 6.035,-1.197 9.098,-1.478 0.269,-0.024 0.538,-0.047 0.81,-0.066 l 0.056,-0.006 0.298,-0.025 c 0.286,-0.021 0.571,-0.039 0.851,-0.056 0.694,-0.042 1.388,-0.073 2.076,-0.091 l 1.312,-0.024 c 3.033,-0.031 6.063,0.152 9.069,0.548 0.346,0.045 0.688,0.095 1.035,0.142 l 1.03,0.161 c 0.344,0.057 0.688,0.114 1.029,0.177 0.341,0.063 0.686,0.126 1.029,0.192 l 0.786,0.157 0.564,0.121 0.115,0.026 c 0.146,0.032 0.29,0.061 0.446,0.086 0.049,0.01 0.097,0.022 0.146,0.036 l 0.244,0.056 c 0.267,0.061 0.531,0.121 0.795,0.188 0.636,0.154 1.265,0.323 1.898,0.487 0.314,0.088 0.627,0.177 0.941,0.273 l 0.756,0.226 c 7.309,2.246 14.173,5.736 20.291,10.316 0.01,0.01 0.019,0.021 0.026,0.033 l 0.629,0.481 c 0.208,0.157 0.416,0.321 0.623,0.482 0.255,0.203 0.51,0.406 0.762,0.611 0.252,0.204 0.502,0.411 0.752,0.622 0.183,0.15 0.365,0.304 0.543,0.458 l 0.033,0.042 c 0.081,0.068 0.161,0.137 0.23,0.195 0.215,0.186 0.431,0.374 0.645,0.563 l 0.041,0.052 c 0.25,0.221 0.498,0.448 0.745,0.676 0.061,0.076 0.145,0.131 0.221,0.203 0.032,0.039 0.073,0.067 0.111,0.101 0.155,0.149 0.313,0.297 0.469,0.446 0.076,0.068 0.15,0.138 0.218,0.205 0.239,0.23 0.476,0.458 0.708,0.69 0.232,0.232 0.509,0.501 0.758,0.754 0.029,0.037 0.057,0.072 0.084,0.107 0.236,0.241 0.467,0.481 0.696,0.723 0.103,0.13 0.226,0.244 0.339,0.363 0.113,0.118 0.171,0.178 0.253,0.272 0.033,0.042 0.066,0.084 0.109,0.114 0.043,0.03 0.09,0.114 0.134,0.17 0.258,0.283 0.513,0.568 0.768,0.858 0.393,0.445 0.79,0.909 1.175,1.368 10.561,12.729 15.972,28.952 15.17,45.482 -0.745,14.582 -6.288,28.516 -15.768,39.635 -7.868,9.233 -18.133,16.114 -29.662,19.883 z"
         fill="#9c9ef9"
         id="path2041" /><path
         d="m 199.806,195.895 c -0.412,-0.994 -0.796,-2.004 -1.153,-3.031 -0.13,-0.366 -0.258,-0.733 -0.383,-1.107 -0.344,-1.015 -0.657,-2.048 -0.95,-3.094 l -0.015,-0.052 c -0.504,-1.8 -0.93,-3.603 -1.278,-5.41 -5.467,-28.514 8.472,-56.958 33.437,-70.463 3.427,-1.855 7.013,-3.402 10.714,-4.622 l 0.191,-0.069 0.018,0.066 1.13,4.05 3.207,11.467 10.521,37.637 3.588,12.849 0.278,0.989 0.906,3.249 0.074,0.256 14.547,52.043 1.222,4.42 -0.058,0.046 c -1.779,0.415 -3.555,0.753 -5.33,1.014 -1.851,0.279 -3.696,0.477 -5.534,0.594 -27.933,1.732 -54.381,-14.531 -65.132,-40.832 z"
         fill="#9c9ef9"
         id="path2043" /><path
         d="m 128.294,324.483 c -0.251,-0.402 -0.366,-0.875 -0.326,-1.348 0.04,-0.472 0.231,-0.918 0.546,-1.273 0.139,-0.157 0.301,-0.293 0.479,-0.405 l 135.879,-84.688 1.041,-0.648 8.59,-5.356 0.04,-0.031 1.225,4.417 -0.058,0.046 -0.969,0.607 -143.434,89.396 c -0.494,0.303 -1.089,0.397 -1.653,0.263 -0.565,-0.135 -1.053,-0.487 -1.36,-0.98 z"
         fill="#858bff"
         id="path2045" /><path
         d="m 68.4721,113.479 c -0.0103,-0.585 0.2106,-1.15 0.6146,-1.571 0.404,-0.42 0.9585,-0.663 1.5429,-0.676 l 169.6844,-2.991 0.121,-0.005 c 0.032,0.002 0.06,-0.001 0.089,0.003 l 1.148,4.072 c -0.337,0.219 -0.73,0.338 -1.133,0.343 l -10.954,0.194 -158.8509,2.797 c -0.585,0.011 -1.1519,-0.21 -1.5761,-0.617 -0.4242,-0.406 -0.6709,-0.963 -0.6859,-1.549 z"
         fill="#858bff"
         id="path2047" /><path
         d="m 306.441,137.863 c 10.689,9.477 18.025,22.158 20.911,36.146 0.027,0.107 0.047,0.213 0.07,0.324 0.904,-17.33 -5.02,-34.33 -16.501,-47.352 -0.256,-0.291 -0.513,-0.578 -0.772,-0.863 -0.044,-0.056 -0.09,-0.114 -0.134,-0.17 -0.007,-0.006 -0.013,-0.013 -0.017,-0.021 -0.103,-0.131 -0.228,-0.245 -0.344,-0.369 -0.117,-0.124 -0.226,-0.243 -0.341,-0.364 -0.23,-0.243 -0.462,-0.485 -0.699,-0.727 -0.027,-0.035 -0.055,-0.07 -0.084,-0.107 -0.25,-0.254 -0.507,-0.507 -0.761,-0.757 -0.255,-0.25 -0.471,-0.462 -0.711,-0.694 -0.059,-0.075 -0.143,-0.138 -0.219,-0.206 -0.156,-0.15 -0.315,-0.298 -0.471,-0.447 -0.031,-0.04 -0.061,-0.077 -0.111,-0.102 -0.061,-0.078 -0.146,-0.132 -0.222,-0.205 -0.248,-0.228 -0.497,-0.456 -0.748,-0.679 l -0.041,-0.051 c -0.224,-0.203 -0.432,-0.38 -0.647,-0.566 -0.077,-0.068 -0.158,-0.137 -0.231,-0.197 l -0.034,-0.042 c -0.178,-0.154 -0.362,-0.309 -0.545,-0.46 -0.251,-0.212 -0.502,-0.419 -0.755,-0.625 -0.253,-0.206 -0.509,-0.41 -0.765,-0.614 -6.655,-5.273 -14.267,-9.211 -22.414,-11.595 -0.315,-0.097 -0.629,-0.187 -0.944,-0.275 -0.629,-0.178 -1.263,-0.342 -1.904,-0.491 -0.265,-0.068 -0.529,-0.128 -0.797,-0.19 l -0.246,-0.056 c -0.049,-0.015 -0.096,-0.026 -0.146,-0.037 -0.144,-0.034 -0.289,-0.063 -0.447,-0.086 l -0.116,-0.027 -0.566,-0.122 -0.788,-0.158 c -0.344,-0.066 -0.688,-0.132 -1.032,-0.194 -0.344,-0.062 -0.687,-0.121 -1.032,-0.179 l -1.033,-0.162 c -0.348,-0.048 -0.692,-0.099 -1.038,-0.144 -3.451,-0.448 -6.932,-0.628 -10.411,-0.539 -0.695,0.022 -1.389,0.052 -2.082,0.089 -0.281,0.017 -0.567,0.034 -0.854,0.056 l -0.299,0.024 -0.056,0.006 c -0.273,0.018 -0.539,0.046 -0.812,0.065 -3.071,0.278 -6.12,0.77 -9.122,1.473 l 4.464,15.925 c 9.89,-1.778 20.058,-1.283 29.733,1.448 9.675,2.732 18.605,7.627 26.114,14.317 z"
         fill="url(#paint1_linear_1530_4467)"
         id="path2049"
         style="fill:url(#paint1_linear_1530_4467)" /><path
         d="m 212.65,143.513 c 8.522,-9.617 19.672,-16.532 32.074,-19.891 l -3.206,-11.46 -1.13,-4.048 -0.017,-0.065 -0.192,0.068 c -3.698,1.219 -7.281,2.765 -10.706,4.62 -24.949,13.495 -38.878,41.922 -33.413,70.418 0.941,-14.693 6.783,-28.651 16.59,-39.642 z"
         fill="url(#paint2_linear_1530_4467)"
         id="path2051"
         style="fill:url(#paint2_linear_1530_4467)" /><path
         d="m 195.941,184.123 c -0.022,-0.275 -0.044,-0.549 -0.059,-0.825 l 0.231,-0.061 z"
         fill="url(#paint3_linear_1530_4467)"
         id="path2053"
         style="fill:url(#paint3_linear_1530_4467)" /><path
         opacity="0.21"
         d="m 247.031,228.217 c -11.204,-9.95 -13.445,-26.928 -7.294,-43.3 0.217,-0.576 0.443,-1.151 0.68,-1.724 0.452,-1.089 0.94,-2.174 1.464,-3.257 0.558,-1.152 1.165,-2.3 1.815,-3.437 2.234,-3.927 4.878,-7.608 7.888,-10.98 1.277,-1.433 2.594,-2.8 3.955,-4.074 l 3.554,12.809 0.276,0.986 0.899,3.237 0.073,0.254 14.432,51.849 1.213,4.404 -0.058,0.045 -0.97,0.608 c -1.439,0.215 -2.888,0.355 -4.341,0.42 -1.494,0.066 -2.991,0.046 -4.483,-0.057 -7.163,-0.543 -13.801,-3.076 -19.103,-7.783 z"
         fill="#f1f3ff"
         id="path2055" /><path
         d="m 195.941,184.123 c -0.022,-0.275 -0.044,-0.549 -0.059,-0.825 l 0.231,-0.061 z"
         fill="url(#paint4_linear_1530_4467)"
         id="path2057"
         style="fill:url(#paint4_linear_1530_4467)" /><path
         d="m 198.499,192.865 c -0.127,-0.364 -0.252,-0.73 -0.373,-1.101 -0.337,-1.011 -0.641,-2.04 -0.925,-3.081 l -0.015,-0.052 c -0.488,-1.793 -0.899,-3.59 -1.232,-5.391 l 47.563,-7.279 15.511,-2.375 0.27,0.984 0.879,3.237 -20.003,4.882 z"
         fill="url(#paint5_linear_1530_4467)"
         id="path2059"
         style="fill:url(#paint5_linear_1530_4467)" /><path
         opacity="0.21"
         d="m 281.682,233.156 -21.49,-76.262 c 17.472,-13.456 39.441,-15.406 52.909,-3.397 15.148,13.475 14.074,39.707 -1.923,59.91 -7.811,9.19 -18.019,16.026 -29.496,19.749 z"
         fill="#f1f3ff"
         id="path2061" /><path
         d="m 53.914,234.436 c -0.0786,-0.278 -0.1016,-0.569 -0.0675,-0.856 0.0341,-0.288 0.1245,-0.565 0.2661,-0.818 0.1416,-0.252 0.3315,-0.474 0.5589,-0.653 0.2275,-0.178 0.488,-0.311 0.7666,-0.389 l 142.3319,-39.852 0.634,-0.179 c 0,0 25.358,-7.038 43.348,-11.963 9.795,-2.683 17.405,-4.736 17.547,-4.69 l 0.909,3.253 0.073,0.256 c -0.286,0.335 -0.665,0.578 -1.09,0.698 l -19.581,5.482 -39.667,11.107 -143.3119,40.134 c -0.2789,0.079 -0.5705,0.101 -0.8582,0.067 -0.2876,-0.035 -0.5655,-0.126 -0.8179,-0.268 -0.2524,-0.142 -0.4743,-0.333 -0.6529,-0.561 -0.1787,-0.228 -0.3105,-0.489 -0.3881,-0.768 z"
         fill="#858bff"
         id="path2063" /></g><g
       style="fill:none"
       id="g2697"
       transform="matrix(0.26458333,0,0,0.26458333,217.77036,109.56897)"><path
         fill-rule="evenodd"
         clip-rule="evenodd"
         d="M 26.5,0 C 11.8645,0 0,11.8645 0,26.5 0,41.1355 11.8645,53 26.5,53 h 49.5878 c 0.0163,0.0217 0.0328,0.0433 0.0495,0.0649 l 8.4122,10.843 c 2.0017,2.5802 5.8993,2.5802 7.901,0 l 8.4125,-10.843 c 0.016,-0.0216 0.033,-0.0432 0.049,-0.0649 H 150.5 C 165.136,53 177,41.1355 177,26.5 177,11.8645 165.136,0 150.5,0 Z"
         fill="#fcfcfd"
         id="path2685" /><path
         d="m 28.404,24.324 c 0,0.672 -0.162,1.302 -0.486,1.89 -0.312,0.588 -0.81,1.062 -1.494,1.422 -0.672,0.36 -1.524,0.54 -2.556,0.54 H 21.762 V 33 h -2.52 V 20.436 h 4.626 c 0.972,0 1.8,0.168 2.484,0.504 0.684,0.336 1.194,0.798 1.53,1.386 0.348,0.588 0.522,1.254 0.522,1.998 z m -4.644,1.818 c 0.696,0 1.212,-0.156 1.548,-0.468 0.336,-0.324 0.504,-0.774 0.504,-1.35 0,-1.224 -0.684,-1.836 -2.052,-1.836 h -1.998 v 3.654 z m 15.7032,1.656 c 0,0.36 -0.024,0.684 -0.072,0.972 h -7.29 c 0.06,0.72 0.312,1.284 0.756,1.692 0.444,0.408 0.99,0.612 1.638,0.612 0.936,0 1.602,-0.402 1.998,-1.206 h 2.718 c -0.288,0.96 -0.84,1.752 -1.656,2.376 -0.816,0.612 -1.818,0.918 -3.006,0.918 -0.96,0 -1.824,-0.21 -2.592,-0.63 -0.756,-0.432 -1.35,-1.038 -1.782,-1.818 -0.42,-0.78 -0.63,-1.68 -0.63,-2.7 0,-1.032 0.21,-1.938 0.63,-2.718 0.42,-0.78 1.008,-1.38 1.764,-1.8 0.756,-0.42 1.626,-0.63 2.61,-0.63 0.948,0 1.794,0.204 2.538,0.612 0.756,0.408 1.338,0.99 1.746,1.746 0.42,0.744 0.63,1.602 0.63,2.574 z m -2.61,-0.72 c -0.012,-0.648 -0.246,-1.164 -0.702,-1.548 -0.456,-0.396 -1.014,-0.594 -1.674,-0.594 -0.624,0 -1.152,0.192 -1.584,0.576 -0.42,0.372 -0.678,0.894 -0.774,1.566 z m 6.9693,-2.502 c 0.324,-0.528 0.744,-0.942 1.26,-1.242 0.528,-0.3 1.128,-0.45 1.8,-0.45 v 2.646 h -0.666 c -0.792,0 -1.392,0.186 -1.8,0.558 -0.396,0.372 -0.594,1.02 -0.594,1.944 V 33 h -2.52 v -9.972 h 2.52 z m 9.3294,0.522 h -1.746 V 33 h -2.556 v -7.902 h -1.134 v -2.07 h 1.134 v -0.504 c 0,-1.224 0.348,-2.124 1.044,-2.7 0.696,-0.576 1.746,-0.846 3.15,-0.81 v 2.124 c -0.612,-0.012 -1.038,0.09 -1.278,0.306 -0.24,0.216 -0.36,0.606 -0.36,1.17 v 0.414 h 1.746 z m 10.9031,2.7 c 0,0.36 -0.024,0.684 -0.072,0.972 h -7.29 c 0.06,0.72 0.312,1.284 0.756,1.692 0.444,0.408 0.99,0.612 1.638,0.612 0.936,0 1.602,-0.402 1.998,-1.206 h 2.718 c -0.288,0.96 -0.84,1.752 -1.656,2.376 -0.816,0.612 -1.818,0.918 -3.006,0.918 -0.96,0 -1.824,-0.21 -2.592,-0.63 -0.756,-0.432 -1.35,-1.038 -1.782,-1.818 -0.42,-0.78 -0.63,-1.68 -0.63,-2.7 0,-1.032 0.21,-1.938 0.63,-2.718 0.42,-0.78 1.008,-1.38 1.764,-1.8 0.756,-0.42 1.626,-0.63 2.61,-0.63 0.948,0 1.794,0.204 2.538,0.612 0.756,0.408 1.338,0.99 1.746,1.746 0.42,0.744 0.63,1.602 0.63,2.574 z m -2.61,-0.72 c -0.012,-0.648 -0.246,-1.164 -0.702,-1.548 -0.456,-0.396 -1.014,-0.594 -1.674,-0.594 -0.624,0 -1.152,0.192 -1.584,0.576 -0.42,0.372 -0.678,0.894 -0.774,1.566 z m 3.8013,0.936 c 0,-1.032 0.21,-1.932 0.63,-2.7 0.42,-0.78 1.002,-1.38 1.746,-1.8 0.744,-0.432 1.596,-0.648 2.556,-0.648 1.236,0 2.256,0.312 3.06,0.936 0.816,0.612 1.362,1.476 1.638,2.592 h -2.718 c -0.144,-0.432 -0.39,-0.768 -0.738,-1.008 -0.336,-0.252 -0.756,-0.378 -1.26,-0.378 -0.72,0 -1.29,0.264 -1.71,0.792 -0.42,0.516 -0.63,1.254 -0.63,2.214 0,0.948 0.21,1.686 0.63,2.214 0.42,0.516 0.99,0.774 1.71,0.774 1.02,0 1.686,-0.456 1.998,-1.368 h 2.718 c -0.276,1.08 -0.822,1.938 -1.638,2.574 -0.816,0.636 -1.836,0.954 -3.06,0.954 -0.96,0 -1.812,-0.21 -2.556,-0.63 -0.744,-0.432 -1.326,-1.032 -1.746,-1.8 -0.42,-0.78 -0.63,-1.686 -0.63,-2.718 z m 14.4102,-2.916 v 4.824 c 0,0.336 0.078,0.582 0.234,0.738 0.168,0.144 0.444,0.216 0.828,0.216 h 1.17 V 33 h -1.584 c -2.124,0 -3.186,-1.032 -3.186,-3.096 v -4.806 h -1.188 v -2.07 h 1.188 v -2.466 h 2.538 v 2.466 h 2.232 v 2.07 z M 86.959,20.22 86.671,28.914 H 84.547 L 84.241,20.22 Z m -1.296,12.906 c -0.456,0 -0.834,-0.138 -1.134,-0.414 -0.288,-0.288 -0.432,-0.642 -0.432,-1.062 0,-0.42 0.144,-0.768 0.432,-1.044 0.3,-0.288 0.678,-0.432 1.134,-0.432 0.444,0 0.81,0.144 1.098,0.432 0.288,0.276 0.432,0.624 0.432,1.044 0,0.42 -0.144,0.774 -0.432,1.062 -0.288,0.276 -0.654,0.414 -1.098,0.414 z m 17.24,-12.69 V 22.47 H 99.5553 V 33 h -2.52 V 22.47 h -3.348 v -2.034 z m 7.455,2.448 c 0.756,0 1.428,0.168 2.016,0.504 0.588,0.324 1.044,0.81 1.368,1.458 0.336,0.636 0.504,1.404 0.504,2.304 V 33 h -2.52 v -5.508 c 0,-0.792 -0.198,-1.398 -0.594,-1.818 -0.396,-0.432 -0.936,-0.648 -1.62,-0.648 -0.696,0 -1.248,0.216 -1.656,0.648 -0.396,0.42 -0.594,1.026 -0.594,1.818 V 33 h -2.52 V 19.68 h 2.52 v 4.59 c 0.324,-0.432 0.756,-0.768 1.296,-1.008 0.54,-0.252 1.14,-0.378 1.8,-0.378 z m 5.636,5.094 c 0,-1.008 0.198,-1.902 0.594,-2.682 0.408,-0.78 0.954,-1.38 1.638,-1.8 0.696,-0.42 1.47,-0.63 2.322,-0.63 0.744,0 1.392,0.15 1.944,0.45 0.564,0.3 1.014,0.678 1.35,1.134 v -1.422 h 2.538 V 33 h -2.538 v -1.458 c -0.324,0.468 -0.774,0.858 -1.35,1.17 -0.564,0.3 -1.218,0.45 -1.962,0.45 -0.84,0 -1.608,-0.216 -2.304,-0.648 -0.684,-0.432 -1.23,-1.038 -1.638,-1.818 -0.396,-0.792 -0.594,-1.698 -0.594,-2.718 z m 7.848,0.036 c 0,-0.612 -0.12,-1.134 -0.36,-1.566 -0.24,-0.444 -0.564,-0.78 -0.972,-1.008 -0.408,-0.24 -0.846,-0.36 -1.314,-0.36 -0.468,0 -0.9,0.114 -1.296,0.342 -0.396,0.228 -0.72,0.564 -0.972,1.008 -0.24,0.432 -0.36,0.948 -0.36,1.548 0,0.6 0.12,1.128 0.36,1.584 0.252,0.444 0.576,0.786 0.972,1.026 0.408,0.24 0.84,0.36 1.296,0.36 0.468,0 0.906,-0.114 1.314,-0.342 0.408,-0.24 0.732,-0.576 0.972,-1.008 0.24,-0.444 0.36,-0.972 0.36,-1.584 z m 10.526,-5.13 c 1.188,0 2.148,0.378 2.88,1.134 0.732,0.744 1.098,1.788 1.098,3.132 V 33 h -2.52 v -5.508 c 0,-0.792 -0.198,-1.398 -0.594,-1.818 -0.396,-0.432 -0.936,-0.648 -1.62,-0.648 -0.696,0 -1.248,0.216 -1.656,0.648 -0.396,0.42 -0.594,1.026 -0.594,1.818 V 33 h -2.52 v -9.972 h 2.52 v 1.242 c 0.336,-0.432 0.762,-0.768 1.278,-1.008 0.528,-0.252 1.104,-0.378 1.728,-0.378 z M 146.646,33 143.262,28.752 V 33 h -2.52 V 19.68 h 2.52 v 7.578 l 3.348,-4.23 h 3.276 l -4.392,5.004 4.428,4.968 z m 8.424,0.162 c -0.816,0 -1.548,-0.144 -2.196,-0.432 -0.648,-0.3 -1.164,-0.702 -1.548,-1.206 -0.372,-0.504 -0.576,-1.062 -0.612,-1.674 h 2.538 c 0.048,0.384 0.234,0.702 0.558,0.954 0.336,0.252 0.75,0.378 1.242,0.378 0.48,0 0.852,-0.096 1.116,-0.288 0.276,-0.192 0.414,-0.438 0.414,-0.738 0,-0.324 -0.168,-0.564 -0.504,-0.72 -0.324,-0.168 -0.846,-0.348 -1.566,-0.54 -0.744,-0.18 -1.356,-0.366 -1.836,-0.558 -0.468,-0.192 -0.876,-0.486 -1.224,-0.882 -0.336,-0.396 -0.504,-0.93 -0.504,-1.602 0,-0.552 0.156,-1.056 0.468,-1.512 0.324,-0.456 0.78,-0.816 1.368,-1.08 0.6,-0.264 1.302,-0.396 2.106,-0.396 1.188,0 2.136,0.3 2.844,0.9 0.708,0.588 1.098,1.386 1.17,2.394 h -2.412 c -0.036,-0.396 -0.204,-0.708 -0.504,-0.936 -0.288,-0.24 -0.678,-0.36 -1.17,-0.36 -0.456,0 -0.81,0.084 -1.062,0.252 -0.24,0.168 -0.36,0.402 -0.36,0.702 0,0.336 0.168,0.594 0.504,0.774 0.336,0.168 0.858,0.342 1.566,0.522 0.72,0.18 1.314,0.366 1.782,0.558 0.468,0.192 0.87,0.492 1.206,0.9 0.348,0.396 0.528,0.924 0.54,1.584 0,0.576 -0.162,1.092 -0.486,1.548 -0.312,0.456 -0.768,0.816 -1.368,1.08 -0.588,0.252 -1.278,0.378 -2.07,0.378 z m 7.108,-0.036 c -0.456,0 -0.834,-0.138 -1.134,-0.414 -0.288,-0.288 -0.432,-0.642 -0.432,-1.062 0,-0.42 0.144,-0.768 0.432,-1.044 0.3,-0.288 0.678,-0.432 1.134,-0.432 0.444,0 0.81,0.144 1.098,0.432 0.288,0.276 0.432,0.624 0.432,1.044 0,0.42 -0.144,0.774 -0.432,1.062 -0.288,0.276 -0.654,0.414 -1.098,0.414 z"
         fill="#000000"
         id="path2687" /></g></g></svg>
