<svg width="422" height="9" viewBox="0 0 422 9" fill="none" xmlns="http://www.w3.org/2000/svg">
<path d="M159.782 0.235703C161.876 0.212872 163.969 0.182431 166.063 0.1596C166.795 0.150721 167.527 0.143111 168.259 0.140574C179.803 0.0987175 191.343 0.064471 202.887 0.0264194C205.085 0.0188091 207.283 -0.00529031 209.481 0.00105163C214.401 0.0111987 219.324 0.0517871 224.244 0.0746181C230.868 0.105059 237.489 0.134232 244.113 0.160869C246.493 0.171016 248.876 0.179894 251.257 0.186236C252.199 0.190041 253.142 0.178626 254.084 0.19131C264.086 0.329564 274.088 0.486844 284.089 0.636514C288.724 0.707544 293.359 0.769695 297.992 0.854677C300.559 0.904144 303.126 0.978979 305.693 1.04113C316.086 1.29481 326.484 1.53961 336.879 1.80724C338.163 1.84021 339.446 1.89602 340.73 1.94169C343.297 2.03047 345.864 2.12306 348.431 2.20805C348.718 2.21946 349.005 2.2258 349.293 2.22961C354.293 2.31205 359.295 2.38689 364.295 2.4668C368.093 2.52768 371.888 2.5911 375.686 2.65071L377.02 2.66593C379.802 2.70145 384.444 2.74965 387.308 2.80419C388.774 2.83209 390.246 2.82575 391.708 2.90566C392.298 2.93864 392.92 2.96274 393.439 3.14031C393.79 3.25827 393.764 3.70601 394.159 3.73899C397.304 4.00028 400.493 3.9673 403.665 3.99267C403.892 3.99521 404.067 3.84554 404.289 3.82271C405.067 3.74406 405.855 3.66416 406.644 3.69333C407.109 3.70982 407.53 3.88612 407.983 3.95842C408.19 3.99002 408.401 4.00661 408.613 4.00789C411.656 4.04087 413.561 3.9914 416.387 4.05482C416.972 4.0675 418.484 4.11824 419.216 4.19688C419.587 4.23747 419.983 4.24761 420.319 4.35289C420.869 4.5292 421.457 4.71819 421.824 5.02894C422.016 5.1913 422.092 5.5122 421.838 5.63396C418.934 7.01904 416.72 6.48378 413.136 6.42036C405.75 6.27919 398.366 6.11852 390.982 5.93838C388.756 5.88384 386.53 5.84198 384.304 5.77095C379.118 5.60733 373.935 5.41326 368.749 5.23696C359.345 4.91732 349.949 4.53427 340.541 4.28059C338.134 4.21717 335.726 4.28059 333.317 4.2844C324.286 4.29201 315.257 4.29074 306.228 4.30977C301.361 4.31991 296.491 4.35416 291.624 4.37319C287.96 4.38587 284.296 4.39855 280.632 4.40616C261.423 4.45309 242.21 4.50002 223.001 4.54061C218.995 4.54949 214.99 4.52793 210.987 4.55456C209.784 4.56344 208.581 4.61545 207.377 4.63955C201.437 4.75624 195.497 4.85137 189.558 4.9744C186.235 5.04416 182.914 5.13929 179.591 5.22047C174.045 5.35745 168.5 5.48683 162.951 5.62889C153.216 5.88257 145.146 6.14766 135.174 6.43178C129.356 6.59667 120.253 6.83513 114.218 6.9848C112.989 7.01651 111.761 7.04314 110.528 7.06978C105.193 7.18647 99.8564 7.29936 94.5197 7.41858C92.8451 7.45664 91.1704 7.49596 89.4958 7.54162C82.7717 7.73247 76.0497 7.95149 69.3301 8.19864C66.6848 8.29504 64.0455 8.40412 61.4042 8.51194C59.8359 8.57535 58.2555 8.58043 56.6972 8.71488C56.3563 8.74405 56.1036 8.96475 55.7607 8.99773C55.5601 9.01548 52.7323 8.92543 52.4595 8.8582C52.2108 8.79732 51.9261 8.61594 51.9802 8.44852C52.0384 8.28363 52.4174 8.23035 52.6822 8.19611C53.5846 8.08195 54.5112 8.06673 55.4277 8.00965C56.9118 7.91452 60.2551 7.73822 61.3882 7.68621C65.7282 7.48708 70.0682 7.28667 74.4122 7.11417C77.6932 6.98353 88.8821 6.57511 94.4214 6.42924C103.563 6.19079 104.255 6.22376 114.12 5.94218C123.327 5.67709 132.535 5.39043 141.74 5.11266C145.43 5.00231 149.227 5.34477 152.805 4.77653C155.853 4.29201 146.527 4.82727 143.387 4.85264C132.733 4.93762 122.084 5.01372 111.432 5.11012C102.143 5.19383 92.8531 5.28135 83.5634 5.38916C80.0036 5.42975 76.4438 5.50078 72.8879 5.55659C68.572 5.62762 64.2521 5.68977 59.9362 5.77222C50.5703 5.94979 41.2044 6.14512 31.8386 6.32777C26.8648 6.4267 21.8951 6.52183 16.9234 6.61316C14.8055 6.65375 12.6857 6.68546 10.5658 6.7197C9.4668 6.73746 8.36777 6.75268 7.27074 6.77424C6.69314 6.78693 6.11755 6.79961 5.54196 6.81483C4.81195 6.83386 4.07591 6.88332 3.34389 6.83259C2.89561 6.80435 2.44983 6.76201 2.0082 6.70575C1.84174 6.68546 1.64721 6.67785 1.5349 6.60047C0.969334 6.21362 -0.149757 5.86354 0.0167029 5.34731C0.187174 4.82854 1.3925 4.70297 2.19873 4.55837C3.59458 4.3123 5.07066 4.29708 6.51064 4.19434C9.34647 3.9914 12.6456 3.87471 15.4533 3.76436C21.7547 3.51678 28.0582 3.29185 34.3636 3.08958C50.8892 2.55685 69.4043 1.96832 85.9982 1.54595C103.013 1.11089 115.72 0.857214 132.228 0.540117C133.379 0.518554 134.53 0.499528 135.681 0.485576C137.276 0.46655 138.874 0.462745 140.469 0.447524C146.906 0.3803 153.344 0.30927 159.782 0.235703ZM125.447 3.01601C131.414 2.99572 137.3 2.94752 143.266 2.89932C152.925 2.82195 162.66 2.77121 172.319 2.72174C180.952 2.67862 189.512 2.66467 198.07 2.65071L223.512 2.61013L249.107 2.56954C244.005 2.55685 238.82 2.515 233.716 2.50231L214.633 2.40718C212.199 2.39957 209.842 2.36279 207.409 2.38182L173.883 2.48836C171.292 2.50865 168.622 2.50358 165.951 2.52641C160.456 2.56954 154.963 2.64057 149.467 2.68496C144.835 2.72301 140.282 2.78643 135.651 2.82448C134.472 2.86253 133.215 2.87141 131.961 2.9082C129.841 2.92595 127.721 2.97035 125.447 3.01601Z" fill="#FF7E21"/>
</svg>
