<svg width="179" height="142" viewBox="0 0 179 142" fill="none" xmlns="http://www.w3.org/2000/svg">
<path d="M177.088 39.6593C177.076 39.879 177.064 40.1083 177.053 40.3328C177.041 40.5572 177.028 40.8104 177.016 41.0253C177.005 41.2402 176.996 41.4122 176.986 41.6128C176.98 41.7131 176.975 41.8086 176.97 41.9041C176.959 42.1143 176.925 42.3184 176.895 42.5276C176.877 42.8571 176.812 43.1842 176.766 43.5265C176.763 43.5695 176.761 43.6125 176.759 43.6507C176.704 43.9735 176.657 44.3111 176.597 44.648C176.536 44.9848 176.486 45.3031 176.425 45.6399C176.351 46.0575 176.262 46.4791 176.172 46.915C176.107 47.2373 176.037 47.5593 175.967 47.8957C175.684 49.1835 175.35 50.531 174.999 51.9302C174.794 52.7337 174.569 53.5552 174.344 54.3911C174.149 55.085 173.95 55.7833 173.755 56.4963C173.559 57.2092 173.322 57.9871 173.1 58.7513C172.351 61.26 171.53 63.8702 170.675 66.5697C170.232 67.9833 169.775 69.3962 169.318 70.809C169.146 71.3413 168.97 71.878 168.798 72.4245C168.752 72.5562 168.711 72.7025 168.661 72.8436C168.432 73.5595 168.193 74.2799 167.963 75.0054C166.132 80.7046 164.257 86.6265 162.577 92.5538C162.401 93.1672 162.225 93.7759 162.059 94.3946C161.935 94.8335 161.811 95.2819 161.697 95.7214C161.597 96.0849 161.497 96.4484 161.406 96.8077C161.37 96.9399 161.335 97.0625 161.3 97.1852C161.079 98.0166 160.864 98.8434 160.662 99.671C160.636 99.7548 160.614 99.84 160.596 99.9262C160.476 100.399 160.36 100.872 160.244 101.345C160.051 102.098 159.873 102.845 159.71 103.587C159.556 104.235 159.407 104.888 159.268 105.537C159.129 106.186 158.997 106.777 158.874 107.398C158.23 110.545 157.686 113.629 157.309 116.622C157.299 116.808 157.261 116.979 157.237 117.159C157.045 118.73 156.898 120.269 156.804 121.782C156.79 121.904 156.784 122.027 156.785 122.15C156.782 122.202 156.779 122.25 156.777 122.303C156.768 122.47 156.759 122.647 156.75 122.814C156.741 122.981 156.731 123.177 156.722 123.349C156.711 123.418 156.707 123.489 156.711 123.559C156.683 124.084 156.656 124.61 156.667 125.132C156.678 125.655 156.652 126.243 156.661 126.794C156.658 130.243 157.093 133.68 157.956 137.02L157.575 137.062L157.325 137.092L155.659 137.263L155.221 137.298L154.706 137.343L153.874 137.419L152.714 137.516L151.416 137.616L151.359 137.613L150.498 137.673C150.431 137.674 150.364 137.671 150.298 137.663L149.11 137.749C148.788 137.775 148.457 137.792 148.149 137.814L147.64 137.849C146.741 137.903 145.79 137.963 144.796 138.017L143.797 138.07L141.396 138.184C140.873 138.199 140.345 138.22 139.803 138.249L138.752 138.285L137.404 138.329L136.113 138.372C135.279 138.386 134.43 138.413 133.562 138.43L132.695 138.447L129.78 138.491C129.255 138.463 128.712 138.497 128.166 138.497C125.574 138.51 122.855 138.492 120.028 138.43L118.358 138.396C115.034 138.308 111.584 138.171 108.031 137.97L106.326 137.881C102.908 137.659 99.3985 137.375 95.8347 137.021L94.0104 136.83C76.2563 134.914 57.2906 131.077 40.6573 123.76C25.5724 117.147 3.27423 113.935 3.27423 113.935C3.03546 112.396 2.82893 110.851 2.65467 109.3C2.60527 108.871 2.56069 108.443 2.51581 108.019C2.00484 102.744 1.86787 97.4395 2.106 92.1452C2.12899 91.7058 2.15198 91.2664 2.17498 90.827C2.51716 84.5359 3.26725 78.2736 4.4204 72.0797L4.67735 70.7378C5.92583 64.2995 7.51562 57.932 9.43991 51.6624C9.57953 51.1908 9.72241 50.7481 9.856 50.3001C11.1039 46.3137 12.4229 42.5226 13.749 38.9618C13.9538 38.4361 14.1442 37.9097 14.3433 37.3981C15.1973 35.1726 16.0424 33.0553 16.8787 31.0461C17.0756 30.5775 17.2616 30.137 17.4575 29.6875C18.3355 27.6134 19.1921 25.6739 20.0273 23.869C20.2503 23.3586 20.4819 22.8679 20.7038 22.3814C21.7839 20.0433 22.8014 17.9893 23.6882 16.2349C23.9394 15.7356 24.1849 15.2552 24.4143 14.8074C25.214 13.2544 25.8872 12.0109 26.3862 11.0792C26.7301 10.4554 26.9939 9.99031 27.1632 9.68308L27.3848 9.29239C27.3848 9.29239 31.0402 8.3534 37.4001 7.25901C38.0433 7.13941 38.7196 7.03112 39.4199 6.9193C42.0428 6.49142 45.0348 6.05892 48.3555 5.65798C49.0498 5.56979 49.7579 5.49189 50.4853 5.41023C56.1264 4.78109 62.5948 4.26709 69.6747 4.05807C70.4185 4.02994 71.1618 4.01134 71.9144 3.99804C75.2705 3.9294 78.7617 3.93012 82.3536 4.02229C83.1321 4.06302 83.9175 4.06579 84.7106 4.10251C91.549 4.33828 98.3711 4.91906 105.151 5.8426C105.964 5.94743 106.787 6.0671 107.609 6.19153C112.033 6.85406 116.525 7.68298 121.04 8.70947C121.959 8.91079 122.881 9.1267 123.8 9.33279C126.363 9.95542 128.932 10.6454 131.507 11.4028C136.745 12.9454 141.898 14.7609 146.946 16.8418C147.927 17.2476 148.906 17.6628 149.883 18.0875C158.635 21.912 166.967 26.6333 174.745 32.1757C175.157 32.4702 175.517 32.8323 175.809 33.2467C175.961 33.463 176.098 33.6894 176.219 33.9243C176.883 35.4341 177.157 37.3258 177.088 39.6593Z" fill="white"/>
<path opacity="0.13" d="M177.086 39.6593C177.075 39.879 177.063 40.1082 177.051 40.3327C177.039 40.5572 177.026 40.8103 177.015 41.0252C177.003 41.2402 176.994 41.4121 176.984 41.6127C176.979 41.713 176.974 41.8085 176.969 41.9041C176.958 42.1142 176.923 42.3183 176.893 42.5275C176.876 42.857 176.811 43.1841 176.764 43.5265C176.762 43.5695 176.76 43.6125 176.758 43.6507C176.702 43.9734 176.656 44.311 176.595 44.6479C176.534 44.9847 176.484 45.303 176.424 45.6399C176.349 46.0574 176.26 46.479 176.17 46.9149C176.105 47.2372 176.036 47.5592 175.965 47.8956C175.683 49.1835 175.349 50.5309 174.998 51.9301C174.793 52.7336 174.568 53.5552 174.342 54.391C174.148 55.0849 173.948 55.7833 173.753 56.4962C173.558 57.2092 173.321 57.987 173.099 58.7512C172.35 61.2599 171.528 63.8702 170.673 66.5697C170.23 67.9833 169.773 69.3961 169.316 70.809C169.145 71.3412 168.968 71.8779 168.796 72.4244C168.751 72.5561 168.71 72.7025 168.659 72.8435C168.43 73.5595 168.191 74.2798 167.962 75.0053C166.131 80.7045 164.255 86.6264 162.575 92.5538C162.399 93.1672 162.224 93.7758 162.057 94.3945C161.934 94.8334 161.81 95.2819 161.696 95.7213L161.395 96.8023C161.388 96.936 161.334 97.0577 161.298 97.1852C161.078 98.0165 160.862 98.8433 160.661 99.6709C160.632 99.7556 160.614 99.8361 160.59 99.9163C160.475 100.389 160.349 100.862 160.243 101.335C160.05 102.088 159.872 102.835 159.709 103.577C159.555 104.225 159.406 104.878 159.267 105.527C159.128 106.176 158.991 106.767 158.873 107.389C158.229 110.535 157.684 113.619 157.308 116.612C157.298 116.798 157.26 116.969 157.236 117.15C157.044 118.72 156.896 120.259 156.803 121.773C156.797 121.892 156.79 122.016 156.784 122.14C156.779 122.183 156.777 122.226 156.777 122.269C156.767 122.451 156.758 122.632 156.749 122.804C156.74 122.976 156.73 123.167 156.721 123.339C156.71 123.409 156.706 123.479 156.71 123.549C156.682 124.075 156.655 124.6 156.666 125.123C156.677 125.645 156.651 126.233 156.66 126.784C156.657 130.234 157.092 133.67 157.955 137.01L157.574 137.052L157.324 137.082L155.658 137.254L155.22 137.288L154.705 137.333L153.873 137.409L152.713 137.507L151.415 137.606L151.358 137.603L150.497 137.664C150.43 137.665 150.363 137.661 150.297 137.653L149.109 137.74C148.787 137.766 148.456 137.782 148.148 137.804L147.638 137.84C146.74 137.893 145.789 137.954 144.794 138.007L143.796 138.06L141.395 138.174C140.872 138.19 140.344 138.21 139.802 138.239L138.751 138.275L137.403 138.319L136.112 138.362C135.278 138.376 134.429 138.403 133.561 138.42L132.693 138.437L129.779 138.481C129.254 138.453 128.711 138.487 128.165 138.487C125.573 138.5 122.854 138.483 120.027 138.421L118.357 138.386C115.033 138.298 111.583 138.161 108.03 137.961L106.325 137.871C102.907 137.65 99.3974 137.365 95.8336 137.011L94.0093 136.82C76.2552 134.904 57.2895 131.067 40.6562 123.75C25.5713 117.137 3.27314 113.925 3.27314 113.925C34.357 102.726 53.804 113.749 84.0213 118.285C84.6817 118.387 85.352 118.484 86.0272 118.577C90.069 119.133 94.3132 119.571 98.8023 119.815C99.3897 119.846 99.9868 119.877 100.584 119.908C102.017 119.983 103.509 120.013 105.017 120.03C106.933 120.059 108.848 119.95 110.748 119.703C111.297 119.636 111.838 119.554 112.374 119.462C115.55 118.923 118.651 118.015 121.615 116.756C122.105 116.557 122.596 116.328 123.047 116.117C125.96 114.758 128.734 113.119 131.33 111.225C131.765 110.906 132.199 110.579 132.631 110.244C135.198 108.26 137.613 106.086 139.854 103.74C140.259 103.316 140.67 102.883 141.071 102.444C143.548 99.728 145.851 96.8589 147.967 93.8535C148.324 93.3453 148.676 92.837 149.034 92.3193C151.202 89.1126 153.208 85.7985 155.042 82.3895C155.371 81.7745 155.695 81.1593 156.021 80.525C158.618 75.4812 160.904 70.2827 162.865 64.959C163.105 64.2963 163.341 63.6333 163.572 62.9797C165.284 58.163 166.673 53.2374 167.729 48.2357C167.898 47.392 168.05 46.5858 168.182 45.8073C169.026 40.8515 169.115 37.1397 168.39 35.4303C166.714 31.401 160.187 26.6247 153.071 22.4065C151.951 21.7397 150.812 21.0863 149.681 20.4572C140.524 15.3325 131.514 11.4366 131.514 11.4366C136.751 12.9792 141.904 14.7947 146.952 16.8757C147.933 17.2814 148.912 17.6967 149.89 18.1213C158.641 21.9459 166.973 26.6672 174.751 32.2095C175.163 32.5041 175.523 32.8662 175.816 33.2806C175.967 33.4969 176.104 33.7233 176.225 33.9581C176.881 35.434 177.156 37.3258 177.086 39.6593Z" fill="#0000FF"/>
<g opacity="0.11">
<path d="M173.685 56.4927C173.474 57.2335 173.253 57.9834 173.031 58.7477C171.374 55.2766 169.581 51.7983 167.653 48.3131C167.32 47.7162 166.992 47.1195 166.654 46.5223C161.528 37.5069 155.833 28.8268 149.604 20.5346C148.709 19.3383 147.804 18.1447 146.89 16.9538C147.871 17.3596 148.85 17.7748 149.827 18.1995C150.897 19.6252 151.962 21.0602 152.994 22.4839C158.442 29.9484 163.461 37.7167 168.026 45.7512L168.105 45.8847C170.101 49.4246 171.961 52.9606 173.685 56.4927Z" fill="#0000FF"/>
</g>
<g opacity="0.11">
<path d="M161.336 96.8423C161.3 96.9745 161.265 97.0972 161.23 97.2199C161.009 98.0513 160.793 98.8781 160.592 99.7057C160.565 99.7895 160.543 99.8746 160.526 99.9608C159.017 94.031 157.162 88.1946 154.97 82.4815C151.55 73.5969 147.471 64.9804 142.766 56.7042C133.192 39.7761 120.549 22.7402 105.086 5.96373C105.899 6.06855 106.722 6.18819 107.544 6.31262C122.489 22.7315 134.779 39.3803 144.138 55.9331C148.654 63.8778 152.6 72.1329 155.948 80.6362C158.027 85.9406 159.822 91.3517 161.326 96.8466L161.336 96.8423Z" fill="#0000FF"/>
</g>
<g opacity="0.11">
<path d="M148.626 134.266C148.134 134.528 147.641 134.78 147.149 135.046C145.857 124.393 143.39 113.915 139.794 103.804C136.101 93.4136 131.499 83.3694 126.039 73.7885C115.181 54.5806 100.37 35.2377 81.9882 16.3019C77.8441 12.0285 73.7033 7.96611 69.6304 4.16106C70.3742 4.13293 71.1175 4.11435 71.8701 4.10105C75.5794 7.62367 79.3461 11.3313 83.1125 15.2257C101.584 34.2668 116.486 53.7198 127.41 73.0317C132.784 82.4567 137.337 92.3265 141.02 102.532C144.717 112.797 147.268 123.44 148.626 134.266Z" fill="#0000FF"/>
</g>
<g opacity="0.11">
<path d="M129.7 138.563C129.174 138.535 128.631 138.569 128.085 138.569C126.451 131.168 124.27 123.899 121.561 116.82C118.128 107.883 114.027 99.2168 109.292 90.8958C98.4385 71.6929 83.622 52.3545 65.2409 33.4091C55.6348 23.5052 46.036 14.7415 37.3234 7.34596C37.9667 7.22637 38.6428 7.11807 39.3431 7.00625C47.8004 14.2447 57.0634 22.7466 66.3427 32.3078C84.8146 51.3489 99.7161 70.8019 110.635 90.1231C115.395 98.4859 119.516 107.196 122.964 116.18C125.769 123.461 128.021 130.943 129.7 138.563Z" fill="#0000FF"/>
</g>
<g opacity="0.11">
<path d="M107.966 138.043L106.261 137.954C104.093 131.801 101.585 125.773 98.7479 119.898C96.8477 115.942 94.7752 111.981 92.5306 108.017C81.6725 88.8135 66.856 69.4751 48.48 50.5252C38.642 40.384 28.8181 31.4361 19.9625 23.9373C20.1856 23.427 20.4172 22.9362 20.639 22.4498C29.6236 30.0463 39.6038 39.1173 49.605 49.4346C68.0772 68.471 82.9787 87.924 93.8976 107.245C96.2997 111.496 98.5104 115.743 100.53 119.987C103.339 125.864 105.821 131.892 107.966 138.043Z" fill="#0000FF"/>
</g>
<g opacity="0.11">
<path d="M168.593 72.8448C168.364 73.5608 168.125 74.2811 167.895 75.0066C166.316 71.6864 164.614 68.3615 162.79 65.0317C162.318 64.1641 161.836 63.3008 161.35 62.4324C151.229 44.5275 137.67 26.5049 120.973 8.79218C121.891 8.99351 122.814 9.2094 123.732 9.4155C139.769 26.6674 152.874 44.2017 162.723 61.6374C162.987 62.0966 163.245 62.5651 163.498 63.0285C165.315 66.3196 167.013 69.5917 168.593 72.8448Z" fill="#0000FF"/>
</g>
<g opacity="0.11">
<path d="M157.169 117.18C156.977 118.75 156.829 120.289 156.736 121.803C156.729 121.922 156.723 122.046 156.716 122.17C156.714 122.223 156.711 122.271 156.708 122.323C154.672 112.601 151.722 103.093 147.897 93.9265C144.852 86.6111 141.366 79.4875 137.457 72.5949C126.608 53.397 111.782 34.0582 93.4062 15.1082C89.6799 11.2702 85.9747 7.60735 82.2907 4.11958C83.0692 4.16032 83.8545 4.16308 84.6476 4.19979C87.9226 7.32772 91.2172 10.5987 94.5315 14.0129C113.003 33.0636 127.904 52.5166 138.829 71.8237C142.602 78.4768 145.986 85.3429 148.964 92.3875C152.361 100.418 155.105 108.708 157.169 117.18Z" fill="#0000FF"/>
</g>
<g opacity="0.11">
<path d="M141.324 138.256C140.801 138.272 140.273 138.292 139.73 138.322C137.731 129.073 134.897 120.025 131.265 111.289C128.197 103.883 124.675 96.6738 120.718 89.7025C109.86 70.5042 95.0482 51.1613 76.6672 32.2159C66.8792 22.1252 57.1103 13.2233 48.2967 5.74591C48.991 5.65772 49.699 5.57983 50.4265 5.49816C58.9902 12.8093 68.3862 21.4235 77.7879 31.1156C96.2646 50.157 111.166 69.6099 122.09 88.9219C126.009 95.8334 129.507 102.975 132.566 110.308C136.341 119.334 139.273 128.69 141.324 138.256Z" fill="#0000FF"/>
</g>
<g opacity="0.11">
<path d="M119.963 138.504L118.293 138.469C116.128 132.091 113.591 125.847 110.694 119.767C108.659 115.455 106.416 111.136 103.963 106.809C93.1099 87.6065 78.2934 68.2681 59.9123 49.3227C48.4897 37.5949 36.3717 26.5653 23.6237 16.2938C23.8749 15.7945 24.1203 15.314 24.3497 14.8662C37.2437 25.235 49.4986 36.3743 61.0474 48.2231C79.5193 67.2643 94.4208 86.7172 105.34 106.038C107.888 110.54 110.217 115.036 112.325 119.527C115.237 125.699 117.787 132.035 119.963 138.504Z" fill="#0000FF"/>
</g>
<g opacity="0.11">
<path d="M95.7787 137.08L93.9544 136.889C91.9163 132.577 89.6729 128.253 87.2242 123.917C86.1716 122.068 85.0857 120.213 83.9665 118.354C73.4722 100.985 59.7767 83.5634 43.1743 66.4112C33.8127 56.7848 23.9702 47.6381 13.6844 39.0062C13.8891 38.4806 14.0794 37.9541 14.2785 37.4425C24.7484 46.2221 34.7666 55.5267 44.2946 65.3204C61.3354 82.8787 75.3356 100.795 85.9731 118.631C86.8533 120.114 87.7318 121.63 88.6111 123.132C91.2249 127.79 93.6141 132.439 95.7787 137.08Z" fill="#0000FF"/>
</g>
<path d="M169.082 34.0949C169.082 34.0949 127.403 102.492 152.341 132.053C152.341 132.053 148.454 107.476 155.426 90.5723C162.397 73.6688 173.5 37.1371 169.082 34.0949Z" fill="#9C9EF9"/>
</svg>
