<svg width="229" height="151" viewBox="0 0 229 151" fill="none" xmlns="http://www.w3.org/2000/svg">
<path d="M72.8842 62.4608C65.7608 80.3733 74.5076 100.67 92.4201 107.793C110.333 114.917 130.629 106.17 137.753 88.2575C144.876 70.345 136.129 50.0483 118.217 42.9249C100.304 35.8015 80.0076 44.5483 72.8842 62.4608Z" fill="#FF635F"/>
<path d="M72.8842 62.4608C65.7608 80.3733 74.5076 100.67 92.4201 107.793C110.333 114.917 130.629 106.17 137.753 88.2575C144.876 70.345 136.129 50.0483 118.217 42.9249C100.304 35.8015 80.0076 44.5483 72.8842 62.4608Z" fill="url(#paint0_linear_1480_6192)"/>
<path d="M76.0811 56.5805C75.6379 57.2607 75.2169 57.9759 74.82 58.7028C74.3023 59.6507 73.8337 60.6041 73.4159 61.5761C55.6885 58.4907 43.5319 57.9342 42.8331 60.6597C42.1296 63.4132 53.2511 68.8294 70.545 74.6829C79.8409 77.8304 90.9236 81.103 102.908 84.1702C115.136 87.2991 126.656 89.7749 136.454 91.4744C154.102 94.5377 166.193 95.0787 166.892 92.3532C167.586 89.6557 156.904 84.4077 140.207 78.6843C140.395 76.7979 140.412 74.9089 140.278 73.0312C168.871 82.8495 187.903 93.5393 186.279 99.8931C184.594 106.511 161.071 106.506 129.467 100.775C120.311 99.119 110.475 96.9792 100.299 94.3756C90.3614 91.8412 80.9197 89.0752 72.2665 86.216C41.4354 76.026 20.504 64.6288 22.1994 57.9753C23.8403 51.57 45.964 51.3745 76.0811 56.5805Z" fill="#3939FA"/>
<defs>
<linearGradient id="paint0_linear_1480_6192" x1="101.6" y1="51.1664" x2="118.946" y2="108.179" gradientUnits="userSpaceOnUse">
<stop stop-color="#F9BB9E"/>
<stop offset="0.26" stop-color="#F89082"/>
<stop offset="0.53" stop-color="#FF7F22"/>
<stop offset="0.76" stop-color="#FFA767"/>
<stop offset="1" stop-color="#FFB84A"/>
</linearGradient>
</defs>
</svg>
