<?xml version="1.0" encoding="UTF-8"?>
<!-- Created with Inkscape (http://www.inkscape.org/) -->
<svg width="425.98mm" height="196.32mm" version="1.1" viewBox="0 0 425.98 196.32" xml:space="preserve" xmlns="http://www.w3.org/2000/svg"><defs><linearGradient id="paint0_linear_1711_5430" x1="186.16" x2="201.84" y1="442.98" y2="463.04" gradientUnits="userSpaceOnUse"><stop stop-color="#3939FA" offset="0"/><stop stop-color="#ADADFF" offset="1"/></linearGradient><linearGradient id="paint1_linear_1711_5430" x1="159.66" x2="171" y1="7.9386" y2="22.449" gradientUnits="userSpaceOnUse"><stop stop-color="#FFE2BC" offset="0"/><stop stop-color="#FF7E21" offset="1"/></linearGradient><linearGradient id="paint2_linear_1711_5430" x1="1444.4" x2="873.55" y1="651.85" y2="874.25" gradientUnits="userSpaceOnUse"><stop stop-color="#3939FA" offset="0"/><stop stop-color="#fff" stop-opacity="0" offset="1"/></linearGradient><linearGradient id="paint3_linear_1711_5430" x1="878.49" x2="571.85" y1="533.09" y2="652.91" gradientUnits="userSpaceOnUse"><stop stop-color="#3939FA" offset="0"/><stop stop-color="#fff" stop-opacity="0" offset="1"/></linearGradient><linearGradient id="paint4_linear_1711_5430" x1="177.76" x2="839.32" y1="669.28" y2="929.14" gradientUnits="userSpaceOnUse"><stop stop-color="#3939FA" offset="0"/><stop stop-color="#fff" stop-opacity="0" offset="1"/></linearGradient><linearGradient id="paint5_linear_1711_5430" x1="1197.4" x2="1298.1" y1="141.15" y2="141.15" gradientUnits="userSpaceOnUse"><stop stop-color="#3939FA" stop-opacity=".85" offset="0"/><stop stop-color="#ADADFF" stop-opacity=".51" offset="1"/></linearGradient><linearGradient id="paint6_linear_1711_5430" x1="1196.6" x2="1298.9" y1="141.15" y2="141.15" gradientUnits="userSpaceOnUse"><stop stop-color="#3939FA" offset="0"/><stop stop-color="#ADADFF" offset="1"/></linearGradient><linearGradient id="paint7_linear_1711_5430" x1="384.35" x2="441.66" y1="535.73" y2="520.49" gradientUnits="userSpaceOnUse"><stop stop-color="#fff" offset="0"/><stop stop-color="#fff" stop-opacity=".41" offset="1"/></linearGradient><linearGradient id="paint8_linear_1711_5430" x1="569.15" x2="626.46" y1="705.03" y2="689.78" gradientUnits="userSpaceOnUse"><stop stop-color="#fff" offset="0"/><stop stop-color="#fff" stop-opacity=".41" offset="1"/></linearGradient><linearGradient id="paint9_linear_1711_5430" x1="1463.2" x2="1520.5" y1="450.6" y2="435.36" gradientUnits="userSpaceOnUse"><stop stop-color="#fff" offset="0"/><stop stop-color="#fff" stop-opacity=".41" offset="1"/></linearGradient><linearGradient id="paint10_linear_1711_5430" x1="1094.5" x2="1151.8" y1="169.09" y2="153.84" gradientUnits="userSpaceOnUse"><stop stop-color="#fff" offset="0"/><stop stop-color="#fff" stop-opacity=".41" offset="1"/></linearGradient><linearGradient id="paint11_linear_1711_5430" x1="1071.7" x2="1178.4" y1="44.88" y2="15.683" gradientUnits="userSpaceOnUse"><stop stop-color="#fff" offset="0"/><stop stop-color="#fff" stop-opacity=".41" offset="1"/></linearGradient><linearGradient id="paint12_linear_1711_5430" x1="995.9" x2="1334.5" y1="213.7" y2="95.769" gradientUnits="userSpaceOnUse"><stop stop-color="#fff" offset="0"/><stop stop-color="#fff" stop-opacity="0" offset="1"/></linearGradient><clipPath id="clip0_1711_5430"><rect width="1610" height="742" fill="#fff"/></clipPath></defs><g transform="translate(143.87 -62.919)" fill="none"><g transform="matrix(.26458 0 0 .26458 -143.87 62.919)"><g clip-path="url(#clip0_1711_5430)"><path d="m194.83 464.1c5.54 0 10.032-4.492 10.032-10.032s-4.492-10.031-10.032-10.031c-5.541 0-10.033 4.491-10.033 10.031s4.492 10.032 10.033 10.032z" fill="url(#paint0_linear_1711_5430)"/><path d="m165.93 23.217c4.007 0 7.255-3.2479 7.255-7.2544s-3.248-7.2544-7.255-7.2544-7.256 3.2479-7.256 7.2544 3.249 7.2544 7.256 7.2544z" fill="url(#paint1_linear_1711_5430)"/><path d="m1099.8 693.52c6.41-0.068 12.73 1.514 18.34 4.593 0.21-5.671 2.01-11.169 5.2-15.867 3.17-4.673 7.6-8.349 12.78-10.6 5.16-2.233 10.86-2.938 16.42-2.029 5.55 0.909 10.73 3.392 14.91 7.156 5.19-12.787 14.05-23.749 25.47-31.503 11.35-7.702 24.75-11.824 38.48-11.832 0.57 0 1.14 0.03 1.7 0.04 4.83-13.265 14.16-24.414 26.37-31.503 12.17-7.042 26.44-9.533 40.27-7.029 13.83 2.505 26.32 9.842 35.24 20.703 9.01 10.925 13.94 24.647 13.93 38.807 15.52 1e-3 30.42 6.094 41.49 16.969 5.51-12.757 14.73-23.558 26.48-30.99 11.68-7.39 25.34-11.035 39.15-10.448 13.82 0.587 27.12 5.379 38.14 13.734 11.08 8.399 19.38 19.938 23.82 33.117 8.42-4.734 19.55-7.611 31.74-7.611 26.35 0 47.71 29.108 47.71 45.689h-527.3c-0.01-11.797 13.28-21.396 29.66-21.396z" fill="url(#paint2_linear_1711_5430)" opacity=".3"/><path d="m693.23 555.43c3.443-0.035 6.838 0.812 9.861 2.461 0.114-3.041 1.082-5.987 2.793-8.502 1.704-2.509 4.088-4.479 6.873-5.68 2.776-1.199 5.837-1.577 8.821-1.091s5.767 1.816 8.019 3.833c2.797-6.856 7.56-12.731 13.691-16.884 6.109-4.13 13.315-6.337 20.689-6.339h0.916c2.603-7.115 7.621-13.092 14.179-16.888 6.541-3.772 14.207-5.105 21.638-3.763s14.147 5.272 18.955 11.093c4.854 5.856 7.511 13.222 7.512 20.827 8.338-2e-3 16.344 3.263 22.3 9.096 2.969-6.839 7.932-12.625 14.239-16.602 6.285-3.96 13.627-5.913 21.05-5.599 7.422 0.315 14.573 2.882 20.5 7.36 5.954 4.499 10.415 10.685 12.805 17.754 4.528-2.516 10.511-4.08 17.067-4.08 14.163 0 25.66 15.595 25.66 24.49h-283.52c0-6.339 7.145-11.486 15.95-11.486z" fill="url(#paint3_linear_1711_5430)" opacity=".3"/><path d="m578 717.35c-7.436-0.08-14.769 1.742-21.303 5.293-0.215-6.535-2.288-12.873-5.975-18.273-3.687-5.399-8.836-9.637-14.844-12.217-6.009-2.58-12.628-3.396-19.083-2.351s-12.479 3.907-17.366 8.25c-6.03-14.748-16.311-27.369-29.536-36.257-13.224-8.889-28.794-13.643-44.729-13.658-0.659 0-1.318 0.03-1.977 0.045-5.638-15.296-16.483-28.118-30.631-36.218-14.149-8.1-30.698-10.961-46.745-8.08s-30.568 11.32-41.014 23.835c-10.447 12.516-16.152 28.309-16.116 44.611-17.993-1e-3 -35.276 7.018-48.172 19.564-6.406-14.715-17.117-27.147-30.725-35.66-13.607-8.513-29.473-12.707-45.51-12.032s-31.495 6.188-44.338 15.814c-12.844 9.627-22.472 22.915-27.619 38.117-9.7913-5.454-22.707-8.769-36.861-8.769-30.632 0-55.452 33.53-55.452 52.632h612.45c0-13.588-15.427-24.646-34.456-24.646z" fill="url(#paint4_linear_1711_5430)" opacity=".3"/><path d="m1308 447.36 26.66-10.474-21 19.187 18.85 20.677-25.4-12.612-14.46 28.474 4.77-32.197-29.21-2.948 29.76-7.42-1.04-27.735z" fill="#ffd297"/><path d="m1325.3 213.39s58.46-154.86 124.28-16.456c62.61 131.71-156.52 67.916-85.57 233.43 88.64 206.79 246.04 29.133 246.04 29.133v14.846s-155.62 154.64-244.3-29.083c-70.75-146.62 59.25-138.22 86.82-186.05 19.17-33.259-36.83-104.58-36.83-104.58-46-53.452-97.89 89.598-97.89 89.598z" fill="#9c9ef9"/><path d="m1274.4 280.16-3.53 21.799c-0.33 2.021-1.36 3.859-2.92 5.186-1.57 1.327-3.55 2.056-5.59 2.058l-0.21-0.247c-11.57-14.086-21.58-3.199-21.58-3.199-1.26-0.319-2.35-1.092-3.07-2.168-0.71-1.078-1-2.384-0.8-3.663l3.57-23.504c0.5-3.471 3.3-5.951 6.45-5.735l21.13 1.429 0.79 0.055c3.71 0.227 6.37 3.975 5.76 7.989z" fill="#8e37f5"/><path d="m1267.8 274.49-5.41 33.541c-0.05 0.314-0.13 0.622-0.26 0.915-11.57-14.086-21.58-3.199-21.58-3.199-1.25-0.319-2.34-1.092-3.06-2.169s-1-2.383-0.8-3.662l3.56-23.494c0.5-3.471 3.3-5.951 6.45-5.735l21.13 1.429c0.09 0.789 0.07 1.585-0.04 2.369z" fill="#712cca"/><path d="m1307.2 290.83-3.1 22.01c-0.28 2.023-1.28 3.877-2.83 5.212-0.13 0.122-0.27 0.233-0.42 0.332-1.48 1.122-3.28 1.726-5.14 1.721-0.18-0.252-21.79-3.331-21.79-3.331-1.25-0.313-2.35-1.077-3.09-2.146-0.73-1.068-1.04-2.369-0.88-3.654l3.13-23.912c0.64-4.864 4.67-8.391 9.24-8.099l13.42 0.865 3.28 0.216c0.21 7e-3 0.42 0.029 0.62 0.066 1.93 0.278 3.71 1.207 5.04 2.631 1 1.075 1.76 2.362 2.2 3.768 0.43 1.408 0.55 2.894 0.34 4.352z" fill="#712cca"/><path d="m1307.5 290.27-3.1 21.99c-0.28 2.02-1.28 3.873-2.81 5.211-0.14 0.118-0.29 0.227-0.44 0.327-1.47 1.125-3.28 1.732-5.14 1.726-0.17-0.252-0.35-0.503-0.5-0.724 2.51-10.988 5.14-26.809 5.59-31.951 0.21-2.489-0.19-4.991-1.14-7.3 1.93 0.28 3.7 1.21 5.03 2.637 1.01 1.078 1.76 2.365 2.21 3.768 0.43 1.405 0.55 2.89 0.33 4.346z" fill="#8e37f5"/><path d="m1328 201.52-18.7 78.757c-0.5 2.102-1.76 3.946-3.53 5.18-1.77 1.235-3.94 1.772-6.09 1.511l-6.3-0.77-36-4.356 0.96-6.254v-0.09l15.31-99.902c0.38-2.398 1.55-4.6 3.33-6.253 0.58-0.535 1.22-1.007 1.9-1.408l19.79 2.163 1.87 0.578h0.03l12.47 3.804c5.51 1.686 10.14 5.447 12.93 10.487 2.79 5.041 3.51 10.967 2.01 16.528z" fill="#8e37f5"/><path d="m1304.8 176.22c5.03-0.142 9.92 1.713 13.59 5.162 0.9 0.875 1.73 1.835 2.45 2.867 0.19 0.257 0.36 0.503 0.53 0.785s0.34 0.503 0.5 0.81l0.48 0.83c0.14 0.314 0.27 0.639 0.37 0.971 0.34 1.248 0.51 2.536 0.51 3.829 0.03 1.262-0.03 2.515-0.12 3.742-0.2 2.476-0.53 4.931-0.94 7.36-0.41 2.43-0.83 4.865-1.34 7.255-1.05 4.804-2.22 9.558-3.46 14.323-1.24 4.764-2.61 9.462-4 14.156s-2.86 9.383-4.41 14.026c-3.05 9.317-6.29 18.569-9.86 27.669l8.26-28.172c1.35-4.689 2.74-9.378 4.05-14.086 1.32-4.709 2.64-9.413 3.88-14.137s2.46-9.463 3.52-14.192c1.13-4.727 2-9.511 2.62-14.332 0.13-1.198 0.22-2.395 0.25-3.587 0.04-1.153-0.06-2.307-0.3-3.436-0.06-0.256-0.15-0.507-0.26-0.75l-0.39-0.795c-0.13-0.268-0.27-0.528-0.43-0.78-0.14-0.264-0.3-0.519-0.47-0.764-0.62-1.006-1.34-1.948-2.14-2.812-3.39-3.53-7.98-5.65-12.86-5.937z" fill="#fff"/><path d="m1309.1 194.58-18.72 78.756c-0.28 1.187-0.81 2.302-1.54 3.275-0.75 0.971-1.68 1.779-2.75 2.375l-27.8-3.376v-0.09l-2.36-99.901c0.36-2.405 1.53-4.614 3.32-6.266 1.78-1.652 4.08-2.648 6.5-2.825l13.08 1.424 19.79 2.163 1.89 0.578c3.7 2.633 6.49 6.331 8.02 10.599 1.53 4.267 1.72 8.9 0.54 13.277z" fill="#712cca"/><path d="m1247.8 191.4c9.94-8e-3 19.66-2.963 27.92-8.491s14.7-13.382 18.5-22.568 4.79-19.292 2.84-29.04c-1.94-9.748-6.73-18.701-13.77-25.727-7.03-7.0262-15.99-11.81-25.74-13.746-9.75-1.9363-19.86-0.9385-29.04 2.8673s-17.03 10.249-22.56 18.515c-5.52 8.265-8.47 17.982-8.47 27.923 0.02 13.335 5.32 26.121 14.76 35.547 9.43 9.425 22.22 14.72 35.56 14.72z" fill="url(#paint5_linear_1711_5430)" opacity=".39"/><path d="m1210.4 161.72s17.68 27.428 69.82 6.037c0 0-1.51-29.631-6.44-39.657-6.06-12.361-19.82-23.831-32.96-11.948 0 0-5.22-7.436-14.81 0.935-9.59 8.372-2.11 40.921-15.61 44.633z" fill="#e9e9e9"/><path d="m1249.8 553.49 4.11-0.841-28.17-144.36s36.25-77.761 37.9-127l-17.15-6.485c-12.97 30.905-42.19 104.14-42.24 136.12-0.05 31.347 30.8 107.82 45.55 142.56z" fill="#00f" opacity=".17"/><path d="m1030.3 452.81 8.39 6.665 66.16-121.46 71.69-15.314-78.38 7.597z" fill="#00f" opacity=".17"/><path d="m1356.8 261.26c-8.95 19.715-28.96 47.586-39.66 63.468-5.58-6.413-13.18-10.741-21.54-12.275l24.24-49.669s-18.69-16.255-23.59-21.582c-3.94-4.216-7.11-7.441-7.11-6.832l-0.03 0.121v0.085c-0.12 0.468-0.45 1.64-0.95 3.381-0.05 0.141-0.08 0.297-0.13 0.453-0.13 0.453-0.28 0.951-0.43 1.479-1.84 6.344-5.12 17.436-8.95 29.737-0.83 2.651-1.68 5.368-2.55 8.099 0 0 3.92 5.504 4.7 15.148 0.06 0.649 0.09 1.313 0.11 2.012 0.15 4.95-0.49 9.892-1.88 14.645-2.9 10.142-9.56 22.316-23.07 35.925-3.06 3.089-27.17 56.284-29.93 62.296l-0.24 0.558 28.17 144.36-4.11 0.835-24.58 4.985-13.18 2.672-35.22-98.77c-12.43-34.869-14.14-72.657-4.92-108.51l8.22-31.99-3.66 0.784-71.69 15.329-66.12 121.43-8.38-6.656-21.03-16.722-3.25-2.606 43.6-104.27c5.61-13.433 14.26-25.388 25.25-34.933 11-9.546 24.05-16.424 38.14-20.099l43.27-11.289c16.97-4.402 31.3-3.053 48.84-3.687l-1.56-4.12-3.44-9.126c-7.98-16.602 0.73-26.704 1.47-27.509l0.04-0.035c-0.39 0.156-11.87 8.085-24 15.128-9.88 5.735-20.19 10.881-25.29 10.761-12.24-0.297-44.44-31.191-56.72-43.899l16.25-11.158c15.36 10.866 41.9 22.16 41.9 22.16l49.04-26.346c5.51-3.647 13.12-6.897 19.8-6.646l17.66-1.147s3.05 12.019 20.57-2.278c0.19 0 12.39 0 21.01 1.468 9.35 1.595 20.39 4.81 25.78 11.269 1.32 1.565 2.74 3.265 4.24 5.031l12.57 15.093c4.5 5.423 20.6 24.394 29.74 35.17 2.12 2.478 3.49 5.51 3.95 8.739 0.47 3.23 0 6.524-1.34 9.497z" fill="#ef843d"/><path d="m1260.9 181.09c-8.31 5.152-21.01 2.294-21.01 2.294l0.46-7.858 0.69-11.465 0.5-8.739 6.72-2.123 5.86-1.846 5.53-1.741z" fill="#8c563f"/><path d="m1240.4 178.37-0.14-1.152 0.64-10.242c0.66-1.132 1.46-2.455 2.33-3.804 1.31-2.07 2.77-4.036 4.38-5.881 2.2-2.379 4.25-3.571 5.46-1.655 0.29 0.506 0.5 1.054 0.63 1.625 0.21 0.956 0.34 1.929 0.38 2.908 0.86 15.037-11.16 17.789-13.68 18.201z" fill="#452313"/><path d="m1256.4 142.98s2.73-7.295 7.25-4.593c4.53 2.701-0.32 17.2-4.83 13.372 0 0-2.08 18.166-21.26 20.374-19.18 2.209-11.22-41.388-9.86-44.08 3.49-6.942 12.28 22.976 22.86 5.298 0 0 4.61 3.491 1.13 12.647-1.75 4.578 4.71-3.018 4.71-3.018z" fill="#8c563f"/><path d="m1239.8 147.58c0.5 0 0.95-0.82 0.97-1.851 0.02-1.032-0.39-1.867-0.91-1.867s-0.94 0.82-0.96 1.847c-0.02 1.026 0.39 1.861 0.9 1.871z" fill="#000"/><path d="m1226.8 147.58c0.53 0 0.96-0.82 0.97-1.851 0-1.032-0.39-1.867-0.91-1.867s-0.94 0.82-0.96 1.847c-0.02 1.026 0.39 1.861 0.9 1.871z" fill="#000"/><path d="m1228.9 138.14c-0.19-0.018-0.37-0.103-0.5-0.241-2.09-2.269-4.76-0.74-4.87-0.679-0.08 0.051-0.17 0.085-0.27 0.1-0.1 0.02-0.19 0.02-0.29 0-0.1-0.027-0.19-0.07-0.27-0.126-0.07-0.056-0.14-0.128-0.18-0.211-0.06-0.085-0.09-0.179-0.11-0.277-0.01-0.095-0.01-0.191 0-0.286 0.01-0.1 0.06-0.193 0.13-0.267 0.05-0.078 0.12-0.143 0.2-0.191 1.32-0.78 4.41-1.565 6.73 0.946 0.1 0.105 0.17 0.238 0.19 0.382 0.03 0.144 0.01 0.293-0.04 0.428-0.07 0.13-0.17 0.241-0.3 0.322-0.12 0.074-0.26 0.114-0.4 0.115z" fill="#703a1b"/><path d="m1235.7 138.31c-0.19-0.014-0.37-0.096-0.5-0.231-0.07-0.068-0.12-0.148-0.15-0.237-0.05-0.089-0.06-0.188-0.06-0.286 0-0.097 0.02-0.193 0.06-0.282 0.04-0.088 0.09-0.168 0.16-0.237 0.04-0.04 3.86-3.647 9.75-0.191 0.16 0.106 0.28 0.266 0.33 0.453 0.04 0.19 0.01 0.387-0.08 0.559-0.05 0.082-0.11 0.155-0.19 0.216-0.07 0.056-0.16 0.099-0.25 0.126-0.1 0.019-0.19 0.019-0.29 0-0.1-0.011-0.2-0.043-0.29-0.096-4.86-2.847-7.82-0.131-7.94 0-0.14 0.133-0.32 0.209-0.51 0.211z" fill="#703a1b"/><path d="m1231.2 156.62c-0.26 3e-3 -0.51-0.065-0.74-0.196-0.91-0.528-1.82-2.213 0.74-10.705 0.01-0.064 0.05-0.123 0.09-0.174s0.09-0.094 0.15-0.125 0.12-0.051 0.19-0.058c0.06-6e-3 0.13 0 0.19 0.02 0.07 0.019 0.13 0.05 0.18 0.092s0.09 0.094 0.12 0.152c0.03 0.059 0.05 0.123 0.06 0.188 0.01 0.066 0 0.133-0.02 0.196-2.43 8.085-1.51 9.353-1.2 9.559 0.55 0.317 2.02-0.735 2.87-1.615 0.04-0.047 0.1-0.085 0.16-0.11 0.06-0.026 0.13-0.039 0.19-0.039 0.07 0 0.14 0.013 0.2 0.039 0.06 0.025 0.11 0.063 0.16 0.11 0.1 0.094 0.15 0.222 0.15 0.355s-0.05 0.26-0.15 0.354c-0.32 0.352-1.97 1.957-3.34 1.957z" fill="#452313"/><path d="m1260.1 149.74c-0.11 5e-3 -0.22-0.028-0.31-0.092-0.09-0.065-0.16-0.158-0.19-0.265-1.18-3.994-1.13-6.741 0.15-8.165 0.36-0.372 0.79-0.652 1.28-0.817 0.48-0.164 1-0.209 1.51-0.129 0.13 0.024 0.25 0.1 0.33 0.212 0.07 0.111 0.1 0.248 0.08 0.382-0.02 0.133-0.1 0.252-0.21 0.329s-0.25 0.107-0.38 0.083c-0.34-0.049-0.69-0.017-1.01 0.095-0.33 0.112-0.62 0.301-0.86 0.549-0.7 0.79-1.26 2.682 0.07 7.194 0.04 0.128 0.03 0.265-0.04 0.382-0.06 0.117-0.17 0.204-0.29 0.242-0.04 5e-3 -0.09 5e-3 -0.13 0z" fill="#452313"/><path d="m1176.9 462.4 35.17 98.76 13.16-2.677c-7.95-25.249-33.64-106.2-44.75-134.45-13.17-33.556 10.33-123.76 10.53-124.51-0.2 0.317-10.82 22.412-10.82 22.412l-8.21 31.955c-9.22 35.852-7.5 73.64 4.92 108.51z" fill="#fff" opacity=".27"/><path d="m1156.3 262.88c16.97-4.401 31.3-3.053 48.84-3.687-38.53 4.829-118.63 18.151-133.3 46.56-15.62 30.225-49.67 102.78-62.55 130.3l-3.25-2.606 43.6-104.27c5.61-13.433 14.26-25.388 25.25-34.934 11-9.545 24.05-16.423 38.14-20.098z" fill="#fff" opacity=".27"/><path d="m1249.1 257.4s-25.16 11.505-43.96 1.796l-1.57-4.12c13.68 0.457 11.3 5.7 45.53 2.324z" fill="#a54400" opacity=".46"/><path d="m1289.1 234.39-0.03 0.121v0.085l-1 3.336v0.045c-0.04 0.141-0.08 0.297-0.12 0.453l-0.43 1.479c-1.84 6.344-5.12 17.437-8.95 29.737-0.83 2.651-1.69 5.368-2.55 8.099 0 0 3.91 5.504 4.7 15.153-0.08 0.672-0.05 1.353 0.11 2.012 0.14 4.95-0.49 9.892-1.89 14.645-2.89 10.142-9.55 22.317-23.06 35.925-3.06 3.089-27.17 56.284-29.93 62.296 0 0 7.24-33.53 12.91-44.427 44.72-67.785 26.17-88.501 38.4-143.84z" fill="#a54400" opacity=".46"/><path d="m1172 309.01c-9.09 1.006-18.16 2.223-27.2 3.521-9.05 1.298-18.08 2.802-27.08 4.558-4.5 0.875-9 1.806-13.46 2.943-2.23 0.569-4.46 1.177-6.68 1.912-1.14 0.372-2.26 0.807-3.35 1.303-0.59 0.27-1.17 0.595-1.71 0.971-0.31 0.225-0.6 0.483-0.86 0.769l-0.18 0.207-0.15 0.191-0.3 0.377c-0.72 1.006-1.33 1.962-1.94 2.948s-1.2 1.977-1.78 2.968c-1.16 1.983-2.3 3.975-3.42 5.977-2.21 4.004-4.4 8.019-6.57 12.044-4.28 8.079-8.5 16.184-12.66 24.313l-6.19 12.225-3.07 6.118-3.02 6.142c-8.11 16.365-16.06 32.831-23.68 49.423 8.75-16.044 17.28-32.197 25.79-48.351l12.75-24.239c4.23-8.084 8.47-16.158 12.78-24.203 2.14-4.024 4.31-8.035 6.5-12.033 1.1-2.013 2.2-3.985 3.34-5.947 0.56-0.981 1.14-1.957 1.72-2.912 0.59-0.956 1.18-1.927 1.79-2.782l0.23-0.302 0.11-0.146 0.1-0.116c0.06-0.075 0.12-0.143 0.19-0.201 0.07-0.066 0.14-0.126 0.22-0.181 0.39-0.278 0.81-0.522 1.25-0.73 0.98-0.464 1.99-0.873 3.02-1.227 2.08-0.735 4.26-1.369 6.46-1.957 2.19-0.589 4.38-1.127 6.59-1.66 2.21-0.534 4.44-1.042 6.66-1.51 4.46-1.006 8.92-1.886 13.4-2.792 4.47-0.905 8.95-1.766 13.44-2.606 8.97-1.735 17.96-3.36 26.96-5.015z" fill="#5637a2"/><path d="m1237 333.92c-4.53 8.482-8.59 17.2-12.34 26.095-3.74 8.889-6.98 17.987-9.68 27.246-1.36 4.651-2.48 9.367-3.35 14.132-0.21 1.202-0.41 2.4-0.6 3.602l-0.23 1.816c-0.09 0.604-0.16 1.203-0.22 1.811l-0.17 1.826-0.05 0.458v0.463l-0.03 0.926-0.08 1.851 0.03 1.836 0.03 1.841 0.11 1.817c0.08 1.217 0.14 2.434 0.28 3.647 0.13 1.212 0.22 2.415 0.35 3.617l0.45 3.602c0.64 4.789 1.36 9.559 2.21 14.308 3.41 18.976 7.86 37.7 12.68 56.314s10.1 37.112 15.95 55.429c-4.63-18.664-9.24-37.308-13.65-55.997l-3.25-14.031c-0.5-2.334-1.06-4.674-1.57-7.043-0.5-2.37-1.04-4.689-1.53-7.043l-1.51-7.043-1.46-7.043c-0.93-4.689-1.85-9.378-2.67-14.117s-1.6-9.438-2.25-14.167c-0.68-4.703-1.11-9.438-1.28-14.186l-0.06-1.761 0.04-1.756v-1.308l0.03-0.443 0.15-1.76c0.04-0.589 0.12-1.178 0.18-1.766l0.2-1.761c0.17-1.172 0.34-2.349 0.5-3.521 0.78-4.694 1.82-9.348 3.02-13.971 1.21-4.623 2.61-9.196 4.06-13.759s3.06-9.056 4.74-13.548c3.36-8.972 7.02-17.843 10.97-26.613z" fill="#5637a2"/><path d="m1021 482.72 5.33 2.606 25.1-49.302-37.37-21.889-12.86 31.447s-6.413 1.339-8.556 1.394c-1.963 0.045-4.091 0.121-6.33 0.216-1.791 0.081-3.653 0.176-5.535 0.297-2.42 0.151-4.905 0.342-7.376 0.569-1.786 0.166-3.562 0.357-5.313 0.568-6.511 0.795-12.619 1.942-17.057 3.592-0.88 0.323-1.74 0.698-2.576 1.122-13.867 7.134 72.543 29.38 72.543 29.38z" fill="#712cca"/><path d="m1258.6 588.57 5.03-2.862-16.4-67.332-45.07 15.017 1.36 5.267c3.8 14.78 10.1 28.751 17.97 41.841 0.57 0.971 0.78 1.72 0.36 2.083-1.14 1.006-2.57 2.228-4.14 3.652-1.28 1.142-2.68 2.41-4.12 3.763-1.17 1.097-2.39 2.244-3.61 3.436l-0.16 0.151c-1.38 1.358-2.78 2.748-4.17 4.17-1.18 1.223-2.34 2.46-3.45 3.698-5.98 6.641-10.77 13.387-10.71 17.89v0.311c0.79 11.677 67.11-31.085 67.11-31.085z" fill="#712cca"/><path d="m1264.5 585.18-1.68-5.211c-10.53 8.587-48.3 36.81-66.12 38.686-1.86 0.196-3.59 0.428-5.22 0.689v0.312c0.8 11.677 73.02-34.476 73.02-34.476z" fill="#fff"/><path d="m1026.3 485.34 2.35-5.393-8.19-2.118s-47.761-13.78-57.909-18.297c-15.563-6.465-7.452-5.278-11.573-7.265-0.88 0.323-1.74 0.698-2.576 1.122-13.841 7.088 77.898 31.951 77.898 31.951z" fill="#fff"/><path d="m1247.8 191.4c9.94-8e-3 19.66-2.963 27.92-8.491s14.7-13.382 18.5-22.568 4.79-19.292 2.84-29.04c-1.94-9.748-6.73-18.701-13.77-25.727-7.03-7.0262-15.99-11.81-25.74-13.746-9.75-1.9363-19.86-0.9385-29.04 2.8673s-17.03 10.249-22.56 18.515c-5.52 8.265-8.47 17.982-8.47 27.923 0.02 13.335 5.32 26.121 14.76 35.547 9.43 9.425 22.22 14.72 35.56 14.72z" stroke="url(#paint6_linear_1711_5430)" stroke-miterlimit="10" stroke-width="1.91"/><path d="m1230.8 159.12 8.35-3.019s-3.7 15.907-8.35 3.019z" fill="#fff"/><path d="m1276.1 227.92c5.4 23.337 14.41 6.716 14.41 6.716l2.3 7.39 1.38 4.482s-22.95 19.142-27.36-22.845c-4.17-39.798 31.75-47.742 31.75-47.742l0.75 0.705 2.71 2.515 0.74 0.689c-0.23 0.126-0.47 0.247-0.7 0.378-14.39 7.611-31.29 24.746-25.98 47.712z" fill="#8e37f5"/><path d="m1290.5 234.64 2.29 7.395c-1.24 1.34-2.95 2.139-4.77 2.223-17.42 0.554-17.58-30.149-10.43-45.337 5.44-11.571 16.69-19.283 21.74-22.316l0.47 0.186c1.24 0.483 2.25 1.412 2.85 2.606 0.07 0.122 0.11 0.254 0.13 0.392-14.38 7.617-31.98 25.154-26.69 48.089 5.38 23.393 14.41 6.762 14.41 6.762z" fill="#5c24ab" opacity=".58"/><path d="m1208.2 194.21-6.62 24.178h-0.04l0.04-0.035c-0.39 0.156-11.87 8.085-24 15.128z" fill="#a54400" opacity=".46"/><path d="m1319.8 262.79 11.37-10.907-20.07 4.125z" fill="#a54400" opacity=".46"/><g fill="#5637a2"><path d="m1235 202.09c-2.54 6.204-4.7 12.558-6.46 19.027-0.86 3.203-1.53 6.455-2.01 9.739-0.14 0.815-0.18 1.635-0.29 2.455l-0.13 1.223-0.05 1.233c-0.08 1.599-0.12 3.355-0.21 5.06-0.3 3.386-0.76 6.754-1.4 10.092-0.59 3.321-1.37 6.621-2.26 9.901-1.69 6.526-3.76 12.95-6.2 19.238 1.56-6.541 3.13-13.081 4.53-19.621 1.47-6.501 2.51-13.092 3.12-19.73 0.1-1.65 0.15-3.25 0.26-5.031l0.07-1.293 0.15-1.278c0.11-0.85 0.16-1.71 0.34-2.515 0.58-3.355 1.39-6.666 2.44-9.906 2.04-6.465 4.75-12.698 8.1-18.594z"/><path d="m1098.5 203.32c0.89-1.414 1.9-2.747 3.02-3.984 1.09-1.232 2.24-2.407 3.46-3.522 1.2-1.123 2.45-2.183 3.76-3.179 1.32-1.019 2.71-1.926 4.18-2.712-0.89 1.409-1.9 2.742-3.02 3.984-1.1 1.228-2.25 2.405-3.45 3.522-1.21 1.117-2.47 2.178-3.78 3.174-1.32 1.018-2.71 1.926-4.17 2.717z"/><path d="m1117.6 196.94c4.08 1.897 8.1 3.889 12.12 5.911 2.01 1.006 4.02 2.012 5.98 3.059 1.97 1.046 3.99 2.052 5.97 3.124l5.95 3.129 5.91 3.2c1.98 1.041 3.95 2.143 5.91 3.229l5.88 3.265h-1l7.36-3.612 7.41-3.521c2.49-1.157 4.96-2.324 7.45-3.446 2.5-1.122 4.99-2.249 7.51-3.336-2.35 1.395-4.72 2.762-7.12 4.1-2.38 1.349-4.79 2.657-7.18 3.98l-7.22 3.894-7.26 3.818c-0.14 0.079-0.31 0.121-0.47 0.121-0.17 0-0.33-0.041-0.48-0.121l-5.95-3.22c-1.97-1.041-3.94-2.128-5.89-3.225l-5.89-3.26-5.86-3.31c-1.96-1.096-3.89-2.233-5.83-3.35s-3.88-2.259-5.81-3.401c-3.85-2.324-7.69-4.643-11.49-7.028z"/><path d="m1301.6 196.94 2.99 3.124 2.97 3.174 5.93 6.359c3.92 4.253 7.84 8.523 11.73 12.809 3.9 4.281 7.76 8.602 11.63 12.904l11.54 12.944c0.15 0.162 0.24 0.364 0.27 0.578 0.02 0.215-0.01 0.434-0.11 0.629l-7.98 16.154c-2.7 5.358-5.38 10.736-8.12 16.099l-4.09 8.049-4.14 7.994-4.19 7.969-2.1 3.979-2.15 3.949 1.84-4.115 1.87-4.095 3.75-8.185 3.8-8.165 3.85-8.14c2.57-5.428 5.23-10.821 7.79-16.234l7.91-16.154 0.16 1.202-11.44-13.08c-3.8-4.377-7.61-8.738-11.36-13.15-3.76-4.412-7.52-8.804-11.25-13.236l-5.57-6.671-2.78-3.341z"/><path d="m1296 311.64c2.26-0.276 4.55-0.207 6.78 0.206 2.27 0.384 4.47 1.085 6.54 2.083 2.12 0.997 4.02 2.404 5.59 4.14 0.76 0.881 1.42 1.853 1.94 2.893 0.5 1.033 0.84 2.136 1.01 3.27-0.58-0.938-1.22-1.834-1.92-2.682-0.69-0.812-1.44-1.567-2.25-2.258-1.63-1.339-3.42-2.475-5.32-3.386-1.94-0.925-3.94-1.72-5.98-2.38-2.1-0.714-4.21-1.328-6.39-1.886z"/><path d="m1001.2 445.63 15.48 11.887-10.68-24.042z"/><path d="m1221.9 582.57s21.85-14.791 20.38-15.385c-1.47-0.593-28.02 0-28.02 0z"/></g><path d="m434.48 518.76 7.688 1.147-5.575 5.438 1.303 7.703-6.873-3.643-6.868 3.607 1.328-7.687-5.534-5.468 7.688-1.112 3.456-6.988z" fill="url(#paint7_linear_1711_5430)" opacity=".72"/><path d="m619.28 688.06 7.688 1.137-5.58 5.438 1.303 7.702-6.873-3.642-6.883 3.617 1.328-7.687-5.534-5.468 7.688-1.112 3.451-6.988z" fill="url(#paint8_linear_1711_5430)" opacity=".72"/><path d="m1513.3 433.63 7.68 1.137-5.57 5.438 1.3 7.703-6.87-3.643-6.88 3.617 1.33-7.687-5.54-5.473 7.69-1.107 3.45-6.988z" fill="url(#paint9_linear_1711_5430)" opacity=".72"/><path d="m1144.7 152.12 7.68 1.132-5.58 5.448 1.31 7.707-6.87-3.647-6.89 3.617 1.33-7.687-5.53-5.468 7.69-1.107 3.45-6.993z" fill="url(#paint10_linear_1711_5430)" opacity=".72"/><path d="m1165.1 12.743 14.37 2.0626-10.42 9.8855 2.43 14.006-12.84-6.6256-12.87 6.5803 2.48-13.981-10.38-9.9458 14.38-2.0123 6.44-12.713z" fill="url(#paint11_linear_1711_5430)" opacity=".72"/><path d="m1111.9 189.21-16.1 11.309c-2-2.86-4.27-5.526-6.77-7.964-0.65-0.637-1.31-1.253-1.98-1.846-12.1-10.781-25.15-13.463-26.2-17.14-0.91-3.21 5.15 0.503 7.5 1.117 1.73 0.471 3.41 1.092 5.03 1.856 0.3 0.141 1.29 0.388 0.34-0.503-2.47-2.15-5.21-3.97-8.15-5.413-4.53-2.158-5.03-3.718-5.53-4.92-0.09-0.196-0.12-0.413-0.08-0.623s0.14-0.404 0.29-0.557 0.34-0.259 0.55-0.303 0.43-0.026 0.62 0.054l13.7 5.931c0.34 0.136 2.01 1.007 0.27-0.503-6.89-5.986-9.73-4.613-12.77-8.084-1.69-1.922-1.07-2.928-0.84-3.522 0.04-0.113 0.1-0.216 0.19-0.302 0.08-0.086 0.18-0.154 0.29-0.199 0.12-0.045 0.24-0.066 0.36-0.062s0.23 0.033 0.34 0.085l18.53 9.634c0.06 0.03 0.13 0.037 0.2 0.02 0.07-0.018 0.13-0.058 0.17-0.114s0.06-0.125 0.05-0.194c0-0.069-0.03-0.134-0.08-0.185-2.56-2.575-14.2-7.843-15.32-9.87-1.4-2.515-0.8-3.909 6.7-0.231 3.72 1.821 9.62 3.597 15.31 8.205 0.33 0.261 0.65 0.533 0.98 0.815 1.56 1.367 3 2.872 4.29 4.497 0.03 0.046 0.08 0.081 0.14 0.099 0.05 0.019 0.11 0.02 0.17 4e-3 0.06-0.015 0.11-0.047 0.14-0.091 0.04-0.045 0.07-0.099 0.07-0.158 0.38-3.461-0.41-11.998 2.56-14.015 1.67-1.127 3.66 13.95 4.33 20.037 0.27 2.474 1.34 4.791 3.05 6.596l0.03 0.03c2.34 2.398 4.89 4.577 7.62 6.51z" fill="#8c563f"/><path d="m1305.7 337.55c0.21-1.65 10.18-16.028 10.18-16.028-2.05-2.238-4.46-4.109-7.13-5.534-3.22-1.753-6.68-2.994-10.28-3.677l-7.93 16.098-25.95 11.284c0.28 0.517 0.65 0.984 1.08 1.384 1.7 1.625 5.59 3.476 12.74-1.892 0 0-7.75 13.438-6.54 25.597 0.68 6.792 2.18 9.79 3.38 11.113 0.37 0.412 0.87-0.408 1.34-1.55 0.97-2.398 1.32-5.006 1.01-7.576l-0.66-5.634 3.02-7.386 0.44-1.081s-0.83 26.16 2.41 29.817h0.05c0.08-0.045 0.14-0.097 0.21-0.156 1.05-0.905 1.75-2.152 1.97-3.521l3.06-21.467 0.09-0.649c-0.03 0.272-0.05 0.584-0.06 0.936-0.08 1.816-0.06 4.644 0 7.793 0.12 5.629 0.4 12.27 0.5 15.932 6.23 1.942 7.9-23.554 8.02-25.405v1.137c0 1.434 0.17 3.768 0.79 5.111 1.44 3.139 3.76 7.546 6.83 13.553 0.06 0.093 0.13 0.169 0.23 0.218 0.09 0.05 0.2 0.071 0.31 0.061 0.1-0.01 0.2-0.051 0.29-0.118 0.08-0.066 0.15-0.155 0.18-0.257 0.12-0.432 0.26-0.965 0.37-1.589 0.65-3.441 0.8-9.529-4.02-15.721 0.16-0.348 3.27-14.167 4.07-20.793z" fill="#8c563f"/><g fill="#63392a"><path d="m1088.3 168.48c0.75 0.265 1.44 0.685 2.02 1.233 0.58 0.547 1.04 1.211 1.34 1.946 1.09 2.516-0.45 7.793 2.63 10.967 0 0-5.16-1.267-3.44-10.328z"/><path d="m1301.7 358.35c4.82 6.192 4.67 12.28 4.02 15.721-0.79-5.713-2.74-11.205-5.71-16.144l3.76-21.778 5.03-20.159c2.68 1.425 5.09 3.296 7.13 5.534 0 0-9.97 14.378-10.17 16.028-0.81 6.626-3.92 20.445-4.06 20.798z"/><path d="m1278.4 339.17c-7.15 5.368-11.04 3.522-12.74 1.892 3.68 0.336 7.39-0.095 10.89-1.268z"/><path d="m1280.4 352.65-3.46 8.467 0.65 5.634c0.32 2.57-0.03 5.178-1.01 7.576-0.46 1.142-0.97 1.962-1.34 1.55 0.8-3.054 0.29-14.589 0.29-14.589l4.62-10.6s0.37 0.105 0.25 1.962z"/><path d="m1296.2 353.35 0.54 2.601c-0.12 1.851-1.79 27.347-8.02 25.405 4.72-1.936 7.48-28.006 7.48-28.006z"/><path d="m1296.7 355.95v1.137c-0.01-0.538-0.01-0.951 0-1.137z"/><path d="m1288.2 357.32-3.06 21.467c-0.22 1.369-0.92 2.616-1.97 3.521-0.07 0.059-0.13 0.111-0.21 0.156h-0.05c-0.01 0 0.93-22.226 4.53-31.04z"/><path d="m1288.2 365.43c-0.07-3.149-0.09-5.977 0-7.793 0.01 0.513 0.11 3.753 0 7.793z"/></g><path d="m1011 167 271.72-182.16 70.77 233.27-268.99 54.389z" fill="url(#paint12_linear_1711_5430)" opacity=".43"/></g></g><g transform="matrix(.26458 0 0 .26458 118.94 106.86)"><path d="m52.935 59.412-43.5 22.453 86.357 30.932 45.696-23.205z" fill="#f1f3ff"/><path d="m95.528 25.008-70.944-23.494c-0.8456-0.28263-1.7427-0.37343-2.625-0.26568-0.8822 0.10774-1.7269 0.41128-2.4716 0.88814-0.7447 0.47685-1.3702 1.1148-1.8303 1.8666-0.4601 0.75181-0.743 1.5982-0.8277 2.4766l-7.3991 75.382 86.357 30.932 6.7429-77.221c0.199-2.2762-0.384-4.5591-1.656-6.4773-1.2714-1.9182-3.1556-3.3587-5.3462-4.0873z" fill="#fff"/><path d="m49.64 49.661c-0.6085-3.5575 0.6442-6.7204 2.7979-7.0645 2.1536-0.3441 4.3928 2.2609 5.0012 5.8184 0.6085 3.5575-0.6442 6.7204-2.7979 7.0645-2.1536 0.3441-4.3928-2.2609-5.0012-5.8184z" fill="#ef843d"/></g></g></svg>
