<svg width="1600" height="742" viewBox="0 0 1600 742" fill="none" xmlns="http://www.w3.org/2000/svg">
<g clip-path="url(#clip0_1711_5430)">
<path d="M194.834 464.1C200.374 464.1 204.866 459.608 204.866 454.068C204.866 448.528 200.374 444.037 194.834 444.037C189.293 444.037 184.801 448.528 184.801 454.068C184.801 459.608 189.293 464.1 194.834 464.1Z" fill="url(#paint0_linear_1711_5430)"/>
<path d="M165.933 23.2171C169.94 23.2171 173.188 19.9692 173.188 15.9627C173.188 11.9562 169.94 8.70828 165.933 8.70828C161.926 8.70828 158.677 11.9562 158.677 15.9627C158.677 19.9692 161.926 23.2171 165.933 23.2171Z" fill="url(#paint1_linear_1711_5430)"/>
<path opacity="0.3" d="M1099.76 693.518C1106.17 693.45 1112.49 695.032 1118.1 698.111C1118.31 692.44 1120.11 686.942 1123.3 682.244C1126.47 677.571 1130.9 673.895 1136.08 671.644C1141.24 669.411 1146.94 668.706 1152.5 669.615C1158.05 670.524 1163.23 673.007 1167.41 676.771C1172.6 663.984 1181.46 653.022 1192.88 645.268C1204.23 637.566 1217.63 633.444 1231.36 633.436C1231.93 633.436 1232.5 633.466 1233.06 633.476C1237.89 620.211 1247.22 609.062 1259.43 601.973C1271.6 594.931 1285.87 592.44 1299.7 594.944C1313.53 597.449 1326.02 604.786 1334.94 615.647C1343.95 626.572 1348.88 640.294 1348.87 654.454C1364.39 654.455 1379.29 660.548 1390.36 671.423C1395.87 658.666 1405.09 647.865 1416.84 640.433C1428.52 633.043 1442.18 629.398 1455.99 629.985C1469.81 630.572 1483.11 635.364 1494.13 643.719C1505.21 652.118 1513.51 663.657 1517.95 676.836C1526.37 672.102 1537.5 669.225 1549.69 669.225C1576.04 669.225 1597.4 698.333 1597.4 714.914H1070.1C1070.09 703.117 1083.38 693.518 1099.76 693.518Z" fill="url(#paint2_linear_1711_5430)"/>
<path opacity="0.3" d="M693.226 555.433C696.669 555.398 700.064 556.245 703.087 557.894C703.201 554.853 704.169 551.907 705.88 549.392C707.584 546.883 709.968 544.913 712.753 543.712C715.529 542.513 718.59 542.135 721.574 542.621C724.558 543.107 727.341 544.437 729.593 546.454C732.39 539.598 737.153 533.723 743.284 529.57C749.393 525.44 756.599 523.233 763.973 523.231C764.28 523.231 764.587 523.231 764.889 523.231C767.492 516.116 772.51 510.139 779.068 506.343C785.609 502.571 793.275 501.238 800.706 502.58C808.137 503.922 814.853 507.852 819.661 513.673C824.515 519.529 827.172 526.895 827.173 534.5C835.511 534.498 843.517 537.763 849.473 543.596C852.442 536.757 857.405 530.971 863.712 526.994C869.997 523.034 877.339 521.081 884.762 521.395C892.184 521.71 899.335 524.277 905.262 528.755C911.216 533.254 915.677 539.44 918.067 546.509C922.595 543.993 928.578 542.429 935.134 542.429C949.297 542.429 960.794 558.024 960.794 566.919H677.276C677.276 560.58 684.421 555.433 693.226 555.433Z" fill="url(#paint3_linear_1711_5430)"/>
<path opacity="0.3" d="M577.995 717.354C570.559 717.274 563.226 719.096 556.692 722.647C556.477 716.112 554.404 709.774 550.717 704.374C547.03 698.975 541.881 694.737 535.873 692.157C529.864 689.577 523.245 688.761 516.79 689.806C510.335 690.851 504.311 693.713 499.424 698.056C493.394 683.308 483.113 670.687 469.888 661.799C456.664 652.91 441.094 648.156 425.159 648.141C424.5 648.141 423.841 648.171 423.182 648.186C417.544 632.89 406.699 620.068 392.551 611.968C378.402 603.868 361.853 601.007 345.806 603.888C329.759 606.769 315.238 615.208 304.792 627.723C294.345 640.239 288.64 656.032 288.676 672.334C270.683 672.333 253.4 679.352 240.504 691.898C234.098 677.183 223.387 664.751 209.779 656.238C196.172 647.725 180.306 643.531 164.269 644.206C148.232 644.881 132.774 650.394 119.931 660.02C107.087 669.647 97.4588 682.935 92.3124 698.137C82.5211 692.683 69.6054 689.368 55.4518 689.368C24.8202 689.368 0 722.898 0 742H612.451C612.451 728.412 597.024 717.354 577.995 717.354Z" fill="url(#paint4_linear_1711_5430)"/>
<path d="M1308.03 447.357L1334.69 436.883L1313.69 456.07L1332.54 476.747L1307.14 464.135L1292.68 492.609L1297.45 460.412L1268.24 457.464L1298 450.044L1296.96 422.309L1308.03 447.357Z" fill="#FFD297"/>
<path d="M1325.29 213.391C1325.29 213.391 1383.75 58.5331 1449.57 196.935C1512.18 328.641 1293.05 264.851 1364 430.363C1452.64 637.153 1610.04 459.496 1610.04 459.496V474.342C1610.04 474.342 1454.42 628.983 1365.74 445.259C1294.99 298.637 1424.99 307.039 1452.56 259.206C1471.73 225.947 1415.73 154.626 1415.73 154.626C1369.73 101.174 1317.84 244.224 1317.84 244.224L1325.29 213.391Z" fill="#9C9EF9"/>
<path d="M1274.39 280.159L1270.86 301.958C1270.53 303.979 1269.5 305.817 1267.94 307.144C1266.37 308.471 1264.39 309.2 1262.35 309.202L1262.14 308.955C1250.57 294.869 1240.56 305.756 1240.56 305.756C1239.3 305.437 1238.21 304.664 1237.49 303.588C1236.78 302.51 1236.49 301.204 1236.69 299.925L1240.26 276.421C1240.76 272.95 1243.56 270.47 1246.71 270.686L1267.84 272.115L1268.63 272.17C1272.34 272.397 1275 276.145 1274.39 280.159Z" fill="#8E37F5"/>
<path d="M1267.81 274.489L1262.4 308.03C1262.35 308.344 1262.27 308.652 1262.14 308.945C1250.57 294.859 1240.56 305.746 1240.56 305.746C1239.31 305.427 1238.22 304.654 1237.5 303.577C1236.78 302.5 1236.5 301.194 1236.7 299.915L1240.26 276.421C1240.76 272.95 1243.56 270.47 1246.71 270.686L1267.84 272.115C1267.93 272.904 1267.91 273.7 1267.8 274.484L1267.81 274.489Z" fill="#712CCA"/>
<path d="M1307.18 290.829L1304.08 312.839C1303.8 314.862 1302.8 316.716 1301.25 318.051C1301.12 318.173 1300.98 318.284 1300.83 318.383C1299.35 319.505 1297.55 320.109 1295.69 320.104C1295.51 319.852 1273.9 316.773 1273.9 316.773C1272.65 316.46 1271.55 315.696 1270.81 314.627C1270.08 313.559 1269.77 312.258 1269.93 310.973L1273.06 287.061C1273.7 282.197 1277.73 278.67 1282.3 278.962L1295.72 279.827L1299 280.043C1299.21 280.05 1299.42 280.072 1299.62 280.109C1301.55 280.387 1303.33 281.316 1304.66 282.74C1305.66 283.815 1306.42 285.102 1306.86 286.508C1307.29 287.916 1307.41 289.402 1307.2 290.86L1307.18 290.829Z" fill="#712CCA"/>
<path d="M1307.51 290.266L1304.41 312.256C1304.13 314.276 1303.13 316.129 1301.6 317.467C1301.46 317.585 1301.31 317.694 1301.16 317.794C1299.69 318.919 1297.88 319.526 1296.02 319.52C1295.85 319.268 1295.67 319.017 1295.52 318.796C1298.03 307.808 1300.66 291.987 1301.11 286.845C1301.32 284.356 1300.92 281.854 1299.97 279.545C1301.9 279.825 1303.67 280.755 1305 282.182C1306.01 283.26 1306.76 284.547 1307.21 285.95C1307.64 287.355 1307.76 288.84 1307.54 290.296L1307.51 290.266Z" fill="#8E37F5"/>
<path d="M1327.98 201.523L1309.28 280.28C1308.78 282.382 1307.52 284.226 1305.75 285.46C1303.98 286.695 1301.81 287.232 1299.66 286.971L1293.36 286.201L1257.36 281.845L1258.32 275.591V275.501L1273.63 175.599C1274.01 173.201 1275.18 170.999 1276.96 169.346C1277.54 168.811 1278.18 168.339 1278.86 167.938L1298.65 170.101L1300.52 170.679H1300.55L1313.02 174.483C1318.53 176.169 1323.16 179.93 1325.95 184.97C1328.74 190.011 1329.46 195.937 1327.96 201.498L1327.98 201.523Z" fill="#8E37F5"/>
<path d="M1304.77 176.223C1309.8 176.081 1314.69 177.936 1318.36 181.385C1319.26 182.26 1320.09 183.22 1320.81 184.252C1321 184.509 1321.17 184.755 1321.34 185.037C1321.51 185.319 1321.68 185.54 1321.84 185.847L1322.32 186.677C1322.46 186.991 1322.59 187.316 1322.69 187.648C1323.03 188.896 1323.2 190.184 1323.2 191.477C1323.23 192.739 1323.17 193.992 1323.08 195.219C1322.88 197.695 1322.55 200.15 1322.14 202.579C1321.73 205.009 1321.31 207.444 1320.8 209.834C1319.75 214.638 1318.58 219.392 1317.34 224.157C1316.1 228.921 1314.73 233.619 1313.34 238.313C1311.95 243.007 1310.48 247.696 1308.93 252.339C1305.88 261.656 1302.64 270.908 1299.07 280.008L1307.33 251.836C1308.68 247.147 1310.07 242.458 1311.38 237.75C1312.7 233.041 1314.02 228.337 1315.26 223.613C1316.5 218.889 1317.72 214.15 1318.78 209.421C1319.91 204.694 1320.78 199.91 1321.4 195.089C1321.53 193.891 1321.62 192.694 1321.65 191.502C1321.69 190.349 1321.59 189.195 1321.35 188.066C1321.29 187.81 1321.2 187.559 1321.09 187.316L1320.7 186.521C1320.57 186.253 1320.43 185.993 1320.27 185.741C1320.13 185.477 1319.97 185.222 1319.8 184.977C1319.18 183.971 1318.46 183.029 1317.66 182.165C1314.27 178.635 1309.68 176.515 1304.8 176.228L1304.77 176.223Z" fill="white"/>
<path d="M1309.14 194.576L1290.42 273.332C1290.14 274.519 1289.61 275.634 1288.88 276.607C1288.13 277.578 1287.2 278.386 1286.13 278.982L1258.33 275.606V275.516L1255.97 175.615C1256.33 173.21 1257.5 171.001 1259.29 169.349C1261.07 167.697 1263.37 166.701 1265.79 166.524L1278.87 167.948L1298.66 170.111L1300.55 170.689C1304.25 173.322 1307.04 177.02 1308.57 181.288C1310.1 185.555 1310.29 190.188 1309.11 194.565L1309.14 194.576Z" fill="#712CCA"/>
<path opacity="0.39" d="M1247.76 191.401C1257.7 191.393 1267.42 188.438 1275.68 182.91C1283.94 177.382 1290.38 169.528 1294.18 160.342C1297.98 151.156 1298.97 141.05 1297.02 131.302C1295.08 121.554 1290.29 112.601 1283.25 105.575C1276.22 98.5488 1267.26 93.7653 1257.51 91.8289C1247.76 89.8926 1237.65 90.8904 1228.47 94.6962C1219.29 98.502 1211.44 104.945 1205.91 113.211C1200.39 121.476 1197.44 131.193 1197.44 141.134C1197.46 154.469 1202.76 167.255 1212.2 176.681C1221.63 186.106 1234.42 191.401 1247.76 191.401Z" fill="url(#paint5_linear_1711_5430)"/>
<path d="M1210.38 161.719C1210.38 161.719 1228.06 189.147 1280.2 167.756C1280.2 167.756 1278.69 138.125 1273.76 128.099C1267.7 115.738 1253.94 104.268 1240.8 116.151C1240.8 116.151 1235.58 108.715 1225.99 117.086C1216.4 125.458 1223.88 158.007 1210.38 161.719Z" fill="#E9E9E9"/>
<path opacity="0.17" d="M1249.84 553.492L1253.95 552.651L1225.78 408.293C1225.78 408.293 1262.03 330.532 1263.68 281.291L1246.53 274.806C1233.56 305.711 1204.34 378.944 1204.29 410.929C1204.24 442.276 1235.09 518.749 1249.84 553.492Z" fill="#0000FF"/>
<path opacity="0.17" d="M1030.31 452.811L1038.7 459.476L1104.86 338.018L1176.55 322.704L1098.17 330.301L1030.31 452.811Z" fill="#0000FF"/>
<path d="M1356.79 261.264C1347.84 280.979 1327.83 308.85 1317.13 324.732C1311.55 318.319 1303.95 313.991 1295.59 312.457L1319.83 262.788C1319.83 262.788 1301.14 246.533 1296.24 241.206C1292.3 236.99 1289.13 233.765 1289.13 234.374L1289.1 234.495V234.58C1288.98 235.048 1288.65 236.22 1288.15 237.961C1288.1 238.102 1288.07 238.258 1288.02 238.414C1287.89 238.867 1287.74 239.365 1287.59 239.893C1285.75 246.237 1282.47 257.329 1278.64 269.63C1277.81 272.281 1276.96 274.998 1276.09 277.729C1276.09 277.729 1280.01 283.233 1280.79 292.877C1280.85 293.526 1280.88 294.19 1280.9 294.889C1281.05 299.839 1280.41 304.781 1279.02 309.534C1276.12 319.676 1269.46 331.85 1255.95 345.459C1252.89 348.548 1228.78 401.743 1226.02 407.755L1225.78 408.313L1253.95 552.672L1249.84 553.507L1225.26 558.492L1212.08 561.164L1176.86 462.394C1164.43 427.525 1162.72 389.737 1171.94 353.885L1180.16 321.895L1176.5 322.679L1104.81 338.008L1038.69 459.441L1030.31 452.785L1009.28 436.063L1006.03 433.457L1049.63 329.184C1055.24 315.751 1063.89 303.796 1074.88 294.251C1085.88 284.705 1098.93 277.827 1113.02 274.152L1156.29 262.863C1173.26 258.461 1187.59 259.81 1205.13 259.176L1203.57 255.056L1200.13 245.93C1192.15 229.328 1200.86 219.226 1201.6 218.421L1201.64 218.386C1201.25 218.542 1189.77 226.471 1177.64 233.514C1167.76 239.249 1157.45 244.395 1152.35 244.275C1140.11 243.978 1107.91 213.084 1095.63 200.376L1111.88 189.218C1127.24 200.084 1153.78 211.378 1153.78 211.378L1202.82 185.032C1208.33 181.385 1215.94 178.135 1222.62 178.386L1240.28 177.239C1240.28 177.239 1243.33 189.258 1260.85 174.961C1261.04 174.961 1273.24 174.961 1281.86 176.429C1291.21 178.024 1302.25 181.239 1307.64 187.698C1308.96 189.263 1310.38 190.963 1311.88 192.729L1324.45 207.822C1328.95 213.245 1345.05 232.216 1354.19 242.992C1356.31 245.47 1357.68 248.502 1358.14 251.731C1358.61 254.961 1358.14 258.255 1356.8 261.228L1356.79 261.264Z" fill="#EF843D"/>
<path d="M1260.89 181.093C1252.58 186.245 1239.88 183.387 1239.88 183.387L1240.34 175.529L1241.03 164.064L1241.53 155.325L1248.25 153.202L1254.11 151.356L1259.64 149.615L1260.89 181.093Z" fill="#8C563F"/>
<path d="M1240.44 178.366L1240.3 177.214L1240.94 166.972C1241.6 165.84 1242.4 164.517 1243.27 163.168C1244.58 161.098 1246.04 159.132 1247.65 157.287C1249.85 154.908 1251.9 153.716 1253.11 155.632C1253.4 156.138 1253.61 156.686 1253.74 157.257C1253.95 158.213 1254.08 159.186 1254.12 160.165C1254.98 175.202 1242.96 177.954 1240.44 178.366Z" fill="#452313"/>
<path d="M1256.38 142.975C1256.38 142.975 1259.11 135.68 1263.63 138.382C1268.16 141.083 1263.31 155.582 1258.8 151.754C1258.8 151.754 1256.72 169.92 1237.54 172.128C1218.36 174.337 1226.32 130.74 1227.68 128.048C1231.17 121.106 1239.96 151.024 1250.54 133.346C1250.54 133.346 1255.15 136.837 1251.67 145.993C1249.92 150.571 1256.38 142.975 1256.38 142.975Z" fill="#8C563F"/>
<path d="M1239.83 147.583C1240.33 147.583 1240.78 146.763 1240.8 145.732C1240.82 144.7 1240.41 143.865 1239.89 143.865C1239.37 143.865 1238.95 144.685 1238.93 145.712C1238.91 146.738 1239.32 147.573 1239.83 147.583Z" fill="black"/>
<path d="M1226.79 147.583C1227.32 147.583 1227.75 146.763 1227.76 145.732C1227.76 144.7 1227.37 143.865 1226.85 143.865C1226.33 143.865 1225.91 144.685 1225.89 145.712C1225.87 146.738 1226.28 147.573 1226.79 147.583Z" fill="black"/>
<path d="M1228.87 138.135C1228.68 138.117 1228.5 138.032 1228.37 137.894C1226.28 135.625 1223.61 137.154 1223.5 137.215C1223.42 137.266 1223.33 137.3 1223.23 137.315C1223.13 137.335 1223.04 137.335 1222.94 137.315C1222.84 137.288 1222.75 137.245 1222.67 137.189C1222.6 137.133 1222.53 137.061 1222.49 136.978C1222.43 136.893 1222.4 136.799 1222.38 136.701C1222.37 136.606 1222.37 136.51 1222.38 136.415C1222.39 136.315 1222.44 136.222 1222.51 136.148C1222.56 136.07 1222.63 136.005 1222.71 135.957C1224.03 135.177 1227.12 134.392 1229.44 136.903C1229.54 137.008 1229.61 137.141 1229.63 137.285C1229.66 137.429 1229.64 137.578 1229.59 137.713C1229.52 137.843 1229.42 137.954 1229.29 138.035C1229.17 138.109 1229.03 138.149 1228.89 138.15L1228.87 138.135Z" fill="#703A1B"/>
<path d="M1235.73 138.311C1235.54 138.297 1235.36 138.215 1235.23 138.08C1235.16 138.012 1235.11 137.932 1235.08 137.843C1235.03 137.754 1235.02 137.655 1235.02 137.557C1235.02 137.46 1235.04 137.364 1235.08 137.275C1235.12 137.187 1235.17 137.107 1235.24 137.038C1235.28 136.998 1239.1 133.391 1244.99 136.847C1245.15 136.953 1245.27 137.113 1245.32 137.3C1245.36 137.49 1245.33 137.687 1245.24 137.859C1245.19 137.941 1245.13 138.014 1245.05 138.075C1244.98 138.131 1244.89 138.174 1244.8 138.201C1244.7 138.22 1244.61 138.22 1244.51 138.201C1244.41 138.19 1244.31 138.158 1244.22 138.105C1239.36 135.258 1236.4 137.974 1236.28 138.105C1236.14 138.238 1235.96 138.314 1235.77 138.316L1235.73 138.311Z" fill="#703A1B"/>
<path d="M1231.2 156.618C1230.94 156.621 1230.69 156.553 1230.46 156.422C1229.55 155.894 1228.64 154.209 1231.2 145.717C1231.21 145.653 1231.25 145.594 1231.29 145.543C1231.33 145.492 1231.38 145.449 1231.44 145.418C1231.5 145.387 1231.56 145.367 1231.63 145.36C1231.69 145.354 1231.76 145.36 1231.82 145.38C1231.89 145.399 1231.95 145.43 1232 145.472C1232.05 145.514 1232.09 145.566 1232.12 145.624C1232.15 145.683 1232.17 145.747 1232.18 145.812C1232.19 145.878 1232.18 145.945 1232.16 146.008C1229.73 154.093 1230.65 155.361 1230.96 155.567C1231.51 155.884 1232.98 154.832 1233.83 153.952C1233.87 153.905 1233.93 153.867 1233.99 153.842C1234.05 153.816 1234.12 153.803 1234.18 153.803C1234.25 153.803 1234.32 153.816 1234.38 153.842C1234.44 153.867 1234.49 153.905 1234.54 153.952C1234.64 154.046 1234.69 154.174 1234.69 154.307C1234.69 154.44 1234.64 154.567 1234.54 154.661C1234.22 155.013 1232.57 156.618 1231.2 156.618Z" fill="#452313"/>
<path d="M1260.11 149.741C1260 149.746 1259.89 149.713 1259.8 149.649C1259.71 149.584 1259.64 149.491 1259.61 149.384C1258.43 145.39 1258.48 142.643 1259.76 141.219C1260.12 140.847 1260.55 140.567 1261.04 140.402C1261.52 140.238 1262.04 140.193 1262.55 140.273C1262.68 140.297 1262.8 140.373 1262.88 140.485C1262.95 140.596 1262.98 140.733 1262.96 140.867C1262.94 141 1262.86 141.119 1262.75 141.196C1262.64 141.273 1262.5 141.303 1262.37 141.279C1262.03 141.23 1261.68 141.262 1261.36 141.374C1261.03 141.486 1260.74 141.675 1260.5 141.923C1259.8 142.713 1259.24 144.605 1260.57 149.117C1260.61 149.245 1260.6 149.382 1260.53 149.499C1260.47 149.616 1260.36 149.703 1260.24 149.741C1260.2 149.746 1260.15 149.746 1260.11 149.741Z" fill="#452313"/>
<path opacity="0.27" d="M1176.91 462.404L1212.08 561.164L1225.24 558.487C1217.29 533.238 1191.6 452.287 1180.49 424.035C1167.32 390.479 1190.82 300.277 1191.02 299.528C1190.82 299.845 1180.2 321.94 1180.2 321.94L1171.99 353.895C1162.77 389.747 1164.49 427.535 1176.91 462.404Z" fill="white"/>
<path opacity="0.27" d="M1156.27 262.878C1173.24 258.477 1187.57 259.825 1205.11 259.191C1166.58 264.02 1086.48 277.342 1071.81 305.751C1056.19 335.976 1022.14 408.53 1009.26 436.048L1006.01 433.442L1049.61 329.169C1055.22 315.736 1063.87 303.781 1074.86 294.235C1085.86 284.69 1098.91 277.812 1113 274.137L1156.27 262.878Z" fill="white"/>
<path opacity="0.46" d="M1249.08 257.395C1249.08 257.395 1223.92 268.9 1205.12 259.191L1203.55 255.071C1217.23 255.528 1214.85 260.771 1249.08 257.395Z" fill="#A54400"/>
<path opacity="0.46" d="M1289.14 234.394L1289.11 234.515V234.6L1288.11 237.936V237.981C1288.07 238.122 1288.03 238.278 1287.99 238.434L1287.56 239.913C1285.72 246.257 1282.44 257.35 1278.61 269.65C1277.78 272.301 1276.92 275.018 1276.06 277.749C1276.06 277.749 1279.97 283.253 1280.76 292.902C1280.68 293.574 1280.71 294.255 1280.87 294.914C1281.01 299.864 1280.38 304.806 1278.98 309.559C1276.09 319.701 1269.43 331.876 1255.92 345.484C1252.86 348.573 1228.75 401.768 1225.99 407.78C1225.99 407.78 1233.23 374.25 1238.9 363.353C1283.62 295.568 1265.07 274.852 1277.3 219.513L1289.14 234.394Z" fill="#A54400"/>
<path d="M1172.01 309.006C1162.92 310.012 1153.85 311.229 1144.81 312.527C1135.76 313.825 1126.73 315.329 1117.73 317.085C1113.23 317.96 1108.73 318.891 1104.27 320.028C1102.04 320.597 1099.81 321.205 1097.59 321.94C1096.45 322.312 1095.33 322.747 1094.24 323.243C1093.65 323.513 1093.07 323.838 1092.53 324.214C1092.22 324.439 1091.93 324.697 1091.67 324.983L1091.49 325.19L1091.34 325.381L1091.04 325.758C1090.32 326.764 1089.71 327.72 1089.1 328.706C1088.49 329.692 1087.9 330.683 1087.32 331.674C1086.16 333.657 1085.02 335.649 1083.9 337.651C1081.69 341.655 1079.5 345.67 1077.33 349.695C1073.05 357.774 1068.83 365.879 1064.67 374.008L1058.48 386.233L1055.41 392.351L1052.39 398.493C1044.28 414.858 1036.33 431.324 1028.71 447.916C1037.46 431.872 1045.99 415.719 1054.5 399.565L1067.25 375.326C1071.48 367.242 1075.72 359.168 1080.03 351.123C1082.17 347.099 1084.34 343.088 1086.53 339.09C1087.63 337.077 1088.73 335.105 1089.87 333.143C1090.43 332.162 1091.01 331.186 1091.59 330.231C1092.18 329.275 1092.77 328.304 1093.38 327.449L1093.61 327.147L1093.72 327.001L1093.82 326.885C1093.88 326.81 1093.94 326.742 1094.01 326.684C1094.08 326.618 1094.15 326.558 1094.23 326.503C1094.62 326.225 1095.04 325.981 1095.48 325.773C1096.46 325.309 1097.47 324.9 1098.5 324.546C1100.58 323.811 1102.76 323.177 1104.96 322.589C1107.15 322 1109.34 321.462 1111.55 320.929C1113.76 320.395 1115.99 319.887 1118.21 319.419C1122.67 318.413 1127.13 317.533 1131.61 316.627C1136.08 315.722 1140.56 314.861 1145.05 314.021C1154.02 312.286 1163.01 310.661 1172.01 309.006Z" fill="#5637A2"/>
<path d="M1236.95 333.923C1232.42 342.405 1228.36 351.123 1224.61 360.018C1220.87 368.907 1217.63 378.005 1214.93 387.264C1213.57 391.915 1212.45 396.631 1211.58 401.396C1211.37 402.598 1211.17 403.796 1210.98 404.998L1210.75 406.814C1210.66 407.418 1210.59 408.017 1210.53 408.625L1210.36 410.451L1210.31 410.909V411.372L1210.28 412.298L1210.2 414.149L1210.23 415.985L1210.26 417.826L1210.37 419.643C1210.45 420.86 1210.51 422.077 1210.65 423.29C1210.78 424.502 1210.87 425.705 1211 426.907L1211.45 430.509C1212.09 435.298 1212.81 440.068 1213.66 444.817C1217.07 463.793 1221.52 482.517 1226.34 501.131C1231.16 519.745 1236.44 538.243 1242.29 556.56C1237.66 537.896 1233.05 519.252 1228.64 500.563L1225.39 486.532C1224.89 484.198 1224.33 481.858 1223.82 479.489C1223.32 477.119 1222.78 474.8 1222.29 472.446L1220.78 465.403L1219.32 458.36C1218.39 453.671 1217.47 448.982 1216.65 444.243C1215.83 439.504 1215.05 434.805 1214.4 430.076C1213.72 425.373 1213.29 420.638 1213.12 415.89L1213.06 414.129L1213.1 412.373V411.065L1213.13 410.622L1213.28 408.862C1213.32 408.273 1213.4 407.684 1213.46 407.096L1213.66 405.335C1213.83 404.163 1214 402.986 1214.16 401.814C1214.94 397.12 1215.98 392.466 1217.18 387.843C1218.39 383.22 1219.79 378.647 1221.24 374.084C1222.69 369.521 1224.3 365.028 1225.98 360.536C1229.34 351.564 1233 342.693 1236.95 333.923Z" fill="#5637A2"/>
<path d="M1021.01 482.724L1026.34 485.33L1051.44 436.028L1014.07 414.139L1001.21 445.586C1001.21 445.586 994.797 446.925 992.654 446.98C990.691 447.025 988.563 447.101 986.324 447.196C984.533 447.277 982.671 447.372 980.789 447.493C978.369 447.644 975.884 447.835 973.413 448.062C971.627 448.228 969.851 448.419 968.1 448.63C961.589 449.425 955.481 450.572 951.043 452.222C950.163 452.545 949.303 452.92 948.467 453.344C934.6 460.478 1021.01 482.724 1021.01 482.724Z" fill="#712CCA"/>
<path d="M1258.63 588.566L1263.66 585.704L1247.26 518.372L1202.19 533.389L1203.55 538.656C1207.35 553.436 1213.65 567.407 1221.52 580.497C1222.09 581.468 1222.3 582.217 1221.88 582.58C1220.74 583.586 1219.31 584.808 1217.74 586.232C1216.46 587.374 1215.06 588.642 1213.62 589.995C1212.45 591.092 1211.23 592.239 1210.01 593.431L1209.85 593.582C1208.47 594.94 1207.07 596.33 1205.68 597.752C1204.5 598.975 1203.34 600.212 1202.23 601.45C1196.25 608.091 1191.46 614.837 1191.52 619.34V619.651C1192.31 631.328 1258.63 588.566 1258.63 588.566Z" fill="#712CCA"/>
<path d="M1264.53 585.175L1262.85 579.964C1252.32 588.551 1214.55 616.774 1196.73 618.65C1194.87 618.846 1193.14 619.078 1191.51 619.339V619.651C1192.31 631.328 1264.53 585.175 1264.53 585.175Z" fill="white"/>
<path d="M1026.34 485.34L1028.69 479.947L1020.5 477.829C1020.5 477.829 972.739 464.049 962.591 459.532C947.028 453.067 955.139 454.254 951.018 452.267C950.138 452.59 949.278 452.965 948.442 453.389C934.601 460.477 1026.34 485.34 1026.34 485.34Z" fill="white"/>
<path d="M1247.76 191.401C1257.7 191.393 1267.42 188.438 1275.68 182.91C1283.94 177.382 1290.38 169.528 1294.18 160.342C1297.98 151.156 1298.97 141.05 1297.02 131.302C1295.08 121.554 1290.29 112.601 1283.25 105.575C1276.22 98.5488 1267.26 93.7653 1257.51 91.8289C1247.76 89.8926 1237.65 90.8904 1228.47 94.6962C1219.29 98.502 1211.44 104.945 1205.91 113.211C1200.39 121.476 1197.44 131.193 1197.44 141.134C1197.46 154.469 1202.76 167.255 1212.2 176.681C1221.63 186.106 1234.42 191.401 1247.76 191.401V191.401Z" stroke="url(#paint6_linear_1711_5430)" stroke-width="1.91" stroke-miterlimit="10"/>
<path d="M1230.76 159.119L1239.11 156.1C1239.11 156.1 1235.41 172.007 1230.76 159.119Z" fill="white"/>
<path d="M1276.08 227.92C1281.48 251.257 1290.49 234.636 1290.49 234.636L1292.79 242.026L1294.17 246.508C1294.17 246.508 1271.22 265.65 1266.81 223.663C1262.64 183.865 1298.56 175.921 1298.56 175.921L1299.31 176.626L1302.02 179.141L1302.76 179.83C1302.53 179.956 1302.29 180.077 1302.06 180.208C1287.67 187.819 1270.77 204.954 1276.08 227.92Z" fill="#8E37F5"/>
<path opacity="0.58" d="M1290.51 234.636L1292.8 242.031C1291.56 243.371 1289.85 244.17 1288.03 244.254C1270.61 244.808 1270.45 214.105 1277.6 198.917C1283.04 187.346 1294.29 179.634 1299.34 176.601L1299.81 176.787C1301.05 177.27 1302.06 178.199 1302.66 179.393C1302.73 179.515 1302.77 179.647 1302.79 179.785C1288.41 187.402 1270.81 204.939 1276.1 227.874C1281.48 251.267 1290.51 234.636 1290.51 234.636Z" fill="#5C24AB"/>
<path opacity="0.46" d="M1208.25 194.213L1201.63 218.391H1201.59L1201.63 218.356C1201.24 218.512 1189.76 226.441 1177.63 233.484L1208.25 194.213Z" fill="#A54400"/>
<path opacity="0.46" d="M1319.81 262.793L1331.18 251.886L1311.11 256.011L1319.81 262.793Z" fill="#A54400"/>
<path d="M1235.01 202.086C1232.47 208.29 1230.31 214.644 1228.55 221.113C1227.69 224.316 1227.02 227.568 1226.54 230.852C1226.4 231.667 1226.36 232.487 1226.25 233.307L1226.12 234.53L1226.07 235.763C1225.99 237.362 1225.95 239.118 1225.86 240.823C1225.56 244.209 1225.1 247.577 1224.46 250.915C1223.87 254.236 1223.09 257.536 1222.2 260.816C1220.51 267.342 1218.44 273.766 1216 280.054C1217.56 273.513 1219.13 266.973 1220.53 260.433C1222 253.932 1223.04 247.341 1223.65 240.703C1223.75 239.053 1223.8 237.453 1223.91 235.672L1223.98 234.379L1224.13 233.101C1224.24 232.251 1224.29 231.391 1224.47 230.586C1225.05 227.231 1225.86 223.92 1226.91 220.68C1228.95 214.215 1231.66 207.982 1235.01 202.086Z" fill="#5637A2"/>
<path d="M1098.46 203.319C1099.35 201.905 1100.36 200.572 1101.48 199.335C1102.57 198.103 1103.72 196.928 1104.94 195.813C1106.14 194.69 1107.39 193.63 1108.7 192.634C1110.02 191.615 1111.41 190.708 1112.88 189.922C1111.99 191.331 1110.98 192.664 1109.86 193.906C1108.76 195.134 1107.61 196.311 1106.41 197.428C1105.2 198.545 1103.94 199.606 1102.63 200.602C1101.31 201.62 1099.92 202.528 1098.46 203.319Z" fill="#5637A2"/>
<path d="M1117.56 196.935C1121.64 198.832 1125.66 200.824 1129.68 202.846C1131.69 203.852 1133.7 204.858 1135.66 205.905C1137.63 206.951 1139.65 207.957 1141.63 209.029L1147.58 212.158L1153.49 215.358C1155.47 216.399 1157.44 217.501 1159.4 218.587L1165.28 221.852H1164.28L1171.64 218.24L1179.05 214.719C1181.54 213.562 1184.01 212.395 1186.5 211.273C1189 210.151 1191.49 209.024 1194.01 207.937C1191.66 209.332 1189.29 210.699 1186.89 212.037C1184.51 213.386 1182.1 214.694 1179.71 216.017L1172.49 219.911L1165.23 223.729C1165.09 223.808 1164.92 223.85 1164.76 223.85C1164.59 223.85 1164.43 223.809 1164.28 223.729L1158.33 220.509C1156.36 219.468 1154.39 218.381 1152.44 217.284L1146.55 214.024L1140.69 210.714C1138.73 209.618 1136.8 208.481 1134.86 207.364C1132.92 206.247 1130.98 205.105 1129.05 203.963C1125.2 201.639 1121.36 199.32 1117.56 196.935Z" fill="#5637A2"/>
<path d="M1301.55 196.935L1304.54 200.059L1307.51 203.233L1313.44 209.592C1317.36 213.845 1321.28 218.115 1325.17 222.401C1329.07 226.682 1332.93 231.003 1336.8 235.305L1348.34 248.249C1348.49 248.411 1348.58 248.613 1348.61 248.827C1348.63 249.042 1348.6 249.261 1348.5 249.456L1340.52 265.61C1337.82 270.968 1335.14 276.346 1332.4 281.709L1328.31 289.758L1324.17 297.752L1319.98 305.721L1317.88 309.7L1315.73 313.649L1317.57 309.534L1319.44 305.439L1323.19 297.254L1326.99 289.089L1330.84 280.949C1333.41 275.521 1336.07 270.128 1338.63 264.715L1346.54 248.561L1346.7 249.763L1335.26 236.683C1331.46 232.306 1327.65 227.945 1323.9 223.533C1320.14 219.121 1316.38 214.729 1312.65 210.297L1307.08 203.626L1304.3 200.285L1301.55 196.935Z" fill="#5637A2"/>
<path d="M1296 311.637C1298.26 311.361 1300.55 311.43 1302.78 311.843C1305.05 312.227 1307.25 312.928 1309.32 313.926C1311.44 314.923 1313.34 316.33 1314.91 318.066C1315.67 318.947 1316.33 319.919 1316.85 320.959C1317.35 321.992 1317.69 323.095 1317.86 324.229C1317.28 323.291 1316.64 322.395 1315.94 321.547C1315.25 320.735 1314.5 319.98 1313.69 319.289C1312.06 317.95 1310.27 316.814 1308.37 315.903C1306.43 314.978 1304.43 314.183 1302.39 313.523C1300.29 312.809 1298.18 312.195 1296 311.637Z" fill="#5637A2"/>
<path d="M1001.21 445.632L1016.69 457.519L1006.01 433.477L1001.21 445.632Z" fill="#5637A2"/>
<path d="M1221.89 582.57C1221.89 582.57 1243.74 567.779 1242.27 567.185C1240.8 566.592 1214.25 567.185 1214.25 567.185L1221.89 582.57Z" fill="#5637A2"/>
<path opacity="0.72" d="M434.478 518.764L442.166 519.911L436.591 525.349L437.894 533.052L431.021 529.409L424.153 533.016L425.481 525.329L419.947 519.861L427.635 518.749L431.091 511.761L434.478 518.764Z" fill="url(#paint7_linear_1711_5430)"/>
<path opacity="0.72" d="M619.279 688.06L626.967 689.197L621.387 694.635L622.69 702.337L615.817 698.695L608.934 702.312L610.262 694.625L604.728 689.157L612.416 688.045L615.867 681.057L619.279 688.06Z" fill="url(#paint8_linear_1711_5430)"/>
<path opacity="0.72" d="M1513.29 433.633L1520.97 434.77L1515.4 440.208L1516.7 447.911L1509.83 444.268L1502.95 447.885L1504.28 440.198L1498.74 434.725L1506.43 433.618L1509.88 426.63L1513.29 433.633Z" fill="url(#paint9_linear_1711_5430)"/>
<path opacity="0.72" d="M1144.66 152.121L1152.34 153.253L1146.76 158.701L1148.07 166.408L1141.2 162.761L1134.31 166.378L1135.64 158.691L1130.11 153.223L1137.8 152.116L1141.25 145.123L1144.66 152.121Z" fill="url(#paint10_linear_1711_5430)"/>
<path opacity="0.72" d="M1165.06 12.743L1179.43 14.8056L1169.01 24.6911L1171.44 38.6968L1158.6 32.0712L1145.73 38.6515L1148.21 24.6709L1137.83 14.7251L1152.21 12.7128L1158.65 0L1165.06 12.743Z" fill="url(#paint11_linear_1711_5430)"/>
<path d="M1111.87 189.208L1095.77 200.517C1093.77 197.657 1091.5 194.991 1089 192.553C1088.35 191.916 1087.69 191.3 1087.02 190.707C1074.92 179.926 1061.87 177.244 1060.82 173.567C1059.91 170.357 1065.97 174.07 1068.32 174.684C1070.05 175.155 1071.73 175.776 1073.35 176.54C1073.65 176.681 1074.64 176.928 1073.69 176.037C1071.22 173.887 1068.48 172.067 1065.54 170.624C1061.01 168.466 1060.51 166.906 1060.01 165.704C1059.92 165.508 1059.89 165.291 1059.93 165.081C1059.97 164.871 1060.07 164.677 1060.22 164.524C1060.37 164.371 1060.56 164.265 1060.77 164.221C1060.98 164.177 1061.2 164.195 1061.39 164.275L1075.09 170.206C1075.43 170.342 1077.1 171.213 1075.36 169.703C1068.47 163.717 1065.63 165.09 1062.59 161.619C1060.9 159.697 1061.52 158.691 1061.75 158.097C1061.79 157.984 1061.85 157.881 1061.94 157.795C1062.02 157.709 1062.12 157.641 1062.23 157.596C1062.35 157.551 1062.47 157.53 1062.59 157.534C1062.71 157.538 1062.82 157.567 1062.93 157.619L1081.46 167.253C1081.52 167.283 1081.59 167.29 1081.66 167.273C1081.73 167.255 1081.79 167.215 1081.83 167.159C1081.87 167.103 1081.89 167.034 1081.88 166.965C1081.88 166.896 1081.85 166.831 1081.8 166.78C1079.24 164.205 1067.6 158.937 1066.48 156.91C1065.08 154.395 1065.68 153.001 1073.18 156.679C1076.9 158.5 1082.8 160.276 1088.49 164.884C1088.82 165.145 1089.14 165.417 1089.47 165.699C1091.03 167.066 1092.47 168.571 1093.76 170.196C1093.79 170.242 1093.84 170.277 1093.9 170.295C1093.95 170.314 1094.01 170.315 1094.07 170.299C1094.13 170.284 1094.18 170.252 1094.21 170.208C1094.25 170.163 1094.28 170.109 1094.28 170.05C1094.66 166.589 1093.87 158.052 1096.84 156.035C1098.51 154.908 1100.5 169.985 1101.17 176.072C1101.44 178.546 1102.51 180.863 1104.22 182.668L1104.25 182.698C1106.59 185.096 1109.14 187.275 1111.87 189.208Z" fill="#8C563F"/>
<path d="M1305.74 337.55C1305.95 335.9 1315.92 321.522 1315.92 321.522C1313.87 319.284 1311.46 317.413 1308.79 315.988C1305.57 314.235 1302.11 312.994 1298.51 312.311L1290.58 328.409L1264.63 339.693C1264.91 340.21 1265.28 340.677 1265.71 341.077C1267.41 342.702 1271.3 344.553 1278.45 339.185C1278.45 339.185 1270.7 352.623 1271.91 364.782C1272.59 371.574 1274.09 374.572 1275.29 375.895C1275.66 376.307 1276.16 375.487 1276.63 374.345C1277.6 371.947 1277.95 369.339 1277.64 366.769L1276.98 361.135L1280 353.749L1280.44 352.668C1280.44 352.668 1279.61 378.828 1282.85 382.485C1282.85 382.485 1282.87 382.485 1282.9 382.485C1282.98 382.44 1283.04 382.388 1283.11 382.329C1284.16 381.424 1284.86 380.177 1285.08 378.808L1288.14 357.341L1288.23 356.692C1288.2 356.964 1288.18 357.276 1288.17 357.628C1288.09 359.444 1288.11 362.272 1288.17 365.421C1288.29 371.05 1288.57 377.691 1288.67 381.353C1294.9 383.295 1296.57 357.799 1296.69 355.948C1296.69 356.134 1296.69 356.547 1296.69 357.085C1296.69 358.519 1296.86 360.853 1297.48 362.196C1298.92 365.335 1301.24 369.742 1304.31 375.749C1304.37 375.842 1304.44 375.918 1304.54 375.967C1304.63 376.017 1304.74 376.038 1304.85 376.028C1304.95 376.018 1305.05 375.977 1305.14 375.91C1305.22 375.844 1305.29 375.755 1305.32 375.653C1305.44 375.221 1305.58 374.688 1305.69 374.064C1306.34 370.623 1306.49 364.535 1301.67 358.343C1301.83 357.995 1304.94 344.176 1305.74 337.55Z" fill="#8C563F"/>
<path d="M1088.31 168.476C1089.06 168.741 1089.75 169.161 1090.33 169.709C1090.91 170.256 1091.37 170.92 1091.67 171.655C1092.76 174.171 1091.22 179.448 1094.3 182.622C1094.3 182.622 1089.14 181.355 1090.86 172.294L1088.31 168.476Z" fill="#63392A"/>
<path d="M1301.69 358.348C1306.51 364.54 1306.36 370.628 1305.71 374.069C1304.92 368.356 1302.97 362.864 1300 357.925L1303.76 336.147L1308.79 315.988C1311.47 317.413 1313.88 319.284 1315.92 321.522C1315.92 321.522 1305.95 335.9 1305.75 337.55C1304.94 344.176 1301.83 357.995 1301.69 358.348Z" fill="#63392A"/>
<path d="M1278.45 339.17C1271.3 344.538 1267.41 342.692 1265.71 341.062C1269.39 341.398 1273.1 340.967 1276.6 339.794L1278.45 339.17Z" fill="#63392A"/>
<path d="M1280.45 352.653L1276.99 361.12L1277.64 366.754C1277.96 369.324 1277.61 371.932 1276.63 374.33C1276.17 375.472 1275.66 376.292 1275.29 375.88C1276.09 372.826 1275.58 361.291 1275.58 361.291L1280.2 350.691C1280.2 350.691 1280.57 350.796 1280.45 352.653Z" fill="#63392A"/>
<path d="M1296.16 353.352L1296.7 355.953C1296.58 357.804 1294.91 383.3 1288.68 381.358C1293.4 379.422 1296.16 353.352 1296.16 353.352Z" fill="#63392A"/>
<path d="M1296.7 355.953V357.09C1296.69 356.552 1296.69 356.139 1296.7 355.953Z" fill="#63392A"/>
<path d="M1288.15 357.321L1285.09 378.788C1284.87 380.157 1284.17 381.404 1283.12 382.309C1283.05 382.368 1282.99 382.42 1282.91 382.465C1282.88 382.465 1282.86 382.465 1282.86 382.465C1282.85 382.465 1283.79 360.239 1287.39 351.425L1288.15 357.321Z" fill="#63392A"/>
<path d="M1288.19 365.426C1288.12 362.277 1288.1 359.449 1288.19 357.633C1288.2 358.146 1288.3 361.386 1288.19 365.426Z" fill="#63392A"/>
<path opacity="0.43" d="M1011 167L1282.72 -15.1629L1353.49 218.111L1084.5 272.5L1011 167Z" fill="url(#paint12_linear_1711_5430)"/>
</g>
<defs>
<linearGradient id="paint0_linear_1711_5430" x1="186.164" y1="442.975" x2="201.835" y2="463.04" gradientUnits="userSpaceOnUse">
<stop stop-color="#3939FA"/>
<stop offset="1" stop-color="#ADADFF"/>
</linearGradient>
<linearGradient id="paint1_linear_1711_5430" x1="159.663" y1="7.93857" x2="170.997" y2="22.4489" gradientUnits="userSpaceOnUse">
<stop stop-color="#FFE2BC"/>
<stop offset="1" stop-color="#FF7E21"/>
</linearGradient>
<linearGradient id="paint2_linear_1711_5430" x1="1444.39" y1="651.848" x2="873.554" y2="874.247" gradientUnits="userSpaceOnUse">
<stop stop-color="#3939FA"/>
<stop offset="1" stop-color="white" stop-opacity="0"/>
</linearGradient>
<linearGradient id="paint3_linear_1711_5430" x1="878.494" y1="533.087" x2="571.853" y2="652.913" gradientUnits="userSpaceOnUse">
<stop stop-color="#3939FA"/>
<stop offset="1" stop-color="white" stop-opacity="0"/>
</linearGradient>
<linearGradient id="paint4_linear_1711_5430" x1="177.757" y1="669.275" x2="839.32" y2="929.141" gradientUnits="userSpaceOnUse">
<stop stop-color="#3939FA"/>
<stop offset="1" stop-color="white" stop-opacity="0"/>
</linearGradient>
<linearGradient id="paint5_linear_1711_5430" x1="1197.43" y1="141.149" x2="1298.08" y2="141.149" gradientUnits="userSpaceOnUse">
<stop stop-color="#3939FA" stop-opacity="0.85"/>
<stop offset="1" stop-color="#ADADFF" stop-opacity="0.51"/>
</linearGradient>
<linearGradient id="paint6_linear_1711_5430" x1="1196.64" y1="141.149" x2="1298.86" y2="141.149" gradientUnits="userSpaceOnUse">
<stop stop-color="#3939FA"/>
<stop offset="1" stop-color="#ADADFF"/>
</linearGradient>
<linearGradient id="paint7_linear_1711_5430" x1="384.349" y1="535.733" x2="441.657" y2="520.486" gradientUnits="userSpaceOnUse">
<stop stop-color="white"/>
<stop offset="1" stop-color="white" stop-opacity="0.41"/>
</linearGradient>
<linearGradient id="paint8_linear_1711_5430" x1="569.145" y1="705.029" x2="626.457" y2="689.782" gradientUnits="userSpaceOnUse">
<stop stop-color="white"/>
<stop offset="1" stop-color="white" stop-opacity="0.41"/>
</linearGradient>
<linearGradient id="paint9_linear_1711_5430" x1="1463.15" y1="450.602" x2="1520.47" y2="435.355" gradientUnits="userSpaceOnUse">
<stop stop-color="white"/>
<stop offset="1" stop-color="white" stop-opacity="0.41"/>
</linearGradient>
<linearGradient id="paint10_linear_1711_5430" x1="1094.53" y1="169.085" x2="1151.83" y2="153.837" gradientUnits="userSpaceOnUse">
<stop stop-color="white"/>
<stop offset="1" stop-color="white" stop-opacity="0.41"/>
</linearGradient>
<linearGradient id="paint11_linear_1711_5430" x1="1071.69" y1="44.8796" x2="1178.43" y2="15.6834" gradientUnits="userSpaceOnUse">
<stop stop-color="white"/>
<stop offset="1" stop-color="white" stop-opacity="0.41"/>
</linearGradient>
<linearGradient id="paint12_linear_1711_5430" x1="995.898" y1="213.701" x2="1334.48" y2="95.7691" gradientUnits="userSpaceOnUse">
<stop stop-color="white"/>
<stop offset="1" stop-color="white" stop-opacity="0"/>
</linearGradient>
<clipPath id="clip0_1711_5430">
<rect width="1610" height="742" fill="white"/>
</clipPath>
</defs>
</svg>
