<?xml version="1.0" encoding="UTF-8" standalone="no"?>
<!-- Created with Inkscape (http://www.inkscape.org/) -->

<svg
   width="210.16028mm"
   height="243.79108mm"
   viewBox="0 0 210.16028 243.79108"
   version="1.1"
   id="svg5"
   inkscape:version="1.1.1 (3bf5ae0d25, 2021-09-20)"
   sodipodi:docname="ramps.svg"
   xmlns:inkscape="http://www.inkscape.org/namespaces/inkscape"
   xmlns:sodipodi="http://sodipodi.sourceforge.net/DTD/sodipodi-0.dtd"
   xmlns="http://www.w3.org/2000/svg"
   xmlns:svg="http://www.w3.org/2000/svg">
  <sodipodi:namedview
     id="namedview7"
     pagecolor="#ffffff"
     bordercolor="#666666"
     borderopacity="1.0"
     inkscape:pageshadow="2"
     inkscape:pageopacity="0.0"
     inkscape:pagecheckerboard="0"
     inkscape:document-units="mm"
     showgrid="true"
     gridtolerance="10"
     showguides="false"
     inkscape:zoom="0.51150168"
     inkscape:cx="679.37216"
     inkscape:cy="689.1473"
     inkscape:window-width="1920"
     inkscape:window-height="1001"
     inkscape:window-x="-9"
     inkscape:window-y="-9"
     inkscape:window-maximized="1"
     inkscape:current-layer="layer1"
     fit-margin-top="0"
     fit-margin-left="0"
     fit-margin-right="0"
     fit-margin-bottom="0">
    <inkscape:grid
       type="axonomgrid"
       id="grid824"
       spacingy="10"
       visible="false"
       originx="0.057892694"
       originy="-4.998123" />
  </sodipodi:namedview>
  <defs
     id="defs2">
    <meshgradient
       inkscape:collect="always"
       id="meshgradient1525428"
       gradientUnits="userSpaceOnUse"
       x="25.980764"
       y="5"
       gradientTransform="matrix(0.97015073,0,0,0.79893315,-25.147024,-3.9364334)">
      <meshrow
         id="meshrow1527094">
        <meshpatch
           id="meshpatch1527096">
          <stop
             path="c 36.0844,0  72.1688,0  108.253,0"
             style="stop-color:#ffffff;stop-opacity:1"
             id="stop1527098" />
          <stop
             path="c -38.971,60  0,101.667  0,152.5"
             style="stop-color:#76ff55;stop-opacity:1"
             id="stop1527100" />
          <stop
             path="c -36.0844,0  -30.3107,-87.5  -108.253,0"
             style="stop-color:#dcd080;stop-opacity:1"
             id="stop1527102" />
          <stop
             path="c 0,-50.8333  0,-101.667  1.42109e-14,-152.5"
             style="stop-color:#ff5555;stop-opacity:1"
             id="stop1527104" />
        </meshpatch>
        <meshpatch
           id="meshpatch1527106">
          <stop
             path="c 36.0844,0  72.1688,0  108.253,0"
             id="stop1527108" />
          <stop
             path="c 0,50.8333  0,101.667  -2.84217e-14,152.5"
             style="stop-color:#ffffff;stop-opacity:1"
             id="stop1527110" />
          <stop
             path="c -25.9804,-62.5  -72.1688,0  -108.253,0"
             style="stop-color:#ffe641;stop-opacity:1"
             id="stop1527112" />
        </meshpatch>
      </meshrow>
      <meshrow
         id="meshrow1527114">
        <meshpatch
           id="meshpatch1527116">
          <stop
             path="c 0,50.8333  64.9521,77.5  0,152.5"
             id="stop1527118" />
          <stop
             path="c -36.0844,0  -72.1688,0  -108.253,0"
             style="stop-color:#baaaff;stop-opacity:1"
             id="stop1527120" />
          <stop
             path="c 0,-50.8333  0,-101.667  0,-152.5"
             style="stop-color:#ffffff;stop-opacity:1"
             id="stop1527122" />
        </meshpatch>
        <meshpatch
           id="meshpatch1527124">
          <stop
             path="c 2.84217e-14,50.8333  2.84217e-14,101.667  2.84217e-14,152.5"
             id="stop1527126" />
          <stop
             path="c -36.0844,0  -72.1688,0  -108.253,0"
             style="stop-color:#ffffff;stop-opacity:1"
             id="stop1527128" />
        </meshpatch>
      </meshrow>
    </meshgradient>
  </defs>
  <g
     inkscape:groupmode="layer"
     id="layer2"
     inkscape:label="Layer 2"
     style="display:inline"
     transform="translate(0.0578927,-4.9981229)">
    <rect
       style="fill:#000000;fill-opacity:1;stroke-width:0.13299;stroke-linecap:round;stroke-linejoin:bevel;paint-order:fill markers stroke"
       id="rect1786"
       width="210.04402"
       height="244.94363"
       x="0.00034080184"
       y="5.0563564" />
    <path
       style="fill:#ffffff;stroke:#ffffff;stroke-width:0.122189;paint-order:fill markers stroke"
       d="m 180.88953,670.61072 c -8.53185,-4.9258 -15.55233,-9.04218 -15.60107,-9.14752 -0.0487,-0.10533 6.93196,-4.24118 15.51266,-9.19077 l 15.60128,-8.99926 15.3126,8.83942 c 8.42193,4.86167 15.49791,8.94291 15.7244,9.06942 0.32506,0.18156 -2.01686,1.63119 -11.11922,6.88274 -6.34206,3.659 -13.41813,7.74381 -15.72461,9.07735 l -4.19359,2.42462 z"
       id="path2609"
       transform="scale(0.26458333)" />
    <path
       style="fill:#ffffff;stroke:#ffffff;stroke-width:0.122189;paint-order:fill markers stroke"
       d="m 246.03168,708.25712 c -11.80777,-6.84473 -15.38208,-9.02324 -15.15146,-9.23465 0.166,-0.15218 7.20282,-4.25446 15.63737,-9.11619 l 15.33555,-8.83949 15.33395,8.83536 c 8.43367,4.85946 15.47129,8.96327 15.63916,9.11958 0.23675,0.22046 -3.15542,2.28318 -15.12224,9.19556 -8.4851,4.90124 -15.60556,8.9308 -15.82324,8.95457 -0.21769,0.0238 -7.34978,-3.98786 -15.84909,-8.91474 z"
       id="path2648"
       transform="scale(0.26458333)" />
    <path
       style="fill:#ffffff;stroke:#ffffff;stroke-width:0.122189;paint-order:fill markers stroke"
       d="m 311.6538,746.14202 c -8.56294,-4.93589 -15.57355,-9.03308 -15.57913,-9.10486 -0.0186,-0.23865 30.88028,-17.95377 31.28745,-17.93794 0.22006,0.009 7.34055,4.02232 15.82333,8.91946 11.63678,6.71797 15.35028,8.97066 15.12612,9.17586 -0.29008,0.26555 -30.86779,17.94137 -31.01463,17.92839 -0.0408,-0.004 -7.0802,-4.04501 -15.64314,-8.98091 z"
       id="path2687"
       transform="scale(0.26458333)" />
    <path
       style="fill:#ffffff;stroke:#ffffff;stroke-width:0.122189;paint-order:fill markers stroke"
       d="m 247.25679,671.13088 c -8.03467,-4.63793 -15.11092,-8.72238 -15.72502,-9.07657 l -1.11654,-0.64397 15.23278,-8.79762 c 8.37803,-4.8387 15.49319,-8.89677 15.81148,-9.01794 0.49943,-0.19013 2.71943,1.01496 16.20691,8.79763 l 15.62821,9.01793 -1.11992,0.64509 c -0.61596,0.3548 -7.68756,4.43926 -15.71468,9.07657 l -14.59475,8.43149 z"
       id="path2726"
       transform="scale(0.26458333)" />
    <path
       style="fill:#ffffff;stroke:#ffffff;stroke-width:0.122189;paint-order:fill markers stroke"
       d="m 311.52146,708.26841 c -8.50132,-4.92398 -15.45191,-9.01369 -15.44577,-9.08824 0.006,-0.0745 7.03962,-4.18108 15.62996,-9.12562 l 15.61879,-8.99008 15.34501,8.84274 c 8.43976,4.86351 15.4804,8.96588 15.64587,9.11638 0.2285,0.20782 -3.41247,2.41783 -15.13937,9.18934 -8.49213,4.90364 -15.61063,8.93651 -15.81889,8.96194 -0.20826,0.0254 -7.33428,-3.98248 -15.8356,-8.90646 z"
       id="path2765"
       transform="scale(0.26458333)" />
    <path
       style="fill:#ffffff;stroke:#ffffff;stroke-width:0.122189;paint-order:fill markers stroke"
       d="m 246.38573,632.84845 c -8.43898,-4.8786 -15.4466,-8.97317 -15.57249,-9.09906 -0.24515,-0.24515 30.37834,-18.05734 31.04497,-18.05734 0.39456,0 31.28096,17.74082 31.26369,17.95753 -0.0101,0.12691 -31.1192,18.09673 -31.29753,18.07867 -0.0523,-0.005 -6.99965,-4.0012 -15.43864,-8.8798 z"
       id="path2804"
       transform="scale(0.26458333)" />
    <path
       style="fill:#ffffff;stroke:#ffffff;stroke-width:0.122189;paint-order:fill markers stroke"
       d="m 312.92664,671.26275 c -7.86288,-4.55129 -14.91675,-8.62998 -15.67526,-9.06374 l -1.37912,-0.78867 15.57178,-8.98091 c 8.56448,-4.9395 15.71042,-8.98091 15.87988,-8.98091 0.53647,0 31.34135,17.89828 31.13349,18.08922 -0.20712,0.19024 -29.8902,17.33454 -30.74588,17.75814 -0.40953,0.20274 -2.80611,-1.09941 -14.78489,-8.03313 z"
       id="path2843"
       transform="scale(0.26458333)" />
    <path
       style="fill:#ffffff;stroke:#ffffff;stroke-width:0.122189;paint-order:fill markers stroke"
       d="m 377.07599,708.31854 c -8.46772,-4.90294 -15.41931,-8.99532 -15.44799,-9.09417 -0.0287,-0.0989 6.97071,-4.22539 15.55419,-9.17007 l 15.60634,-8.99032 15.47903,8.93861 c 8.51347,4.91623 15.55642,9.01686 15.65099,9.11251 0.17663,0.17863 -30.26517,17.86892 -31.02451,18.02891 -0.23273,0.049 -7.33154,-3.91164 -15.81805,-8.82547 z"
       id="path2882"
       transform="scale(0.26458333)" />
    <path
       style="fill:#ffffff;stroke:#ffffff;stroke-width:0.122189;paint-order:fill markers stroke"
       d="m 323.31272,601.68822 c -2.01612,-1.17568 -8.94425,-5.18553 -15.39584,-8.91078 -6.45159,-3.72524 -11.76231,-6.86615 -11.80159,-6.97979 -0.0393,-0.11363 0.10317,-0.2736 0.31656,-0.35549 0.21339,-0.0819 7.25173,-4.11298 15.64076,-8.95798 l 15.25279,-8.80911 15.34453,8.84348 c 8.4395,4.86391 15.48061,8.96647 15.64692,9.1168 0.2299,0.2078 -3.39716,2.41019 -15.13071,9.1875 -8.4882,4.90279 -15.60739,8.93415 -15.82042,8.95857 -0.21303,0.0244 -2.03688,-0.91752 -4.053,-2.0932 z"
       id="path2921"
       transform="scale(0.26458333)" />
    <path
       style="fill:#ffffff;stroke:#ffffff;stroke-width:0.122189;paint-order:fill markers stroke"
       d="m 311.65275,632.75076 c -8.56352,-4.93609 -15.57413,-9.03319 -15.57913,-9.10467 -0.0164,-0.23377 30.89427,-17.95445 31.29151,-17.93903 0.2127,0.008 7.32912,4.02217 15.81427,8.91981 11.64617,6.72219 15.35493,8.97167 15.1313,9.17761 -0.29469,0.27138 -30.8529,17.93903 -31.0071,17.92718 -0.0445,-0.003 -7.08734,-4.04482 -15.65085,-8.9809 z"
       id="path2960"
       transform="scale(0.26458333)" />
    <path
       style="fill:#ffffff;stroke:#ffffff;stroke-width:0.122189;paint-order:fill markers stroke"
       d="m 377.56474,670.77297 c -8.3333,-4.82462 -15.39034,-8.90492 -15.6823,-9.06733 -0.48323,-0.26882 0.87474,-1.10618 15.14251,-9.3373 8.62034,-4.9731 15.76899,-9.01147 15.88589,-8.97414 0.29033,0.0927 30.79158,17.67782 31.03843,17.89482 0.13828,0.12157 -29.81428,17.64738 -31.11087,18.20356 -0.0672,0.0288 -6.94035,-3.895 -15.27366,-8.71961 z"
       id="path2999"
       transform="scale(0.26458333)" />
    <path
       style="fill:#ffffff;stroke:#ffffff;stroke-width:0.122189;paint-order:fill markers stroke"
       d="m 442.8138,670.65782 c -8.46772,-4.8997 -15.52759,-8.98597 -15.68862,-9.08062 -0.28847,-0.16954 30.85408,-18.30877 31.23648,-18.19393 0.23159,0.0695 30.22139,17.37019 30.82495,17.78242 0.37015,0.25282 -1.64379,1.4898 -14.54052,8.93098 -8.2336,4.75063 -15.30009,8.82475 -15.70331,9.0536 l -0.73314,0.41609 z"
       id="path3038"
       transform="scale(0.26458333)" />
    <path
       style="fill:#ffffff;stroke:#ffffff;stroke-width:0.122189;paint-order:fill markers stroke"
       d="m 380.86385,634.88296 c -6.51879,-3.76712 -13.52835,-7.80727 -15.5768,-8.97811 -2.04844,-1.17084 -3.72549,-2.19206 -3.72677,-2.26938 -0.004,-0.243 30.86397,-17.9441 31.26755,-17.93022 0.21112,0.007 7.33133,4.02118 15.82269,8.91981 11.49567,6.63181 15.36459,8.97513 15.14811,9.17486 -0.26908,0.24826 -30.86594,17.9414 -31.01539,17.93516 -0.0369,-0.002 -5.40059,-3.085 -11.91939,-6.85212 z"
       id="path3077"
       transform="scale(0.26458333)" />
    <path
       style="fill:#ffffff;stroke:#ffffff;stroke-width:0.122189;paint-order:fill markers stroke"
       d="m 377.07599,594.91186 c -8.46772,-4.90486 -15.51513,-8.99463 -15.66092,-9.08838 -0.22809,-0.14668 9.2325,-9.42753 20.42077,-20.03279 l 2.90733,-2.75583 15.71669,9.07195 c 8.64417,4.98957 15.73399,9.08892 15.75515,9.10967 0.0708,0.0694 -23.35425,22.5133 -23.55007,22.56364 -0.10621,0.0273 -7.12124,-3.96341 -15.58895,-8.86826 z"
       id="path3116"
       transform="scale(0.26458333)" />
    <path
       style="fill:#ffffff;stroke:#ffffff;stroke-width:0.122189;paint-order:fill markers stroke"
       d="m 442.92115,632.91474 c -8.39235,-4.84788 -15.50628,-8.94538 -15.80873,-9.10556 -0.52132,-0.27608 0.061,-0.87918 11.20473,-11.60364 8.03716,-7.7348 11.87141,-11.26762 12.12386,-11.17074 0.73266,0.28115 31.09468,17.85739 31.10065,18.00382 0.003,0.0826 -3.92531,3.92958 -8.73041,8.5489 -4.80509,4.61932 -10.06285,9.69089 -11.68391,11.27016 l -2.94738,2.8714 z"
       id="path3155"
       transform="scale(0.26458333)" />
    <path
       style="fill:#ffffff;stroke:#ffffff;stroke-width:0.122189;paint-order:fill markers stroke"
       d="m 368.88685,552.39132 c -8.53357,-4.92123 -15.59684,-9.02227 -15.69616,-9.11344 -0.0993,-0.0912 5.10138,-5.249 11.55711,-11.46187 10.94729,-10.53544 11.77403,-11.27676 12.27732,-11.00877 1.25839,0.67008 30.61548,17.63569 30.79084,17.79418 0.15608,0.14106 -22.74437,22.46442 -23.26186,22.67566 -0.0834,0.0341 -7.13368,-3.96454 -15.66725,-8.88576 z"
       id="path3194"
       transform="scale(0.26458333)" />
    <path
       style="fill:#ffffff;stroke:#ffffff;stroke-width:0.122189;paint-order:fill markers stroke"
       d="m 434.50214,590.25311 c -8.46618,-4.89403 -15.54259,-8.987 -15.72536,-9.09549 -0.23885,-0.14178 2.94185,-3.35183 11.30959,-11.41394 6.40304,-6.16917 11.73648,-11.24927 11.85208,-11.2891 0.19422,-0.0669 30.93751,17.56862 31.33497,17.97495 0.14985,0.15321 -15.52497,15.45106 -21.49946,20.98241 l -1.87876,1.7394 z"
       id="path3233"
       transform="scale(0.26458333)" />
    <path
       style="fill:#ffffff;stroke:#ffffff;stroke-width:0.122189;paint-order:fill markers stroke"
       d="m 499.581,627.86784 c -8.56285,-4.93865 -15.54597,-9.06039 -15.51803,-9.15944 0.0279,-0.099 5.30052,-5.23019 11.71686,-11.40255 l 11.66606,-11.22246 14.60462,8.4352 c 8.03254,4.63936 15.13274,8.73847 15.77822,9.10913 l 1.1736,0.67394 -11.65073,11.21323 c -6.4079,6.16727 -11.77472,11.24002 -11.92626,11.27276 -0.15153,0.0327 -7.28148,-3.98117 -15.84434,-8.91981 z"
       id="path3272"
       transform="scale(0.26458333)" />
    <path
       style="fill:#ffffff;stroke:#ffffff;stroke-width:0.122189;paint-order:fill markers stroke"
       d="m 491.38402,585.33833 c -8.50132,-4.92355 -15.45694,-9.03215 -15.45694,-9.13023 0,-0.27254 23.24718,-22.5763 23.46736,-22.515 0.59834,0.16657 31.27104,18.03488 31.21671,18.18522 -0.14127,0.39097 -23.25463,22.44896 -23.50424,22.43102 -0.14627,-0.0105 -7.22158,-4.04746 -15.72289,-8.97101 z"
       id="path3311"
       transform="scale(0.26458333)" />
    <path
       style="fill:#ffffff;stroke:#ffffff;stroke-width:0.122189;paint-order:fill markers stroke"
       d="m 426.55207,547.87428 c -8.3947,-4.84842 -15.50953,-8.94634 -15.81073,-9.10648 -0.51856,-0.2757 0.0766,-0.8917 11.20975,-11.60285 7.93418,-7.63342 11.87582,-11.26624 12.12159,-11.17193 0.73504,0.28206 31.0897,17.8567 31.09562,18.00364 0.003,0.0835 -4.03528,4.03766 -8.97478,8.78695 -4.9395,4.74929 -10.19534,9.82102 -11.67963,11.27052 l -2.69872,2.63546 z"
       id="path3350"
       transform="scale(0.26458333)" />
    <path
       style="fill:#ffffff;stroke:#ffffff;stroke-width:0.122189;paint-order:fill markers stroke"
       d="m 418.12822,505.20908 c -8.46587,-4.89385 -15.54162,-8.98645 -15.72389,-9.09466 -0.23763,-0.14108 2.96449,-3.37057 11.31722,-11.41394 6.40675,-6.16945 11.7407,-11.25008 11.85324,-11.2903 0.18643,-0.0666 30.94152,17.58474 31.33583,17.98467 0.14386,0.1459 -17.2825,17.13691 -21.88638,21.33962 l -1.50353,1.37251 z"
       id="path3389"
       transform="scale(0.26458333)" />
    <path
       style="fill:#ffffff;stroke:#ffffff;stroke-width:0.122189;paint-order:fill markers stroke"
       d="m 483.20764,542.82413 c -8.56285,-4.93864 -15.54596,-9.05802 -15.51803,-9.15418 0.0279,-0.0961 5.3023,-5.2261 11.72082,-11.39988 l 11.67002,-11.22505 15.3338,8.85167 c 8.43359,4.86843 15.53609,8.96354 15.78335,9.10026 0.3903,0.21581 -1.08652,1.72759 -11.20279,11.46802 -6.4088,6.17069 -11.7797,11.24623 -11.93535,11.27897 -0.15565,0.0328 -7.28896,-3.98117 -15.85182,-8.91981 z"
       id="path3428"
       transform="scale(0.26458333)" />
    <path
       style="fill:#ffffff;stroke:#ffffff;stroke-width:0.122189;paint-order:fill markers stroke"
       d="m 549.2228,580.92951 c -8.2759,-4.79452 -15.29879,-8.88558 -15.60641,-9.09124 -0.55171,-0.36884 -0.43181,-0.49669 8.81544,-9.39927 5.15612,-4.96394 10.43579,-10.05635 11.7326,-11.31647 l 2.35784,-2.29112 15.79414,9.11395 15.79415,9.11395 -0.9233,0.89894 c -6.67547,6.49941 -22.6336,21.72239 -22.75611,21.70779 -0.0887,-0.0106 -6.93244,-3.94201 -15.20835,-8.73653 z"
       id="path3467"
       transform="scale(0.26458333)" />
    <path
       style="fill:#ffffff;stroke:#ffffff;stroke-width:0.122189;paint-order:fill markers stroke"
       d="m 475.56051,500.57912 c -8.46771,-4.90047 -15.52759,-8.98902 -15.68861,-9.08568 -0.27177,-0.16312 30.83691,-18.31613 31.20376,-18.20849 0.171,0.0502 29.50829,16.96287 30.62206,17.65335 l 0.6828,0.42331 -14.97894,8.64258 c -8.23843,4.75341 -15.30886,8.83209 -15.71209,9.06372 l -0.73313,0.42115 z"
       id="path3506"
       transform="scale(0.26458333)" />
    <path
       style="fill:#ffffff;stroke:#ffffff;stroke-width:0.122189;paint-order:fill markers stroke"
       d="m 475.25444,462.64941 c -8.50165,-4.92645 -15.42978,-9.03881 -15.39584,-9.13858 0.0548,-0.16116 30.171,-17.65681 30.90394,-17.95329 0.3094,-0.12516 31.35207,17.68559 31.35207,17.98827 0,0.19482 -30.67847,17.9599 -31.1215,18.02162 -0.15462,0.0216 -7.23702,-3.99156 -15.73867,-8.91802 z"
       id="path3545"
       transform="scale(0.26458333)" />
    <path
       style="fill:#ffffff;stroke:#ffffff;stroke-width:0.122189;paint-order:fill markers stroke"
       d="m 540.74847,462.65951 c -8.50132,-4.92575 -15.45694,-9.02949 -15.45694,-9.11942 0,-0.16358 30.87206,-18.05765 31.15427,-18.05765 0.27513,0 31.16224,17.90266 31.16224,18.06213 0,0.17599 -30.71175,17.9588 -31.13395,18.02727 -0.14778,0.024 -7.2243,-3.98658 -15.72562,-8.91233 z"
       id="path3584"
       transform="scale(0.26458333)" />
    <path
       style="fill:#ffffff;stroke:#ffffff;stroke-width:0.122189;paint-order:fill markers stroke"
       d="m 409.82574,424.85659 c -8.46604,-4.8984 -15.41689,-8.99277 -15.44633,-9.09859 -0.0294,-0.10582 6.96565,-4.2349 15.54465,-9.17572 l 15.59819,-8.98332 15.48837,8.94115 c 8.5186,4.91763 15.56571,9.01547 15.66023,9.1063 0.1781,0.17115 -30.25497,17.85046 -31.02023,18.02041 -0.25045,0.0556 -6.90245,-3.64777 -15.82488,-8.81023 z"
       id="path3623"
       transform="scale(0.26458333)" />
    <path
       style="fill:#ffffff;stroke:#ffffff;stroke-width:0.122189;paint-order:fill markers stroke"
       d="m 482.76968,429.16992 c -4.36827,-2.53304 -11.38108,-6.58923 -15.58403,-9.01375 l -7.64172,-4.40822 15.58402,-8.9839 c 8.57122,-4.94115 15.65074,-9.02033 15.73228,-9.06486 0.13453,-0.0735 30.90836,17.5764 31.2988,17.95096 0.16842,0.16156 -30.29147,17.85361 -31.04174,18.03001 -0.22292,0.0524 -3.97935,-1.9772 -8.34761,-4.51024 z"
       id="path3662"
       transform="scale(0.26458333)" />
    <path
       style="fill:#ffffff;stroke:#ffffff;stroke-width:0.488757;paint-order:fill markers stroke"
       d="m 409.75666,386.48482 c -12.846,-7.44908 -14.2834,-8.53709 -12.70768,-9.61888 0.97718,-0.67087 7.71509,-4.63002 14.97313,-8.79813 l 13.19644,-7.57837 4.88756,2.57088 c 2.68817,1.41398 9.62718,5.35024 15.42004,8.74724 l 10.53246,6.17636 -14.66175,8.46585 c -8.06396,4.65621 -15.22292,8.45872 -15.90879,8.45001 -0.68587,-0.009 -7.765,-3.79544 -15.73141,-8.41496 z"
       id="path3701"
       transform="scale(0.26458333)" />
    <path
       style="fill:#ffffff;stroke:#ffffff;stroke-width:0.488757;paint-order:fill markers stroke"
       d="m 344.26907,386.4882 c -7.9632,-4.61767 -14.34147,-8.52979 -14.17395,-8.6936 0.16752,-0.16382 6.9028,-4.1289 14.96729,-8.81129 l 14.6627,-8.51345 4.88757,2.58067 c 2.68817,1.41937 9.63534,5.36479 15.43816,8.7676 l 10.55059,6.18694 -14.66051,8.45527 c -8.06328,4.6504 -15.23039,8.44815 -15.92692,8.43944 -0.69652,-0.009 -7.78174,-3.79392 -15.74493,-8.41158 z"
       id="path3740"
       transform="scale(0.26458333)" />
    <path
       style="fill:#ffffff;stroke:#ffffff;stroke-width:0.488757;paint-order:fill markers stroke"
       d="m 352.88101,344.41547 c -4.15812,-7.22355 -7.39842,-13.27461 -7.20066,-13.44681 1.02168,-0.88962 29.51311,-17.18623 30.04201,-17.18351 0.34127,0.002 2.8199,3.82595 5.50806,8.49822 2.68816,4.67226 6.05421,10.5183 7.48011,12.9912 l 2.59255,4.49617 -15.43092,8.88923 -15.43092,8.88923 z"
       id="path3779"
       transform="scale(0.26458333)" />
    <path
       style="fill:#ffffff;stroke:#ffffff;stroke-width:0.488757;paint-order:fill markers stroke"
       d="m 306.13943,338.98192 c -8.51717,-14.58598 -10.01635,-17.59356 -8.97521,-18.00559 0.53764,-0.21277 7.3558,-4.10865 15.15147,-8.65751 12.9979,-7.58442 14.27957,-8.13044 15.44684,-6.58068 2.04388,2.71363 13.88067,23.54208 13.85723,24.3837 -0.0118,0.42164 -4.29623,3.18596 -9.52108,6.14294 -5.22484,2.95698 -12.01133,6.81898 -15.08108,8.58222 l -5.58136,3.2059 z"
       id="path3818"
       transform="scale(0.26458333)" />
    <path
       style="fill:#ffffff;stroke:#ffffff;stroke-width:0.488757;paint-order:fill markers stroke"
       d="m 320.27025,287.97761 c -3.83738,-6.66554 -6.97705,-12.56829 -6.97705,-13.11722 0,-1.46964 29.41953,-18.07803 30.32924,-17.12195 0.92657,0.97377 14.6364,24.53323 14.6364,25.1517 0,0.60543 -29.08147,17.20663 -30.14205,17.20663 -0.47822,0 -4.00917,-5.45362 -7.84654,-12.11916 z"
       id="path3857"
       transform="scale(0.26458333)" />
    <path
       style="fill:#ffffff;stroke:#ffffff;stroke-width:0.488757;paint-order:fill markers stroke"
       d="m 271.49182,279.08055 c -3.89075,-6.72022 -7.18411,-12.68947 -7.31858,-13.265 -0.21968,-0.94026 29.44095,-18.98358 30.08261,-18.30003 1.80377,1.92152 14.83781,25.87116 14.33917,26.34776 -0.62106,0.59359 -29.46125,17.43586 -29.85664,17.43586 -0.0949,0 -3.35581,-5.49836 -7.24656,-12.21859 z"
       id="path3896"
       transform="scale(0.26458333)" />
    <path
       style="fill:#ffffff;stroke:#ffffff;stroke-width:0.488757;paint-order:fill markers stroke"
       d="m 287.4296,231.09686 c -4.18123,-7.2637 -7.44044,-13.35751 -7.24268,-13.54179 1.26237,-1.17636 30.26514,-17.38831 30.53787,-17.07004 0.18573,0.21674 2.88069,4.79289 5.98879,10.16921 3.1081,5.37633 6.44495,11.10741 7.41523,12.73573 l 1.76413,2.96059 -11.43182,6.57374 c -6.2875,3.61556 -13.23124,7.65499 -15.43054,8.97651 l -3.99874,2.40278 z"
       id="path3935"
       transform="scale(0.26458333)" />
    <path
       style="fill:#ffffff;stroke:#ffffff;stroke-width:0.488757;paint-order:fill markers stroke"
       d="m 240.646,225.59031 c -8.51717,-14.58598 -10.01635,-17.59357 -8.97521,-18.0056 0.53764,-0.21276 7.3558,-4.10864 15.15147,-8.65751 12.99789,-7.58442 14.27957,-8.13044 15.44683,-6.58068 2.04389,2.71364 13.88067,23.54208 13.85724,24.38371 -0.0118,0.42164 -4.29623,3.18596 -9.52108,6.14294 -5.22485,2.95698 -12.01133,6.81898 -15.08108,8.58222 l -5.58136,3.2059 z"
       id="path3974"
       transform="scale(0.26458333)" />
    <path
       style="fill:#ffffff;stroke:#ffffff;stroke-width:0.488757;paint-order:fill markers stroke"
       d="m 254.76037,174.49132 c -3.82833,-6.71761 -6.9606,-12.6011 -6.9606,-13.07444 0,-1.38814 29.4633,-17.97892 30.32677,-17.07699 0.9696,1.01277 14.63887,24.43865 14.63887,25.08753 0,0.66982 -28.90863,17.27773 -30.07455,17.27773 -0.53345,0 -4.10217,-5.49622 -7.93049,-12.21383 z"
       id="path4013"
       transform="scale(0.26458333)" />
    <path
       style="fill:#ffffff;stroke:#ffffff;stroke-width:0.488757;paint-order:fill markers stroke"
       d="m 205.81461,165.28405 c -3.95249,-6.94292 -7.11514,-12.99128 -7.02813,-13.44082 0.16454,-0.84998 29.53237,-18.18878 29.9934,-17.70813 1.79793,1.87448 14.84864,25.84488 14.33852,26.33573 -0.69274,0.66656 -29.43137,17.4367 -29.8809,17.4367 -0.1301,0 -3.47041,-5.68057 -7.42289,-12.62348 z"
       id="path4052"
       transform="scale(0.26458333)" />
    <path
       style="fill:#ffffff;stroke:#ffffff;stroke-width:0.488757;paint-order:fill markers stroke"
       d="m 221.94952,117.66645 c -4.18995,-7.24098 -7.45573,-13.30777 -7.25728,-13.48174 1.5004,-1.31536 30.28449,-17.40035 30.58594,-17.091896 0.21214,0.217074 2.90067,4.793492 5.97452,10.169819 3.07384,5.376327 6.39916,11.123267 7.38959,12.770977 l 1.80079,2.99584 -10.47609,6.02106 c -5.76185,3.31159 -12.70882,7.31714 -15.43773,8.90122 l -4.96164,2.88015 z"
       id="path4091"
       transform="scale(0.26458333)" />
    <path
       style="fill:#ffffff;stroke:#ffffff;stroke-width:0.488757;paint-order:fill markers stroke"
       d="m 175.18383,112.1881 c -8.57676,-14.653293 -10.04401,-17.584524 -9.00647,-17.99286 0.53764,-0.21159 7.34607,-4.080776 15.12985,-8.598192 7.78378,-4.517415 14.43284,-8.040118 14.77569,-7.828228 0.84995,0.525302 14.57654,24.67356 14.55077,25.59818 -0.0113,0.40603 -4.27634,3.15758 -9.47783,6.11456 -5.20148,2.95698 -11.97985,6.81421 -15.06305,8.57162 l -5.6058,3.1953 z"
       id="path4130"
       transform="scale(0.26458333)" />
    <path
       style="fill:#ffffff;stroke:#ffffff;stroke-width:0.488757;paint-order:fill markers stroke"
       d="m 333.33224,493.65456 c -8.06449,-4.7357 -14.52781,-8.98467 -14.36294,-9.44215 0.2413,-0.66957 13.35863,-16.20525 18.32258,-21.7006 0.98136,-1.08642 3.66312,0.10313 15.23343,6.75708 7.72332,4.44159 14.56657,8.55398 15.20721,9.13865 0.87718,0.80052 -1.23669,3.83896 -8.56031,12.30444 -5.34882,6.18277 -10.05185,11.3115 -10.45119,11.39718 -0.39934,0.0857 -7.32429,-3.7189 -15.38878,-8.4546 z"
       id="path4169"
       transform="scale(0.26458333)" />
    <path
       style="fill:#ffffff;stroke:#ffffff;stroke-width:0.488757;paint-order:fill markers stroke"
       d="m 278.42293,499.66184 -14.83123,-8.60019 9.6176,-11.14464 c 5.28968,-6.12955 10.08549,-11.3006 10.65736,-11.49122 1.28114,-0.42705 30.59881,16.39832 30.20119,17.33242 -0.7588,1.78261 -18.98396,22.41532 -19.83617,22.45654 -0.53763,0.026 -7.65157,-3.82281 -15.80875,-8.55291 z"
       id="path4208"
       transform="scale(0.26458333)" />
    <path
       style="fill:#ffffff;stroke:#ffffff;stroke-width:0.488757;paint-order:fill markers stroke"
       d="m 322.57959,449.66644 c -8.06449,-4.7357 -14.66271,-8.84383 -14.66271,-9.12917 0,-0.64734 19.24043,-23.13884 19.7942,-23.13884 0.41031,0 24.30208,13.69961 28.37558,16.27064 2.21227,1.3963 2.16237,1.47916 -7.73952,12.85077 -5.48138,6.29498 -10.22235,11.51552 -10.53549,11.60119 -0.31315,0.0857 -7.16757,-3.71889 -15.23206,-8.45459 z"
       id="path4247"
       transform="scale(0.26458333)" />
    <path
       style="fill:#ffffff;stroke:#ffffff;stroke-width:0.488757;paint-order:fill markers stroke"
       d="m 278.85074,537.80523 c -7.92189,-4.62742 -14.08023,-8.70701 -13.6852,-9.06575 0.39503,-0.35873 7.15383,-4.3827 15.01955,-8.94214 l 14.30132,-8.2899 15.33745,8.77912 15.33745,8.77912 -2.75713,1.64687 c -11.72781,7.00516 -27.43664,15.69887 -28.20953,15.61194 -0.51727,-0.0582 -7.42203,-3.89184 -15.34391,-8.51926 z"
       id="path4286"
       transform="scale(0.26458333)" />
    <path
       style="fill:#ffffff;stroke:#ffffff;stroke-width:0.488757;paint-order:fill markers stroke"
       d="m 214.5643,538.45805 c -7.25804,-4.26797 -13.79841,-8.11582 -14.53415,-8.55078 -0.9262,-0.54756 2.95834,-3.28115 12.62756,-8.88613 7.68091,-4.45241 14.71782,-8.29208 15.6376,-8.5326 0.9365,-0.2449 8.20506,3.30661 16.51955,8.07167 l 14.84724,8.50899 -2.75425,1.64511 c -11.73073,7.00677 -27.43386,15.69703 -28.20663,15.60982 -0.51727,-0.0584 -6.87888,-3.59812 -14.13692,-7.86608 z"
       id="path4325"
       transform="scale(0.26458333)" />
    <path
       style="fill:#ffffff;stroke:#ffffff;stroke-width:0.488757;paint-order:fill markers stroke"
       d="m 217.46297,577.89936 c -6.20141,-3.59837 -12.97274,-7.55464 -15.04739,-8.79171 l -3.77211,-2.24922 15.25732,-8.78222 15.25731,-8.78223 14.69716,8.4863 c 8.08344,4.66746 14.69717,8.79788 14.69717,9.1787 0,0.5724 -28.93184,17.71418 -29.60159,17.5386 -0.11693,-0.0306 -5.28647,-2.99985 -11.48787,-6.59822 z"
       id="path4364"
       transform="scale(0.26458333)" />
    <path
       style="fill:#ffffff;stroke:#ffffff;stroke-width:0.488757;paint-order:fill markers stroke"
       d="m 149.55276,576.44274 c -7.53063,-4.41013 -14.26629,-8.39126 -14.96814,-8.84697 -0.87887,-0.57065 3.4515,-3.5498 13.91163,-9.57074 l 15.18773,-8.74217 14.68751,8.47085 c 8.07813,4.65896 14.6875,8.79188 14.6875,9.18425 0,0.58018 -28.88558,17.72448 -29.60159,17.56927 -0.11692,-0.0254 -6.374,-3.65437 -13.90464,-8.06449 z"
       id="path4403"
       transform="scale(0.26458333)" />
    <path
       style="fill:#ffffff;stroke:#ffffff;stroke-width:0.488757;paint-order:fill markers stroke"
       d="m 149.28203,613.1084 c -7.14191,-4.1462 -12.96174,-7.97842 -12.93297,-8.51605 0.0288,-0.53764 6.2001,-4.43305 13.71407,-8.65648 l 13.66176,-7.67897 14.33004,8.11 c 14.04101,7.94642 14.28478,8.14074 12.08578,9.63399 -4.32286,2.93549 -25.89648,14.72007 -26.88011,14.68324 -0.54631,-0.0205 -6.83667,-3.42953 -13.97857,-7.57573 z"
       id="path4481"
       transform="scale(0.26458333)" />
    <path
       style="fill:#ffffff;stroke:#ffffff;stroke-width:0.488757;paint-order:fill markers stroke"
       d="m 82.314815,613.23699 c -7.952484,-4.62015 -14.330763,-8.5211 -14.173952,-8.66879 0.965728,-0.90956 29.435889,-17.08235 30.07132,-17.08235 0.608502,0 28.885447,16.06633 30.139727,17.12472 0.53524,0.45165 -29.047627,17.0891 -30.329709,17.05747 -0.686578,-0.0169 -7.754903,-3.81091 -15.707386,-8.43105 z"
       id="path4520"
       transform="scale(0.26458333)" />
    <path
       style="fill:#ffffff;stroke:#ffffff;stroke-width:0.488757;paint-order:fill markers stroke"
       d="m 83.580311,576.20698 c -7.794093,-4.53979 -14.303141,-8.65036 -14.464552,-9.13459 -0.161411,-0.48423 6.329663,-4.67616 14.424608,-9.31539 l 14.718082,-8.43498 14.653561,8.45127 c 8.05945,4.64819 14.65355,8.77188 14.65355,9.16376 0,0.60172 -28.75877,17.70454 -29.544643,17.57018 -0.14824,-0.0254 -6.646512,-3.76046 -14.440606,-8.30025 z"
       id="path4559"
       transform="scale(0.26458333)" />
    <path
       style="fill:#ffffff;stroke:#ffffff;stroke-width:0.488757;paint-order:fill markers stroke"
       d="M 18.084007,576.18003 C 10.288334,571.63075 3.7792851,567.52237 3.6194547,567.05029 3.4596242,566.57821 9.9519907,562.39623 18.046936,557.757 l 14.718082,-8.43498 14.653558,8.45127 c 8.059456,4.64819 14.653556,8.77188 14.653556,9.16376 0,0.60481 -28.772707,17.7112 -29.544646,17.56533 -0.14824,-0.028 -6.647806,-3.77307 -14.443479,-8.32235 z"
       id="path4598"
       transform="scale(0.26458333)" />
    <path
       style="fill:#ffffff;stroke:#ffffff;stroke-width:0.488757;paint-order:fill markers stroke"
       d="m 18.549951,538.52438 c -7.51431,-4.34824 -14.2575926,-8.24007 -14.9850728,-8.64852 -0.8840163,-0.49633 3.5216999,-3.54774 13.2841038,-9.2006 8.033737,-4.65189 15.187717,-8.45798 15.897734,-8.45798 0.710016,0 7.842407,3.79359 15.849757,8.4302 l 14.558818,8.4302 -5.184771,3.11466 c -7.650748,4.59605 -24.789822,14.23793 -25.308864,14.23793 -0.247127,0 -6.597395,-3.55765 -14.111705,-7.90589 z"
       id="path4676"
       transform="scale(0.26458333)" />
    <path
       style="fill:#ffffff;stroke:#ffffff;stroke-width:0.488757;paint-order:fill markers stroke"
       d="m 524.43621,509.4689 v -17.41109 l 11.48578,-6.53113 c 6.31719,-3.59212 13.36533,-7.66484 15.66254,-9.0505 l 4.17675,-2.51937 -0.26669,17.84111 -0.2667,17.8411 -14.6627,8.57266 c -8.06449,4.71497 -14.99262,8.59419 -15.39585,8.62049 -0.40322,0.0263 -0.73313,-7.78717 -0.73313,-17.36327 z"
       id="path4715"
       transform="scale(0.26458333)" />
    <path
       style="fill:#ffffff;stroke:#ffffff;stroke-width:0.488757;paint-order:fill markers stroke"
       d="m 574.04504,519.25518 c -7.93009,-4.6432 -14.41833,-8.70588 -14.41833,-9.02818 0,-0.3223 6.64857,-4.41321 14.7746,-9.09093 l 14.77461,-8.50493 15.01413,8.57118 c 8.25777,4.71415 15.01017,8.79112 15.00533,9.05993 -0.009,0.51583 -29.70931,17.6527 -30.35567,17.51519 -0.20699,-0.044 -6.86459,-3.87906 -14.79467,-8.52226 z"
       id="path4754"
       transform="scale(0.26458333)" />
    <path
       style="fill:#ffffff;stroke:#ffffff;stroke-width:0.488757;paint-order:fill markers stroke"
       d="m 574.3247,557.10892 c -8.17351,-4.70839 -15.00999,-8.70978 -15.19219,-8.89198 -0.38265,-0.38265 29.08657,-17.42689 30.1308,-17.42689 1.68587,0 29.90869,17.08846 29.25504,17.71345 -0.40126,0.38366 -7.16528,4.40299 -15.03116,8.93185 l -14.30158,8.23428 z"
       id="path4793"
       transform="scale(0.26458333)" />
    <path
       style="fill:#ffffff;stroke:#ffffff;stroke-width:0.488757;paint-order:fill markers stroke"
       d="m 584.55331,600.81138 c -2.15053,-1.2629 -7.06167,-4.11546 -10.91365,-6.33901 l -7.00359,-4.04281 11.32127,-11.10309 11.32127,-11.10309 14.25509,8.24995 c 7.84029,4.53748 14.57937,8.558 14.97573,8.93449 0.64347,0.61123 -27.76535,17.73169 -29.38544,17.70901 -0.36334,-0.005 -2.42015,-1.04254 -4.57068,-2.30545 z"
       id="path4832"
       transform="scale(0.26458333)" />
    <path
       style="fill:#ffffff;stroke:#ffffff;stroke-width:0.488757;paint-order:fill markers stroke"
       d="m 639.81813,557.10892 c -8.1735,-4.70839 -15.00999,-8.70978 -15.19219,-8.89198 -0.38264,-0.38265 29.08657,-17.42689 30.1308,-17.42689 1.68587,0 29.9087,17.08846 29.25504,17.71345 -0.40126,0.38366 -7.16528,4.40299 -15.03115,8.93185 l -14.30159,8.23428 z"
       id="path4871"
       transform="scale(0.26458333)" />
    <path
       style="fill:#ffffff;stroke:#ffffff;stroke-width:0.488757;paint-order:fill markers stroke"
       d="m 637.22612,607.82321 c -1.45715,-2.31461 -4.99704,-7.85272 -7.86643,-12.30692 -2.86938,-4.45419 -5.21707,-8.46819 -5.21707,-8.92 0,-1.16447 29.20802,-17.87114 30.18655,-17.26638 1.13956,0.70429 15.76012,23.57727 15.74021,24.62462 -0.009,0.47447 -4.51781,3.39124 -10.01952,6.4817 -5.50172,3.09046 -12.29165,6.96369 -15.08875,8.60719 l -5.08563,2.98817 z"
       id="path4910"
       transform="scale(0.26458333)" />
    <path
       style="fill:#ffffff;stroke:#ffffff;stroke-width:0.488757;paint-order:fill markers stroke"
       d="m 617.08209,646.38106 c -3.99038,-6.31718 -7.55566,-11.99755 -7.92284,-12.62303 -0.43073,-0.73374 4.77707,-4.27972 14.67769,-9.99399 8.43991,-4.8712 15.41452,-8.75825 15.49913,-8.63789 2.91242,4.14315 16.1202,25.43318 15.9046,25.6371 -0.98625,0.93287 -29.45197,17.1036 -30.10786,17.1036 -0.43751,0 -4.06034,-5.1686 -8.05072,-11.48579 z"
       id="path4949"
       transform="scale(0.26458333)" />
    <path
       style="fill:#ffffff;stroke:#ffffff;stroke-width:0.488757;paint-order:fill markers stroke"
       d="m 682.03034,607.77936 c -4.45195,-7.0066 -7.971,-12.85528 -7.82011,-12.99705 0.97762,-0.91853 29.43527,-17.0716 30.07586,-17.0716 0.6097,0 11.22641,16.02401 15.97718,24.11469 0.55453,0.94437 -16.49002,11.63835 -28.18343,17.68268 -1.76808,0.91392 -2.72907,-0.20765 -10.0495,-11.72872 z"
       id="path4988"
       transform="scale(0.26458333)" />
    <path
       style="fill:#ffffff;stroke:#ffffff;stroke-width:0.488757;paint-order:fill markers stroke"
       d="m 667.4939,655.17869 c -4.10704,-6.31718 -7.51339,-12.12794 -7.56968,-12.91279 -0.11612,-1.61914 28.81359,-18.83382 29.90465,-17.79482 1.29878,1.23682 15.44741,23.75321 15.44741,24.58329 0,0.74773 -28.52875,17.61011 -29.7938,17.61011 -0.28668,0 -3.88155,-5.16861 -7.98858,-11.48579 z"
       id="path5027"
       transform="scale(0.26458333)" />
    <path
       style="fill:#ffffff;stroke:#ffffff;stroke-width:0.488757;paint-order:fill markers stroke"
       d="m 651.705,700.74136 c -4.46429,-7.03594 -7.98334,-12.88548 -7.82011,-12.99898 5.71556,-3.97415 30.47643,-17.17965 31.05795,-16.56387 0.44788,0.47426 4.14735,6.13482 8.22106,12.57901 5.71441,9.03962 7.13246,11.96268 6.20631,12.7932 -1.19719,1.07357 -28.68489,17.05741 -29.25043,17.00885 -0.16385,-0.0141 -3.9505,-5.78226 -8.41478,-12.81821 z"
       id="path5066"
       transform="scale(0.26458333)" />
    <path
       style="fill:#ffffff;stroke:#ffffff;stroke-width:0.488757;paint-order:fill markers stroke"
       d="m 717.61037,663.5171 c -4.184,-6.60225 -7.56647,-12.44397 -7.51659,-12.9816 0.0859,-0.92629 29.40107,-18.44474 29.90059,-17.86831 1.49944,1.73031 16.26618,25.35759 15.99334,25.58989 -0.92582,0.78825 -27.90933,16.18456 -29.25496,16.69236 -1.11963,0.42252 -3.50079,-2.5616 -9.12238,-11.43234 z"
       id="path5105"
       transform="scale(0.26458333)" />
    <path
       style="fill:#ffffff;stroke:#ffffff;stroke-width:0.488757;paint-order:fill markers stroke"
       d="m 702.89553,710.62604 c -4.1229,-6.49493 -7.71167,-12.37052 -7.97505,-13.05687 -0.30512,-0.79513 4.86762,-4.32273 14.25664,-9.72246 8.10453,-4.661 15.05432,-8.47455 15.44397,-8.47455 0.38965,0 1.84562,1.86949 3.23549,4.15443 1.38987,2.28494 4.9903,7.96002 8.00095,12.61129 l 5.47392,8.45686 -11.42937,6.58445 c -6.28615,3.62146 -13.24759,7.63552 -15.46987,8.92014 l -4.0405,2.33567 z"
       id="path5144"
       transform="scale(0.26458333)" />
    <path
       style="fill:#ffffff;stroke:#ffffff;stroke-width:0.488757;paint-order:fill markers stroke"
       d="m 687.28871,756.35138 c -4.1737,-6.586 -7.58241,-12.35653 -7.57491,-12.82339 0.008,-0.46686 6.7441,-4.73111 14.97022,-9.47611 l 14.95658,-8.62728 8.06008,12.40866 c 4.43305,6.82476 8.06983,12.64805 8.08174,12.94064 0.0265,0.65062 -28.94886,17.55202 -30.09073,17.55202 -0.44794,0 -4.22928,-5.38854 -8.40298,-11.97454 z"
       id="path5183"
       transform="scale(0.26458333)" />
    <path
       style="fill:#ffffff;stroke:#ffffff;stroke-width:0.488757;paint-order:fill markers stroke"
       d="m 753.70601,719.97306 c -3.97838,-6.12758 -7.66375,-11.94514 -8.18972,-12.92792 -0.84031,-1.57014 0.90402,-2.86232 14.38097,-10.65327 l 15.33727,-8.86639 8.07413,12.69393 c 4.44077,6.98166 7.72503,13.02679 7.29835,13.4336 -0.42668,0.40682 -7.27644,4.50199 -15.22169,9.10038 l -14.4459,8.36071 z"
       id="path5222"
       transform="scale(0.26458333)" />
    <path
       style="fill:#ffffff;stroke:#ffffff;stroke-width:0.488757;paint-order:fill markers stroke"
       d="m 743.06169,773.45787 c -1.27445,-2.01612 -4.83509,-7.56654 -7.91254,-12.33426 -3.39595,-5.26115 -5.24272,-9.02122 -4.69824,-9.5657 0.49341,-0.49341 7.23768,-4.57248 14.98725,-9.06458 10.59062,-6.13894 14.37099,-7.89043 15.22094,-7.05204 0.62194,0.61349 4.44778,6.36676 8.50188,12.78505 l 7.37107,11.66963 -14.85571,8.59463 c -8.17065,4.72704 -15.18012,8.60325 -15.57659,8.61379 -0.39649,0.0105 -1.76361,-1.6304 -3.03806,-3.64652 z"
       id="path5261"
       transform="scale(0.26458333)" />
    <path
       style="fill:#ffffff;stroke:#ffffff;stroke-width:0.488757;paint-order:fill markers stroke"
       d="m 723.22394,812.62711 c -4.12689,-6.35496 -7.69049,-12.26769 -7.91911,-13.1394 -0.3087,-1.17703 3.372,-3.75566 14.30173,-10.01952 8.09457,-4.63902 14.90397,-8.43459 15.13199,-8.43459 0.95683,0 16.25566,24.62512 15.77849,25.39719 -0.28736,0.46496 -5.68602,3.79076 -11.99702,7.39065 -6.311,3.5999 -12.89611,7.40362 -14.63359,8.45271 l -3.15906,1.90743 z"
       id="path5300"
       transform="scale(0.26458333)" />
    <path
       style="fill:#ffffff;stroke:#ffffff;stroke-width:0.488757;paint-order:fill markers stroke"
       d="m 786.15724,770.81842 -6.46575,-10.21519 6.78052,-3.90926 6.78052,-3.90926 v 14.12445 c 0,7.76844 -0.14165,14.12444 -0.31477,14.12444 -0.17313,0 -3.22436,-4.59683 -6.78052,-10.21518 z"
       id="path5339"
       transform="scale(0.26458333)" />
    <path
       style="fill:#ffffff;stroke:#ffffff;stroke-width:0.488757;paint-order:fill markers stroke"
       d="m 778.52028,827.62216 c -1.38234,-2.23669 -4.78756,-7.68476 -7.56718,-12.10684 l -5.05384,-8.04014 11.53587,-6.82635 c 6.34473,-3.75449 12.27927,-7.11163 13.18787,-7.46029 1.51079,-0.57974 1.65201,0.7763 1.65201,15.86275 v 16.49669 l -5.6207,3.07043 -5.62071,3.07044 z"
       id="path5417"
       transform="scale(0.26458333)" />
    <path
       style="fill:#ffffff;stroke:#ffffff;stroke-width:0.488757;paint-order:fill markers stroke"
       d="m 760.91378,871.69306 c -2.46379,-3.89511 -6.07782,-9.56678 -8.03119,-12.60371 l -3.55158,-5.52168 11.94124,-6.81771 c 6.56768,-3.74974 13.53123,-7.76154 15.47454,-8.9151 l 3.5333,-2.09738 6.48622,10.27156 c 5.03942,7.98041 6.48451,11.09161 6.47858,13.94802 l -0.008,3.67647 -13.13137,7.57573 c -7.22226,4.16665 -13.48713,7.5735 -13.92194,7.57077 -0.43481,-0.003 -2.80638,-3.19186 -5.27016,-7.08697 z"
       id="path5456"
       transform="scale(0.26458333)" />
    <path
       style="fill:#ffffff;stroke:#ffffff;stroke-width:0.488757;paint-order:fill markers stroke"
       d="m 639.01804,481.05361 -14.93875,-8.64253 15.30527,-8.81351 15.30528,-8.81351 14.29619,8.27381 c 7.8629,4.55059 14.62047,8.58184 15.01683,8.95834 0.64752,0.61507 -27.79338,17.74527 -29.38543,17.69909 -0.36335,-0.0105 -7.38307,-3.9083 -15.59939,-8.66169 z"
       id="path5534"
       transform="scale(0.26458333)" />
    <path
       style="fill:#ffffff;stroke:#ffffff;stroke-width:0.488757;paint-order:fill markers stroke"
       d="m 705.76503,481.80423 c -7.52685,-4.33556 -14.26985,-8.21081 -14.98443,-8.61169 -0.85032,-0.47702 3.99324,-3.77651 14.01831,-9.54943 l 15.31754,-8.82057 14.3296,8.25045 c 7.88128,4.53775 14.65388,8.56035 15.05024,8.9391 0.64876,0.61996 -27.80169,17.7555 -29.38543,17.69867 -0.36335,-0.013 -6.81897,-3.57098 -14.34583,-7.90653 z"
       id="path5573"
       transform="scale(0.26458333)" />
    <path
       style="fill:#ffffff;stroke:#ffffff;stroke-width:0.488757;paint-order:fill markers stroke"
       d="m 705.31125,443.74856 c -8.16687,-4.71912 -15.00058,-8.73193 -15.18601,-8.91736 -0.18543,-0.18544 6.49383,-4.26011 14.8428,-9.05484 11.74361,-6.74423 15.54353,-8.50033 16.78609,-7.75755 0.88339,0.52807 7.65973,4.42627 15.05855,8.66267 7.39882,4.23639 13.11727,8.00796 12.70768,8.38126 -0.40959,0.3733 -7.18321,4.41088 -15.05248,8.97239 l -14.30777,8.29366 z"
       id="path5612"
       transform="scale(0.26458333)" />
    <path
       style="fill:#ffffff;stroke:#ffffff;stroke-width:0.488757;paint-order:fill markers stroke"
       d="m 769.94935,443.32732 c -7.70924,-4.50023 -14.16613,-8.33157 -14.34865,-8.51409 -0.18251,-0.18252 6.46411,-4.23986 14.77028,-9.0163 l 15.10212,-8.68445 3.26325,1.75738 3.26326,1.75738 0.6214,9.38263 c 1.12114,16.92823 1.05176,17.464 -2.5454,19.65724 -1.74731,1.06535 -3.83674,1.91573 -4.64319,1.88973 -0.80645,-0.026 -7.77383,-3.72929 -15.48307,-8.22952 z"
       id="path5651"
       transform="scale(0.26458333)" />
    <path
       style="fill:#ffffff;stroke:#ffffff;stroke-width:0.488757;paint-order:fill markers stroke"
       d="m 705.0319,405.86357 c -7.93008,-4.6432 -14.41833,-8.69552 -14.41833,-9.00516 0,-0.30964 6.62468,-4.41145 14.72152,-9.11514 l 14.72152,-8.55216 15.05841,8.59539 c 8.28213,4.72746 15.05779,8.81533 15.05703,9.08414 -10e-4,0.49634 -29.78751,17.66216 -30.39232,17.51518 -0.18123,-0.044 -6.81775,-3.87905 -14.74783,-8.52225 z"
       id="path5690"
       transform="scale(0.26458333)" />
    <path
       style="fill:#ffffff;stroke:#ffffff;stroke-width:0.488757;paint-order:fill markers stroke"
       d="m 770.52533,405.89892 c -7.93008,-4.62164 -14.41833,-8.69966 -14.41833,-9.06229 0,-0.36261 6.64025,-4.47818 14.75611,-9.1457 l 14.75611,-8.4864 3.08352,1.79934 3.08352,1.79935 0.27063,13.78036 0.27063,13.78035 -3.31855,2.05098 c -1.82521,1.12804 -3.48658,2.01408 -3.69193,1.96898 -0.20536,-0.0451 -6.86163,-3.86333 -14.79171,-8.48497 z"
       id="path5729"
       transform="scale(0.26458333)" />
    <path
       style="fill:#ffffff;stroke:#ffffff;stroke-width:0.488757;paint-order:fill markers stroke"
       d="m 771.74722,368.70463 c -7.25804,-4.19729 -14.00103,-8.08169 -14.98443,-8.632 -1.50896,-0.84441 0.60962,-2.38122 13.57584,-9.84779 l 15.36383,-8.84723 3.28628,1.93895 3.28627,1.93896 -0.006,13.83301 -0.006,13.83302 -3.00558,1.71065 c -1.65306,0.94086 -3.29984,1.70912 -3.65949,1.70726 -0.35966,-0.002 -6.59232,-3.43754 -13.85036,-7.63483 z"
       id="path5768"
       transform="scale(0.26458333)" />
    <path
       style="fill:#ffffff;stroke:#ffffff;stroke-width:0.488757;paint-order:fill markers stroke"
       d="m 706.25379,368.70463 c -7.25804,-4.19729 -14.00103,-8.08169 -14.98443,-8.632 -1.50905,-0.84446 0.60163,-2.37662 13.52955,-9.82113 l 15.31754,-8.82057 14.3296,8.25045 c 7.88128,4.53775 14.65388,8.56035 15.05024,8.9391 0.6405,0.61206 -27.74385,17.7274 -29.38543,17.71898 -0.36335,-0.002 -6.59903,-3.43754 -13.85707,-7.63483 z"
       id="path5807"
       transform="scale(0.26458333)" />
    <path
       style="fill:#ffffff;stroke:#ffffff;stroke-width:0.488757;paint-order:fill markers stroke"
       d="m 639.53847,405.86357 c -7.93008,-4.6432 -14.41833,-8.70588 -14.41833,-9.02818 0,-0.3223 6.64857,-4.41322 14.7746,-9.09093 l 14.77461,-8.50493 15.01413,8.57118 c 8.25778,4.71415 15.01017,8.79112 15.00533,9.05993 -0.009,0.51583 -29.70931,17.6527 -30.35566,17.51518 -0.207,-0.044 -6.8646,-3.87905 -14.79468,-8.52225 z"
       id="path5846"
       transform="scale(0.26458333)" />
    <path
       style="fill:#ffffff;stroke:#ffffff;stroke-width:0.488757;paint-order:fill markers stroke"
       d="m 640.2716,368.41262 c -7.52685,-4.33556 -14.26118,-8.20597 -14.96518,-8.60091 -0.82449,-0.46256 4.17866,-3.86599 14.05956,-9.56412 l 15.33955,-8.84604 14.28834,8.26926 c 7.85859,4.54809 14.61263,8.57729 15.00899,8.95378 0.64938,0.61685 -27.80579,17.75124 -29.38543,17.69456 -0.36335,-0.013 -6.81897,-3.57098 -14.34583,-7.90653 z"
       id="path5885"
       transform="scale(0.26458333)" />
    <path
       style="fill:#ffffff;stroke:#ffffff;stroke-width:0.488757;paint-order:fill markers stroke"
       d="m 704.8758,330.11154 -15.29419,-8.81989 10.5355,-6.17813 c 5.79452,-3.39797 12.7349,-7.33614 15.42306,-8.75148 l 4.88757,-2.57335 14.91811,8.60241 c 8.20497,4.73133 14.58324,8.90759 14.17396,9.28059 -0.40929,0.37299 -7.18044,4.40902 -15.04699,8.96895 l -14.30283,8.29078 z"
       id="path5924"
       transform="scale(0.26458333)" />
    <path
       style="fill:#ffffff;stroke:#ffffff;stroke-width:0.488757;paint-order:fill markers stroke"
       d="m 639.81813,330.3257 c -8.1735,-4.70839 -15.00999,-8.70979 -15.19219,-8.89199 -0.1822,-0.1822 6.4997,-4.25423 14.84867,-9.04896 11.74361,-6.74423 15.54353,-8.50033 16.78609,-7.75755 0.88339,0.52806 7.65973,4.42627 15.05855,8.66266 7.39882,4.2364 13.11727,8.02327 12.70768,8.41526 -0.40959,0.39199 -7.18043,4.41815 -15.0463,8.947 l -14.30159,8.23429 z"
       id="path5963"
       transform="scale(0.26458333)" />
    <path
       style="fill:#ffffff;stroke:#ffffff;stroke-width:0.488757;paint-order:fill markers stroke"
       d="m 573.54354,367.67292 -14.91982,-8.63161 15.29419,-8.81988 15.29419,-8.81988 14.28834,8.26926 c 7.85859,4.54809 14.62322,8.58788 15.0325,8.9773 0.66053,0.62847 -27.79023,17.72336 -29.41719,17.67558 -0.35881,-0.0105 -7.3663,-3.90338 -15.57221,-8.65077 z"
       id="path6002"
       transform="scale(0.26458333)" />
    <path
       style="fill:#ffffff;stroke:#ffffff;stroke-width:0.488757;paint-order:fill markers stroke"
       d="m 574.35803,330.3449 c -8.19184,-4.71895 -15.04647,-8.73214 -15.23253,-8.9182 -0.36956,-0.36955 29.20014,-17.41988 30.21061,-17.41988 1.63262,0 29.81842,17.10464 29.18224,17.70934 -0.40126,0.3814 -7.15028,4.40937 -14.99782,8.95105 l -14.26826,8.2576 z"
       id="path6080"
       transform="scale(0.26458333)" />
    <path
       style="fill:#ffffff;stroke:#ffffff;stroke-width:0.488757;paint-order:fill markers stroke"
       d="m 639.53847,292.47196 c -7.93008,-4.6432 -14.41833,-8.70588 -14.41833,-9.02818 0,-0.3223 6.64857,-4.41322 14.7746,-9.09093 l 14.77461,-8.50493 15.01413,8.57118 c 8.25778,4.71414 15.01017,8.79111 15.00533,9.05993 -0.009,0.51583 -29.70931,17.6527 -30.35566,17.51518 -0.207,-0.044 -6.8646,-3.87905 -14.79468,-8.52225 z"
       id="path6119"
       transform="scale(0.26458333)" />
    <path
       style="fill:#ffffff;stroke:#ffffff;stroke-width:0.488757;paint-order:fill markers stroke"
       d="m 574.04504,292.47196 c -7.93009,-4.6432 -14.41833,-8.68919 -14.41833,-8.99109 0,-0.3019 6.64667,-4.39391 14.77039,-9.09335 l 14.7704,-8.54444 15.01834,8.5736 c 8.26009,4.71547 15.01438,8.79353 15.00954,9.06235 -0.009,0.51583 -29.70931,17.6527 -30.35567,17.51518 -0.20699,-0.044 -6.86459,-3.87905 -14.79467,-8.52225 z"
       id="path6158"
       transform="scale(0.26458333)" />
    <path
       style="fill:#ffffff;stroke:#ffffff;stroke-width:0.488757;paint-order:fill markers stroke"
       d="m 508.86459,330.3449 c -8.19183,-4.71895 -15.04647,-8.73214 -15.23252,-8.9182 -0.35884,-0.35884 29.18485,-17.41988 30.16508,-17.41988 1.67259,0 29.91402,17.05363 29.26524,17.67186 -0.42187,0.40201 -7.18775,4.44685 -15.0353,8.98853 l -14.26825,8.2576 z"
       id="path6197"
       transform="scale(0.26458333)" />
    <path
       style="fill:#ffffff;stroke:#ffffff;stroke-width:0.488757;paint-order:fill markers stroke"
       d="m 508.05149,367.67372 -14.91844,-8.63082 15.31793,-8.80609 15.31793,-8.8061 14.26322,8.25468 c 7.84477,4.54007 14.59809,8.5733 15.00738,8.96272 0.66053,0.62847 -27.79023,17.72336 -29.41719,17.67558 -0.35881,-0.0105 -7.36568,-3.90303 -15.57083,-8.64997 z"
       id="path6236"
       transform="scale(0.26458333)" />
    <path
       style="fill:#ffffff;stroke:#ffffff;stroke-width:0.488757;paint-order:fill markers stroke"
       d="m 431.1325,300.2464 c 0.51076,-0.45534 6.80413,-4.20582 13.98527,-8.33441 l 13.05663,-7.50651 14.05219,0.26991 14.05219,0.26991 -14.00172,8.06449 -14.00172,8.06449 H 444.2396 c -7.74529,0 -13.61954,-0.37104 -13.1071,-0.82788 z"
       id="path6275"
       transform="scale(0.26458333)" />
    <path
       style="fill:#ffffff;stroke:#ffffff;stroke-width:0.488757;paint-order:fill markers stroke"
       d="m 431.1325,281.67363 c 0.51076,-0.45534 6.80464,-4.20611 13.98641,-8.33506 l 13.05777,-7.50718 13.6585,0.27057 13.65849,0.27058 -14.13311,8.06449 -14.13311,8.06449 h -13.51179 c -7.45912,0 -13.09581,-0.37086 -12.58316,-0.82789 z"
       id="path6314"
       transform="scale(0.26458333)" />
    <path
       style="fill:#ffffff;stroke:#ffffff;stroke-width:0.488757;paint-order:fill markers stroke"
       d="m 377.56474,292.44068 c -7.93008,-4.63212 -14.41833,-8.66655 -14.41833,-8.96538 0,-0.29884 6.65748,-4.39459 14.7944,-9.10167 l 14.7944,-8.55832 15.00655,8.58748 c 8.2536,4.72312 15.00106,8.80742 14.99434,9.07624 -0.0134,0.5376 -29.74142,17.65986 -30.36555,17.48948 -0.21311,-0.0582 -6.87573,-3.8957 -14.80581,-8.52783 z"
       id="path6353"
       transform="scale(0.26458333)" />
    <path
       style="fill:#ffffff;stroke:#ffffff;stroke-width:0.488757;paint-order:fill markers stroke"
       d="m 377.0687,254.25781 -14.91437,-8.64822 15.3658,-8.76604 15.3658,-8.76605 14.21128,8.20184 c 7.8162,4.51101 14.55645,8.54589 14.97832,8.9664 0.6842,0.682 -27.66577,17.7385 -29.39112,17.6829 -0.38573,-0.0124 -7.4128,-3.91431 -15.61571,-8.67083 z"
       id="path6392"
       transform="scale(0.26458333)" />
    <path
       style="fill:#ffffff;stroke:#ffffff;stroke-width:0.488757;paint-order:fill markers stroke"
       d="m 337.42896,242.17907 c -3.48292,-6.04837 -6.2005,-11.13924 -6.03907,-11.31305 0.31516,-0.33932 21.24734,11.53292 24.31513,13.79096 1.71378,1.26143 1.38966,1.61264 -4.55764,4.93856 -3.52145,1.96931 -6.62386,3.58056 -6.89424,3.58056 -0.27039,0 -3.34127,-4.94866 -6.82418,-10.99703 z"
       id="path6431"
       transform="scale(0.26458333)" />
    <path
       style="fill:#ffffff;stroke:#ffffff;stroke-width:0.488757;paint-order:fill markers stroke"
       d="m 377.5318,216.69852 -15.31946,-8.82153 14.88537,-8.61173 c 8.18695,-4.73645 15.22659,-8.62035 15.64365,-8.63089 1.74964,-0.0442 30.03369,16.98702 29.33354,17.66318 -0.42153,0.40708 -7.16929,4.44868 -14.99503,8.98132 l -14.22862,8.24118 z"
       id="path6470"
       transform="scale(0.26458333)" />
    <path
       style="fill:#ffffff;stroke:#ffffff;stroke-width:0.488757;paint-order:fill markers stroke"
       d="m 443.01101,216.69034 -15.30524,-8.81335 14.88537,-8.61173 c 8.18695,-4.73645 15.22659,-8.62035 15.64365,-8.63089 1.73969,-0.044 30.03524,16.98469 29.33354,17.65333 -0.42152,0.40166 -7.17568,4.43958 -15.00924,8.97314 l -14.24284,8.24284 z"
       id="path6509"
       transform="scale(0.26458333)" />
    <path
       style="fill:#ffffff;stroke:#ffffff;stroke-width:0.488757;paint-order:fill markers stroke"
       d="m 443.05817,179.05811 c -7.93008,-4.6467 -14.41833,-8.68913 -14.41833,-8.98316 0,-0.29403 6.64113,-4.37639 14.75806,-9.07191 l 14.75806,-8.5373 15.04681,8.56646 c 8.27574,4.71155 15.03955,8.7864 15.03068,9.05522 -0.0174,0.52694 -29.72621,17.65334 -30.36947,17.50725 -0.21311,-0.0484 -6.87572,-3.88985 -14.80581,-8.53656 z"
       id="path6548"
       transform="scale(0.26458333)" />
    <path
       style="fill:#ffffff;stroke:#ffffff;stroke-width:0.488757;paint-order:fill markers stroke"
       d="m 508.55161,179.08035 c -7.93009,-4.6432 -14.41833,-8.68919 -14.41833,-8.9911 0,-0.3019 6.64667,-4.3939 14.77039,-9.09334 l 14.7704,-8.54444 15.01834,8.57359 c 8.26009,4.71548 15.01834,8.79354 15.01834,9.06236 0,0.51798 -29.69239,17.65176 -30.35334,17.51518 -0.21311,-0.044 -6.87572,-3.87905 -14.8058,-8.52225 z"
       id="path6587"
       transform="scale(0.26458333)" />
    <path
       style="fill:#ffffff;stroke:#ffffff;stroke-width:0.488757;paint-order:fill markers stroke"
       d="m 508.05149,140.89049 -14.91844,-8.63081 15.31793,-8.8061 15.31793,-8.80609 14.26322,8.25467 c 7.84477,4.54008 14.59153,8.56673 14.99279,8.94813 0.67522,0.6418 -27.64047,17.73296 -29.30812,17.69018 -0.41078,-0.0105 -7.46016,-3.90303 -15.66531,-8.64998 z"
       id="path6626"
       transform="scale(0.26458333)" />
    <path
       style="fill:#ffffff;stroke:#ffffff;stroke-width:0.488757;paint-order:fill markers stroke"
       d="m 442.55806,140.89049 -14.91844,-8.63081 15.33215,-8.81427 15.33216,-8.81428 14.24899,8.25301 c 7.83695,4.53915 14.59417,8.58635 15.01604,8.99378 0.68621,0.66271 -27.67992,17.7093 -29.39112,17.66255 -0.38573,-0.0105 -7.41464,-3.90303 -15.61978,-8.64998 z"
       id="path6665"
       transform="scale(0.26458333)" />
    <path
       style="fill:#ffffff;stroke:#ffffff;stroke-width:0.488757;paint-order:fill markers stroke"
       d="m 442.98383,103.31433 -15.37652,-8.772154 14.9346,-8.640128 c 8.21403,-4.752071 15.27582,-8.648751 15.69288,-8.659289 1.73969,-0.04396 30.03524,16.98469 29.33354,17.653329 -0.42152,0.401664 -7.16577,4.433819 -14.9872,8.960342 l -14.22079,8.23005 z"
       id="path6704"
       transform="scale(0.26458333)" />
    <path
       style="fill:#ffffff;stroke:#ffffff;stroke-width:0.488757;paint-order:fill markers stroke"
       d="m 377.55432,103.31988 -15.29694,-8.808562 13.39658,-7.775388 c 7.36811,-4.276463 14.32428,-8.208547 15.45815,-8.737965 1.7182,-0.802254 4.53225,0.464018 16.89539,7.602624 8.15859,4.710861 14.48892,8.898269 14.0674,9.30535 -0.42153,0.40708 -7.16929,4.448676 -14.99503,8.981321 l -14.22862,8.24118 z"
       id="path6743"
       transform="scale(0.26458333)" />
    <path
       style="fill:#ffffff;stroke:#ffffff;stroke-width:0.488757;paint-order:fill markers stroke"
       d="m 377.56474,65.6665 c -7.93008,-4.646706 -14.41833,-8.682355 -14.41833,-8.968106 0,-0.285753 6.64782,-4.364294 14.77292,-9.063426 l 14.77293,-8.543875 15.03194,8.557978 c 8.26757,4.706888 15.03194,8.777919 15.03194,9.046735 0,0.513597 -29.78248,17.659472 -30.41019,17.50725 -0.19958,-0.0484 -6.85113,-3.88985 -14.78121,-8.536556 z"
       id="path6782"
       transform="scale(0.26458333)" />
    <path
       style="fill:#ffffff;stroke:#ffffff;stroke-width:0.488757;paint-order:fill markers stroke"
       d="m 312.07131,65.657458 c -7.93008,-4.632127 -14.41833,-8.66295 -14.41833,-8.957386 0,-0.294436 6.67943,-4.377582 14.84317,-9.073657 l 14.84316,-8.53832 14.95778,8.559477 c 8.22679,4.707713 14.95955,8.779418 14.9617,9.048234 0.004,0.524122 -29.79873,17.666564 -30.40627,17.489475 -0.19958,-0.05818 -6.85113,-3.895697 -14.78121,-8.527823 z"
       id="path6821"
       transform="scale(0.26458333)" />
    <path
       style="display:inline;mix-blend-mode:multiply;fill:#ffffff;stroke:#ffffff;stroke-width:0.488757;paint-order:fill markers stroke"
       d="m 147.80825,613.23699 c -7.95249,-4.62015 -14.33077,-8.5211 -14.17396,-8.66879 0.96573,-0.90956 29.43589,-17.08235 30.07132,-17.08235 0.60851,0 28.88545,16.06633 30.13973,17.12472 0.53524,0.45165 -29.04763,17.0891 -30.32971,17.05747 -0.68658,-0.0169 -7.7549,-3.81091 -15.70738,-8.43105 z"
       id="path4442"
       transform="scale(0.26458333)" />
    <path
       style="display:inline;mix-blend-mode:multiply;fill:#ffffff;stroke:#ffffff;stroke-width:0.488757;paint-order:fill markers stroke"
       d="m 772.79629,820.07124 c -4.45926,-7.01499 -7.94915,-12.90885 -7.75532,-13.09746 0.19383,-0.18862 6.51075,-3.89984 14.03761,-8.24715 l 13.68519,-7.90421 0.26764,17.2719 c 0.1472,9.49955 -0.0728,17.58586 -0.48876,17.96959 -0.41602,0.38373 -3.2049,2.06213 -6.19751,3.72977 l -5.44112,3.03208 z"
       id="path5378"
       transform="scale(0.26458333)" />
    <path
       style="display:inline;mix-blend-mode:multiply;fill:#ffffff;stroke:#ffffff;stroke-width:0.488757;paint-order:fill markers stroke"
       d="m 789.09809,915.85196 c -2.01612,-3.25717 -3.66567,-6.32255 -3.66567,-6.81197 0,-0.48941 1.75952,-1.78749 3.91005,-2.88461 l 3.91006,-1.99476 v 8.81749 c 0,4.84962 -0.10997,8.81265 -0.24438,8.80673 -0.13441,-0.006 -1.89393,-2.67571 -3.91006,-5.93288 z"
       id="path5495"
       transform="scale(0.26458333)" />
  </g>
  <g
     inkscape:groupmode="layer"
     id="layer3"
     inkscape:label="Layer 3"
     style="display:inline;mix-blend-mode:multiply">
    <rect
       style="mix-blend-mode:multiply;fill:url(#meshgradient1525428);fill-opacity:1;stroke:#ffffff;stroke-width:0.116467;paint-order:fill markers stroke"
       id="rect7034"
       width="210.04401"
       height="243.67461"
       x="0.058233805"
       y="0.058233529" />
    <path
       id="path2432"
       style="mix-blend-mode:multiply;fill:none;stroke:#ffffff;stroke-width:0.264583px;stroke-linecap:butt;stroke-linejoin:miter;stroke-opacity:1"
       d="M 86.660428,5.0018771 129.9617,30.001875 m -17.32051,0 17.32051,-9.999998 m -25.98076,5 17.32051,-10 m -25.980762,5 17.320502,-10 m -25.980762,5 17.320512,-9.9999999 M 121.30145,35.001876 78.000178,10.001877 95.320688,0.0018771 138.62196,25.001877 Z m -17.32051,19.999999 43.30127,-25 m -17.32051,0 17.32051,10.000001 m -25.98076,-5 17.32051,10.000001 m -25.98077,-5.000001 17.32051,10.000001 m -25.98076,-5 17.32051,9.999998 m -25.980762,-4.999998 43.301272,-25 17.32051,9.999999 -43.30128,25 z m -8.66026,4.999998 25.980762,15.000002 M 90.889938,62.559968 103.98094,55.001875 M 95.320688,70.001877 112.64119,60.001876 m -8.66025,14.999999 -8.660252,-4.999998 -8.66026,-15.000002 8.66026,-4.999998 25.980762,14.999999 -17.32051,9.999999 m 8.66026,-0.107599 17.3205,-9.931934 m -17.32051,5.039535 h 17.32051 m -8.66025,4.999998 17.32051,-9.999999 h -17.32051 l -17.32051,9.999999 h 17.32051 m 28.09602,76.221245 6.545,3.77876 m -17.32051,-30 v 10 m 8.66025,-15 v 10 m 25.98076,15 -25.98076,-15 m 25.98076,5 -17.3205,10 m 8.66025,-15 -17.32051,10 m 8.66026,-15 -17.32051,10 m 43.30127,5 -25.98076,-15 v -10 l -25.98077,15 25.98077,15 8.66025,5 m -8.66025,-55.000003 17.3205,-10.000001 m -8.66025,15.000004 17.32051,-10.000004 m -8.66026,15.000004 17.32051,-10.000003 m -34.64101,-10.000001 34.64101,20.000004 m -43.30127,-15.000004 34.64102,20.000004 m -8.66026,35 36.76998,57.57023 m -45.43023,-52.57023 45.53608,71.30642 m 4.03181,22.66525 -2.24276,-1.29485 m -4.58671,-7.35187 2.76289,-1.59515 m -7.54569,-5.64349 7.50244,-4.33154 m -12.13359,-2.99467 12.14443,-7.01159 m -16.75048,-0.32911 16.73621,-9.66265 m -21.47023,2.39584 21.51006,-12.41883 m -26.14651,5.09569 25.89273,-14.94917 m -30.57655,7.65337 25.91253,-14.9606 m -30.64655,7.69379 26.01928,-15.02224 m -30.61084,7.67318 25.99561,-15.00857 m -30.70453,7.72726 25.97439,-14.99631 m -30.53695,7.63052 25.96434,-14.99053 m -4.71091,-7.28015 -25.83334,14.91488 m -0.14742,0.0851 25.98076,-15 28.20185,44.14444 0.009,55.72352 z m 43.30127,-55 10.77815,-6.222773 m -19.4384,1.22279 17.32051,-10.000001 m -25.98076,5 17.3205,-10.000001 m -25.98076,5.000001 17.32051,-10.000001 m -17.32051,0 36.797,21.244762 m -36.79699,28.755243 36.81633,-21.25592 m -19.49583,1.25592 17.32051,10 m -25.98076,-5 17.3205,10 m -25.98076,-5 17.32051,10 m -25.98076,-5 17.32051,10 m -17.3205,-10 17.3205,10 28.27352,-16.32373 -0.22623,-7.48315 -10.72679,-6.19312 z m -1e-5,-40.000005 45.36781,26.193125 0.0369,-19.978708 -28.0842,-16.214415 m -17.32051,-10 17.32051,10.000001 m -25.98077,-5.000001 17.32051,10.000001 m -25.98076,-5.000001 17.32051,10.000001 m -25.98076,-5.000001 17.32051,10.000001 m -25.98077,-5.000002 17.32051,10.000001 m -17.32051,0 43.30128,-25 m -51.96153,19.999999 17.32051,10.000001 43.30127,-25 -17.32051,-10 -43.30127,24.999999 M 8.718147,130.00188 l -8.660254,5 m 77.942285,-5 -51.961523,30 m -25.980762,-25 43.301269,25 m -43.301269,-15 17.320508,-10 m -8.660254,15 17.320508,-10 m -8.660254,15 17.320509,-10 m 0,0 17.320506,10 m -8.660254,-15 17.320508,10 m -8.660254,-15 17.320508,10 m 8.660254,-5 -17.320508,-10 m 25.980768,5 -51.961528,30 -34.641017,-20 v -20 l 34.641017,20 34.641014,-20 z m 5.65342,-6.736 -17.34153,-10.01213 m 23.36129,3.48765 -17.571,-10.14462 m -2.76244,18.4051 17.32051,-20 m 8.660252,5 -17.320502,20 -17.320514,-10 17.320514,-20 17.320502,10 M 52.019416,15.001877 95.320688,90.001876 m -12.9959,-2.496814 17.26704,-9.969132 m -21.59165,2.465945 17.32051,-9.999998 M 73.531403,72.581924 90.889948,62.559968 M 69.339924,65.001876 86.660438,55.001875 M 65.056976,57.474637 82.301518,47.518498 M 60.67967,50.001877 78.000178,40.001876 M 56.233583,42.568827 73.713087,32.477029 m -21.693671,2.524847 17.320508,-9.999999 m -21.77675,2.572814 17.530008,-10.120956 m -21.73402,2.548142 43.301276,75 L 103.98094,85.001876 60.67967,10.001877 Z M 95.320688,90.001876 129.9617,110.00188 m -34.641012,-10 17.320502,-10.000004 m -8.66025,15.000004 17.3205,-10.000003 m -8.66025,15.000003 17.32051,-10 m -8.66026,15 -34.641002,-20.000003 17.320502,-10.000001 34.64101,20.000004 m 8.66026,5 -25.98077,15 m 8.66026,-15 17.32051,10 m -25.98077,-5 17.32051,10 m -25.98076,-5 25.98076,-15 17.32051,10 -25.98076,15 z m -6.52325,6.2338 43.27953,24.98744 m -49.689252,-18.6881 43.279522,24.98744 M 93.160508,138.7547 136.44003,163.74214 m -15.13858,1.25974 25.98076,-25 m -34.64102,20 25.98076,-25 m -34.64101,20 25.98076,-25 m -34.641012,20 25.980752,-25 m 34.64102,20 -43.30127,-25 -25.980762,25 43.301272,25 z m -77.942282,5 43.301272,25 m -51.961525,-20 43.301265,25 m -60.621773,-15 43.301271,25 m -34.641017,-30 43.301269,25 m -25.980762,5 43.301272,-25 m -51.961525,20 43.301275,-25 m -51.96153,20 43.30127,-25 m -51.961524,20 43.301272,-25 m -51.961526,20 43.301276,-25 43.301262,25 -43.301262,25 -43.301276,-25" />
    <path
       style="mix-blend-mode:multiply;fill:#ff5555;stroke:#ffffff;stroke-width:0.129317;paint-order:fill markers stroke"
       d=""
       id="path4637" />
    <path
       style="mix-blend-mode:multiply;fill:#ff5555;stroke:#ffffff;stroke-width:0.129317;paint-order:fill markers stroke"
       d=""
       id="path6041" />
  </g>
  <g
     inkscape:label="Layer 1"
     inkscape:groupmode="layer"
     id="layer1"
     style="display:inline;mix-blend-mode:normal"
     transform="translate(0.0578927,-4.9981229)">
    <g
       id="g2030"
       transform="translate(-25.980764,-5.0000001)"
       style="display:inline;mix-blend-mode:multiply;fill:none;stroke:#ffffff">
      <rect
         style="fill:none;fill-opacity:1;stroke:#ffffff;stroke-width:0.116467;paint-order:fill markers stroke"
         id="rect2022"
         width="210.04401"
         height="243.67461"
         x="25.981106"
         y="10.056356" />
      <path
         id="path2024"
         style="fill:none;stroke:#ffffff;stroke-width:0.264583px;stroke-linecap:butt;stroke-linejoin:miter;stroke-opacity:1"
         d="m 112.5833,15 43.30127,24.999998 m -17.32051,0 L 155.88457,30 m -25.98076,5 17.32051,-10 m -25.98076,5 17.3205,-10 M 112.5833,25 129.90381,15 M 147.22432,44.999999 103.92305,20 121.24356,10 164.54483,35 Z m -17.32051,19.999999 43.30127,-25 m -17.32051,0 17.32051,10.000001 m -25.98076,-5 L 164.54483,55 M 138.56406,49.999999 155.88457,60 m -25.98076,-5 17.32051,9.999998 M 121.24356,60 l 43.30127,-25 17.32051,9.999999 -43.30128,25 z M 112.5833,64.999998 138.56406,80 m -21.75125,-7.441909 13.091,-7.558093 M 121.24356,80 138.56406,69.999999 M 129.90381,84.999998 121.24356,80 112.5833,64.999998 121.24356,60 l 25.98076,14.999999 -17.32051,9.999999 m 8.66026,-0.107599 17.3205,-9.931934 M 138.56406,80 h 17.32051 m -8.66025,4.999998 17.32051,-9.999999 h -17.32051 l -17.32051,9.999999 h 17.32051 m 28.09602,76.221242 6.545,3.77876 m -17.32051,-30 v 10 m 8.66025,-15 v 10 m 25.98076,15 -25.98076,-15 m 25.98076,5 -17.3205,10 m 8.66025,-15 -17.32051,10 m 8.66026,-15 -17.32051,10 m 43.30127,5 -25.98076,-15 v -10 l -25.98077,15 25.98077,15 8.66025,5 m -8.66025,-55 17.3205,-10.000001 M 190.52559,110 207.8461,99.999999 M 199.18584,115 216.50635,105 M 181.86534,94.999999 216.50635,115 M 173.20508,99.999999 207.8461,120 m -8.66026,35 36.76998,57.57023 M 190.52559,160 l 45.53608,71.30642 m 4.03181,22.66525 -2.24276,-1.29485 m -4.58671,-7.35187 2.76289,-1.59515 m -7.54569,-5.64349 7.50244,-4.33154 m -12.13359,-2.99467 12.14443,-7.01159 m -16.75048,-0.32911 16.73621,-9.66265 m -21.47023,2.39584 21.51006,-12.41883 m -26.14651,5.09569 25.89273,-14.94917 m -30.57655,7.65337 25.91253,-14.9606 m -30.64655,7.69379 26.01928,-15.02224 m -30.61084,7.67318 25.99561,-15.00857 m -30.70453,7.72726 25.97439,-14.99631 m -30.53695,7.63052 25.96434,-14.99053 M 207.84609,150 182.01275,164.91488 m -0.14742,0.0851 25.98076,-15 28.20185,44.14444 0.009,55.72352 z m 43.30127,-55 10.77815,-6.22277 M 216.50635,105 233.82686,94.999999 m -25.98076,5 17.3205,-10.000001 m -25.98076,5.000001 17.32051,-10.000001 m -17.32051,0 36.797,21.244762 M 199.18585,135 236.00218,113.74408 M 216.50635,115 l 17.32051,10 m -25.98076,-5 17.3205,10 m -25.98076,-5 17.32051,10 m -25.98076,-5 17.32051,10 m -17.3205,-10 17.3205,10 28.27352,-16.32373 -0.22623,-7.48315 L 225.1666,110 Z m -1e-5,-40.000002 45.36781,26.193122 0.0369,-19.978705 L 207.8461,80 M 190.52559,70 207.8461,80.000001 M 181.86533,75 199.18584,85.000001 M 173.20508,80 190.52559,90.000001 M 164.54483,85 181.86534,95.000001 M 155.88457,89.999999 173.20508,100 m -17.32051,0 43.30128,-25 M 147.22432,94.999999 164.54483,105 207.8461,80 190.52559,70 147.22432,94.999999 M 34.641019,140 l -8.660254,5 m 77.942285,-5 -51.961523,30 M 25.980765,145 69.282034,170 M 25.980765,155 43.301273,145 m -8.660254,15 17.320508,-10 m -8.660254,15 17.320509,-10 m 0,0 17.320506,10 m -8.660254,-15 17.320508,10 m -8.660254,-15 17.320508,10 m 8.660254,-5 -17.320508,-10 m 25.980768,5 -51.961528,30 -34.641017,-20 v -20 l 34.641017,20 34.641014,-20 z m 5.65342,-6.736 -17.34153,-10.01213 m 23.36129,3.48765 -17.571,-10.14462 M 103.92305,140 121.24356,120 m 8.66025,5 -17.3205,20 -17.320514,-10 17.320514,-20 17.3205,10 M 77.942288,25 121.24356,99.999999 m -12.9959,-2.496814 17.26704,-9.969132 M 103.92305,89.999998 121.24356,80 M 99.454275,82.580047 116.81282,72.558091 M 95.262796,74.999999 112.58331,64.999998 M 90.979848,67.47276 108.22439,57.516621 M 86.602542,60 103.92305,49.999999 M 82.156455,52.56695 99.635959,42.475152 M 77.942288,44.999999 95.262796,35 M 73.486046,37.572814 91.016054,27.451858 M 69.282034,30 112.58331,105 129.90381,94.999999 86.602542,20 Z M 121.24356,99.999999 155.88457,120 m -34.64101,-10 17.3205,-10.000001 M 129.90381,115 l 17.3205,-10 m -8.66025,15 17.32051,-10 m -8.66026,15 -34.641,-20 17.3205,-10.000001 L 164.54482,115 m 8.66026,5 -25.98077,15 m 8.66026,-15 17.32051,10 m -25.98077,-5 17.32051,10 m -25.98076,-5 25.98076,-15 17.32051,10 -25.98076,15 z m -6.52325,6.2338 43.27953,24.98744 m -49.68925,-18.6881 43.27952,24.98744 m -49.82723,-18.76776 43.27952,24.98744 M 147.22432,175 173.20508,150 m -34.64102,20 25.98076,-25 m -34.64101,20 25.98076,-25 m -34.64101,20 25.98075,-25 m 34.64102,20 -43.30127,-25 -25.98076,25 43.30127,25 z m -77.94228,5 43.30127,25 m -51.961523,-20 43.301263,25 m -60.621771,-15 43.301271,25 m -34.641017,-30 43.301267,25 m -25.98076,5 43.30127,-25 m -51.961523,20 43.301273,-25 m -51.961528,20 43.301268,-25 m -51.961522,20 43.301272,-25 m -51.961526,20 43.301276,-25 43.30126,25 -43.30126,25 -43.301276,-25" />
      <path
         style="fill:none;stroke:#ffffff;stroke-width:0.488757;paint-order:fill markers stroke"
         d=""
         id="path2026"
         transform="matrix(0.26458333,0,0,0.26458333,25.980765,5)" />
      <path
         style="fill:none;stroke:#ffffff;stroke-width:0.488757;paint-order:fill markers stroke"
         d=""
         id="path2028"
         transform="matrix(0.26458333,0,0,0.26458333,25.980765,5)" />
    </g>
  </g>
  <script
     id="mesh_polyfill"
     type="text/javascript">
!function(){const t=&quot;http://www.w3.org/2000/svg&quot;,e=&quot;http://www.w3.org/1999/xlink&quot;,s=&quot;http://www.w3.org/1999/xhtml&quot;,r=2;if(document.createElementNS(t,&quot;meshgradient&quot;).x)return;const n=(t,e,s,r)=&gt;{let n=new x(.5*(e.x+s.x),.5*(e.y+s.y)),o=new x(.5*(t.x+e.x),.5*(t.y+e.y)),i=new x(.5*(s.x+r.x),.5*(s.y+r.y)),a=new x(.5*(n.x+o.x),.5*(n.y+o.y)),h=new x(.5*(n.x+i.x),.5*(n.y+i.y)),l=new x(.5*(a.x+h.x),.5*(a.y+h.y));return[[t,o,a,l],[l,h,i,r]]},o=t=&gt;{let e=t[0].distSquared(t[1]),s=t[2].distSquared(t[3]),r=.25*t[0].distSquared(t[2]),n=.25*t[1].distSquared(t[3]),o=e&gt;s?e:s,i=r&gt;n?r:n;return 18*(o&gt;i?o:i)},i=(t,e)=&gt;Math.sqrt(t.distSquared(e)),a=(t,e)=&gt;t.scale(2/3).add(e.scale(1/3)),h=t=&gt;{let e,s,r,n,o,i,a,h=new g;return t.match(/(\w+\(\s*[^)]+\))+/g).forEach(t=&gt;{let l=t.match(/[\w.-]+/g),d=l.shift();switch(d){case&quot;translate&quot;:2===l.length?e=new g(1,0,0,1,l[0],l[1]):(console.error(&quot;mesh.js: translate does not have 2 arguments!&quot;),e=new g(1,0,0,1,0,0)),h=h.append(e);break;case&quot;scale&quot;:1===l.length?s=new g(l[0],0,0,l[0],0,0):2===l.length?s=new g(l[0],0,0,l[1],0,0):(console.error(&quot;mesh.js: scale does not have 1 or 2 arguments!&quot;),s=new g(1,0,0,1,0,0)),h=h.append(s);break;case&quot;rotate&quot;:if(3===l.length&amp;&amp;(e=new g(1,0,0,1,l[1],l[2]),h=h.append(e)),l[0]){r=l[0]*Math.PI/180;let t=Math.cos(r),e=Math.sin(r);Math.abs(t)&lt;1e-16&amp;&amp;(t=0),Math.abs(e)&lt;1e-16&amp;&amp;(e=0),a=new g(t,e,-e,t,0,0),h=h.append(a)}else console.error(&quot;math.js: No argument to rotate transform!&quot;);3===l.length&amp;&amp;(e=new g(1,0,0,1,-l[1],-l[2]),h=h.append(e));break;case&quot;skewX&quot;:l[0]?(r=l[0]*Math.PI/180,n=Math.tan(r),o=new g(1,0,n,1,0,0),h=h.append(o)):console.error(&quot;math.js: No argument to skewX transform!&quot;);break;case&quot;skewY&quot;:l[0]?(r=l[0]*Math.PI/180,n=Math.tan(r),i=new g(1,n,0,1,0,0),h=h.append(i)):console.error(&quot;math.js: No argument to skewY transform!&quot;);break;case&quot;matrix&quot;:6===l.length?h=h.append(new g(...l)):console.error(&quot;math.js: Incorrect number of arguments for matrix!&quot;);break;default:console.error(&quot;mesh.js: Unhandled transform type: &quot;+d)}}),h},l=t=&gt;{let e=[],s=t.split(/[ ,]+/);for(let t=0,r=s.length-1;t&lt;r;t+=2)e.push(new x(parseFloat(s[t]),parseFloat(s[t+1])));return e},d=(t,e)=&gt;{for(let s in e)t.setAttribute(s,e[s])},c=(t,e,s,r,n)=&gt;{let o,i,a=[0,0,0,0];for(let h=0;h&lt;3;++h)e[h]&lt;t[h]&amp;&amp;e[h]&lt;s[h]||t[h]&lt;e[h]&amp;&amp;s[h]&lt;e[h]?a[h]=0:(a[h]=.5*((e[h]-t[h])/r+(s[h]-e[h])/n),o=Math.abs(3*(e[h]-t[h])/r),i=Math.abs(3*(s[h]-e[h])/n),a[h]&gt;o?a[h]=o:a[h]&gt;i&amp;&amp;(a[h]=i));return a},u=[[1,0,0,0,0,0,0,0,0,0,0,0,0,0,0,0],[0,0,0,0,1,0,0,0,0,0,0,0,0,0,0,0],[-3,3,0,0,-2,-1,0,0,0,0,0,0,0,0,0,0],[2,-2,0,0,1,1,0,0,0,0,0,0,0,0,0,0],[0,0,0,0,0,0,0,0,1,0,0,0,0,0,0,0],[0,0,0,0,0,0,0,0,0,0,0,0,1,0,0,0],[0,0,0,0,0,0,0,0,-3,3,0,0,-2,-1,0,0],[0,0,0,0,0,0,0,0,2,-2,0,0,1,1,0,0],[-3,0,3,0,0,0,0,0,-2,0,-1,0,0,0,0,0],[0,0,0,0,-3,0,3,0,0,0,0,0,-2,0,-1,0],[9,-9,-9,9,6,3,-6,-3,6,-6,3,-3,4,2,2,1],[-6,6,6,-6,-3,-3,3,3,-4,4,-2,2,-2,-2,-1,-1],[2,0,-2,0,0,0,0,0,1,0,1,0,0,0,0,0],[0,0,0,0,2,0,-2,0,0,0,0,0,1,0,1,0],[-6,6,6,-6,-4,-2,4,2,-3,3,-3,3,-2,-1,-2,-1],[4,-4,-4,4,2,2,-2,-2,2,-2,2,-2,1,1,1,1]],f=t=&gt;{let e=[];for(let s=0;s&lt;16;++s){e[s]=0;for(let r=0;r&lt;16;++r)e[s]+=u[s][r]*t[r]}return e},p=(t,e,s)=&gt;{const r=e*e,n=s*s,o=e*e*e,i=s*s*s;return t[0]+t[1]*e+t[2]*r+t[3]*o+t[4]*s+t[5]*s*e+t[6]*s*r+t[7]*s*o+t[8]*n+t[9]*n*e+t[10]*n*r+t[11]*n*o+t[12]*i+t[13]*i*e+t[14]*i*r+t[15]*i*o},y=t=&gt;{let e=[],s=[],r=[];for(let s=0;s&lt;4;++s)e[s]=[],e[s][0]=n(t[0][s],t[1][s],t[2][s],t[3][s]),e[s][1]=[],e[s][1].push(...n(...e[s][0][0])),e[s][1].push(...n(...e[s][0][1])),e[s][2]=[],e[s][2].push(...n(...e[s][1][0])),e[s][2].push(...n(...e[s][1][1])),e[s][2].push(...n(...e[s][1][2])),e[s][2].push(...n(...e[s][1][3]));for(let t=0;t&lt;8;++t){s[t]=[];for(let r=0;r&lt;4;++r)s[t][r]=[],s[t][r][0]=n(e[0][2][t][r],e[1][2][t][r],e[2][2][t][r],e[3][2][t][r]),s[t][r][1]=[],s[t][r][1].push(...n(...s[t][r][0][0])),s[t][r][1].push(...n(...s[t][r][0][1])),s[t][r][2]=[],s[t][r][2].push(...n(...s[t][r][1][0])),s[t][r][2].push(...n(...s[t][r][1][1])),s[t][r][2].push(...n(...s[t][r][1][2])),s[t][r][2].push(...n(...s[t][r][1][3]))}for(let t=0;t&lt;8;++t){r[t]=[];for(let e=0;e&lt;8;++e)r[t][e]=[],r[t][e][0]=s[t][0][2][e],r[t][e][1]=s[t][1][2][e],r[t][e][2]=s[t][2][2][e],r[t][e][3]=s[t][3][2][e]}return r};class x{constructor(t,e){this.x=t||0,this.y=e||0}toString(){return`(x=${this.x}, y=${this.y})`}clone(){return new x(this.x,this.y)}add(t){return new x(this.x+t.x,this.y+t.y)}scale(t){return void 0===t.x?new x(this.x*t,this.y*t):new x(this.x*t.x,this.y*t.y)}distSquared(t){let e=this.x-t.x,s=this.y-t.y;return e*e+s*s}transform(t){let e=this.x*t.a+this.y*t.c+t.e,s=this.x*t.b+this.y*t.d+t.f;return new x(e,s)}}class g{constructor(t,e,s,r,n,o){void 0===t?(this.a=1,this.b=0,this.c=0,this.d=1,this.e=0,this.f=0):(this.a=t,this.b=e,this.c=s,this.d=r,this.e=n,this.f=o)}toString(){return`affine: ${this.a} ${this.c} ${this.e} \n       ${this.b} ${this.d} ${this.f}`}append(t){t instanceof g||console.error(&quot;mesh.js: argument to Affine.append is not affine!&quot;);let e=this.a*t.a+this.c*t.b,s=this.b*t.a+this.d*t.b,r=this.a*t.c+this.c*t.d,n=this.b*t.c+this.d*t.d,o=this.a*t.e+this.c*t.f+this.e,i=this.b*t.e+this.d*t.f+this.f;return new g(e,s,r,n,o,i)}}class w{constructor(t,e){this.nodes=t,this.colors=e}paintCurve(t,e){if(o(this.nodes)&gt;r){const s=n(...this.nodes);let r=[[],[]],o=[[],[]];for(let t=0;t&lt;4;++t)r[0][t]=this.colors[0][t],r[1][t]=(this.colors[0][t]+this.colors[1][t])/2,o[0][t]=r[1][t],o[1][t]=this.colors[1][t];let i=new w(s[0],r),a=new w(s[1],o);i.paintCurve(t,e),a.paintCurve(t,e)}else{let s=Math.round(this.nodes[0].x);if(s&gt;=0&amp;&amp;s&lt;e){let r=4*(~~this.nodes[0].y*e+s);t[r]=Math.round(this.colors[0][0]),t[r+1]=Math.round(this.colors[0][1]),t[r+2]=Math.round(this.colors[0][2]),t[r+3]=Math.round(this.colors[0][3])}}}}class m{constructor(t,e){this.nodes=t,this.colors=e}split(){let t=[[],[],[],[]],e=[[],[],[],[]],s=[[[],[]],[[],[]]],r=[[[],[]],[[],[]]];for(let s=0;s&lt;4;++s){const r=n(this.nodes[0][s],this.nodes[1][s],this.nodes[2][s],this.nodes[3][s]);t[0][s]=r[0][0],t[1][s]=r[0][1],t[2][s]=r[0][2],t[3][s]=r[0][3],e[0][s]=r[1][0],e[1][s]=r[1][1],e[2][s]=r[1][2],e[3][s]=r[1][3]}for(let t=0;t&lt;4;++t)s[0][0][t]=this.colors[0][0][t],s[0][1][t]=this.colors[0][1][t],s[1][0][t]=(this.colors[0][0][t]+this.colors[1][0][t])/2,s[1][1][t]=(this.colors[0][1][t]+this.colors[1][1][t])/2,r[0][0][t]=s[1][0][t],r[0][1][t]=s[1][1][t],r[1][0][t]=this.colors[1][0][t],r[1][1][t]=this.colors[1][1][t];return[new m(t,s),new m(e,r)]}paint(t,e){let s,n=!1;for(let t=0;t&lt;4;++t)if((s=o([this.nodes[0][t],this.nodes[1][t],this.nodes[2][t],this.nodes[3][t]]))&gt;r){n=!0;break}if(n){let s=this.split();s[0].paint(t,e),s[1].paint(t,e)}else{new w([...this.nodes[0]],[...this.colors[0]]).paintCurve(t,e)}}}class b{constructor(t){this.readMesh(t),this.type=t.getAttribute(&quot;type&quot;)||&quot;bilinear&quot;}readMesh(t){let e=[[]],s=[[]],r=Number(t.getAttribute(&quot;x&quot;)),n=Number(t.getAttribute(&quot;y&quot;));e[0][0]=new x(r,n);let o=t.children;for(let t=0,r=o.length;t&lt;r;++t){e[3*t+1]=[],e[3*t+2]=[],e[3*t+3]=[],s[t+1]=[];let r=o[t].children;for(let n=0,o=r.length;n&lt;o;++n){let o=r[n].children;for(let r=0,i=o.length;r&lt;i;++r){let i=r;0!==t&amp;&amp;++i;let h,d=o[r].getAttribute(&quot;path&quot;),c=&quot;l&quot;;null!=d&amp;&amp;(c=(h=d.match(/\s*([lLcC])\s*(.*)/))[1]);let u=l(h[2]);switch(c){case&quot;l&quot;:0===i?(e[3*t][3*n+3]=u[0].add(e[3*t][3*n]),e[3*t][3*n+1]=a(e[3*t][3*n],e[3*t][3*n+3]),e[3*t][3*n+2]=a(e[3*t][3*n+3],e[3*t][3*n])):1===i?(e[3*t+3][3*n+3]=u[0].add(e[3*t][3*n+3]),e[3*t+1][3*n+3]=a(e[3*t][3*n+3],e[3*t+3][3*n+3]),e[3*t+2][3*n+3]=a(e[3*t+3][3*n+3],e[3*t][3*n+3])):2===i?(0===n&amp;&amp;(e[3*t+3][3*n+0]=u[0].add(e[3*t+3][3*n+3])),e[3*t+3][3*n+1]=a(e[3*t+3][3*n],e[3*t+3][3*n+3]),e[3*t+3][3*n+2]=a(e[3*t+3][3*n+3],e[3*t+3][3*n])):(e[3*t+1][3*n]=a(e[3*t][3*n],e[3*t+3][3*n]),e[3*t+2][3*n]=a(e[3*t+3][3*n],e[3*t][3*n]));break;case&quot;L&quot;:0===i?(e[3*t][3*n+3]=u[0],e[3*t][3*n+1]=a(e[3*t][3*n],e[3*t][3*n+3]),e[3*t][3*n+2]=a(e[3*t][3*n+3],e[3*t][3*n])):1===i?(e[3*t+3][3*n+3]=u[0],e[3*t+1][3*n+3]=a(e[3*t][3*n+3],e[3*t+3][3*n+3]),e[3*t+2][3*n+3]=a(e[3*t+3][3*n+3],e[3*t][3*n+3])):2===i?(0===n&amp;&amp;(e[3*t+3][3*n+0]=u[0]),e[3*t+3][3*n+1]=a(e[3*t+3][3*n],e[3*t+3][3*n+3]),e[3*t+3][3*n+2]=a(e[3*t+3][3*n+3],e[3*t+3][3*n])):(e[3*t+1][3*n]=a(e[3*t][3*n],e[3*t+3][3*n]),e[3*t+2][3*n]=a(e[3*t+3][3*n],e[3*t][3*n]));break;case&quot;c&quot;:0===i?(e[3*t][3*n+1]=u[0].add(e[3*t][3*n]),e[3*t][3*n+2]=u[1].add(e[3*t][3*n]),e[3*t][3*n+3]=u[2].add(e[3*t][3*n])):1===i?(e[3*t+1][3*n+3]=u[0].add(e[3*t][3*n+3]),e[3*t+2][3*n+3]=u[1].add(e[3*t][3*n+3]),e[3*t+3][3*n+3]=u[2].add(e[3*t][3*n+3])):2===i?(e[3*t+3][3*n+2]=u[0].add(e[3*t+3][3*n+3]),e[3*t+3][3*n+1]=u[1].add(e[3*t+3][3*n+3]),0===n&amp;&amp;(e[3*t+3][3*n+0]=u[2].add(e[3*t+3][3*n+3]))):(e[3*t+2][3*n]=u[0].add(e[3*t+3][3*n]),e[3*t+1][3*n]=u[1].add(e[3*t+3][3*n]));break;case&quot;C&quot;:0===i?(e[3*t][3*n+1]=u[0],e[3*t][3*n+2]=u[1],e[3*t][3*n+3]=u[2]):1===i?(e[3*t+1][3*n+3]=u[0],e[3*t+2][3*n+3]=u[1],e[3*t+3][3*n+3]=u[2]):2===i?(e[3*t+3][3*n+2]=u[0],e[3*t+3][3*n+1]=u[1],0===n&amp;&amp;(e[3*t+3][3*n+0]=u[2])):(e[3*t+2][3*n]=u[0],e[3*t+1][3*n]=u[1]);break;default:console.error(&quot;mesh.js: &quot;+c+&quot; invalid path type.&quot;)}if(0===t&amp;&amp;0===n||r&gt;0){let e=window.getComputedStyle(o[r]).stopColor.match(/^rgb\s*\(\s*(\d+)\s*,\s*(\d+)\s*,\s*(\d+)\s*\)$/i),a=window.getComputedStyle(o[r]).stopOpacity,h=255;a&amp;&amp;(h=Math.floor(255*a)),e&amp;&amp;(0===i?(s[t][n]=[],s[t][n][0]=Math.floor(e[1]),s[t][n][1]=Math.floor(e[2]),s[t][n][2]=Math.floor(e[3]),s[t][n][3]=h):1===i?(s[t][n+1]=[],s[t][n+1][0]=Math.floor(e[1]),s[t][n+1][1]=Math.floor(e[2]),s[t][n+1][2]=Math.floor(e[3]),s[t][n+1][3]=h):2===i?(s[t+1][n+1]=[],s[t+1][n+1][0]=Math.floor(e[1]),s[t+1][n+1][1]=Math.floor(e[2]),s[t+1][n+1][2]=Math.floor(e[3]),s[t+1][n+1][3]=h):3===i&amp;&amp;(s[t+1][n]=[],s[t+1][n][0]=Math.floor(e[1]),s[t+1][n][1]=Math.floor(e[2]),s[t+1][n][2]=Math.floor(e[3]),s[t+1][n][3]=h))}}e[3*t+1][3*n+1]=new x,e[3*t+1][3*n+2]=new x,e[3*t+2][3*n+1]=new x,e[3*t+2][3*n+2]=new x,e[3*t+1][3*n+1].x=(-4*e[3*t][3*n].x+6*(e[3*t][3*n+1].x+e[3*t+1][3*n].x)+-2*(e[3*t][3*n+3].x+e[3*t+3][3*n].x)+3*(e[3*t+3][3*n+1].x+e[3*t+1][3*n+3].x)+-1*e[3*t+3][3*n+3].x)/9,e[3*t+1][3*n+2].x=(-4*e[3*t][3*n+3].x+6*(e[3*t][3*n+2].x+e[3*t+1][3*n+3].x)+-2*(e[3*t][3*n].x+e[3*t+3][3*n+3].x)+3*(e[3*t+3][3*n+2].x+e[3*t+1][3*n].x)+-1*e[3*t+3][3*n].x)/9,e[3*t+2][3*n+1].x=(-4*e[3*t+3][3*n].x+6*(e[3*t+3][3*n+1].x+e[3*t+2][3*n].x)+-2*(e[3*t+3][3*n+3].x+e[3*t][3*n].x)+3*(e[3*t][3*n+1].x+e[3*t+2][3*n+3].x)+-1*e[3*t][3*n+3].x)/9,e[3*t+2][3*n+2].x=(-4*e[3*t+3][3*n+3].x+6*(e[3*t+3][3*n+2].x+e[3*t+2][3*n+3].x)+-2*(e[3*t+3][3*n].x+e[3*t][3*n+3].x)+3*(e[3*t][3*n+2].x+e[3*t+2][3*n].x)+-1*e[3*t][3*n].x)/9,e[3*t+1][3*n+1].y=(-4*e[3*t][3*n].y+6*(e[3*t][3*n+1].y+e[3*t+1][3*n].y)+-2*(e[3*t][3*n+3].y+e[3*t+3][3*n].y)+3*(e[3*t+3][3*n+1].y+e[3*t+1][3*n+3].y)+-1*e[3*t+3][3*n+3].y)/9,e[3*t+1][3*n+2].y=(-4*e[3*t][3*n+3].y+6*(e[3*t][3*n+2].y+e[3*t+1][3*n+3].y)+-2*(e[3*t][3*n].y+e[3*t+3][3*n+3].y)+3*(e[3*t+3][3*n+2].y+e[3*t+1][3*n].y)+-1*e[3*t+3][3*n].y)/9,e[3*t+2][3*n+1].y=(-4*e[3*t+3][3*n].y+6*(e[3*t+3][3*n+1].y+e[3*t+2][3*n].y)+-2*(e[3*t+3][3*n+3].y+e[3*t][3*n].y)+3*(e[3*t][3*n+1].y+e[3*t+2][3*n+3].y)+-1*e[3*t][3*n+3].y)/9,e[3*t+2][3*n+2].y=(-4*e[3*t+3][3*n+3].y+6*(e[3*t+3][3*n+2].y+e[3*t+2][3*n+3].y)+-2*(e[3*t+3][3*n].y+e[3*t][3*n+3].y)+3*(e[3*t][3*n+2].y+e[3*t+2][3*n].y)+-1*e[3*t][3*n].y)/9}}this.nodes=e,this.colors=s}paintMesh(t,e){let s=(this.nodes.length-1)/3,r=(this.nodes[0].length-1)/3;if(&quot;bilinear&quot;===this.type||s&lt;2||r&lt;2){let n;for(let o=0;o&lt;s;++o)for(let s=0;s&lt;r;++s){let r=[];for(let t=3*o,e=3*o+4;t&lt;e;++t)r.push(this.nodes[t].slice(3*s,3*s+4));let i=[];i.push(this.colors[o].slice(s,s+2)),i.push(this.colors[o+1].slice(s,s+2)),(n=new m(r,i)).paint(t,e)}}else{let n,o,a,h,l,d,u;const x=s,g=r;s++,r++;let w=new Array(s);for(let t=0;t&lt;s;++t){w[t]=new Array(r);for(let e=0;e&lt;r;++e)w[t][e]=[],w[t][e][0]=this.nodes[3*t][3*e],w[t][e][1]=this.colors[t][e]}for(let t=0;t&lt;s;++t)for(let e=0;e&lt;r;++e)0!==t&amp;&amp;t!==x&amp;&amp;(n=i(w[t-1][e][0],w[t][e][0]),o=i(w[t+1][e][0],w[t][e][0]),w[t][e][2]=c(w[t-1][e][1],w[t][e][1],w[t+1][e][1],n,o)),0!==e&amp;&amp;e!==g&amp;&amp;(n=i(w[t][e-1][0],w[t][e][0]),o=i(w[t][e+1][0],w[t][e][0]),w[t][e][3]=c(w[t][e-1][1],w[t][e][1],w[t][e+1][1],n,o));for(let t=0;t&lt;r;++t){w[0][t][2]=[],w[x][t][2]=[];for(let e=0;e&lt;4;++e)n=i(w[1][t][0],w[0][t][0]),o=i(w[x][t][0],w[x-1][t][0]),w[0][t][2][e]=n&gt;0?2*(w[1][t][1][e]-w[0][t][1][e])/n-w[1][t][2][e]:0,w[x][t][2][e]=o&gt;0?2*(w[x][t][1][e]-w[x-1][t][1][e])/o-w[x-1][t][2][e]:0}for(let t=0;t&lt;s;++t){w[t][0][3]=[],w[t][g][3]=[];for(let e=0;e&lt;4;++e)n=i(w[t][1][0],w[t][0][0]),o=i(w[t][g][0],w[t][g-1][0]),w[t][0][3][e]=n&gt;0?2*(w[t][1][1][e]-w[t][0][1][e])/n-w[t][1][3][e]:0,w[t][g][3][e]=o&gt;0?2*(w[t][g][1][e]-w[t][g-1][1][e])/o-w[t][g-1][3][e]:0}for(let s=0;s&lt;x;++s)for(let r=0;r&lt;g;++r){let n=i(w[s][r][0],w[s+1][r][0]),o=i(w[s][r+1][0],w[s+1][r+1][0]),c=i(w[s][r][0],w[s][r+1][0]),x=i(w[s+1][r][0],w[s+1][r+1][0]),g=[[],[],[],[]];for(let t=0;t&lt;4;++t){(d=[])[0]=w[s][r][1][t],d[1]=w[s+1][r][1][t],d[2]=w[s][r+1][1][t],d[3]=w[s+1][r+1][1][t],d[4]=w[s][r][2][t]*n,d[5]=w[s+1][r][2][t]*n,d[6]=w[s][r+1][2][t]*o,d[7]=w[s+1][r+1][2][t]*o,d[8]=w[s][r][3][t]*c,d[9]=w[s+1][r][3][t]*x,d[10]=w[s][r+1][3][t]*c,d[11]=w[s+1][r+1][3][t]*x,d[12]=0,d[13]=0,d[14]=0,d[15]=0,u=f(d);for(let e=0;e&lt;9;++e){g[t][e]=[];for(let s=0;s&lt;9;++s)g[t][e][s]=p(u,e/8,s/8),g[t][e][s]&gt;255?g[t][e][s]=255:g[t][e][s]&lt;0&amp;&amp;(g[t][e][s]=0)}}h=[];for(let t=3*s,e=3*s+4;t&lt;e;++t)h.push(this.nodes[t].slice(3*r,3*r+4));l=y(h);for(let s=0;s&lt;8;++s)for(let r=0;r&lt;8;++r)(a=new m(l[s][r],[[[g[0][s][r],g[1][s][r],g[2][s][r],g[3][s][r]],[g[0][s][r+1],g[1][s][r+1],g[2][s][r+1],g[3][s][r+1]]],[[g[0][s+1][r],g[1][s+1][r],g[2][s+1][r],g[3][s+1][r]],[g[0][s+1][r+1],g[1][s+1][r+1],g[2][s+1][r+1],g[3][s+1][r+1]]]])).paint(t,e)}}}transform(t){if(t instanceof x)for(let e=0,s=this.nodes.length;e&lt;s;++e)for(let s=0,r=this.nodes[0].length;s&lt;r;++s)this.nodes[e][s]=this.nodes[e][s].add(t);else if(t instanceof g)for(let e=0,s=this.nodes.length;e&lt;s;++e)for(let s=0,r=this.nodes[0].length;s&lt;r;++s)this.nodes[e][s]=this.nodes[e][s].transform(t)}scale(t){for(let e=0,s=this.nodes.length;e&lt;s;++e)for(let s=0,r=this.nodes[0].length;s&lt;r;++s)this.nodes[e][s]=this.nodes[e][s].scale(t)}}document.querySelectorAll(&quot;rect,circle,ellipse,path,text&quot;).forEach((r,n)=&gt;{let o=r.getAttribute(&quot;id&quot;);o||(o=&quot;patchjs_shape&quot;+n,r.setAttribute(&quot;id&quot;,o));const i=r.style.fill.match(/^url\(\s*&quot;?\s*#([^\s&quot;]+)&quot;?\s*\)/),a=r.style.stroke.match(/^url\(\s*&quot;?\s*#([^\s&quot;]+)&quot;?\s*\)/);if(i&amp;&amp;i[1]){const a=document.getElementById(i[1]);if(a&amp;&amp;&quot;meshgradient&quot;===a.nodeName){const i=r.getBBox();let l=document.createElementNS(s,&quot;canvas&quot;);d(l,{width:i.width,height:i.height});const c=l.getContext(&quot;2d&quot;);let u=c.createImageData(i.width,i.height);const f=new b(a);&quot;objectBoundingBox&quot;===a.getAttribute(&quot;gradientUnits&quot;)&amp;&amp;f.scale(new x(i.width,i.height));const p=a.getAttribute(&quot;gradientTransform&quot;);null!=p&amp;&amp;f.transform(h(p)),&quot;userSpaceOnUse&quot;===a.getAttribute(&quot;gradientUnits&quot;)&amp;&amp;f.transform(new x(-i.x,-i.y)),f.paintMesh(u.data,l.width),c.putImageData(u,0,0);const y=document.createElementNS(t,&quot;image&quot;);d(y,{width:i.width,height:i.height,x:i.x,y:i.y});let g=l.toDataURL();y.setAttributeNS(e,&quot;xlink:href&quot;,g),r.parentNode.insertBefore(y,r),r.style.fill=&quot;none&quot;;const w=document.createElementNS(t,&quot;use&quot;);w.setAttributeNS(e,&quot;xlink:href&quot;,&quot;#&quot;+o);const m=&quot;patchjs_clip&quot;+n,M=document.createElementNS(t,&quot;clipPath&quot;);M.setAttribute(&quot;id&quot;,m),M.appendChild(w),r.parentElement.insertBefore(M,r),y.setAttribute(&quot;clip-path&quot;,&quot;url(#&quot;+m+&quot;)&quot;),u=null,l=null,g=null}}if(a&amp;&amp;a[1]){const o=document.getElementById(a[1]);if(o&amp;&amp;&quot;meshgradient&quot;===o.nodeName){const i=parseFloat(r.style.strokeWidth.slice(0,-2))*(parseFloat(r.style.strokeMiterlimit)||parseFloat(r.getAttribute(&quot;stroke-miterlimit&quot;))||1),a=r.getBBox(),l=Math.trunc(a.width+i),c=Math.trunc(a.height+i),u=Math.trunc(a.x-i/2),f=Math.trunc(a.y-i/2);let p=document.createElementNS(s,&quot;canvas&quot;);d(p,{width:l,height:c});const y=p.getContext(&quot;2d&quot;);let g=y.createImageData(l,c);const w=new b(o);&quot;objectBoundingBox&quot;===o.getAttribute(&quot;gradientUnits&quot;)&amp;&amp;w.scale(new x(l,c));const m=o.getAttribute(&quot;gradientTransform&quot;);null!=m&amp;&amp;w.transform(h(m)),&quot;userSpaceOnUse&quot;===o.getAttribute(&quot;gradientUnits&quot;)&amp;&amp;w.transform(new x(-u,-f)),w.paintMesh(g.data,p.width),y.putImageData(g,0,0);const M=document.createElementNS(t,&quot;image&quot;);d(M,{width:l,height:c,x:0,y:0});let S=p.toDataURL();M.setAttributeNS(e,&quot;xlink:href&quot;,S);const k=&quot;pattern_clip&quot;+n,A=document.createElementNS(t,&quot;pattern&quot;);d(A,{id:k,patternUnits:&quot;userSpaceOnUse&quot;,width:l,height:c,x:u,y:f}),A.appendChild(M),o.parentNode.appendChild(A),r.style.stroke=&quot;url(#&quot;+k+&quot;)&quot;,g=null,p=null,S=null}}})}();
</script>
</svg>
