<svg width="280" height="279" viewBox="0 0 280 279" fill="none" xmlns="http://www.w3.org/2000/svg">
<path d="M255.393 92.7859L157.649 190.534C155.021 193.162 150.569 192.95 147.666 190.065L90.2142 132.612C89.4661 131.868 88.8734 130.982 88.4707 130.006C87.4175 127.457 87.8246 124.554 89.7452 122.629L187.493 24.8861C200.295 12.0796 217.442 4.37975 236.17 2.99467C236.612 2.9637 237.024 2.93275 237.457 2.91062L271.208 0.937011C272.323 0.887476 273.436 1.08157 274.468 1.50572C275.501 1.92986 276.428 2.57389 277.187 3.393C277.913 4.14101 278.477 5.03005 278.846 6.00511C279.214 6.98017 279.378 8.02053 279.328 9.06168L277.359 42.8125C277.333 43.255 277.306 43.6975 277.275 44.1002C275.899 62.8364 268.199 79.9839 255.393 92.7859Z" fill="#EF843D"/>
<path d="M95.3238 117.047L62.843 84.5663C62.843 84.5663 87.7213 57.1302 115.68 72.1979C132.385 81.1987 151.749 60.6217 151.749 60.6217L95.3238 117.047Z" fill="#BDA6FF"/>
<path d="M163.044 184.771L195.524 217.252C195.524 217.252 222.96 192.373 207.915 164.415C198.91 147.71 219.487 128.35 219.487 128.35L163.044 184.771Z" fill="#BDA6FF"/>
<path opacity="0.62" d="M151.01 61.3521L95.3238 117.043L62.843 84.5621C62.843 84.5621 87.7213 57.126 115.68 72.1716C118.587 73.7421 121.855 74.5262 125.158 74.4462C136.987 74.2648 148.107 64.1975 151.01 61.3521Z" fill="url(#paint0_linear_1510_6552)"/>
<path opacity="0.62" d="M151.036 61.3518L151.766 60.6217C151.766 60.6217 151.478 60.8916 151.036 61.3518Z" fill="url(#paint1_linear_1510_6552)"/>
<path opacity="0.62" d="M219.472 128.35L218.551 129.27C219.131 128.673 219.472 128.35 219.472 128.35Z" fill="url(#paint2_linear_1510_6552)"/>
<path opacity="0.62" d="M195.529 217.247L163.053 184.766L218.553 129.265C214.655 133.301 200.061 149.865 207.902 164.41C209.07 166.558 210.028 168.814 210.765 171.145C218.695 196.24 195.529 217.247 195.529 217.247Z" fill="url(#paint3_linear_1510_6552)"/>
<path d="M218.131 80.6896C228.369 80.6896 236.668 72.3903 236.668 62.1526C236.668 51.9149 228.369 43.6155 218.131 43.6155C207.893 43.6155 199.594 51.9149 199.594 62.1526C199.594 72.3903 207.893 80.6896 218.131 80.6896Z" fill="#F1F3FF"/>
<path opacity="0.62" d="M218.131 80.6896C228.369 80.6896 236.668 72.3903 236.668 62.1526C236.668 51.9149 228.369 43.6155 218.131 43.6155C207.893 43.6155 199.594 51.9149 199.594 62.1526C199.594 72.3903 207.893 80.6896 218.131 80.6896Z" fill="url(#paint4_linear_1510_6552)"/>
<path d="M218.134 83.2975C213.243 83.2945 208.505 81.596 204.726 78.4913C200.946 75.3866 198.36 71.0677 197.408 66.2703C196.456 61.4729 197.196 56.4939 199.503 52.1811C201.81 47.8684 205.541 44.4889 210.06 42.6182C214.579 40.7475 219.607 40.5013 224.287 41.9217C228.967 43.342 233.01 46.341 235.728 50.4077C238.445 54.4745 239.668 59.3575 239.189 64.2249C238.71 69.0924 236.558 73.6432 233.1 77.1022C231.137 79.0698 228.804 80.63 226.235 81.6931C223.667 82.7563 220.914 83.3016 218.134 83.2975ZM218.134 46.2367C214.447 46.2303 210.872 47.5032 208.018 49.8383C205.165 52.1733 203.21 55.4258 202.486 59.0414C201.763 62.6569 202.316 66.4114 204.051 69.6647C205.786 72.918 208.596 75.4686 212.002 76.8816C215.408 78.2946 219.198 78.4826 222.727 77.4133C226.256 76.344 229.304 74.0837 231.353 71.018C233.401 67.9522 234.323 64.2707 233.961 60.6014C233.598 56.9321 231.974 53.5021 229.365 50.8963C227.894 49.4166 226.144 48.2431 224.216 47.4433C222.288 46.6436 220.221 46.2335 218.134 46.2367Z" fill="#5A00C4"/>
<path d="M180.147 118.678C190.385 118.678 198.684 110.379 198.684 100.141C198.684 89.9034 190.385 81.6041 180.147 81.6041C169.91 81.6041 161.61 89.9034 161.61 100.141C161.61 110.379 169.91 118.678 180.147 118.678Z" fill="#F1F3FF"/>
<path opacity="0.62" d="M180.147 118.678C190.385 118.678 198.684 110.379 198.684 100.141C198.684 89.9034 190.385 81.6041 180.147 81.6041C169.91 81.6041 161.61 89.9034 161.61 100.141C161.61 110.379 169.91 118.678 180.147 118.678Z" fill="url(#paint5_linear_1510_6552)"/>
<path d="M180.151 121.293C175.26 121.29 170.522 119.591 166.742 116.487C162.963 113.382 160.377 109.063 159.425 104.266C158.473 99.4683 159.213 94.4892 161.52 90.1764C163.827 85.8637 167.558 82.4842 172.077 80.6135C176.596 78.7428 181.624 78.4967 186.304 79.9171C190.984 81.3374 195.027 84.3364 197.745 88.4031C200.462 92.4699 201.685 97.3529 201.206 102.22C200.727 107.088 198.575 111.639 195.117 115.098C193.153 117.065 190.82 118.625 188.252 119.688C185.684 120.751 182.931 121.296 180.151 121.293ZM180.151 84.2408C176.474 84.243 172.911 85.5201 170.07 87.8546C167.229 90.1891 165.285 93.4366 164.569 97.0437C163.854 100.651 164.411 104.394 166.146 107.636C167.882 110.879 170.687 113.419 174.085 114.824C177.484 116.23 181.264 116.414 184.782 115.345C188.301 114.275 191.34 112.019 193.381 108.961C195.423 105.902 196.341 102.23 195.979 98.571C195.617 94.9115 193.997 91.4908 191.396 88.8917C189.919 87.4172 188.165 86.2489 186.236 85.4538C184.306 84.6588 182.238 84.2525 180.151 84.2585V84.2408Z" fill="#5A00C4"/>
<path d="M277.282 44.1089L236.172 2.99899C236.615 2.96801 237.026 2.93706 237.46 2.91494L271.211 0.941328C275.636 0.684668 279.596 4.62312 279.335 9.07042L277.366 42.8212C277.34 43.2549 277.313 43.6841 277.282 44.1089Z" fill="#F1F3FF"/>
<path opacity="0.62" d="M277.282 44.1089L236.172 2.99899C236.615 2.96801 237.026 2.93706 237.46 2.91494L271.211 0.941328C275.636 0.684668 279.596 4.62312 279.335 9.07042L277.366 42.8212C277.34 43.2549 277.313 43.6841 277.282 44.1089Z" fill="url(#paint6_linear_1510_6552)"/>
<path d="M160.543 187.645L157.649 190.539C155.02 193.167 150.569 192.955 147.666 190.07L90.2136 132.618C87.3284 129.728 87.116 125.263 89.7445 122.635L92.6386 119.74L160.543 187.645Z" fill="#F1F3FF"/>
<path opacity="0.1" d="M154.993 192.032C153.695 192.391 152.324 192.392 151.024 192.036C149.725 191.68 148.546 190.98 147.612 190.01L90.1643 132.562C87.2746 129.673 87.0666 125.208 89.6952 122.579L92.5893 119.685L95.2444 122.34L94.6558 122.933C92.0273 125.562 92.2353 130.013 95.1249 132.912L152.572 190.364C153.27 191.063 154.091 191.629 154.993 192.032Z" fill="#5A00C4"/>
<path d="M126.847 205.463L105.562 184.178L123.669 166.07L141.826 184.227L137.374 190.537L126.847 205.463Z" fill="#5A00C4"/>
<path d="M114.211 156.623L96.1034 174.731L74.8184 153.446L92.6474 140.874L96.0548 138.467L114.211 156.623Z" fill="#5A00C4"/>
<path opacity="0.43" d="M277.197 3.40219L265.497 4.55267L263.921 4.71646C241.076 7.28473 219.777 17.5283 203.509 33.7721L97.4376 139.839L90.2157 132.617C89.4676 131.873 88.875 130.987 88.4722 130.011L191.335 27.1698C204.142 14.3678 221.285 6.66797 240.012 5.27846L241.3 5.19441L275.051 3.22512C275.769 3.18471 276.489 3.2504 277.188 3.41991L277.197 3.40219Z" fill="url(#paint7_linear_1510_6552)"/>
<path opacity="0.62" d="M43.1736 249.898L71.7602 278.485L124.876 203.487L107.232 185.839L43.1736 249.898Z" fill="url(#paint8_linear_1510_6552)"/>
<path opacity="0.62" d="M94.6589 173.274L76.3652 154.985L0 211.393L28.268 239.661L94.6589 173.274Z" fill="url(#paint9_linear_1510_6552)"/>
<path opacity="0.33" d="M151.013 61.3521L95.3265 117.043L77.5417 99.2581L125.161 74.4771C136.99 74.2647 148.11 64.1975 151.013 61.3521Z" fill="#5A00C4"/>
<path opacity="0.33" d="M195.529 217.248L163.053 184.768L167.385 180.785L195.733 209.15C206.605 196.981 209.938 181.98 210.778 171.147C218.695 196.242 195.529 217.248 195.529 217.248Z" fill="#5A00C4"/>
<path opacity="0.27" d="M96.0548 138.467L114.211 156.623L110.326 160.513L92.6474 140.874L96.0548 138.467Z" fill="#18003A"/>
<path opacity="0.27" d="M137.37 190.537L119.285 170.451L123.666 166.07L141.822 184.227L137.37 190.537Z" fill="#18003A"/>
<defs>
<linearGradient id="paint0_linear_1510_6552" x1="149.575" y1="89.9821" x2="38.912" y2="86.6966" gradientUnits="userSpaceOnUse">
<stop stop-color="#3939FA"/>
<stop offset="1" stop-color="white" stop-opacity="0"/>
</linearGradient>
<linearGradient id="paint1_linear_1510_6552" x1="151.73" y1="60.9954" x2="150.835" y2="60.9704" gradientUnits="userSpaceOnUse">
<stop stop-color="#3939FA"/>
<stop offset="1" stop-color="white" stop-opacity="0"/>
</linearGradient>
<linearGradient id="paint2_linear_1510_6552" x1="219.093" y1="128.453" x2="218.758" y2="129.895" gradientUnits="userSpaceOnUse">
<stop stop-color="#3939FA"/>
<stop offset="1" stop-color="white" stop-opacity="0"/>
</linearGradient>
<linearGradient id="paint3_linear_1510_6552" x1="198.284" y1="140.191" x2="170.638" y2="258.786" gradientUnits="userSpaceOnUse">
<stop stop-color="#3939FA"/>
<stop offset="1" stop-color="white" stop-opacity="0"/>
</linearGradient>
<linearGradient id="paint4_linear_1510_6552" x1="205.022" y1="49.0453" x2="231.234" y2="75.2575" gradientUnits="userSpaceOnUse">
<stop stop-color="#3939FA"/>
<stop offset="1" stop-color="white" stop-opacity="0"/>
</linearGradient>
<linearGradient id="paint5_linear_1510_6552" x1="167.04" y1="87.0319" x2="193.252" y2="113.244" gradientUnits="userSpaceOnUse">
<stop stop-color="#3939FA"/>
<stop offset="1" stop-color="white" stop-opacity="0"/>
</linearGradient>
<linearGradient id="paint6_linear_1510_6552" x1="246.328" y1="-7.15819" x2="287.438" y2="33.9515" gradientUnits="userSpaceOnUse">
<stop stop-color="#3939FA"/>
<stop offset="1" stop-color="white" stop-opacity="0"/>
</linearGradient>
<linearGradient id="paint7_linear_1510_6552" x1="254.874" y1="-1.48164" x2="88.3105" y2="131.595" gradientUnits="userSpaceOnUse">
<stop stop-color="white"/>
<stop offset="1" stop-color="white" stop-opacity="0"/>
</linearGradient>
<linearGradient id="paint8_linear_1510_6552" x1="115.653" y1="193.904" x2="56.1742" y2="250.739" gradientUnits="userSpaceOnUse">
<stop stop-color="white"/>
<stop offset="0.87529" stop-color="white" stop-opacity="0"/>
</linearGradient>
<linearGradient id="paint9_linear_1510_6552" x1="98.47" y1="155.574" x2="21.1479" y2="224.965" gradientUnits="userSpaceOnUse">
<stop stop-color="white"/>
<stop offset="0.9331" stop-color="white" stop-opacity="0"/>
</linearGradient>
</defs>
</svg>
