<svg width="577" height="576" viewBox="0 0 577 576" fill="none" xmlns="http://www.w3.org/2000/svg">
<path d="M381.007 369.587L206.63 195.21L195.815 206.025L370.192 380.402L381.007 369.587Z" fill="#5A00C4"/>
<path d="M243.973 397.31L239.909 399.096L221.136 407.35L214.153 410.428C210.907 411.857 207.304 412.272 203.818 411.618C200.332 410.963 197.126 409.27 194.619 406.76L169.461 381.606C166.952 379.099 165.26 375.892 164.606 372.406C163.952 368.92 164.367 365.318 165.797 362.072L176.686 337.314L178.911 332.253L188.867 342.204L243.973 397.31Z" fill="#F1F3FF"/>
<path opacity="0.33" d="M165.797 362.066C164.367 365.312 163.952 368.914 164.606 372.4C165.26 375.886 166.952 379.093 169.461 381.6L194.619 406.754C197.126 409.264 200.332 410.957 203.818 411.611C207.304 412.266 210.907 411.851 214.153 410.422L221.136 407.344L189.395 375.602C186.639 372.846 184.724 369.364 183.872 365.561C183.02 361.759 183.267 357.792 184.584 354.124L188.867 342.198L178.911 332.242L165.797 362.066Z" fill="#5A00C4"/>
<path d="M411.6 279.56L280.17 411.016C277.184 414 273.136 415.676 268.915 415.676C264.694 415.676 260.645 414 257.659 411.016L243.974 397.331L178.912 332.247L165.227 318.562C163.748 317.084 162.576 315.329 161.775 313.398C160.975 311.467 160.563 309.397 160.563 307.306C160.563 305.216 160.975 303.146 161.775 301.214C162.576 299.283 163.748 297.528 165.227 296.051L296.657 164.616C298.133 163.135 299.887 161.96 301.819 161.158C303.75 160.357 305.821 159.944 307.912 159.944C310.003 159.944 312.074 160.357 314.006 161.158C315.937 161.96 317.691 163.135 319.168 164.616L409.085 254.524L411.609 257.049C413.087 258.527 414.26 260.282 415.06 262.214C415.859 264.145 416.27 266.215 416.27 268.306C416.269 270.397 415.856 272.467 415.055 274.398C414.254 276.329 413.08 278.083 411.6 279.56Z" fill="#EF843D"/>
<path opacity="0.6" d="M185.865 290.155L314.599 161.421C311.64 160.055 308.334 159.63 305.126 160.201C301.918 160.773 298.962 162.314 296.657 164.618L165.227 296.052C163.748 297.53 162.576 299.285 161.775 301.216C160.975 303.147 160.563 305.217 160.563 307.307C160.563 309.398 160.975 311.468 161.775 313.399C162.576 315.33 163.748 317.085 165.227 318.563L178.912 332.248L188.868 342.204C188.868 342.204 164.308 313.664 185.865 290.155Z" fill="#FF5C00"/>
<path opacity="0.2" d="M411.599 279.558L280.169 411.015C277.183 413.998 273.134 415.674 268.913 415.674C264.692 415.674 260.644 413.998 257.658 411.015L243.972 397.329L233.898 387.255C234.337 387.554 260.538 413.174 268.977 405.403C305.151 372.101 405.57 279.321 410.886 272.94C416.163 266.634 409.233 254.818 409.074 254.55L411.599 257.074C414.577 260.057 416.251 264.1 416.251 268.316C416.251 272.532 414.577 276.575 411.599 279.558Z" fill="url(#paint0_linear_1543_4347)"/>
<path d="M454.985 188.566L421.321 154.899L423.318 152.898L454.114 183.694L508.204 66.1384L510.772 67.317L454.985 188.566Z" fill="#BDA6FF"/>
<path d="M502.175 68.5376L499.932 69.5666L496.221 71.2773L403.837 113.784L400.825 115.169L389.022 120.6L387.654 121.229L421.322 154.897L422.32 155.895L423.318 154.897L424.321 153.899L431.951 146.282L434.149 144.083L501.59 76.6379L504.915 73.3134L505.94 72.2887L516.089 62.1392L502.175 68.5376ZM499.581 74.6414L432.135 142.082L429.937 144.281L422.32 151.898L392.522 122.095L402.953 117.293L405.965 115.908L498.354 73.4101L501.432 71.9809L502.888 71.3125L501.779 72.4207L499.581 74.6414Z" fill="#BDA6FF"/>
<path d="M243.217 151.018L96.0015 3.80297C93.9011 1.70265 90.4958 1.70264 88.3955 3.80296L4.40369 87.7948C2.30337 89.8951 2.30334 93.3004 4.40366 95.4008L151.619 242.616C153.719 244.716 157.124 244.716 159.225 242.616L243.217 158.624C245.317 156.524 245.317 153.118 243.217 151.018Z" fill="#BDA6FF"/>
<path d="M572.42 480.216L425.205 333.001C423.104 330.901 419.699 330.901 417.599 333.001L333.607 416.993C331.507 419.093 331.507 422.499 333.607 424.599L480.822 571.814C482.922 573.914 486.328 573.914 488.428 571.814L572.42 487.822C574.52 485.722 574.52 482.317 572.42 480.216Z" fill="#BDA6FF"/>
<path opacity="0.62" d="M243.217 151.018L96.0015 3.80297C93.9011 1.70265 90.4958 1.70264 88.3955 3.80296L4.40369 87.7948C2.30337 89.8951 2.30334 93.3004 4.40366 95.4008L151.619 242.616C153.719 244.716 157.124 244.716 159.225 242.616L243.217 158.624C245.317 156.524 245.317 153.118 243.217 151.018Z" fill="url(#paint1_linear_1543_4347)"/>
<path opacity="0.62" d="M572.42 480.216L425.205 333.001C423.104 330.901 419.699 330.901 417.599 333.001L333.607 416.993C331.507 419.093 331.507 422.499 333.607 424.599L480.822 571.814C482.922 573.914 486.328 573.914 488.428 571.814L572.42 487.822C574.52 485.722 574.52 482.317 572.42 480.216Z" fill="url(#paint2_linear_1543_4347)"/>
<path d="M390.277 196.977L379.244 185.944L368.429 196.759L379.462 207.792L390.277 196.977Z" fill="#5A00C4"/>
<path opacity="0.3" d="M390.277 196.977L379.244 185.944L368.429 196.759L379.462 207.792L390.277 196.977Z" fill="url(#paint3_linear_1543_4347)"/>
<path opacity="0.32" d="M243.974 397.308L239.91 399.093L176.687 337.307L178.912 332.246L188.868 342.198V342.202L243.974 397.308Z" fill="url(#paint4_linear_1543_4347)"/>
<path d="M537.316 247.265C535.999 247.427 534.68 247.573 533.358 247.705C527.949 248.262 522.525 248.582 517.087 248.664C515.621 248.687 514.155 248.687 512.689 248.664C463.707 248.266 416.844 228.632 382.206 193.995C347.569 159.359 327.933 112.496 327.535 63.5135C327.535 62.0477 327.535 60.5818 327.535 59.116C327.617 53.6806 327.936 48.2569 328.493 42.845C328.625 41.5257 328.772 40.2065 328.933 38.8872L537.316 247.265Z" fill="#5A00C4"/>
<path opacity="0.32" d="M526.616 248.277C523.444 248.488 520.269 248.618 517.091 248.668C492.096 249.05 467.278 244.409 444.11 235.019C420.942 225.629 399.895 211.682 382.219 194.006C364.542 176.329 350.595 155.283 341.206 132.115C331.816 108.947 327.174 84.1289 327.556 59.1333C327.661 52.3701 328.13 45.6175 328.959 38.9045L352.354 62.2907C352.435 109.598 370.471 155.111 402.818 189.633C435.164 224.154 479.409 245.109 526.612 248.263L526.616 248.277Z" fill="url(#paint5_linear_1543_4347)"/>
<path opacity="0.32" d="M533.362 247.71C527.953 248.267 522.53 248.586 517.091 248.668C515.625 248.692 514.16 248.692 512.694 248.668L327.535 63.5137C327.535 62.0479 327.535 60.582 327.535 59.1162C327.617 53.6808 327.936 48.2571 328.493 42.8452L533.362 247.71Z" fill="url(#paint6_linear_1543_4347)"/>
<path d="M328.508 38.4582L317.693 49.2732L526.947 258.527L537.762 247.712L328.508 38.4582Z" fill="#BDA6FF"/>
<path d="M417.786 241.606L334.615 158.436L323.8 169.251L406.971 252.421L417.786 241.606Z" fill="#F1F3FF"/>
<path d="M513.314 77.8226C521.589 77.8226 528.297 71.1147 528.297 62.8401C528.297 54.5656 521.589 47.8577 513.314 47.8577C505.04 47.8577 498.332 54.5656 498.332 62.8401C498.332 71.1147 505.04 77.8226 513.314 77.8226Z" fill="#FF5C00"/>
<path d="M510.783 77.1487L499.001 65.3667C498.537 64.903 497.786 64.903 497.322 65.3667L494.654 68.0347C494.19 68.4984 494.19 69.2501 494.654 69.7138L506.436 81.4959C506.9 81.9596 507.652 81.9595 508.115 81.4959L510.783 78.8279C511.247 78.3642 511.247 77.6124 510.783 77.1487Z" fill="#5A00C4"/>
<path d="M204.488 197.351L167.883 160.741L210.416 118.208L206.994 114.787L164.461 157.32L128.788 121.647L171.321 79.1139L167.9 75.697L125.367 118.23L90.8769 83.7357L133.41 41.2025L129.989 37.7812L87.4556 80.3144L49.6674 42.5262L46.2461 45.9475L84.0343 83.7357L38.3921 129.378L41.809 132.799L87.4556 87.157L121.946 121.647L76.3034 167.294L79.7247 170.715L125.367 125.068L161.04 160.741L115.398 206.388L118.819 209.805L164.461 164.163L201.071 200.768L204.488 197.351Z" fill="#5A00C4"/>
<path d="M533.099 525.961L496.49 489.356L539.023 446.822L535.602 443.401L493.068 485.934L457.4 450.261L499.933 407.728L496.512 404.307L453.979 446.84L419.484 412.35L462.017 369.817L458.596 366.396L416.063 408.929L378.275 371.14L374.858 374.562L412.646 412.35L366.999 457.992L370.421 461.413L416.063 415.767L450.557 450.261L404.915 495.904L408.332 499.325L453.979 453.683L489.651 489.356L444.005 534.998L447.426 538.419L493.068 492.772L529.678 529.382L533.099 525.961Z" fill="#5A00C4"/>
<path opacity="0.33" d="M290.191 334.024C315.717 334.024 336.409 313.331 336.409 287.806C336.409 262.28 315.717 241.587 290.191 241.587C264.665 241.587 243.973 262.28 243.973 287.806C243.973 313.331 264.665 334.024 290.191 334.024Z" fill="#5A00C4"/>
<path d="M330.597 313.164C330.597 313.164 319.572 308.766 317.184 307.504C314.796 306.242 301.956 300.776 301.956 300.776C301.956 300.776 295.425 306.536 297.558 311.158C297.558 311.158 310.056 315.666 317.787 317.486L330.597 313.164Z" fill="#FFC7AE"/>
<path d="M303.349 300.439C303.137 300.659 302.935 300.879 302.737 301.103C300.205 303.972 298.482 307.463 297.746 311.218C297.637 311.759 297.564 312.307 297.526 312.858L287.412 305.716L283.766 303.139L280.763 309.12C280.593 309.622 280.362 310.102 280.077 310.549C279.034 312.255 277.157 314.305 275.881 314.854C275.666 314.947 275.442 315.039 275.226 315.123L274.971 315.224C274.703 315.334 274.435 315.435 274.166 315.532C274.094 315.562 274.021 315.588 273.946 315.611C273.722 315.694 273.507 315.773 273.274 315.844C273.041 315.914 272.72 316.033 272.438 316.116C272.267 316.174 272.091 316.226 271.915 316.275C271.872 316.292 271.828 316.305 271.783 316.314L271.282 316.455L270.648 316.622C270.406 316.688 270.165 316.745 269.923 316.798C269.527 316.895 269.131 316.978 268.735 317.057L268.098 317.176L267.46 317.286L267.245 317.321C267.047 317.356 266.853 317.383 266.655 317.409C266.457 317.436 266.216 317.475 265.96 317.502L265.543 317.55C265.332 317.576 265.103 317.598 264.901 317.616L264.426 317.66H264.136L263.625 317.695C263.309 317.717 262.997 317.73 262.684 317.744H262.13C260.279 317.79 258.427 317.716 256.585 317.524C255.925 317.458 255.266 317.374 254.624 317.277C247.721 308.988 243.948 298.539 243.964 287.752C243.964 286.38 244.024 285.023 244.144 283.68C244.184 283.165 244.241 282.651 244.303 282.141C252.179 285.531 258.15 283.218 267.28 280.452C268.88 279.957 270.544 279.701 272.218 279.691C272.933 279.69 273.647 279.736 274.355 279.828C274.694 279.872 275.028 279.925 275.358 279.99C276.024 280.115 276.682 280.278 277.328 280.479C277.665 280.584 278 280.698 278.331 280.822C278.589 280.915 278.844 281.017 279.096 281.125C279.912 281.465 280.707 281.854 281.475 282.29C285.055 284.3 288.124 287.185 290.635 289.841C291.792 291.059 292.834 292.233 293.74 293.249C297.825 297.845 303.349 300.439 303.349 300.439Z" fill="#F1F3FF"/>
<g opacity="0.12">
<path opacity="0.12" d="M277.338 280.532L276.512 282.036L276.428 282.181L276.323 282.374C275.391 282.066 274.414 281.917 273.433 281.934C271.27 281.934 267.932 282.374 263.592 284.533C258.187 287.207 250.628 286.908 244.155 283.724C244.194 283.21 244.251 282.695 244.313 282.185C252.189 285.576 258.161 283.262 267.29 280.496C268.89 280.002 270.554 279.745 272.229 279.736C272.943 279.734 273.657 279.78 274.366 279.872C274.704 279.916 275.039 279.969 275.368 280.035C276.034 280.162 276.692 280.328 277.338 280.532Z" fill="#9C9EF9"/>
</g>
<path d="M296.374 271.733H296.22C295.903 271.773 295.569 271.799 295.221 271.812C294.608 271.828 293.993 271.802 293.383 271.733H293.287C292.847 271.68 292.407 271.645 291.998 271.623C290.254 271.503 288.502 271.672 286.813 272.124C286.563 272.195 286.316 272.274 286.083 272.357C284.864 272.778 283.737 273.429 282.763 274.275C281.763 275.12 280.989 276.2 280.512 277.419L281.488 282.331L281.571 282.745L282.104 285.431C281.27 285.337 280.443 285.19 279.628 284.992C279.014 284.852 278.408 284.682 277.812 284.482C277.464 284.367 277.112 284.24 276.765 284.095H276.739C275.493 283.622 274.365 282.882 273.436 281.927C273.199 281.673 272.989 281.396 272.807 281.1C272.552 280.671 272.359 280.21 272.231 279.728C271.206 276.012 273.067 270.348 273.317 269.613C273.325 269.585 273.336 269.557 273.348 269.53C273.348 269.53 273.476 267.019 271.589 265.502C270.709 264.807 269.452 264.319 267.552 264.376C263.018 264.508 255.894 271.878 246.219 273.51C246.732 271.921 247.332 270.362 248.018 268.839C251.218 261.773 256.138 255.621 262.328 250.946C268.388 251.715 273.761 255.106 275.661 265.137C275.661 265.137 278.383 259.93 282.996 262.058C287.609 264.187 290.098 252.353 295.424 253.655C295.982 253.791 296.501 253.945 296.989 254.116C301.198 255.581 303.023 258.325 303.348 262.032C303.348 262.032 303.744 270.682 296.374 271.733Z" fill="#472300"/>
<path d="M286.079 272.371C287.882 271.729 290.235 271.404 293.282 271.747C303.837 272.943 303.348 262.032 303.348 262.032C303.023 258.308 301.198 255.563 296.99 254.117C298.061 255.277 298.989 256.563 299.751 257.947C303.23 263.963 301.343 269.165 296.484 270.291C292.403 271.236 282.051 263.176 278.731 266.681C277.192 268.286 281.114 270.674 286.079 272.371Z" fill="#301600"/>
<path d="M272.804 281.116C275.06 284.823 282.1 285.443 282.1 285.443L281.568 282.756C273.376 284.335 272.949 276.41 273.547 272.321C273.771 270.782 273.617 269.994 273.314 269.625C273.028 270.461 270.675 277.629 272.804 281.116Z" fill="#301600"/>
<path d="M280.482 295.388L287.799 288.853C287.799 288.853 293.076 292.322 296.806 287.094C301.093 281.06 295.926 271.139 295.926 271.139C295.926 271.139 291.713 272.234 288.235 269.908C281.951 265.7 278.736 266.671 278.736 266.671C278.736 266.671 277.9 274.024 280.055 278.483C280.055 278.483 277.997 275.977 276.41 276.082C272.645 276.337 276.797 286.333 281.467 283.202L277.949 286.72C277.949 286.72 276.537 292.723 280.482 295.388Z" fill="#FFC7AE"/>
<path d="M287.792 278.03C288.076 277.938 288.166 277.426 287.992 276.884C287.819 276.343 287.447 275.979 287.163 276.07C286.878 276.161 286.789 276.674 286.962 277.215C287.136 277.756 287.507 278.121 287.792 278.03Z" fill="black"/>
<path d="M295.434 276.332C295.719 276.241 295.809 275.728 295.635 275.187C295.461 274.646 295.09 274.281 294.805 274.372C294.521 274.464 294.431 274.977 294.605 275.518C294.779 276.059 295.15 276.423 295.434 276.332Z" fill="black"/>
<path d="M293.732 282.802C293.974 282.803 294.217 282.787 294.457 282.754C294.511 282.746 294.563 282.728 294.61 282.701C294.657 282.673 294.698 282.637 294.731 282.593C294.764 282.55 294.788 282.5 294.802 282.447C294.816 282.394 294.819 282.34 294.811 282.286C294.804 282.232 294.786 282.18 294.758 282.133C294.731 282.086 294.694 282.044 294.65 282.012C294.607 281.979 294.557 281.955 294.505 281.941C294.452 281.927 294.397 281.924 294.343 281.932C293.765 281.992 293.18 281.964 292.61 281.848C291.471 281.606 290.733 281.017 290.412 280.089C290.398 280.032 290.373 279.979 290.338 279.933C290.303 279.886 290.258 279.848 290.207 279.819C290.156 279.791 290.1 279.774 290.042 279.769C289.984 279.764 289.925 279.771 289.87 279.789C289.815 279.808 289.764 279.838 289.722 279.878C289.679 279.917 289.645 279.965 289.622 280.019C289.598 280.072 289.587 280.13 289.587 280.188C289.588 280.247 289.6 280.304 289.624 280.357C290.297 282.305 292.32 282.802 293.732 282.802Z" fill="#ED9572"/>
<path d="M291.916 272.733C291.977 272.732 292.037 272.718 292.092 272.692C292.147 272.667 292.196 272.63 292.237 272.584C293.684 270.825 295.658 272.025 295.755 272.074C295.801 272.105 295.852 272.127 295.907 272.139C295.962 272.15 296.018 272.15 296.073 272.138C296.127 272.127 296.179 272.105 296.225 272.073C296.271 272.041 296.31 272.001 296.339 271.954C296.369 271.906 296.389 271.854 296.398 271.799C296.406 271.744 296.404 271.687 296.39 271.633C296.377 271.579 296.353 271.528 296.319 271.484C296.285 271.439 296.243 271.402 296.195 271.375C295.28 270.794 293.143 270.187 291.608 272.056C291.558 272.117 291.526 272.191 291.516 272.269C291.506 272.347 291.519 272.426 291.553 272.497C291.586 272.568 291.64 272.628 291.706 272.67C291.773 272.712 291.85 272.734 291.929 272.733H291.916Z" fill="#301600"/>
<path d="M283.08 274.441C283.138 274.442 283.196 274.43 283.249 274.407C283.302 274.383 283.349 274.348 283.388 274.305C284.232 273.364 285.068 272.867 285.872 272.836C286.36 272.808 286.841 272.965 287.218 273.276C287.299 273.347 287.403 273.387 287.51 273.387C287.618 273.387 287.722 273.347 287.803 273.276C287.841 273.237 287.872 273.192 287.893 273.141C287.913 273.091 287.924 273.037 287.924 272.983C287.924 272.929 287.913 272.875 287.893 272.825C287.872 272.775 287.841 272.729 287.803 272.691C287.27 272.222 286.577 271.976 285.868 272.005C284.826 272.04 283.788 272.629 282.79 273.764C282.753 273.804 282.725 273.851 282.707 273.903C282.689 273.954 282.681 274.008 282.684 274.063C282.687 274.117 282.7 274.17 282.724 274.219C282.747 274.268 282.78 274.312 282.821 274.349C282.895 274.406 282.986 274.439 283.08 274.441Z" fill="#301600"/>
<path d="M293.428 279.746C293.648 279.752 293.866 279.697 294.057 279.588C294.214 279.487 294.341 279.347 294.426 279.181C294.511 279.015 294.551 278.829 294.54 278.643C294.598 276.527 292.087 274.395 291.981 274.307C291.897 274.235 291.788 274.201 291.679 274.21C291.569 274.219 291.467 274.271 291.396 274.355C291.325 274.439 291.29 274.548 291.299 274.657C291.308 274.767 291.361 274.869 291.445 274.94C291.471 274.94 293.758 276.906 293.709 278.621C293.709 278.717 293.709 278.836 293.626 278.876C293.286 278.937 292.936 278.876 292.636 278.704C292.537 278.656 292.423 278.65 292.319 278.686C292.215 278.722 292.13 278.799 292.082 278.898C292.034 278.997 292.028 279.111 292.064 279.215C292.101 279.319 292.177 279.404 292.276 279.452C292.635 279.628 293.028 279.729 293.428 279.746Z" fill="#ED9572"/>
<path d="M278.661 281.586C278.731 281.586 278.799 281.568 278.86 281.534C278.921 281.5 278.972 281.452 279.008 281.392C279.035 281.353 279.567 280.469 278.863 279.097C278.68 278.699 278.382 278.365 278.007 278.138C277.633 277.911 277.199 277.801 276.761 277.822C276.659 277.843 276.569 277.901 276.508 277.985C276.447 278.07 276.419 278.174 276.431 278.277C276.443 278.38 276.492 278.476 276.57 278.544C276.649 278.613 276.75 278.65 276.854 278.648C277.124 278.645 277.388 278.722 277.615 278.869C277.841 279.016 278.018 279.227 278.125 279.475C278.599 280.403 278.314 280.939 278.3 280.961C278.27 281.026 278.256 281.096 278.259 281.167C278.262 281.237 278.283 281.306 278.318 281.368C278.353 281.429 278.403 281.481 278.463 281.519C278.522 281.557 278.59 281.58 278.661 281.586Z" fill="#ED9572"/>
<path d="M280.675 271.846C280.778 271.843 280.875 271.802 280.949 271.731C281.023 271.661 281.069 271.566 281.078 271.464C281.086 271.362 281.057 271.26 280.996 271.179C280.935 271.097 280.846 271.04 280.746 271.019L276.41 270.311C276.356 270.302 276.301 270.303 276.248 270.316C276.194 270.328 276.144 270.351 276.1 270.383C276.056 270.415 276.018 270.455 275.99 270.502C275.961 270.548 275.943 270.6 275.935 270.654C275.924 270.762 275.952 270.87 276.016 270.957C276.079 271.045 276.172 271.106 276.278 271.129L280.609 271.837L280.675 271.846Z" fill="#433872"/>
<path d="M281.004 273.958C281.106 273.955 281.204 273.914 281.278 273.844C281.352 273.773 281.398 273.678 281.407 273.576C281.415 273.474 281.386 273.373 281.325 273.291C281.264 273.209 281.175 273.152 281.075 273.131L276.739 272.423C276.685 272.415 276.63 272.417 276.577 272.429C276.524 272.442 276.474 272.465 276.43 272.497C276.386 272.529 276.349 272.569 276.32 272.615C276.291 272.661 276.272 272.713 276.264 272.767C276.255 272.82 276.257 272.875 276.269 272.928C276.282 272.981 276.305 273.031 276.337 273.075C276.369 273.119 276.409 273.157 276.455 273.185C276.501 273.214 276.553 273.233 276.607 273.241L280.938 273.949L281.004 273.958Z" fill="#433872"/>
<path opacity="0.6" d="M287.425 305.725C287.329 303.966 287.72 300.751 289.624 295.021C287.319 297.453 285.355 300.187 283.784 303.148L287.425 305.725Z" fill="#9C9EF9"/>
<path opacity="0.22" d="M280.086 310.56C279.044 312.266 277.166 314.315 275.891 314.865C275.675 314.957 275.451 315.05 275.235 315.133C275.152 315.173 275.067 315.208 274.98 315.239C274.712 315.349 274.444 315.45 274.175 315.546C274.104 315.577 274.03 315.603 273.956 315.626C273.731 315.709 273.516 315.788 273.283 315.859C273.05 315.929 272.729 316.048 272.447 316.131C272.276 316.189 272.1 316.241 271.924 316.29C271.881 316.307 271.837 316.32 271.792 316.329L271.291 316.47L270.657 316.637C270.416 316.703 270.174 316.76 269.932 316.813C269.536 316.91 269.14 316.993 268.745 317.072L268.107 317.191L267.469 317.301L267.254 317.336C267.056 317.371 266.862 317.398 266.664 317.424C266.467 317.451 266.225 317.49 265.97 317.517L265.552 317.565C265.341 317.591 265.112 317.613 264.91 317.631L264.435 317.675H264.145L263.635 317.71C263.318 317.732 263.006 317.745 262.693 317.758H262.139C260.288 317.805 258.436 317.731 256.594 317.539C255.934 317.473 255.275 317.389 254.633 317.292C253.38 315.787 252.224 314.203 251.172 312.552C253.232 312.208 255.181 311.379 256.858 310.133C264.088 304.957 267.271 293.827 270.161 294.614C270.978 294.838 271.774 296.017 272.632 298.572C275.723 307.763 277.597 310.243 280.086 310.56Z" fill="#9C9EF9"/>
<path d="M256.854 312.578C256.485 317.802 256.384 325.427 256.384 325.427C258.785 323.929 261.516 323.041 264.339 322.842C269.875 322.433 275.957 325.221 276.375 325.414C276.375 325.414 273.64 287.213 262.963 287.753C262.454 287.776 261.949 287.857 261.459 287.995C253.697 290.265 257.263 306.795 256.854 312.578Z" fill="#F1F3FF"/>
<g opacity="0.22">
<path opacity="0.22" d="M285.692 290.734C285.692 290.734 285.824 300.989 281.004 302.136C276.184 303.284 272.811 288.618 276.672 284.106L277.807 284.546C277.807 284.546 274.46 288.53 278.172 297.739C281.883 306.947 284.883 294.379 284.351 291.789L285.692 290.734Z" fill="#9C9EF9"/>
</g>
<path d="M293.938 252.32H294.071C294.027 252.315 293.982 252.315 293.938 252.32Z" fill="#9C9EF9"/>
<path d="M271.594 265.515C270.715 264.82 269.457 264.332 267.557 264.389C263.023 264.521 255.899 271.891 246.225 273.523C246.737 271.934 247.337 270.375 248.023 268.853C256.15 266.654 262.355 260.937 268.252 261.742C270.684 262.067 271.304 264.42 271.594 265.515Z" fill="#301600"/>
<path d="M284.703 285.443L285.341 286.502C285.935 287.491 286.784 288.303 287.799 288.851L285.693 290.733L284.703 285.443Z" fill="#ED9572"/>
<g opacity="0.32">
<path opacity="0.32" d="M336.523 265.863C330.731 254.779 321.081 246.201 309.395 241.747C297.709 237.294 284.796 237.275 273.097 241.694C261.398 246.113 251.722 254.663 245.898 265.73C240.074 276.797 238.504 289.613 241.486 301.758C244.467 313.903 251.794 324.536 262.081 331.647C272.368 338.759 284.903 341.856 297.318 340.355C309.734 338.853 321.169 332.857 329.465 323.498C337.76 314.14 342.341 302.067 342.341 289.562C342.336 281.309 340.34 273.18 336.523 265.863ZM332.227 289.562C332.237 297.251 330.077 304.787 325.996 311.303C325.582 311.974 325.142 312.631 324.676 313.273C324.061 314.153 323.419 314.979 322.746 315.797C316.081 323.859 306.593 329.075 296.215 330.382C285.838 331.69 275.353 328.99 266.897 322.833C264.826 321.337 262.903 319.647 261.154 317.785C259.57 316.114 258.131 314.312 256.853 312.398C256.501 311.879 256.162 311.351 255.837 310.815C251.953 304.398 249.9 297.04 249.9 289.54C249.9 288.269 249.957 287.007 250.072 285.766C250.133 285.094 250.212 284.447 250.305 283.766C250.947 279.211 252.355 274.798 254.469 270.714C255.145 269.403 255.892 268.13 256.708 266.901C257.275 266.021 257.882 265.186 258.519 264.368C261.028 261.129 264.004 258.281 267.35 255.916C268.229 255.287 269.157 254.689 270.098 254.13C276.348 250.435 283.464 248.458 290.724 248.4C297.985 248.342 305.131 250.206 311.439 253.801C317.747 257.396 322.992 262.596 326.642 268.872C330.292 275.149 332.217 282.279 332.222 289.54L332.227 289.562Z" fill="url(#paint7_linear_1543_4347)"/>
</g>
<path d="M336.221 266.22C330.824 254.843 321.421 245.855 309.812 240.976C298.202 236.097 285.202 235.67 273.297 239.776C261.393 243.883 251.42 252.234 245.288 263.233C239.156 274.232 237.294 287.106 240.06 299.391C242.825 311.677 250.023 322.511 260.277 329.822C270.531 337.132 283.12 340.405 295.635 339.015C308.151 337.624 319.715 331.668 328.114 322.285C336.513 312.903 341.158 300.753 341.159 288.16C341.155 280.572 339.468 273.079 336.221 266.22ZM248.784 285.913C248.819 285.271 248.868 284.633 248.929 284.004C249.562 277.726 251.641 271.679 255.002 266.339C255.06 266.242 255.121 266.15 255.183 266.058C257.949 261.72 261.504 257.939 265.662 254.91C266.445 254.324 267.25 253.778 268.076 253.274C276.055 248.275 285.508 246.166 294.855 247.296C304.202 248.427 312.878 252.73 319.435 259.487C325.992 266.244 330.032 275.046 330.881 284.423C331.731 293.8 329.337 303.184 324.101 311.01C323.793 311.476 323.472 311.933 323.138 312.386C321.848 314.161 320.415 315.829 318.855 317.373C316.77 319.441 314.47 321.28 311.995 322.861C305.567 326.968 298.123 329.203 290.496 329.316C282.87 329.43 275.362 327.417 268.815 323.503C264.03 320.629 259.872 316.823 256.586 312.311C256.291 311.911 256.005 311.502 255.732 311.089C254.917 309.885 254.17 308.637 253.494 307.351C250.352 301.442 248.709 294.852 248.71 288.16C248.71 287.408 248.749 286.656 248.789 285.913H248.784Z" fill="#5A00C4"/>
<path d="M240.556 365.015L211.202 335.661L196.13 350.733L225.485 380.087L240.556 365.015Z" fill="#5A00C4"/>
<path d="M380.094 225.478L350.74 196.124L335.668 211.196L365.022 240.55L380.094 225.478Z" fill="#5A00C4"/>
<path d="M502.906 54.4349C502.795 54.5602 502.734 54.722 502.734 54.8895C502.735 55.0569 502.797 55.2183 502.909 55.3428C503.021 55.4673 503.175 55.5462 503.342 55.5645C503.508 55.5828 503.675 55.5391 503.812 55.4419C506.978 52.9837 511.516 50.6354 515.967 52.4647C523.636 55.609 522.682 50.4859 513.768 49.8746C508.948 49.536 505.391 51.7348 502.906 54.4349Z" fill="white"/>
<defs>
<linearGradient id="paint0_linear_1543_4347" x1="233.898" y1="335.091" x2="416.26" y2="335.091" gradientUnits="userSpaceOnUse">
<stop stop-color="#3B264D"/>
<stop offset="1" stop-color="#071232"/>
</linearGradient>
<linearGradient id="paint1_linear_1543_4347" x1="21.5885" y1="77.2567" x2="425.9" y2="259.003" gradientUnits="userSpaceOnUse">
<stop stop-color="#3939FA"/>
<stop offset="1" stop-color="white" stop-opacity="0"/>
</linearGradient>
<linearGradient id="paint2_linear_1543_4347" x1="354.201" y1="393.353" x2="659.128" y2="575.597" gradientUnits="userSpaceOnUse">
<stop stop-color="#3939FA"/>
<stop offset="1" stop-color="white" stop-opacity="0"/>
</linearGradient>
<linearGradient id="paint3_linear_1543_4347" x1="368.432" y1="196.87" x2="390.279" y2="196.87" gradientUnits="userSpaceOnUse">
<stop stop-color="white" stop-opacity="0"/>
<stop offset="1" stop-color="#3939FA"/>
</linearGradient>
<linearGradient id="paint4_linear_1543_4347" x1="176.687" y1="365.667" x2="243.974" y2="365.667" gradientUnits="userSpaceOnUse">
<stop stop-color="#3B264D"/>
<stop offset="1" stop-color="#071232"/>
</linearGradient>
<linearGradient id="paint5_linear_1543_4347" x1="327.526" y1="143.795" x2="526.616" y2="143.795" gradientUnits="userSpaceOnUse">
<stop stop-color="#3B264D"/>
<stop offset="1" stop-color="#071232"/>
</linearGradient>
<linearGradient id="paint6_linear_1543_4347" x1="327.526" y1="145.77" x2="533.362" y2="145.77" gradientUnits="userSpaceOnUse">
<stop stop-color="#3B264D"/>
<stop offset="1" stop-color="#071232"/>
</linearGradient>
<linearGradient id="paint7_linear_1543_4347" x1="239.795" y1="289.562" x2="342.346" y2="289.562" gradientUnits="userSpaceOnUse">
<stop stop-color="#3B264D"/>
<stop offset="1" stop-color="#071232"/>
</linearGradient>
</defs>
</svg>
