<svg width="566" height="380" viewBox="0 0 566 380" fill="none" xmlns="http://www.w3.org/2000/svg">
<path d="M3.93671 364.992C-13.04 337.582 26.5793 285.546 90.2948 230.053C91.6218 235.261 93.1803 240.426 94.9496 245.486C85.029 254.299 75.7821 262.965 67.3148 271.441C20.0284 318.817 10.0665 346.796 16.5117 357.17C22.957 367.543 52.4233 371.001 115.802 349.537C129.556 344.878 144.069 339.311 159.171 332.986C208.227 312.408 263.391 283.459 318.765 249.007C365.02 220.508 409.29 188.9 451.271 154.402C468.88 139.643 484.825 125.306 498.705 111.412C546.013 64.0354 555.976 36.0776 549.531 25.683C543.086 15.2885 513.618 11.8518 450.24 33.3155C434.106 38.7763 416.919 45.4813 399.015 53.2192C395.224 49.4662 391.243 45.8819 387.093 42.4241C472.019 4.87303 543.928 -11.3197 562.042 17.9031C580.999 48.3487 529.752 109.388 453.336 171.649C412.974 204.222 370.626 234.247 326.537 261.552C277.577 292.198 226.504 319.325 173.704 342.727C90.9901 378.654 21.6927 393.582 3.93671 364.992Z" fill="#5A00C4"/>
<path d="M173.654 342.749C178.161 345.469 182.816 348.042 187.64 350.403C194.307 353.692 201.165 356.579 208.176 359.048C237.037 369.153 267.952 371.923 298.146 367.111C328.341 362.299 356.869 350.055 381.167 331.478C405.466 312.901 424.774 288.574 437.358 260.681C449.942 232.788 455.408 202.202 453.264 171.672C440.395 182.214 426.83 192.756 412.739 203.066C393.192 217.53 372.719 231.783 351.783 245.446C343.358 250.928 334.932 256.304 326.507 261.575C314.859 268.828 303.022 275.913 291.122 282.807C267.742 296.385 244.067 309.162 220.835 320.759C204.721 328.686 188.988 336.066 173.654 342.749Z" fill="#3938FA"/>
<path d="M90.2473 230.075C90.5422 231.234 90.858 232.373 91.1739 233.532C92.2692 237.559 93.5125 241.565 94.8815 245.487C101.913 265.647 112.366 284.442 125.781 301.044C135.499 313.062 146.703 323.795 159.124 332.987C180.671 323.941 203.356 313.315 226.778 301.36C248.515 290.186 270.841 277.83 293.336 264.484C301.761 259.508 310.186 254.378 318.612 249.093C329.607 242.261 340.377 235.353 350.923 228.367C373.039 213.755 394.123 198.849 413.774 184.09C426.904 174.18 439.359 164.341 451.141 154.572C446.576 127.19 435.938 101.181 420.009 78.4577C413.754 69.4855 406.704 61.0952 398.946 53.3885C395.176 49.6355 391.195 46.0512 387.046 42.5934C365.574 24.7535 340.341 12.019 313.245 5.34746C286.149 -1.32404 257.894 -1.75883 230.606 4.07576C203.318 9.91035 177.706 21.8626 155.697 39.0333C133.688 56.2041 115.854 78.1465 103.538 103.211C84.1306 142.557 79.4166 187.554 90.2473 230.075Z" fill="#3938FA"/>
<path opacity="0.22" d="M294.686 1.54297C332.263 52.8831 346.46 142.344 351.009 228.22C351.304 233.955 351.577 239.668 351.788 245.361C353.241 282.427 353.031 318.271 352.294 349.496C372.806 339.182 391.203 325.107 406.531 308.002L412.744 202.982L413.861 184.006L420.18 78.3108C413.924 69.3386 406.875 60.9483 399.117 53.2416C395.346 49.4886 391.366 45.9043 387.216 42.4465C360.792 20.5538 328.82 6.42411 294.855 1.62739L294.686 1.54297Z" fill="white"/>
<path opacity="0.22" d="M91.1757 233.466C92.271 237.493 93.5142 241.499 94.8833 245.421C101.915 265.581 112.368 284.375 125.783 300.978C135.029 231.568 160.242 109.111 222.925 107.719C274.319 106.602 253.087 213.141 226.78 301.209C224.8 307.809 222.82 314.303 220.819 320.628C216.501 334.312 212.204 347.258 208.181 358.959C230.191 366.702 253.474 370.173 276.783 369.185C281.353 346.245 286.829 315.673 291.105 282.74C291.905 276.681 292.65 270.553 293.338 264.354C303.68 171.942 301.932 68.8821 243.862 63.9273C168.182 57.5388 115.314 168.948 91.1757 233.466Z" fill="white"/>
</svg>
