<svg width="69" height="47" viewBox="0 0 69 47" fill="none" xmlns="http://www.w3.org/2000/svg">
<path d="M68.5205 45.1437C70.5901 41.7536 65.7602 35.3176 57.9928 28.4539C57.831 29.098 57.641 29.7369 57.4253 30.3627C58.6347 31.4528 59.762 32.5246 60.7942 33.5729C66.5588 39.4326 67.7732 42.8932 66.9875 44.1762C66.2018 45.4593 62.6096 45.8869 54.8833 43.2322C53.2065 42.6559 51.4373 41.9674 49.5962 41.1851C43.6159 38.6399 36.891 35.0594 30.1404 30.7983C24.5015 27.2733 19.1047 23.3639 13.9868 19.0971C11.8401 17.2717 9.89635 15.4984 8.2042 13.7798C2.43705 7.92013 1.22241 4.46219 2.00814 3.17655C2.79387 1.89092 6.38618 1.46584 14.1125 4.12057C16.0794 4.79599 18.1747 5.62528 20.3572 6.58234C20.8194 6.11816 21.3048 5.67483 21.8106 5.24716C11.4575 0.602685 2.69117 -1.4001 0.482914 2.2143C-1.82806 5.97994 4.41936 13.5295 13.7351 21.2303C18.6556 25.259 23.8181 28.9727 29.1929 32.3499C35.1615 36.1403 41.3877 39.4954 47.8245 42.3899C57.908 46.8335 66.3559 48.6799 68.5205 45.1437Z" fill="url(#paint0_linear_1543_4339)"/>
<path d="M47.8298 42.3927C47.2803 42.7291 46.7128 43.0472 46.1247 43.3393C45.312 43.7461 44.476 44.1032 43.6212 44.4085C40.1029 45.6584 36.3341 46.0011 32.6531 45.4059C28.9721 44.8107 25.4944 43.2963 22.5322 40.9986C19.57 38.701 17.2161 35.6921 15.682 32.2421C14.1479 28.7922 13.4816 25.0092 13.7429 21.2331C15.3118 22.537 16.9655 23.8409 18.6833 25.1161C21.0662 26.905 23.562 28.6679 26.1144 30.3578C27.1415 31.0358 28.1686 31.7008 29.1957 32.3527C30.6156 33.2498 32.0587 34.126 33.5094 34.9788C36.3596 36.6582 39.2458 38.2385 42.078 39.6728C44.0424 40.6533 45.9604 41.566 47.8298 42.3927Z" fill="#8E37F5"/>
<path d="M57.998 28.4566C57.962 28.6 57.9235 28.7408 57.885 28.8843C57.7515 29.3824 57.5999 29.8778 57.433 30.3629C56.5758 32.8563 55.3015 35.1809 53.6661 37.2344C52.4814 38.7208 51.1155 40.0484 49.6014 41.1852C46.9746 40.0664 44.2091 38.7521 41.3538 37.2735C38.7038 35.8914 35.9821 34.3632 33.2398 32.7125C32.2127 32.097 31.1856 31.4625 30.1585 30.8088C28.8181 29.9639 27.5051 29.1094 26.2195 28.2453C23.5234 26.4381 20.9531 24.5944 18.5574 22.769C16.9568 21.5433 15.4384 20.3264 14.0021 19.1181C14.5586 15.7314 15.8555 12.5145 17.7973 9.70398C18.5599 8.59426 19.4193 7.55652 20.3651 6.60331C20.8247 6.13913 21.31 5.69581 21.8158 5.26813C24.4333 3.06162 27.5094 1.48655 30.8127 0.661396C34.116 -0.163763 37.5604 -0.217539 40.8871 0.504108C44.2138 1.22575 47.3361 2.70405 50.0191 4.82781C52.7022 6.95156 54.8762 9.66549 56.3777 12.7655C58.7436 17.6321 59.3183 23.1974 57.998 28.4566Z" fill="#8E37F5"/>
<path opacity="0.22" d="M33.0754 0.190704C28.4946 6.54067 26.7639 17.6055 26.2092 28.227C26.1733 28.9364 26.14 29.6431 26.1143 30.3472C25.9371 34.9317 25.9628 39.3649 26.0526 43.227C23.552 41.9513 21.3092 40.2105 19.4407 38.0949L18.6833 25.1055L18.5471 22.7585L17.7768 9.68567C18.5394 8.57595 19.3987 7.53821 20.3445 6.58501C20.8042 6.12082 21.2894 5.6775 21.7953 5.24982C25.0167 2.54205 28.9143 0.794424 33.0549 0.201146L33.0754 0.190704Z" fill="white"/>
<path opacity="0.22" d="M57.8848 28.8762C57.7513 29.3743 57.5997 29.8698 57.4328 30.3548C56.5756 32.8483 55.3013 35.1728 53.6659 37.2263C52.5387 28.6415 49.4651 13.4954 41.8235 13.3233C35.5582 13.1851 38.1464 26.3623 41.3535 37.255C41.5949 38.0712 41.8363 38.8744 42.0802 39.6568C42.6066 41.3492 43.1304 42.9504 43.6209 44.3977C40.9377 45.3554 38.0993 45.7847 35.2578 45.6625C34.7006 42.8252 34.033 39.0439 33.5118 34.9706C33.4142 34.2213 33.3235 33.4633 33.2396 32.6966C31.9788 21.2667 32.1919 8.51978 39.2711 7.90695C48.497 7.11679 54.9422 20.8963 57.8848 28.8762Z" fill="white"/>
<defs>
<linearGradient id="paint0_linear_1543_4339" x1="60.8294" y1="46.9999" x2="26.4795" y2="-14.3501" gradientUnits="userSpaceOnUse">
<stop stop-color="#3939FA"/>
<stop offset="1" stop-color="#FF7E21"/>
</linearGradient>
</defs>
</svg>
