<svg width="1586" height="667" viewBox="0 0 1586 667" fill="none" xmlns="http://www.w3.org/2000/svg" className="h-auto">
<path opacity="0.33" d="M771.339 48.4531C398.112 -88.104 320.421 92.21 275.469 240.685C275.244 241.426 275.019 242.186 274.799 242.906C267.066 268.563 260.295 293.21 253.073 315.036C252.422 316.999 251.771 318.942 251.117 320.862C244.59 339.932 237.613 356.602 229.256 369.595C224.645 376.752 219.599 382.789 213.962 387.495C204.714 395.212 193.872 399.334 180.713 398.908C32.7927 394.107 268.537 653.543 78.2801 623.294C-111.977 593.046 107.533 459.07 48.9871 385.37C33.0828 365.364 10.4767 351.861 -14 342.858V358.362C30.3371 382.204 52.8932 423.935 -9.54879 496.9C-11.0792 498.691 -12.5629 500.458 -14 502.202V628.411C39.0944 653.688 134.225 653.823 177.787 665.421C256.809 686.477 171.921 459.07 231.452 496.875C262.1 516.345 273.338 465.006 297.66 392.217C299.66 386.192 301.771 380.023 303.991 373.712C304.658 371.808 305.337 369.892 306.027 367.965C313.869 346.079 323.032 322.883 334.33 299.516C356.101 254.454 385.689 208.732 428.48 170.591C579.676 35.8247 619.732 204.275 912.432 217.514C1205.13 230.753 1377.8 -16.8396 1518.3 36.3448C1539.09 44.212 1561.79 54.2997 1586 65.4778V51.674C1295.18 -98.2318 1154.48 188.641 771.339 48.4531ZM1275.44 81.4621C1194.52 121.238 1040.33 185.961 895.837 184.705C758.35 183.51 679.709 136.412 613.091 111.845C600.387 107.164 605.118 88.0939 618.532 89.9194L620.958 90.2645C682.474 99.342 874.232 173.732 992.279 137.912C1104.33 103.903 1192.8 65.1277 1265.25 50.9888C1283.81 47.3878 1292.41 73.1448 1275.44 81.4821V81.4621Z" fill="url(#paint0_linear_1480_6419)"/>
<defs>
<linearGradient id="paint0_linear_1480_6419" x1="-14" y1="333.401" x2="1586" y2="333.401" gradientUnits="userSpaceOnUse">
<stop stop-color="#3939FA"/>
<stop offset="1" stop-color="white" stop-opacity="0"/>
</linearGradient>
</defs>
</svg>
