<svg width="354" height="348" viewBox="0 0 354 348" fill="none" xmlns="http://www.w3.org/2000/svg">
<path d="M85.7697 197.141C86.0866 196.786 86.5098 196.543 86.9757 196.448L245.635 164.008C246.199 163.909 246.778 164.034 247.25 164.355C247.722 164.677 248.05 165.17 248.163 165.73C248.276 166.29 248.166 166.872 247.856 167.354C247.546 167.835 247.061 168.178 246.503 168.308L87.8566 200.764C87.4052 200.858 86.9363 200.807 86.5161 200.619C86.096 200.432 85.7459 200.117 85.5153 199.719C85.2847 199.321 85.1854 198.861 85.2312 198.403C85.2771 197.945 85.4659 197.512 85.7709 197.166L85.7697 197.141Z" fill="#9C9EF9"/>
<path d="M85.7697 197.141C86.0866 196.786 86.5098 196.543 86.9757 196.448L245.635 164.008C246.199 163.909 246.778 164.034 247.25 164.355C247.722 164.677 248.05 165.17 248.163 165.73C248.276 166.29 248.166 166.872 247.856 167.354C247.546 167.835 247.061 168.178 246.503 168.308L87.8566 200.764C87.4052 200.858 86.9363 200.807 86.5161 200.619C86.096 200.432 85.7459 200.117 85.5153 199.719C85.2847 199.321 85.1854 198.861 85.2312 198.403C85.2771 197.945 85.4659 197.512 85.7709 197.166L85.7697 197.141Z" fill="url(#paint0_linear_1530_4467)"/>
<path d="M281.686 233.156L260.341 156.753L250.631 121.987L246.199 106.121C249.194 105.418 252.234 104.924 255.297 104.643C255.566 104.619 255.835 104.596 256.107 104.577L256.163 104.571L256.461 104.546C256.747 104.525 257.032 104.507 257.312 104.49C258.006 104.448 258.7 104.417 259.388 104.399L260.7 104.375C263.733 104.344 266.763 104.527 269.769 104.923C270.115 104.968 270.457 105.018 270.804 105.065L271.834 105.226C272.178 105.283 272.522 105.34 272.863 105.403C273.204 105.466 273.549 105.529 273.892 105.595L274.678 105.752L275.242 105.873L275.357 105.899C275.503 105.931 275.647 105.96 275.803 105.985C275.852 105.995 275.9 106.007 275.949 106.021L276.193 106.077C276.46 106.138 276.724 106.198 276.988 106.265C277.624 106.419 278.253 106.588 278.886 106.752C279.2 106.84 279.513 106.929 279.827 107.025L280.583 107.251C287.892 109.497 294.756 112.987 300.874 117.567C300.884 117.577 300.893 117.588 300.9 117.6L301.529 118.081C301.737 118.238 301.945 118.402 302.152 118.563C302.407 118.766 302.662 118.969 302.914 119.174C303.166 119.378 303.416 119.585 303.666 119.796C303.849 119.946 304.031 120.1 304.209 120.254L304.242 120.296C304.323 120.364 304.403 120.433 304.472 120.491C304.687 120.677 304.903 120.865 305.117 121.054L305.158 121.106C305.408 121.327 305.656 121.554 305.903 121.782C305.964 121.858 306.048 121.913 306.124 121.985C306.156 122.024 306.197 122.052 306.235 122.086C306.39 122.235 306.548 122.383 306.704 122.532C306.78 122.6 306.854 122.67 306.922 122.737C307.161 122.967 307.398 123.195 307.63 123.427C307.862 123.659 308.139 123.928 308.388 124.181C308.417 124.218 308.445 124.253 308.472 124.288C308.708 124.529 308.939 124.769 309.168 125.011C309.271 125.141 309.394 125.255 309.507 125.374C309.62 125.492 309.678 125.552 309.76 125.646C309.793 125.688 309.826 125.73 309.869 125.76C309.912 125.79 309.959 125.874 310.003 125.93C310.261 126.213 310.516 126.498 310.771 126.788C311.164 127.233 311.561 127.697 311.946 128.156C322.507 140.885 327.918 157.108 327.116 173.638C326.371 188.22 320.828 202.154 311.348 213.273C303.48 222.506 293.215 229.387 281.686 233.156Z" fill="#9C9EF9"/>
<path d="M199.806 195.895C199.394 194.901 199.01 193.891 198.653 192.864C198.523 192.498 198.395 192.131 198.27 191.757C197.926 190.742 197.613 189.709 197.32 188.663L197.305 188.611C196.801 186.811 196.375 185.008 196.027 183.201C190.56 154.687 204.499 126.243 229.464 112.738C232.891 110.883 236.477 109.336 240.178 108.116L240.369 108.047L240.387 108.113L241.517 112.163L244.724 123.63L255.245 161.267L258.833 174.116L259.111 175.105L260.017 178.354L260.091 178.61L274.638 230.653L275.86 235.073L275.802 235.119C274.023 235.534 272.247 235.872 270.472 236.133C268.621 236.412 266.776 236.61 264.938 236.727C237.005 238.459 210.557 222.196 199.806 195.895Z" fill="#9C9EF9"/>
<path d="M128.294 324.483C128.043 324.081 127.928 323.608 127.968 323.135C128.008 322.663 128.199 322.217 128.514 321.862C128.653 321.705 128.815 321.569 128.993 321.457L264.872 236.769L265.913 236.121L274.503 230.765L274.543 230.734L275.768 235.151L275.71 235.197L274.741 235.804L131.307 325.2C130.813 325.503 130.218 325.597 129.654 325.463C129.089 325.328 128.601 324.976 128.294 324.483Z" fill="#858BFF"/>
<path d="M68.4721 113.479C68.4618 112.894 68.6827 112.329 69.0867 111.908C69.4907 111.488 70.0452 111.245 70.6296 111.232L240.314 108.241L240.435 108.236C240.467 108.238 240.495 108.235 240.524 108.239L241.672 112.311C241.335 112.53 240.942 112.649 240.539 112.654L229.585 112.848L70.7341 115.645C70.1491 115.656 69.5822 115.435 69.158 115.028C68.7338 114.622 68.4871 114.065 68.4721 113.479Z" fill="#858BFF"/>
<path d="M306.441 137.863C317.13 147.34 324.466 160.021 327.352 174.009C327.379 174.116 327.399 174.222 327.422 174.333C328.326 157.003 322.402 140.003 310.921 126.981C310.665 126.69 310.408 126.403 310.149 126.118C310.105 126.062 310.059 126.004 310.015 125.948C310.008 125.942 310.002 125.935 309.998 125.927C309.895 125.796 309.77 125.682 309.654 125.558C309.537 125.434 309.428 125.315 309.313 125.194C309.083 124.951 308.851 124.709 308.614 124.467C308.587 124.432 308.559 124.397 308.53 124.36C308.28 124.106 308.023 123.853 307.769 123.603C307.514 123.353 307.298 123.141 307.058 122.909C306.999 122.834 306.915 122.771 306.839 122.703C306.683 122.553 306.524 122.405 306.368 122.256C306.337 122.216 306.307 122.179 306.257 122.154C306.196 122.076 306.111 122.022 306.035 121.949C305.787 121.721 305.538 121.493 305.287 121.27L305.246 121.219C305.022 121.016 304.814 120.839 304.599 120.653C304.522 120.585 304.441 120.516 304.368 120.456L304.334 120.414C304.156 120.26 303.972 120.105 303.789 119.954C303.538 119.742 303.287 119.535 303.034 119.329C302.781 119.123 302.525 118.919 302.269 118.715C295.614 113.442 288.002 109.504 279.855 107.12C279.54 107.023 279.226 106.933 278.911 106.845C278.282 106.667 277.648 106.503 277.007 106.354C276.742 106.286 276.478 106.226 276.21 106.164L275.964 106.108C275.915 106.093 275.868 106.082 275.818 106.071C275.674 106.037 275.529 106.008 275.371 105.985L275.255 105.958L274.689 105.836L273.901 105.678C273.557 105.612 273.213 105.546 272.869 105.484C272.525 105.422 272.182 105.363 271.837 105.305L270.804 105.143C270.456 105.095 270.112 105.044 269.766 104.999C266.315 104.551 262.834 104.371 259.355 104.46C258.66 104.482 257.966 104.512 257.273 104.549C256.992 104.566 256.706 104.583 256.419 104.605L256.12 104.629L256.064 104.635C255.791 104.653 255.525 104.681 255.252 104.7C252.181 104.978 249.132 105.47 246.13 106.173L250.594 122.098C260.484 120.32 270.652 120.815 280.327 123.546C290.002 126.278 298.932 131.173 306.441 137.863Z" fill="url(#paint1_linear_1530_4467)"/>
<path d="M212.65 143.513C221.172 133.896 232.322 126.981 244.724 123.622L241.518 112.162L240.388 108.114L240.371 108.049L240.179 108.117C236.481 109.336 232.898 110.882 229.473 112.737C204.524 126.232 190.595 154.659 196.06 183.155C197.001 168.462 202.843 154.504 212.65 143.513Z" fill="url(#paint2_linear_1530_4467)"/>
<path d="M195.941 184.123C195.919 183.848 195.897 183.574 195.882 183.298L196.113 183.237L195.941 184.123Z" fill="url(#paint3_linear_1530_4467)"/>
<path opacity="0.21" d="M247.031 228.217C235.827 218.267 233.586 201.289 239.737 184.917C239.954 184.341 240.18 183.766 240.417 183.193C240.869 182.104 241.357 181.019 241.881 179.936C242.439 178.784 243.046 177.636 243.696 176.499C245.93 172.572 248.574 168.891 251.584 165.519C252.861 164.086 254.178 162.719 255.539 161.445L259.093 174.254L259.369 175.24L260.268 178.477L260.341 178.731L274.773 230.58L275.986 234.984L275.928 235.029L274.958 235.637C273.519 235.852 272.07 235.992 270.617 236.057C269.123 236.123 267.626 236.103 266.134 236C258.971 235.457 252.333 232.924 247.031 228.217Z" fill="#F1F3FF"/>
<path d="M195.941 184.123C195.919 183.848 195.897 183.574 195.882 183.298L196.113 183.237L195.941 184.123Z" fill="url(#paint4_linear_1530_4467)"/>
<path d="M198.499 192.865C198.372 192.501 198.247 192.135 198.126 191.764C197.789 190.753 197.485 189.724 197.201 188.683L197.186 188.631C196.698 186.838 196.287 185.041 195.954 183.24L243.517 175.961L259.028 173.586L259.298 174.57L260.177 177.807L240.174 182.689L198.499 192.865Z" fill="url(#paint5_linear_1530_4467)"/>
<path opacity="0.21" d="M281.682 233.156L260.192 156.894C277.664 143.438 299.633 141.488 313.101 153.497C328.249 166.972 327.175 193.204 311.178 213.407C303.367 222.597 293.159 229.433 281.682 233.156Z" fill="#F1F3FF"/>
<path d="M53.914 234.436C53.8354 234.158 53.8124 233.867 53.8465 233.58C53.8806 233.292 53.971 233.015 54.1126 232.762C54.2542 232.51 54.4441 232.288 54.6715 232.109C54.899 231.931 55.1595 231.798 55.4381 231.72L197.77 191.868L198.404 191.689C198.404 191.689 223.762 184.651 241.752 179.726C251.547 177.043 259.157 174.99 259.299 175.036L260.208 178.289L260.281 178.545C259.995 178.88 259.616 179.123 259.191 179.243L239.61 184.725L199.943 195.832L56.6311 235.966C56.3522 236.045 56.0606 236.067 55.7729 236.033C55.4853 235.998 55.2074 235.907 54.955 235.765C54.7026 235.623 54.4807 235.432 54.3021 235.204C54.1234 234.976 53.9916 234.715 53.914 234.436Z" fill="#858BFF"/>
<defs>
<linearGradient id="paint0_linear_1530_4467" x1="215.464" y1="129.159" x2="126.567" y2="228.469" gradientUnits="userSpaceOnUse">
<stop stop-color="#3939FA"/>
<stop offset="0.11" stop-color="#3D3DFA" stop-opacity="0.98"/>
<stop offset="0.23" stop-color="#4848FA" stop-opacity="0.92"/>
<stop offset="0.37" stop-color="#5B5BFB" stop-opacity="0.83"/>
<stop offset="0.51" stop-color="#7676FC" stop-opacity="0.69"/>
<stop offset="0.66" stop-color="#9898FC" stop-opacity="0.52"/>
<stop offset="0.81" stop-color="#C2C2FD" stop-opacity="0.31"/>
<stop offset="0.96" stop-color="#F2F2FF" stop-opacity="0.06"/>
<stop offset="1" stop-color="white" stop-opacity="0"/>
</linearGradient>
<linearGradient id="paint1_linear_1530_4467" x1="336.674" y1="141.692" x2="191.46" y2="121.18" gradientUnits="userSpaceOnUse">
<stop stop-color="#3939FA"/>
<stop offset="0.11" stop-color="#3939F8" stop-opacity="0.98"/>
<stop offset="0.23" stop-color="#3838F1" stop-opacity="0.92"/>
<stop offset="0.37" stop-color="#3836E5" stop-opacity="0.83"/>
<stop offset="0.51" stop-color="#3733D5" stop-opacity="0.69"/>
<stop offset="0.66" stop-color="#3530C1" stop-opacity="0.52"/>
<stop offset="0.81" stop-color="#332DA8" stop-opacity="0.31"/>
<stop offset="0.96" stop-color="#32288B" stop-opacity="0.06"/>
<stop offset="1" stop-color="#312783" stop-opacity="0"/>
</linearGradient>
<linearGradient id="paint2_linear_1530_4467" x1="333.835" y1="158.148" x2="189.202" y2="137.581" gradientUnits="userSpaceOnUse">
<stop stop-color="#3939FA"/>
<stop offset="0.11" stop-color="#3939F8" stop-opacity="0.98"/>
<stop offset="0.23" stop-color="#3838F1" stop-opacity="0.92"/>
<stop offset="0.37" stop-color="#3836E5" stop-opacity="0.83"/>
<stop offset="0.51" stop-color="#3733D5" stop-opacity="0.69"/>
<stop offset="0.66" stop-color="#3530C1" stop-opacity="0.52"/>
<stop offset="0.81" stop-color="#332DA8" stop-opacity="0.31"/>
<stop offset="0.96" stop-color="#32288B" stop-opacity="0.06"/>
<stop offset="1" stop-color="#312783" stop-opacity="0"/>
</linearGradient>
<linearGradient id="paint3_linear_1530_4467" x1="200.928" y1="179.585" x2="200.692" y2="179.599" gradientUnits="userSpaceOnUse">
<stop stop-color="#3939FA"/>
<stop offset="0.11" stop-color="#3939F8" stop-opacity="0.98"/>
<stop offset="0.23" stop-color="#3838F1" stop-opacity="0.92"/>
<stop offset="0.37" stop-color="#3836E5" stop-opacity="0.83"/>
<stop offset="0.51" stop-color="#3733D5" stop-opacity="0.69"/>
<stop offset="0.66" stop-color="#3530C1" stop-opacity="0.52"/>
<stop offset="0.81" stop-color="#332DA8" stop-opacity="0.31"/>
<stop offset="0.96" stop-color="#32288B" stop-opacity="0.06"/>
<stop offset="1" stop-color="#312783" stop-opacity="0"/>
</linearGradient>
<linearGradient id="paint4_linear_1530_4467" x1="201.044" y1="179.296" x2="200.545" y2="179.913" gradientUnits="userSpaceOnUse">
<stop stop-color="#3939FA"/>
<stop offset="0.11" stop-color="#3939F8" stop-opacity="0.98"/>
<stop offset="0.23" stop-color="#3838F1" stop-opacity="0.92"/>
<stop offset="0.37" stop-color="#3836E5" stop-opacity="0.83"/>
<stop offset="0.51" stop-color="#3733D5" stop-opacity="0.69"/>
<stop offset="0.66" stop-color="#3530C1" stop-opacity="0.52"/>
<stop offset="0.81" stop-color="#332DA8" stop-opacity="0.31"/>
<stop offset="0.96" stop-color="#32288B" stop-opacity="0.06"/>
<stop offset="1" stop-color="#312783" stop-opacity="0"/>
</linearGradient>
<linearGradient id="paint5_linear_1530_4467" x1="249.126" y1="158.15" x2="213.074" y2="198.652" gradientUnits="userSpaceOnUse">
<stop stop-color="#3939FA"/>
<stop offset="0.11" stop-color="#3939F8" stop-opacity="0.98"/>
<stop offset="0.23" stop-color="#3838F1" stop-opacity="0.92"/>
<stop offset="0.37" stop-color="#3836E5" stop-opacity="0.83"/>
<stop offset="0.51" stop-color="#3733D5" stop-opacity="0.69"/>
<stop offset="0.66" stop-color="#3530C1" stop-opacity="0.52"/>
<stop offset="0.81" stop-color="#332DA8" stop-opacity="0.31"/>
<stop offset="0.96" stop-color="#32288B" stop-opacity="0.06"/>
<stop offset="1" stop-color="#312783" stop-opacity="0"/>
</linearGradient>
</defs>
</svg>
