<svg width="969" height="779" viewBox="0 0 969 779" fill="none" xmlns="http://www.w3.org/2000/svg" className="h-auto">
<path d="M333.044 422.629C331.705 422.485 330.915 422.33 330.915 422.33C330.915 422.33 326.342 413.883 320.454 402.048C319.674 400.483 318.87 398.854 318.05 397.179C314.591 390.102 310.853 382.185 307.409 374.283C302.696 363.498 298.533 352.792 296.383 344.44C293.819 334.444 294.119 327.847 299.787 328.446C305.255 329.056 312.237 333.569 319.569 339.907C326.097 345.545 332.899 352.622 339.157 359.674C345.069 366.342 350.502 372.984 354.745 378.362C360.273 385.359 363.797 390.222 363.797 390.222C363.912 391.162 364.007 392.081 364.072 392.971C366.431 423.954 340.706 423.459 333.044 422.629Z" fill="#FF7E21"/>
<path d="M318.05 397.18L354.756 378.387C350.512 373.009 345.079 366.367 339.167 359.699L307.384 374.309L318.05 397.18Z" fill="#BDA6FF"/>
<path opacity="0.12" d="M330.575 421.745C329.456 419.656 325.472 412.174 320.544 402.253C320.466 402.097 320.418 401.927 320.404 401.753L317.505 369.9C317.48 369.567 317.577 369.236 317.778 368.97C317.98 368.703 318.272 368.52 318.599 368.453C318.926 368.387 319.267 368.443 319.556 368.61C319.845 368.777 320.063 369.044 320.169 369.36L332.565 407.955C332.949 409.155 333.631 410.238 334.546 411.103C335.462 411.968 336.582 412.587 337.802 412.902C339.022 413.216 340.302 413.217 341.522 412.904C342.742 412.59 343.863 411.973 344.78 411.109L364.057 392.956C366.621 426.353 336.483 423.144 331.57 422.4C331.365 422.375 331.168 422.303 330.996 422.189C330.823 422.076 330.679 421.924 330.575 421.745Z" fill="url(#paint0_linear_1480_6316)"/>
<path d="M371.388 471.77L364.366 473.628C345.826 478.533 327.759 485.079 310.379 493.189L261.5 516C253.818 509.632 252.755 509.04 244.948 491.437C241.02 482.566 237.736 473.12 235.787 463.948C233.977 455.507 233.288 447.3 234.287 439.998C234.377 439.303 234.482 438.618 234.607 437.938C234.837 436.656 235.052 435.323 235.252 433.94C236.331 426.443 236.941 417.591 237.251 408.37C237.536 399.713 237.546 390.747 237.416 382.325C237.301 375.068 237.081 368.216 236.841 362.333C236.776 360.729 236.711 359.194 236.641 357.74C236.226 348.664 235.812 342.776 235.812 342.776C237.066 341.776 238.311 340.777 239.605 339.867C244.41 336.422 249.612 333.57 255.099 331.37C272.707 324.313 289.77 325.513 299.776 328.526C303.225 329.566 305.834 330.821 307.338 332.025C308.668 333.095 310.257 336.823 312.037 342.346C312.536 343.93 313.071 345.665 313.611 347.524C315.575 354.291 317.724 362.728 319.979 371.844C322.213 380.841 324.547 390.527 326.916 399.888C328.945 407.92 330.994 415.722 333.023 422.684C333.398 423.959 333.768 425.183 334.138 426.423C335.679 431.725 337.524 436.933 339.666 442.022C340.355 443.625 341.155 445.178 342.06 446.67C344.5 450.552 347.348 454.161 350.557 457.436C360.778 467.802 371.388 471.77 371.388 471.77Z" fill="#FF7E21"/>
<path d="M350.573 457.381L244.949 491.427C241.021 482.556 237.737 473.11 235.788 463.938L339.662 441.947C340.351 443.55 341.151 445.103 342.056 446.595C344.501 450.485 347.356 454.101 350.573 457.381Z" fill="#BDA6FF"/>
<path d="M334.134 426.368L235.243 433.93C236.322 426.433 236.932 417.582 237.242 408.36C267.585 405.312 307.814 401.588 326.922 399.834C329.311 409.335 331.745 418.516 334.134 426.368Z" fill="#BDA6FF"/>
<path opacity="0.12" d="M314.946 504.852L270.814 530.727C263.132 524.36 252.756 509.031 244.949 491.428C241.02 482.556 237.737 473.11 235.787 463.938C233.788 454.692 233.183 445.731 234.598 437.949C234.828 436.666 235.043 435.333 235.243 433.95C236.322 426.453 236.932 417.602 237.242 408.38C237.527 399.724 237.537 390.757 237.407 382.336C237.292 375.078 237.072 368.226 236.832 362.343C239.126 351.258 250.896 349.773 261.737 407.556C268.235 442.042 307.804 464.533 350.582 484.026C351.897 484.565 314.022 504.223 314.946 504.852Z" fill="url(#paint1_linear_1480_6316)"/>
<path d="M1118.98 778.995H0.00463867C59.843 665.338 152.764 572.516 266.485 512.799C318.916 485.288 374.979 465.343 433.004 453.557C471.953 445.651 511.558 441.424 551.298 440.932C554.037 440.902 556.796 440.882 559.515 440.882C674.747 440.823 787.798 472.298 886.419 531.898C985.041 591.498 1065.47 676.949 1119 778.995H1118.98Z" fill="url(#paint2_radial_1480_6316)"/>
<path opacity="0.09" d="M521.185 719.973C523.184 741.464 523.444 761.137 522.185 778.994H329.99C362.563 735.896 393.146 690.369 404.996 599.565C412.443 542.492 411.278 493.107 432.985 453.567C471.933 445.66 511.539 441.434 551.278 440.942C532.341 491.912 508.66 586.225 521.185 719.973Z" fill="url(#paint3_linear_1480_6316)"/>
<path opacity="0.09" d="M748.8 670.662C797.561 521.77 747.801 518.312 722.891 462.214C771.897 475.307 819.136 494.292 863.575 518.752C871.777 545.286 858.267 569.622 851.205 609.966C841.024 668.153 871.277 733.177 890.35 778.999H721.451C722.231 741.754 737.435 705.358 748.8 670.662Z" fill="url(#paint4_linear_1480_6316)"/>
<path opacity="0.09" d="M266.485 512.799C260.028 532.611 253.735 557.646 248.492 589.149C236.217 662.93 237.362 734.092 197.372 778.994H0C59.8397 665.337 152.763 572.515 266.485 512.799Z" fill="url(#paint5_linear_1480_6316)"/>
<path d="M357.959 391.367C356.62 389.143 331.055 415.057 332.364 416.857C334.973 420.51 346.099 418.356 349.732 416.132C356.305 412.094 362.882 399.553 357.959 391.367Z" fill="url(#paint6_linear_1480_6316)"/>
<path d="M319.974 371.809L237.397 382.305C237.252 373.069 236.937 364.492 236.622 357.7L313.592 347.459C315.551 354.236 317.72 362.673 319.974 371.809Z" fill="#BDA6FF"/>
<path opacity="0.11" d="M319.55 339.932C317.094 340.85 314.591 341.637 312.053 342.291C306.93 343.62 301.67 344.341 296.379 344.44C276.452 344.81 261.602 336.029 255.105 331.315C272.713 324.258 289.776 325.458 299.782 328.472C305.24 329.081 312.222 333.594 319.55 339.932Z" fill="url(#paint7_linear_1480_6316)"/>
<path d="M334.838 414.568L355.08 396.31L392.725 428.412L387.867 455.857L384.464 453.922C369.258 445.266 355.245 434.664 342.78 422.385L334.838 414.568Z" fill="#F6C5A6"/>
<path d="M580.741 426.523C580.741 426.523 607.306 415.952 613.054 412.888C618.801 409.825 649.749 396.68 649.749 396.68C649.749 396.68 665.488 410.554 660.36 421.67C660.36 421.67 630.247 432.531 611.654 436.914L580.741 426.523Z" fill="#FFC7AE"/>
<path d="M743.398 496.965L621.066 469.216L556.136 510.03L681.972 541.713L743.398 496.965Z" fill="#8F8EB2"/>
<path d="M449.049 468.236L501.473 509.445L378.991 529.078L323.828 486.304L449.049 468.236Z" fill="#A5A5C4"/>
<path d="M302.611 316.886C299.482 324.813 290.98 321.534 290.98 321.534L291.205 323.259L291.61 326.322L292.345 331.92C288.696 337.918 283.393 339.032 278.35 338.268C270.963 337.148 264.181 331.92 264.181 331.92L261.992 306.775L261.802 304.586C261.672 304.741 261.542 304.886 261.407 305.021C255.664 310.783 245.593 297.089 245.593 292.026C245.593 286.833 251.881 288.472 251.881 288.472L250.171 281.63C249.943 278.252 250.886 274.898 252.84 272.134C254.84 271.209 257.414 270.059 260.302 268.845C273.972 263.107 293.789 255.35 297.258 263.347C302.446 275.372 302.601 288.222 302.601 288.222C303.987 289.562 305.003 291.237 305.55 293.085C307.844 300.233 305.085 310.614 302.611 316.886Z" fill="#F6C5A6"/>
<path d="M280.745 290.636C281.308 290.636 281.764 289.614 281.764 288.352C281.764 287.091 281.308 286.068 280.745 286.068C280.182 286.068 279.725 287.091 279.725 288.352C279.725 289.614 280.182 290.636 280.745 290.636Z" fill="black"/>
<path d="M299.402 285.823C299.966 285.823 300.422 284.801 300.422 283.539C300.422 282.278 299.966 281.255 299.402 281.255C298.839 281.255 298.383 282.278 298.383 283.539C298.383 284.801 298.839 285.823 299.402 285.823Z" fill="black"/>
<path d="M289.467 301.907C290.846 302.037 294.924 302.352 297.908 301.837C297.947 301.828 297.988 301.83 298.026 301.842C298.064 301.854 298.099 301.876 298.126 301.905C298.153 301.934 298.172 301.97 298.181 302.009C298.191 302.048 298.189 302.088 298.178 302.127C297.718 303.951 295.264 311.783 289.247 302.272C289.224 302.234 289.211 302.191 289.211 302.147C289.211 302.103 289.223 302.06 289.246 302.022C289.268 301.985 289.301 301.954 289.34 301.934C289.379 301.913 289.423 301.904 289.467 301.907Z" fill="white"/>
<path d="M956.504 347.119C926.556 379.107 883.403 394.496 860.842 400.753C858.733 401.338 856.803 401.848 855.079 402.252C849.256 403.717 845.808 404.327 845.808 404.327C845.808 404.327 803.584 373.339 810.432 348.803C811.836 343.77 814.51 338.982 817.879 334.544C830.929 317.336 854.364 305.44 854.364 305.44C854.364 305.44 896.588 259.224 901.156 254.655C901.313 254.491 901.444 254.304 901.546 254.101C904.11 249.278 902.655 225.142 903.395 204.05V204.01C903.76 193.559 904.665 183.858 906.864 177.626C913.711 158.223 934.253 155.375 934.253 155.375L961.642 161.652C971.908 187.322 948.532 234.663 943.954 263.762C941.42 279.921 933.608 291.856 927.161 299.278C924.563 302.3 921.697 305.082 918.599 307.59L955.365 279.826L967.92 250.067C978.211 213.687 1003.18 195.529 1022.7 194.379L1040.46 204.375L1046.66 207.874C1058.07 234.708 998.732 302.042 956.504 347.119Z" fill="#8E37F5"/>
<path opacity="0.3" d="M855.079 402.297C849.256 403.762 845.808 404.372 845.808 404.372C845.808 404.372 803.584 373.384 810.432 348.849C811.836 343.815 814.51 339.027 817.879 334.589C817.879 341.137 819.808 352.647 831.718 361.958C847.487 374.264 855.839 390.167 855.079 402.297Z" fill="#5A00C4"/>
<path d="M850.986 419.006C850.986 419.006 826.105 414.398 794.353 427.898C773.786 436.644 748.151 441.222 723.631 434.49C719.854 433.456 716.153 432.162 712.555 430.617C709.481 429.292 704.953 424.364 702.439 420.246C701.748 419.172 701.193 418.017 700.785 416.807L693.547 402.398L684.766 408.605L660.415 425.788C660.415 425.788 659.736 409.795 646.391 395.85C646.391 395.85 659.701 389.598 669.517 378.657C678.268 368.901 691.683 353.262 709.056 347.889C716.931 345.389 725.383 345.364 733.272 347.819C762.625 356.716 778.419 363.658 809.677 338.628C809.677 338.628 812.736 351.083 819.258 359.09C824.346 365.332 842.589 374.279 848.971 396.61C850.073 400.514 850.764 404.522 851.03 408.57C851.08 409.245 851.12 409.93 851.145 410.624V410.674C851.253 413.452 851.199 416.234 850.986 419.006Z" fill="#F1F3FF"/>
<g opacity="0.12">
<path opacity="0.12" d="M809.682 338.647C793.188 360.729 761.8 367.271 742.208 357.565C722.616 347.859 711.53 352.347 711.53 352.347L709.081 347.909C716.956 345.408 725.408 345.384 733.297 347.839C762.63 356.735 778.424 363.678 809.682 338.647Z" fill="#9C9EF9"/>
</g>
<path d="M834.082 306.535C830.853 316.131 823.471 324.528 809.681 329.056C772.996 341.051 747.206 309.444 732.632 309.009C728.048 308.874 724.97 310.044 722.9 311.718C718.377 315.376 718.687 321.429 718.687 321.429L718.757 321.624C719.447 323.623 725.115 340.911 719.992 349.313C714.549 358.25 697.585 359.734 697.585 359.734L698.875 353.262L701.429 340.432C701.429 340.432 698.74 332.04 688.004 328.236C683.661 326.697 678.008 325.907 670.651 326.737C645.186 329.611 646.421 303.336 646.421 303.336C647.205 294.37 651.598 287.757 661.734 284.224C662.973 283.791 664.232 283.421 665.508 283.114C678.338 279.975 684.326 308.494 695.451 303.361C706.577 298.228 713.129 310.778 713.129 310.778C720.821 270.574 751.409 274.642 774.605 278.381C778.064 278.936 781.357 279.486 784.391 279.88C786.693 280.18 789.018 280.252 791.334 280.095C811.056 278.796 825.675 261.852 826.02 261.448C829.199 265.964 831.652 270.948 833.292 276.222C836.346 285.598 837.39 296.689 834.082 306.535Z" fill="#EF993A"/>
<g opacity="0.5">
<path opacity="0.5" d="M688.004 328.237C683.661 326.697 678.008 325.907 670.651 326.737C645.186 329.611 646.421 303.336 646.421 303.336C647.205 294.37 651.598 287.757 661.734 284.224C659.805 286.223 657.566 289.162 655.082 293.455C646.7 307.95 651.249 320.485 662.954 323.199C672.79 325.478 697.73 306.05 705.732 314.492C709.396 318.395 700.019 324.148 688.004 328.237Z" fill="#DD7814"/>
</g>
<g opacity="0.5">
<path opacity="0.5" d="M719.992 349.318C714.549 358.255 697.586 359.739 697.586 359.739L698.875 353.267C718.607 357.07 719.642 337.983 718.203 328.127C717.658 324.418 718.033 322.524 718.757 321.629C719.447 323.643 725.115 340.912 719.992 349.318Z" fill="#DD7814"/>
</g>
<path d="M701.484 383.695L683.856 367.956C683.856 367.956 671.111 376.308 662.154 363.698C651.833 349.148 664.294 325.253 664.294 325.253C664.294 325.253 674.44 327.897 682.826 322.279C697.96 312.148 705.707 314.482 705.707 314.482C705.707 314.482 707.706 332.2 702.549 342.971C702.549 342.971 707.512 336.928 711.33 337.188C720.407 337.798 710.4 361.883 699.15 354.341L707.646 362.838C707.646 362.838 710.99 377.307 701.484 383.695Z" fill="#FFC7AE"/>
<path d="M652.763 491.702C652.763 491.702 679.048 478.283 695.482 472.535C711.915 466.787 714.859 460.13 714.859 460.13L717.938 450.354C717.938 450.354 741.329 440.493 748.801 450.354L742.113 469.626C740.435 474.467 737.763 478.903 734.27 482.651C730.776 486.398 726.538 489.374 721.826 491.388C701.794 499.944 668.217 513.679 662.894 511.964C655.227 509.5 652.763 491.702 652.763 491.702Z" fill="#FFC7AE"/>
<path d="M644.532 435.55L539.223 414.878C538.155 414.669 537.052 414.737 536.018 415.075C534.984 415.413 534.054 416.01 533.315 416.809C532.576 417.607 532.054 418.582 531.798 419.639C531.542 420.696 531.56 421.801 531.851 422.849L556.137 510.03L681.972 541.713L654.418 444.646C653.77 442.365 652.504 440.308 650.759 438.702C649.014 437.097 646.859 436.006 644.532 435.55Z" fill="#F1F3FF"/>
<path opacity="0.3" d="M541.853 60.2088C537.964 60.1662 534.129 61.1139 530.707 62.9627C530.579 59.5476 529.484 56.2392 527.549 53.4223C525.614 50.6055 522.918 48.3962 519.777 47.0515C516.635 45.7068 513.176 45.282 509.802 45.8266C506.428 46.3712 503.278 47.8628 500.719 50.1277C497.544 42.4174 492.15 35.824 485.222 31.1843C478.293 26.5446 470.143 24.0678 461.804 24.068C461.454 24.068 461.11 24.068 460.76 24.068C457.804 16.0594 452.125 9.34611 444.717 5.10406C437.309 0.862003 428.644 -0.638336 420.241 0.86587C411.838 2.37008 404.232 6.78292 398.756 13.3314C393.279 19.8799 390.282 28.1464 390.287 36.683C380.867 36.6723 371.813 40.3333 365.047 46.889C361.676 39.1978 356.06 32.704 348.936 28.2583C341.812 23.8125 333.511 21.622 325.12 21.9737C316.73 22.3254 308.641 25.2028 301.914 30.2291C295.186 35.2555 290.134 42.1964 287.418 50.1427C282.285 47.2989 275.523 45.5645 268.1 45.5645C252.067 45.5645 239.067 63.0577 239.067 73.0537H559.941C559.906 65.9665 551.824 60.2088 541.853 60.2088Z" fill="url(#paint8_linear_1480_6316)"/>
<path opacity="0.3" d="M576.319 143.423C581.954 143.364 587.511 144.74 592.468 147.422C592.653 142.478 594.239 137.69 597.04 133.612C599.842 129.535 603.743 126.338 608.291 124.392C612.839 122.446 617.846 121.832 622.73 122.621C627.613 123.41 632.172 125.57 635.876 128.849C640.469 117.694 648.273 108.154 658.298 101.441C668.322 94.7281 680.114 91.1441 692.178 91.1438C692.678 91.1438 693.178 91.1688 693.678 91.1788C697.962 79.6002 706.18 69.8966 716.896 63.766C727.612 57.6354 740.143 55.4682 752.295 57.6438C764.448 59.8193 775.448 66.1989 783.371 75.6663C791.295 85.1338 795.637 97.086 795.638 109.432C809.269 109.42 822.369 114.715 832.163 124.196C837.041 113.066 845.167 103.668 855.477 97.2345C865.787 90.801 877.799 87.6313 889.94 88.1407C902.082 88.6501 913.787 92.8149 923.521 100.09C933.256 107.364 940.566 117.409 944.494 128.909C951.916 124.791 961.708 122.287 972.438 122.287C995.639 122.287 1014.45 147.612 1014.45 162.041H550.199C550.199 151.775 561.895 143.423 576.319 143.423Z" fill="url(#paint9_linear_1480_6316)"/>
<path d="M239.581 339.772C239.321 339.062 239.176 338.658 239.151 338.588C239.368 338.952 239.513 339.354 239.581 339.772Z" fill="url(#paint10_linear_1480_6316)"/>
<path opacity="0.3" d="M644.532 435.55L539.223 414.878C538.155 414.669 537.052 414.737 536.018 415.075C534.984 415.413 534.054 416.01 533.315 416.809C532.576 417.607 532.054 418.582 531.798 419.639C531.542 420.696 531.56 421.801 531.851 422.849L556.137 510.03L681.972 541.713L654.418 444.646C653.77 442.365 652.504 440.308 650.759 438.702C649.014 437.097 646.859 436.006 644.532 435.55Z" fill="url(#paint11_linear_1480_6316)"/>
<path d="M685.742 339.766C686.16 338.463 685.942 337.227 685.253 337.006C684.564 336.785 683.667 337.662 683.248 338.966C682.83 340.269 683.049 341.505 683.737 341.726C684.426 341.948 685.323 341.07 685.742 339.766Z" fill="black"/>
<path d="M667.329 335.675C667.748 334.371 667.529 333.135 666.84 332.914C666.152 332.693 665.254 333.57 664.836 334.874C664.417 336.178 664.636 337.414 665.325 337.635C666.013 337.856 666.911 336.978 667.329 335.675Z" fill="black"/>
<path d="M669.562 353.367C668.977 353.368 668.393 353.329 667.813 353.252C667.681 353.234 667.555 353.19 667.441 353.123C667.326 353.056 667.226 352.967 667.146 352.862C667.066 352.756 667.008 352.636 666.974 352.508C666.941 352.38 666.933 352.246 666.951 352.115C666.969 351.983 667.012 351.857 667.079 351.743C667.146 351.628 667.235 351.528 667.341 351.448C667.446 351.368 667.566 351.31 667.695 351.276C667.823 351.243 667.956 351.235 668.088 351.253C669.484 351.402 670.895 351.334 672.271 351.053C675.015 350.468 676.794 349.053 677.559 346.824C677.596 346.694 677.659 346.572 677.744 346.466C677.83 346.361 677.936 346.273 678.056 346.21C678.176 346.147 678.308 346.109 678.444 346.099C678.579 346.088 678.715 346.105 678.844 346.149C678.973 346.193 679.091 346.263 679.192 346.354C679.292 346.445 679.373 346.556 679.43 346.679C679.487 346.803 679.517 346.936 679.52 347.072C679.524 347.208 679.499 347.343 679.448 347.469C677.844 352.172 672.971 353.367 669.562 353.367Z" fill="#ED9572"/>
<path d="M673.945 329.121C673.797 329.122 673.65 329.089 673.516 329.026C673.382 328.963 673.264 328.871 673.17 328.756C669.671 324.508 664.928 327.407 664.728 327.532C664.504 327.674 664.233 327.721 663.974 327.663C663.716 327.605 663.491 327.446 663.349 327.222C663.207 326.998 663.16 326.727 663.218 326.468C663.276 326.209 663.435 325.984 663.659 325.843C665.868 324.443 671.016 322.984 674.714 327.487C674.835 327.633 674.911 327.81 674.934 327.998C674.958 328.186 674.927 328.376 674.847 328.548C674.766 328.719 674.638 328.864 674.479 328.965C674.319 329.067 674.134 329.121 673.945 329.121Z" fill="#DD842A"/>
<path d="M695.227 333.235C695.086 333.234 694.947 333.205 694.819 333.147C694.69 333.089 694.575 333.005 694.482 332.9C692.448 330.631 690.433 329.441 688.484 329.361C687.306 329.302 686.148 329.691 685.246 330.451C685.151 330.542 685.039 330.613 684.917 330.661C684.794 330.709 684.663 330.732 684.532 330.729C684.401 330.726 684.271 330.698 684.151 330.645C684.031 330.592 683.922 330.516 683.831 330.421C683.647 330.234 683.543 329.982 683.543 329.719C683.543 329.456 683.647 329.203 683.831 329.016C685.113 327.883 686.785 327.29 688.494 327.362C690.993 327.442 693.492 328.861 695.936 331.565C696.066 331.709 696.151 331.887 696.182 332.079C696.212 332.27 696.186 332.466 696.107 332.642C696.028 332.819 695.9 332.969 695.737 333.074C695.575 333.18 695.385 333.235 695.192 333.235H695.227Z" fill="#DD842A"/>
<path d="M670.351 346.005C669.826 346.015 669.307 345.882 668.852 345.62C668.474 345.378 668.167 345.04 667.962 344.64C667.757 344.241 667.663 343.794 667.687 343.346C667.557 338.253 673.6 333.115 673.855 332.9C674.058 332.729 674.32 332.645 674.585 332.668C674.849 332.69 675.093 332.817 675.264 333.02C675.435 333.223 675.519 333.485 675.496 333.749C675.474 334.014 675.347 334.258 675.144 334.429C675.089 334.474 669.577 339.162 669.687 343.296C669.687 343.526 669.732 343.795 669.887 343.91C670.286 344.155 671.466 343.91 672.276 343.496C672.514 343.38 672.789 343.363 673.04 343.45C673.291 343.537 673.497 343.719 673.613 343.958C673.729 344.197 673.745 344.471 673.658 344.722C673.572 344.973 673.389 345.179 673.15 345.295C672.276 345.722 671.323 345.963 670.351 346.005Z" fill="#ED9572"/>
<path d="M705.898 350.443C705.731 350.441 705.567 350.398 705.421 350.317C705.275 350.235 705.152 350.119 705.063 349.978C705.008 349.888 703.724 347.749 705.413 344.48C707.162 341.071 710.341 341.386 710.476 341.401C710.741 341.43 710.984 341.564 711.15 341.772C711.317 341.98 711.395 342.246 711.366 342.511C711.336 342.776 711.203 343.019 710.995 343.185C710.787 343.352 710.521 343.43 710.256 343.401C710.186 343.401 708.297 343.251 707.192 345.4C706.048 347.634 706.737 348.923 706.772 348.973C706.903 349.202 706.939 349.472 706.872 349.727C706.805 349.982 706.639 350.199 706.412 350.333C706.254 350.416 706.076 350.454 705.898 350.443Z" fill="#ED9572"/>
<path d="M701.07 326.972C700.938 326.983 700.806 326.967 700.681 326.927C700.556 326.886 700.44 326.821 700.339 326.736C700.239 326.651 700.157 326.546 700.097 326.429C700.037 326.312 700.001 326.184 699.99 326.052C699.98 325.921 699.995 325.789 700.036 325.664C700.076 325.539 700.141 325.422 700.226 325.322C700.312 325.222 700.416 325.14 700.533 325.08C700.651 325.02 700.778 324.983 700.91 324.973L711.351 323.264C711.483 323.234 711.621 323.231 711.755 323.256C711.889 323.281 712.016 323.334 712.129 323.41C712.242 323.486 712.338 323.584 712.411 323.699C712.485 323.813 712.534 323.942 712.556 324.076C712.579 324.21 712.573 324.348 712.54 324.48C712.508 324.612 712.448 324.736 712.366 324.844C712.283 324.953 712.179 325.043 712.061 325.11C711.942 325.177 711.811 325.219 711.675 325.233L701.235 326.947L701.07 326.972Z" fill="#433872"/>
<path d="M700.225 332.06C700.093 332.071 699.961 332.055 699.836 332.015C699.711 331.974 699.595 331.909 699.494 331.824C699.394 331.738 699.312 331.634 699.252 331.517C699.192 331.4 699.156 331.272 699.145 331.14C699.135 331.009 699.15 330.877 699.191 330.752C699.231 330.627 699.296 330.511 699.381 330.41C699.467 330.31 699.571 330.228 699.688 330.168C699.806 330.108 699.933 330.071 700.065 330.061L710.501 328.347C710.766 328.304 711.037 328.368 711.255 328.525C711.473 328.682 711.619 328.919 711.663 329.184C711.706 329.449 711.642 329.72 711.485 329.938C711.328 330.156 711.091 330.303 710.826 330.346L700.385 332.06H700.225Z" fill="#433872"/>
<path d="M595.936 481.826L588.614 469.331L595.566 457.106L602.883 469.116L595.936 481.826Z" fill="#8E37F5"/>
<path opacity="0.6" d="M684.761 408.605C684.991 404.332 684.051 396.61 679.468 382.82C679.468 382.82 688.149 391.667 693.542 402.397L684.761 408.605Z" fill="#9C9EF9"/>
<path opacity="0.22" d="M850.985 419.006C850.985 419.006 826.105 414.398 794.353 427.897C770.662 437.973 740.244 442.517 712.555 430.616C709.481 429.292 704.953 424.364 702.439 420.245C708.406 419.491 712.935 413.513 720.402 391.432C732.087 356.77 739.019 427.283 778.434 425.503C800.845 424.504 832.758 407.171 851.15 410.694C851.255 413.466 851.2 416.241 850.985 419.006Z" fill="#9C9EF9"/>
<path opacity="0.37" d="M850.986 419.006C850.986 419.006 826.106 414.398 794.353 427.897C773.786 436.644 748.151 441.222 723.631 434.49C736.031 436.374 751.395 436.864 763.94 431.556C789.43 420.775 814.95 394.46 848.977 396.63C850.079 400.534 850.769 404.542 851.036 408.59C851.086 409.265 851.126 409.949 851.151 410.644V410.694C851.256 413.466 851.2 416.241 850.986 419.006Z" fill="#9C9EF9"/>
<path d="M758.422 425.108C759.312 437.704 759.547 456.066 759.547 456.066C753.765 452.458 747.188 450.32 740.389 449.839C727.044 448.839 712.4 455.572 711.4 456.036L711.345 456.066C711.345 456.066 717.938 364.033 743.668 365.332C744.893 365.386 746.107 365.582 747.286 365.917C766.024 371.355 757.437 411.149 758.422 425.108Z" fill="#F1F3FF"/>
<path opacity="0.22" d="M758.422 425.109C759.312 437.704 759.547 456.066 759.547 456.066C753.765 452.458 747.187 450.32 740.389 449.839C727.044 448.839 712.4 455.572 711.4 456.036C712.9 455.227 745.387 437.579 753.494 404.347C761.601 371.115 747.996 366.147 747.311 365.927C766.024 371.355 757.437 411.149 758.422 425.109Z" fill="#9C9EF9"/>
<g opacity="0.22">
<path opacity="0.22" d="M688.934 372.489C688.934 372.489 688.614 397.199 700.224 399.978C711.835 402.757 719.967 367.411 710.66 356.495L707.927 357.495C707.927 357.495 715.998 367.086 707.057 389.293C698.115 411.499 690.883 381.206 692.168 374.958L688.934 372.489Z" fill="#9C9EF9"/>
</g>
<path d="M669.072 279.936H668.752C668.858 279.925 668.966 279.925 669.072 279.936Z" fill="#9C9EF9"/>
<g opacity="0.5">
<path opacity="0.5" d="M834.082 306.535C830.853 316.131 823.471 324.528 809.682 329.056C772.996 341.052 747.206 309.444 732.632 309.009C728.049 308.874 724.97 310.044 722.901 311.718C723.601 309.079 725.1 303.416 730.898 302.632C755.988 299.243 783.217 344.445 834.082 306.535Z" fill="#DD7814"/>
</g>
<path opacity="0.5" d="M833.307 276.207C827.895 281.95 817.733 288.572 802.32 288.332C796.237 288.242 778.184 279.806 774.615 278.371C778.074 278.926 781.368 279.476 784.402 279.871C786.703 280.17 789.028 280.242 791.344 280.086C811.066 278.786 825.685 261.843 826.03 261.438C829.21 265.952 831.665 270.935 833.307 276.207Z" fill="#DD7814"/>
<path d="M691.324 359.734L689.784 362.288C688.348 364.672 686.302 366.628 683.856 367.956L688.935 372.489L691.324 359.734Z" fill="#ED9572"/>
<path opacity="0.46" d="M943.959 263.782C941.425 279.941 933.613 291.876 927.166 299.298L917.724 308.295L856.043 339.407C856.043 339.407 910.607 285.004 922.257 279.851C929.884 276.487 938.761 268.72 943.959 263.782Z" fill="#5A00C4"/>
<path d="M919.848 256.935C913.609 258.221 907.115 257.222 901.551 254.121C904.115 249.293 902.66 225.132 903.4 204.031V204.071C904.569 243.59 919.848 256.935 919.848 256.935Z" fill="#5A00C4"/>
<path d="M956.504 347.119C926.556 379.107 883.403 394.496 860.842 400.753L859.707 400.108C859.707 400.108 872.702 385.064 890.545 381.836C908.388 378.607 1016.13 313.297 1040.46 204.405L1046.66 207.904C1058.07 234.708 998.732 302.042 956.504 347.119Z" fill="#5A00C4"/>
<path d="M257.369 301.752C257.149 301.752 256.936 301.679 256.761 301.546C256.587 301.412 256.461 301.225 256.404 301.012C255.5 297.664 254.105 295.38 252.376 294.4C251.599 293.922 250.67 293.758 249.777 293.94C249.523 294.018 249.249 293.991 249.014 293.867C248.78 293.742 248.605 293.529 248.527 293.275C248.45 293.022 248.476 292.747 248.601 292.513C248.726 292.279 248.938 292.104 249.192 292.026C250.582 291.695 252.047 291.908 253.285 292.621C255.565 293.87 257.259 296.514 258.333 300.488C258.368 300.614 258.378 300.747 258.362 300.877C258.345 301.007 258.303 301.133 258.238 301.247C258.173 301.362 258.087 301.462 257.983 301.542C257.879 301.623 257.76 301.682 257.634 301.717C257.547 301.738 257.458 301.75 257.369 301.752Z" fill="#DD8858"/>
<path d="M271.093 281.285C270.816 281.286 270.543 281.208 270.309 281.06C269.971 280.853 269.729 280.521 269.635 280.136C269.541 279.751 269.604 279.345 269.809 279.006C271.513 276.237 276.591 271.904 283.608 275.322C283.954 275.503 284.215 275.812 284.336 276.183C284.458 276.553 284.43 276.957 284.259 277.307C284.088 277.658 283.787 277.928 283.42 278.06C283.053 278.193 282.649 278.177 282.294 278.016C279.65 276.732 277.206 276.742 275.027 278.051C273.97 278.697 273.062 279.559 272.363 280.58C272.228 280.796 272.041 280.973 271.819 281.096C271.597 281.22 271.347 281.285 271.093 281.285Z" fill="#512610"/>
<path d="M291.56 276.312C291.294 276.312 291.031 276.241 290.801 276.107C290.571 275.972 290.381 275.778 290.25 275.545C290.12 275.312 290.054 275.049 290.059 274.782C290.065 274.516 290.141 274.255 290.281 274.028C291.985 271.259 297.063 266.926 304.08 270.344C304.438 270.518 304.712 270.828 304.842 271.204C304.972 271.581 304.947 271.993 304.773 272.351C304.598 272.709 304.289 272.983 303.913 273.113C303.536 273.242 303.124 273.217 302.766 273.043C300.122 271.754 297.678 271.769 295.499 273.078C294.443 273.724 293.535 274.586 292.835 275.607C292.7 275.823 292.512 276.001 292.289 276.125C292.066 276.248 291.815 276.312 291.56 276.312Z" fill="#512610"/>
<g opacity="0.61">
<path opacity="0.61" d="M292.345 331.92C288.697 337.918 283.394 339.032 278.351 338.268C280.07 337.938 282.914 337.163 283.484 335.599C284.313 333.32 282.244 319.65 282.244 319.65L291.191 323.258L291.596 326.322L292.345 331.92Z" fill="#ED9572"/>
</g>
<path d="M302.611 288.192C302.466 288.098 302.796 289.057 303.181 290.077C303.264 290.31 303.288 290.56 303.25 290.805C303.213 291.049 303.116 291.281 302.968 291.479C302.819 291.677 302.624 291.835 302.4 291.939C302.175 292.043 301.928 292.09 301.681 292.076C299.698 291.99 297.714 292.212 295.799 292.736C295.144 292.906 294.494 293.111 293.839 293.345C293.809 293.596 293.717 293.836 293.572 294.043C293.428 294.251 293.235 294.419 293.01 294.535C292.287 294.839 291.48 294.871 290.736 294.625C290.416 294.775 290.091 294.93 289.766 295.095C287.352 296.289 284.848 297.764 282.114 299.373C273.562 304.406 270.184 304.146 267.93 300.048C265.006 294.725 260.198 276.232 260.318 268.79C260.348 267.006 260.393 265.916 260.393 265.916C256.819 267.731 254.395 269.86 252.856 272.079C250.901 274.843 249.958 278.197 250.187 281.575C250.316 283.944 250.896 286.266 251.896 288.417C257.924 290.836 260.453 298.109 261.422 304.976C261.562 305.572 261.757 306.154 262.002 306.715C266.86 320.935 277.386 319.25 277.386 319.25C277.886 320.405 278.845 323.958 290.651 326.033C308.209 329.176 312.852 294.84 302.611 288.192ZM295.524 312.103C290.876 311.243 288.427 310.539 286.182 308.27C285.632 307.712 285.258 307.005 285.106 306.236C284.954 305.468 285.031 304.671 285.328 303.946C286.192 301.882 287.977 299.083 291.495 298.044C297.333 296.314 301.282 293.955 302.186 297.234C303.091 300.513 301.282 313.173 295.524 312.103Z" fill="#512610"/>
<g opacity="0.69">
<path opacity="0.69" d="M292.28 322.409C280.475 320.335 280.22 314.097 279.725 312.943C279.725 312.943 268.489 317.311 263.631 303.092C263.421 302.477 264.261 299.198 264.181 298.623C263.211 291.756 259.553 287.213 253.525 284.794C252.525 282.643 251.945 280.32 251.816 277.951C251.707 276.256 251.876 274.554 252.316 272.913C250.711 275.527 249.96 278.575 250.166 281.635C250.295 284.004 250.876 286.326 251.876 288.477C257.903 290.896 260.432 298.169 261.402 305.036C261.542 305.632 261.736 306.214 261.982 306.775C266.84 320.995 277.366 319.31 277.366 319.31C277.866 320.465 278.825 324.018 290.631 326.093C298.168 327.417 303.321 321.844 305.945 314.522C303.056 319.91 298.487 323.499 292.28 322.409Z" fill="#1E0D05"/>
</g>
<path d="M290.141 296.719C289.465 296.72 288.796 296.572 288.183 296.286C287.57 296.001 287.027 295.583 286.593 295.065C286.422 294.861 286.34 294.598 286.363 294.334C286.386 294.07 286.514 293.825 286.717 293.655C286.921 293.485 287.184 293.402 287.448 293.426C287.712 293.449 287.957 293.577 288.127 293.78C288.412 294.12 288.778 294.382 289.191 294.543C289.604 294.704 290.051 294.758 290.491 294.7C290.919 294.654 291.327 294.499 291.677 294.25C292.028 294 292.308 293.665 292.49 293.275C292.72 292.788 292.851 292.26 292.875 291.722C292.899 291.184 292.816 290.647 292.63 290.141L288.907 279.89C288.816 279.641 288.828 279.366 288.94 279.126C289.052 278.885 289.255 278.699 289.504 278.609C289.753 278.518 290.028 278.53 290.269 278.642C290.509 278.754 290.695 278.957 290.786 279.206L294.509 289.462C294.784 290.214 294.907 291.014 294.871 291.814C294.835 292.615 294.641 293.4 294.299 294.125C293.978 294.811 293.489 295.404 292.878 295.851C292.266 296.297 291.552 296.582 290.801 296.679C290.582 296.71 290.362 296.723 290.141 296.719Z" fill="#DD8858"/>
<path d="M272.613 286.921L253.908 287.273L253.937 288.772L272.641 288.42L272.613 286.921Z" fill="black"/>
<path d="M279.315 297.034C275.222 297.034 271.898 292.84 271.898 287.687C271.898 282.535 275.222 278.346 279.315 278.346C283.409 278.346 286.732 282.535 286.732 287.687C286.732 292.84 283.404 297.034 279.315 297.034ZM279.315 279.846C276.052 279.846 273.398 283.344 273.398 287.687C273.398 292.031 276.052 295.534 279.315 295.534C282.579 295.534 285.233 292.036 285.233 287.687C285.233 283.339 282.564 279.846 279.315 279.846Z" fill="black"/>
<path d="M299.402 290.841C295.853 290.841 292.965 287.038 292.965 282.345C292.965 277.652 295.853 273.848 299.402 273.848C302.951 273.848 305.839 277.652 305.839 282.345C305.839 287.038 302.951 290.841 299.402 290.841ZM299.402 275.387C296.678 275.387 294.464 278.516 294.464 282.385C294.464 286.253 296.678 289.382 299.402 289.382C302.126 289.382 304.34 286.253 304.34 282.385C304.34 278.516 302.126 275.377 299.402 275.377V275.387Z" fill="black"/>
<path d="M286.327 286.658L285.397 285.478C285.562 285.348 289.476 282.315 294.089 283.549L293.699 284.999C289.831 283.959 286.362 286.628 286.327 286.658Z" fill="black"/>
<path d="M307.979 266.436C307.979 266.436 300.817 267.136 289.071 268.175C270.454 269.82 264.301 286.643 240.54 287.668L244.664 280.67C246.972 276.738 247.965 272.171 247.498 267.635L246.383 256.945C246.346 255.557 246.64 254.18 247.24 252.928C247.839 251.676 248.728 250.584 249.832 249.742C255.379 245.519 267.065 238.772 282.549 241.556C284.064 241.831 285.496 242.453 286.731 243.373C287.966 244.293 288.973 245.486 289.671 246.859L292.365 252.102C294.68 256.629 298.195 260.433 302.526 263.097L307.979 266.436Z" fill="#712CCA"/>
<path d="M265.255 428.412C261.257 432.91 257.134 435.909 253.005 437.798C245.508 441.252 238.011 441.032 231.654 439.433C225.205 437.728 219.169 434.734 213.911 430.631C214.131 425.563 214.425 420.715 214.795 416.087C215.505 406.955 216.48 398.674 217.649 391.227C218.93 382.664 220.802 374.201 223.252 365.897C227.035 353.492 231.484 345.8 235.792 342.751C243.079 337.593 252.161 345.75 254.565 361.743C255.319 367.076 255.371 372.485 254.72 377.832C254.402 380.728 254.305 383.643 254.43 386.554C254.755 395.33 256.769 404.237 258.973 411.544C260.689 417.3 262.788 422.935 265.255 428.412Z" fill="#FF7E21"/>
<path d="M254.72 377.807C254.402 380.703 254.305 383.618 254.43 386.529L217.649 391.217C218.93 382.654 220.802 374.191 223.252 365.887L254.565 361.719C255.319 367.052 255.371 372.461 254.72 377.807Z" fill="#BDA6FF"/>
<path d="M265.255 428.412C261.257 432.91 257.134 435.909 253.005 437.798L231.654 439.433C225.205 437.728 219.169 434.734 213.911 430.631C214.131 425.563 214.425 420.715 214.795 416.087C225.196 414.892 241.475 413.243 258.973 411.544C260.689 417.3 262.788 422.935 265.255 428.412Z" fill="#BDA6FF"/>
<path d="M262.202 428.412L261.917 428.682C259.723 430.681 245.068 443.096 224.137 434.645C222.36 433.925 220.628 433.101 218.949 432.176C217.674 431.476 223.332 425.788 225.121 425.453C230.619 424.454 235.617 423.034 244.379 422.874C248.492 422.789 261.647 428.257 262.202 428.412Z" fill="url(#paint12_linear_1480_6316)"/>
<path d="M339.696 460.31C320.799 462.029 304.51 449.069 256.124 428.407C255.549 428.162 221.403 423.879 222.407 432.546C222.407 432.546 230.684 452.768 258.618 460.47C300.771 472.095 340.586 482.596 355.88 487.649C359.985 489.001 364.361 489.321 368.62 488.578L354.195 477.268L365.851 483.72C368.001 484.91 370.396 485.589 372.85 485.705C375.304 485.821 377.753 485.371 380.005 484.39L387.867 480.971C387.867 480.971 358.294 458.62 339.696 460.31Z" fill="#F6C5A6"/>
<path d="M400.747 411.209L500.898 397.654C502.091 397.493 503.306 397.602 504.452 397.972C505.597 398.343 506.646 398.966 507.519 399.795C508.392 400.624 509.068 401.638 509.498 402.764C509.927 403.889 510.098 405.096 509.999 406.296L501.478 509.445L378.996 529.078L388.842 423.619C389.133 420.51 390.468 417.591 392.63 415.338C394.792 413.084 397.653 411.629 400.747 411.209Z" fill="#F1F3FF"/>
<path opacity="0.3" d="M400.747 411.209L500.898 397.654C502.091 397.493 503.306 397.602 504.452 397.972C505.597 398.343 506.646 398.966 507.519 399.795C508.392 400.624 509.068 401.638 509.498 402.764C509.927 403.889 510.098 405.096 509.999 406.296L501.478 509.445L378.996 529.078L388.842 423.619C389.133 420.51 390.468 417.591 392.63 415.338C394.792 413.084 397.653 411.629 400.747 411.209Z" fill="url(#paint13_linear_1480_6316)"/>
<path d="M455.757 455.862C457.434 451.238 456.538 446.672 453.756 445.663C450.974 444.654 447.36 447.585 445.683 452.21C444.006 456.834 444.902 461.4 447.684 462.409C450.466 463.418 454.08 460.487 455.757 455.862Z" fill="#FF7E21"/>
<path d="M1004.78 126.701C1001.58 128.23 998.283 129.7 995.024 131.054C990.471 132.953 985.987 134.668 981.899 136.152C976.49 138.113 971.732 141.537 968.154 146.043C964.577 150.549 962.321 155.96 961.637 161.672L955.254 160.208L934.263 155.395L934.068 137.237C933.568 132.838 933.568 129.46 934.028 126.841C935.527 117.989 941.875 117.844 949.492 116.64L1005.39 107.773C1007.28 107.454 1009.22 107.76 1010.92 108.645C1012.62 109.53 1013.98 110.946 1014.8 112.676C1014.99 113.084 1015.14 113.507 1015.26 113.941C1016.19 117.499 1014.48 122.068 1004.78 126.701Z" fill="#FF7E21"/>
<path d="M943.959 128.215C942.868 128.389 941.765 128.481 940.66 128.49C936.117 128.49 934.048 122.797 937.622 119.993C940.515 117.724 944.759 117.384 949.487 116.635L1005.39 107.768C1007.28 107.449 1009.22 107.755 1010.92 108.64C1012.61 109.525 1013.98 110.941 1014.8 112.671C1014.98 113.081 956.499 126.276 943.959 128.215Z" fill="#FFEDE1"/>
<path d="M995.034 131.054C990.48 132.953 985.997 134.668 981.909 136.152C976.5 138.113 971.742 141.537 968.164 146.043C964.587 150.549 962.33 155.96 961.647 161.672L955.264 160.208C955.634 155.38 957.713 140.046 969.474 136.167C983.468 131.549 992.465 127.066 992.465 127.066L995.034 131.054Z" fill="#FFEDE1"/>
<path d="M965.425 294.085L955.364 279.871L967.919 250.112L965.425 294.085Z" fill="#5A00C4"/>
<defs>
<linearGradient id="paint0_linear_1480_6316" x1="317.5" y1="395.66" x2="364.212" y2="395.66" gradientUnits="userSpaceOnUse">
<stop stop-color="#3B264D"/>
<stop offset="1" stop-color="#071232"/>
</linearGradient>
<linearGradient id="paint1_linear_1480_6316" x1="233.828" y1="443.481" x2="350.607" y2="443.481" gradientUnits="userSpaceOnUse">
<stop stop-color="#3B264D"/>
<stop offset="1" stop-color="#071232"/>
</linearGradient>
<radialGradient id="paint2_radial_1480_6316" cx="0" cy="0" r="1" gradientUnits="userSpaceOnUse" gradientTransform="translate(483.165 411.879) rotate(27.1596) scale(1719.98 1719.98)">
<stop stop-color="#8E37F5"/>
<stop offset="0.295898" stop-color="#BDA6FF" stop-opacity="0"/>
</radialGradient>
<linearGradient id="paint3_linear_1480_6316" x1="440.634" y1="440.942" x2="440.634" y2="778.994" gradientUnits="userSpaceOnUse">
<stop stop-color="white"/>
<stop offset="1" stop-color="white" stop-opacity="0"/>
</linearGradient>
<linearGradient id="paint4_linear_1480_6316" x1="805.9" y1="462.214" x2="805.9" y2="778.999" gradientUnits="userSpaceOnUse">
<stop stop-color="white"/>
<stop offset="1" stop-color="white" stop-opacity="0"/>
</linearGradient>
<linearGradient id="paint5_linear_1480_6316" x1="133.243" y1="512.799" x2="133.243" y2="778.994" gradientUnits="userSpaceOnUse">
<stop stop-color="white"/>
<stop offset="1" stop-color="white" stop-opacity="0"/>
</linearGradient>
<linearGradient id="paint6_linear_1480_6316" x1="332.314" y1="405.041" x2="359.678" y2="405.041" gradientUnits="userSpaceOnUse">
<stop stop-color="#3B264D"/>
<stop offset="1" stop-color="#071232"/>
</linearGradient>
<linearGradient id="paint7_linear_1480_6316" x1="255.085" y1="335.274" x2="319.555" y2="335.274" gradientUnits="userSpaceOnUse">
<stop stop-color="#3B264D"/>
<stop offset="1" stop-color="#071232"/>
</linearGradient>
<linearGradient id="paint8_linear_1480_6316" x1="239.052" y1="36.708" x2="559.906" y2="36.708" gradientUnits="userSpaceOnUse">
<stop stop-color="#3939FA"/>
<stop offset="1" stop-color="white" stop-opacity="0"/>
</linearGradient>
<linearGradient id="paint9_linear_1480_6316" x1="836.5" y1="-2.50001" x2="509.5" y2="190.5" gradientUnits="userSpaceOnUse">
<stop stop-color="#3939FA"/>
<stop offset="1"/>
</linearGradient>
<linearGradient id="paint10_linear_1480_6316" x1="239.146" y1="339.177" x2="239.576" y2="339.177" gradientUnits="userSpaceOnUse">
<stop stop-color="#3B264D"/>
<stop offset="1" stop-color="#071232"/>
</linearGradient>
<linearGradient id="paint11_linear_1480_6316" x1="531.611" y1="478.233" x2="681.972" y2="478.233" gradientUnits="userSpaceOnUse">
<stop stop-color="#3939FA"/>
<stop offset="1" stop-color="white" stop-opacity="0"/>
</linearGradient>
<linearGradient id="paint12_linear_1480_6316" x1="218.764" y1="430.216" x2="262.202" y2="430.216" gradientUnits="userSpaceOnUse">
<stop stop-color="#3B264D"/>
<stop offset="1" stop-color="#071232"/>
</linearGradient>
<linearGradient id="paint13_linear_1480_6316" x1="378.991" y1="463.329" x2="510.029" y2="463.329" gradientUnits="userSpaceOnUse">
<stop stop-color="#3939FA"/>
<stop offset="1" stop-color="white" stop-opacity="0"/>
</linearGradient>
</defs>
</svg>
