<svg width="530" height="311" viewBox="0 0 530 311" fill="none" xmlns="http://www.w3.org/2000/svg">
<path d="M205.209 279.309L201.28 200.914L212.561 198.797L205.209 279.309Z" fill="url(#paint0_linear_1543_4325)"/>
<path d="M394.844 211.48L347.199 149.122L337.219 154.802L394.844 211.48Z" fill="url(#paint1_linear_1543_4325)"/>
<path d="M25.736 220.849L22.3966 210.543C151.749 136.901 349.459 72.8359 497.404 56.6286L500.743 66.9349C435.967 123.209 360.521 165.841 278.909 192.286C197.297 218.73 111.193 228.444 25.736 220.849Z" fill="url(#paint2_linear_1543_4325)"/>
<path d="M22.206 209.946C168.375 126.73 330.03 74.3497 497.213 56.0323C432.437 112.307 356.991 154.939 275.379 181.383C193.767 207.827 107.663 217.542 22.206 209.946Z" fill="#3939FA"/>
<g opacity="0.42">
<path d="M76.9277 195.414C83.861 191.098 90.8326 186.836 97.9148 182.764C99.6734 181.726 101.452 180.722 103.23 179.713C105.009 178.705 106.776 177.688 108.562 176.697C112.141 174.727 115.706 172.731 119.314 170.811C133.717 163.092 148.405 155.891 163.273 149.102C170.729 145.748 178.202 142.437 185.774 139.356C193.347 136.276 200.919 133.167 208.626 130.427C223.934 124.633 239.731 120.37 255.372 115.653L302.4 101.835C303.376 101.544 304.356 101.248 305.363 101.002L308.342 100.251C310.323 99.7573 312.309 99.2736 314.3 98.8C316.291 98.3263 318.281 97.8623 320.269 97.4079C322.263 96.9493 324.251 96.4871 326.25 96.0557C334.221 94.2504 342.243 92.6653 350.27 91.1308C366.334 88.1162 382.483 85.5546 398.716 83.5958C402.777 83.1666 406.837 82.686 410.905 82.2976C414.973 81.9093 419.043 81.5815 423.116 81.2673L435.353 80.5508L447.599 80.2357C431.271 80.7917 415.003 82.3163 398.828 84.489C382.653 86.6618 366.544 89.3334 350.54 92.5195L344.545 93.7476L341.544 94.3576L338.555 95.003L332.57 96.281L326.598 97.608C324.605 98.0476 322.623 98.518 320.634 98.9802C318.646 99.4424 316.663 99.9083 314.683 100.392C312.704 100.876 310.72 101.361 308.742 101.859L305.783 102.616C304.807 102.855 303.837 103.154 302.857 103.446L255.901 117.425L232.401 124.324C224.51 126.452 216.894 129.377 209.182 132.015C201.47 134.653 193.934 137.778 186.367 140.839L180.714 143.166L175.072 145.552C173.186 146.337 171.307 147.141 169.435 147.964L163.807 150.427C148.891 157.045 134.186 164.118 119.69 171.646C105.207 179.066 90.9712 187.101 76.9277 195.414Z" fill="white"/>
<path d="M159.332 190.771C161.274 187.451 163.413 184.251 165.736 181.187C168.04 178.11 170.485 175.139 173.04 172.254C175.595 169.369 178.262 166.586 181.03 163.91C183.797 161.234 186.691 158.68 189.645 156.198C192.599 153.717 195.706 151.427 198.848 149.202C200.45 148.127 202.032 147.02 203.669 146.009C204.509 145.495 205.285 144.96 206.116 144.472L208.61 143.01C215.268 139.145 222.289 135.943 229.573 133.45C222.601 136.596 215.844 140.198 209.345 144.231C206.115 146.256 202.953 148.383 199.857 150.611C196.774 152.854 193.747 155.166 190.813 157.606C184.925 162.467 179.332 167.676 174.066 173.205C171.443 175.976 168.872 178.803 166.41 181.731C163.947 184.659 161.569 187.637 159.332 190.771Z" fill="white"/>
<path d="M264.5 169.846C262.99 165.619 261.655 161.35 260.381 157.061C259.726 154.919 259.138 152.76 258.52 150.612L256.757 144.14L255.092 137.64C254.568 135.47 254.015 133.3 253.526 131.118C252.516 126.76 251.565 122.386 250.796 117.964C252.306 122.191 253.641 126.46 254.914 130.749C255.569 132.891 256.157 135.05 256.775 137.198L258.538 143.67L260.198 150.17C260.724 152.346 261.275 154.511 261.764 156.693C262.774 161.051 263.726 165.425 264.5 169.846Z" fill="white"/>
<path d="M365.406 130.48C362.488 128.894 359.477 127.487 356.389 126.265L354.084 125.338L351.748 124.497C350.203 123.905 348.621 123.415 347.053 122.893C346.265 122.638 345.484 122.372 344.681 122.162L342.301 121.464C341.506 121.243 340.721 120.978 339.917 120.791L337.51 120.193L335.104 119.58C334.307 119.378 333.493 119.231 332.663 119.053C331.041 118.72 329.432 118.338 327.791 118.05L322.907 117.19L321.682 116.951C321.272 116.887 320.861 116.843 320.451 116.784L317.992 116.458L315.533 116.112C314.715 115.994 313.896 115.876 313.07 115.815C311.421 115.665 309.773 115.506 308.127 115.336C307.302 115.261 306.48 115.148 305.652 115.102L303.169 114.954L298.204 114.629C297.374 114.551 296.547 114.561 295.716 114.529L293.225 114.457C291.566 114.403 289.903 114.337 288.236 114.259C289.892 114.145 291.558 114.034 293.218 113.948L295.718 113.816C296.551 113.782 297.385 113.71 298.217 113.727L303.224 113.748L305.721 113.749C306.557 113.76 307.387 113.839 308.223 113.879C309.89 113.974 311.54 114.077 313.224 114.192C314.062 114.237 314.893 114.348 315.718 114.428L318.212 114.71L320.7 115.012C321.117 115.065 321.532 115.104 321.947 115.167L323.18 115.376L328.128 116.206C329.774 116.515 331.4 116.914 333.013 117.272C333.83 117.456 334.651 117.616 335.46 117.83L337.883 118.486L340.303 119.153C341.111 119.362 341.9 119.65 342.701 119.898C344.292 120.415 345.895 120.893 347.45 121.515C349.005 122.138 350.597 122.659 352.122 123.348L354.422 124.323L356.686 125.403C359.731 126.846 362.648 128.545 365.406 130.48Z" fill="white"/>
</g>
<path d="M184.46 142.589C181.44 133.267 180.285 123.441 181.06 113.672C181.836 103.904 184.527 94.3853 188.979 85.6592C193.432 76.9331 199.558 69.1708 207.01 62.8158C214.461 56.4608 223.091 51.6375 232.406 48.6215C241.721 45.6035 251.539 44.4514 261.299 45.231C271.059 46.0105 280.571 48.7065 289.292 53.1648C298.012 57.6232 305.77 63.7567 312.123 71.2151C318.475 78.6735 323.298 87.3107 326.316 96.6335C309.259 116.703 286.96 131.63 261.912 139.747C236.863 147.864 210.051 148.85 184.47 142.596L184.46 142.589Z" fill="white"/>
<path d="M184.46 142.589C181.44 133.267 180.285 123.441 181.06 113.672C181.836 103.904 184.527 94.3853 188.979 85.6592C193.432 76.9331 199.558 69.1708 207.01 62.8158C214.461 56.4608 223.091 51.6375 232.406 48.6215C241.721 45.6035 251.539 44.4514 261.299 45.231C271.059 46.0105 280.571 48.7065 289.292 53.1648C298.012 57.6232 305.77 63.7567 312.123 71.2151C318.475 78.6735 323.298 87.3107 326.316 96.6335C309.259 116.703 286.96 131.63 261.912 139.747C236.863 147.864 210.051 148.85 184.47 142.596L184.46 142.589Z" fill="url(#paint3_linear_1543_4325)"/>
<path opacity="0.35" d="M315.062 108.407C297.841 124.507 276.884 136.061 254.083 142.029C231.281 147.996 207.352 148.189 184.455 142.589C179.519 127.34 179.618 110.908 184.737 95.7232C189.856 80.5383 199.724 67.407 212.88 58.2719C212.541 58.6121 212.213 58.9597 211.884 59.3073C181.902 91.2723 210.472 142.943 253.621 135.333L255.146 135.047C276.922 130.966 297.44 121.842 315.062 108.407Z" fill="white"/>
<defs>
<linearGradient id="paint0_linear_1543_4325" x1="184.63" y1="313.377" x2="222.429" y2="165.008" gradientUnits="userSpaceOnUse">
<stop offset="0.26" stop-color="#3939FA"/>
<stop offset="1" stop-color="white" stop-opacity="0"/>
</linearGradient>
<linearGradient id="paint1_linear_1543_4325" x1="434.712" y1="231.502" x2="309.056" y2="142.568" gradientUnits="userSpaceOnUse">
<stop offset="0.26" stop-color="#3939FA"/>
<stop offset="1" stop-color="white" stop-opacity="0"/>
</linearGradient>
<linearGradient id="paint2_linear_1543_4325" x1="28.4312" y1="229.113" x2="503.469" y2="75.2895" gradientUnits="userSpaceOnUse">
<stop stop-color="#3939FA"/>
<stop offset="1" stop-color="#ADADFF"/>
</linearGradient>
<linearGradient id="paint3_linear_1543_4325" x1="241.854" y1="202.044" x2="266.757" y2="-1.72249" gradientUnits="userSpaceOnUse">
<stop offset="0.26" stop-color="#FF7E21"/>
<stop offset="1" stop-color="white" stop-opacity="0"/>
</linearGradient>
</defs>
</svg>
