<svg width="672" height="666" viewBox="0 0 672 666" fill="none" xmlns="http://www.w3.org/2000/svg">
<path d="M287.741 106.112C291.751 99.6454 282.394 87.3686 267.346 74.276C267.033 75.5047 266.665 76.7234 266.247 77.9172C268.59 79.9965 270.774 82.041 272.773 84.0408C283.941 95.2182 286.294 101.819 284.772 104.267C283.249 106.714 276.29 107.53 261.322 102.466C258.074 101.367 254.647 100.053 251.08 98.561C239.495 93.706 226.467 86.8762 213.389 78.748C202.465 72.024 192.01 64.5669 182.095 56.4279C177.937 52.9458 174.171 49.5632 170.893 46.2851C159.72 35.1076 157.367 28.5116 158.889 26.0592C160.412 23.6068 167.371 22.796 182.339 27.8599C186.149 29.1483 190.208 30.7302 194.436 32.5558C195.332 31.6703 196.272 30.8247 197.252 30.0089C177.195 21.1495 160.213 17.3292 155.935 24.2237C151.458 31.4067 163.561 45.8076 181.608 60.497C191.14 68.1818 201.141 75.2657 211.553 81.7077C223.116 88.938 235.178 95.3379 247.648 100.859C267.182 109.336 283.548 112.857 287.741 106.112Z" fill="#5A00C4"/>
<path d="M247.658 100.865C246.593 101.506 245.494 102.113 244.355 102.67C242.78 103.446 241.161 104.127 239.505 104.71C232.689 107.094 225.388 107.748 218.257 106.612C211.126 105.477 204.389 102.588 198.65 98.2053C192.911 93.8225 188.351 88.083 185.379 81.5022C182.407 74.9214 181.117 67.7053 181.623 60.5023C184.662 62.9895 187.866 65.4767 191.194 67.9092C195.81 71.3216 200.645 74.6844 205.59 77.9078C207.579 79.2011 209.569 80.4695 211.559 81.7131C214.31 83.4243 217.105 85.0958 219.916 86.7224C225.437 89.9259 231.029 92.9404 236.515 95.6763C240.321 97.5467 244.037 99.2877 247.658 100.865Z" fill="#FF8126"/>
<path d="M267.356 74.2814C267.287 74.555 267.212 74.8236 267.138 75.0972C266.879 76.0473 266.585 76.9924 266.262 77.9176C264.601 82.6739 262.133 87.1082 258.965 91.0252C256.669 93.8605 254.023 96.3928 251.09 98.5614C246.001 96.4273 240.644 93.9202 235.112 91.0998C229.979 88.4633 224.706 85.5483 219.393 82.3995C217.404 81.2256 215.414 80.0152 213.424 78.7683C210.827 77.1566 208.284 75.5266 205.793 73.8784C200.57 70.4312 195.591 66.9143 190.95 63.4322C187.849 61.0942 184.907 58.7728 182.125 56.468C183.203 50.008 185.715 43.8717 189.477 38.5105C190.955 36.3937 192.619 34.4142 194.452 32.5959C195.342 31.7105 196.282 30.8648 197.262 30.049C202.333 25.8401 208.292 22.8356 214.691 21.2616C221.091 19.6876 227.764 19.585 234.208 20.9616C240.653 22.3381 246.702 25.158 251.899 29.2091C257.097 33.2602 261.309 38.4371 264.218 44.3504C268.801 53.6335 269.914 64.2494 267.356 74.2814Z" fill="#FF8126"/>
<path opacity="0.22" d="M219.075 20.3638C210.201 32.4764 206.848 53.5828 205.773 73.8435C205.704 75.1965 205.639 76.5446 205.589 77.8877C205.246 86.6327 205.296 95.0891 205.47 102.456C200.626 100.023 196.281 96.7021 192.661 92.6666L191.194 67.8892L190.93 63.4122L189.438 38.4756C190.915 36.3588 192.58 34.3792 194.412 32.561C195.302 31.6756 196.242 30.8299 197.222 30.0141C203.463 24.849 211.014 21.5154 219.035 20.3837L219.075 20.3638Z" fill="white"/>
<path opacity="0.22" d="M267.137 75.0819C266.879 76.032 266.585 76.9771 266.262 77.9024C264.601 82.6587 262.132 87.0928 258.964 91.0099C256.781 74.6342 250.826 45.7429 236.022 45.4146C223.885 45.1509 228.899 70.2865 235.112 91.0646C235.58 92.6216 236.047 94.1537 236.52 95.646C237.539 98.8744 238.554 101.929 239.504 104.689C234.306 106.516 228.808 107.335 223.303 107.102C222.223 101.69 220.93 94.477 219.92 86.707C219.731 85.2777 219.556 83.8318 219.393 82.3694C216.951 60.5666 217.363 36.2517 231.078 35.0827C248.951 33.5755 261.437 59.8602 267.137 75.0819Z" fill="white"/>
<path d="M611.637 270.706C534.274 291.36 430.634 272.606 451.979 205.826C452.732 203.464 453.648 201.045 454.726 198.57C458.048 190.939 465.611 191.196 468.28 188.146C472.766 183.025 470.569 175.944 485.524 173.269C494.099 171.748 505.171 172.254 519.211 180.044C556.655 200.821 546.81 179.019 570.421 183.372C594.032 187.725 585.376 172.863 599.032 177.481C607.152 180.229 610.65 174.904 616.084 171.636C619.785 169.414 624.381 168.141 631.935 171.01C650.586 178.095 694.063 248.7 611.637 270.706Z" fill="#512613"/>
<path d="M611.637 270.706C534.274 291.36 430.634 272.606 451.979 205.826C445.052 256.996 528.979 269.417 547.47 258.576C565.961 247.734 651.931 259.596 648.263 217.695C645.663 188.001 626.833 176.071 616.075 171.634C619.775 169.412 624.372 168.139 631.926 171.008C650.586 178.095 694.063 248.7 611.637 270.706Z" fill="#3F1506"/>
<path d="M610.27 242.299C609.324 245.417 607.594 248.241 605.245 250.5C604.064 251.623 602.811 252.669 601.495 253.631C599.586 255.058 597.329 256.568 594.797 258.137C594.439 258.357 594.08 258.583 593.711 258.806C589.231 261.531 583.992 264.416 578.432 267.315C575.49 268.845 572.461 270.373 569.403 271.884C559.728 276.667 549.789 281.249 541.604 284.897C538.011 286.503 534.754 287.937 532.022 289.123C526.621 291.472 523.269 292.882 523.269 292.882C523.269 292.882 522.578 294.715 521.353 297.911C520.649 299.759 519.771 302.057 518.744 304.723C516.702 310.011 514.089 316.779 511.159 324.25C510.295 326.45 509.409 328.722 508.49 331.028C505.894 337.67 503.088 344.656 500.273 351.577C499.358 353.831 498.442 356.086 497.523 358.316C495.032 364.371 492.573 370.255 490.245 375.65C489.246 377.967 488.269 380.197 487.327 382.305C486.646 383.86 485.971 385.349 485.326 386.758C482.572 392.763 479.873 398.096 477.237 402.837C475.989 405.077 474.758 407.187 473.545 409.166C466.446 420.804 460.005 428.132 454.821 432.739C452.732 434.623 450.477 436.315 448.084 437.795C444.265 440.108 442.044 440.45 442.044 440.45L438.262 433.987L432.595 424.303L427.514 415.626L418.598 400.41L402.602 381.676L393.558 371.084L380.642 355.953C380.642 355.953 386.004 351.799 392.841 345.688C394.556 344.146 396.364 342.482 398.197 340.732C403.124 336.014 408.25 330.659 412.361 325.316C413.759 323.514 415.064 321.641 416.271 319.706C417.376 317.954 418.336 316.115 419.142 314.208C420.64 310.543 417.105 303.49 415.791 295.111C415.394 292.732 415.248 290.317 415.356 287.908C415.657 282.087 417.748 275.953 423.621 270.073C422.454 268.932 420.948 267.641 419.209 266.157C415.671 263.122 411.118 259.268 406.066 254.168C399.888 247.93 394.309 241.126 389.402 233.846C387.554 231.118 385.718 228.188 383.892 225.054C382.818 223.182 381.749 221.244 380.685 219.239C379.352 216.703 378.045 214.04 376.761 211.252C375.81 209.203 375.3 206.977 375.267 204.719C375.233 202.461 375.676 200.221 376.566 198.145C377.388 196.198 378.58 194.428 380.075 192.933C382.648 190.36 386.012 188.728 389.626 188.299C390.779 188.163 391.964 188.053 393.156 187.97C398.58 187.667 404.02 187.789 409.425 188.334C423.055 189.603 436.911 192.857 445.797 195.253C451.679 196.837 455.417 198.059 455.417 198.059C455.286 198.278 455.168 198.481 455.047 198.721C453.988 200.658 453.069 202.668 452.296 204.736C451.936 205.69 451.606 206.66 451.309 207.634C451.256 207.848 451.182 208.052 451.131 208.261C450.323 211.039 449.774 213.885 449.491 216.763L437.236 214.375L406.212 208.327C406.212 208.327 408.98 209.098 416.499 213.425C424.332 217.925 437.331 226.261 457.728 241.614C462.325 245.064 467.362 247.886 472.705 250.007C487.583 255.953 504.441 256.573 520.656 253.267C524.671 252.448 528.634 251.395 532.526 250.114C536.163 248.921 539.734 247.534 543.224 245.959L550.96 242.471L560.367 238.226L567.422 235.039L533.536 224.539L540.034 209.868L541.126 207.387C546.871 207.761 551.937 208.113 556.488 208.517C573.796 210.014 583.761 212.023 595.818 217.296C597.217 217.905 598.648 218.56 600.114 219.273C601.21 219.796 602.255 220.421 603.235 221.139C605.762 222.992 607.792 225.441 609.144 228.269C610.459 231.003 611.115 234.008 611.06 237.042C611.044 238.822 610.778 240.592 610.27 242.299Z" fill="#2A2AEA"/>
<path opacity="0.32" d="M541.628 284.893C538.035 286.499 534.779 287.933 532.046 289.119L389.431 233.824C387.583 231.096 385.746 228.165 383.921 225.031L541.628 284.893Z" fill="white"/>
<path opacity="0.32" d="M437.278 214.356L406.254 208.308C406.254 208.308 409.021 209.079 416.541 213.406L376.594 198.123C377.417 196.175 378.608 194.406 380.103 192.911L437.278 214.356Z" fill="white"/>
<path opacity="0.32" d="M578.435 267.306C575.492 268.836 572.464 270.364 569.406 271.875L520.7 253.248C524.714 252.429 528.677 251.376 532.569 250.095L578.435 267.306Z" fill="white"/>
<path opacity="0.32" d="M445.84 195.234L455.09 198.703C454.031 200.64 453.112 202.65 452.339 204.718L409.455 188.312C423.085 189.581 436.941 192.836 445.827 195.231L445.84 195.234Z" fill="white"/>
<path opacity="0.32" d="M601.495 253.621C599.586 255.048 597.329 256.558 594.797 258.127C594.439 258.347 594.08 258.573 593.711 258.796L550.996 242.451L560.404 238.206L601.495 253.621Z" fill="white"/>
<path opacity="0.32" d="M611.092 237.02L540.071 209.848L541.163 207.367C546.908 207.741 551.974 208.093 556.525 208.497L609.176 228.247C610.491 230.982 611.147 233.986 611.092 237.02Z" fill="white"/>
<path opacity="0.32" d="M521.378 297.908C520.673 299.756 519.795 302.053 518.769 304.72L419.224 266.132C415.686 263.096 411.133 259.243 406.081 254.142L521.378 297.908Z" fill="white"/>
<path opacity="0.32" d="M511.17 324.243C510.306 326.442 509.42 328.714 508.501 331.021L415.82 295.089C415.423 292.709 415.277 290.295 415.385 287.885L511.17 324.243Z" fill="white"/>
<path opacity="0.32" d="M500.298 351.573C499.382 353.828 498.467 356.082 497.547 358.312L412.39 325.294C413.788 323.492 415.093 321.619 416.301 319.684L500.298 351.573Z" fill="white"/>
<path opacity="0.32" d="M490.27 375.647C489.272 377.963 488.295 380.193 487.352 382.301L392.868 345.675C394.583 344.133 396.391 342.469 398.225 340.72L490.27 375.647Z" fill="white"/>
<path opacity="0.32" d="M477.262 402.833C476.014 405.074 474.783 407.183 473.57 409.162L402.63 381.658L393.587 371.067L477.262 402.833Z" fill="white"/>
<path opacity="0.32" d="M454.843 432.739C452.754 434.623 450.499 436.315 448.106 437.795L438.284 433.987L432.616 424.303L454.843 432.739Z" fill="white"/>
<path d="M610.276 242.3C609.325 245.418 607.592 248.24 605.242 250.499C602.928 252.753 599.29 255.347 594.803 258.138C591.461 252.734 590.612 244.566 593.121 236.315C595.13 229.708 598.886 224.354 603.268 221.128C606.475 223.505 608.87 226.814 610.125 230.604C611.379 234.394 611.432 238.479 610.276 242.3Z" fill="#9C9EF9"/>
<path d="M390.982 200.808C388.677 208.385 384.968 214.806 380.737 219.223C379.405 216.687 378.096 214.024 376.81 211.235C375.744 208.902 375.243 206.352 375.349 203.789C375.455 201.227 376.164 198.727 377.418 196.49C378.673 194.254 380.437 192.345 382.569 190.919C384.7 189.493 387.138 188.591 389.683 188.284C390.837 188.143 392.015 188.036 393.217 187.961C393.017 192.321 392.267 196.637 390.982 200.808Z" fill="#9C9EF9"/>
<path d="M472.744 250.002C471.521 252.869 470.148 255.67 468.632 258.394C468.632 258.394 454.67 242.865 430.818 231.463C406.966 220.061 392.802 198.226 391.955 197.55C391.323 197.042 431.191 204.496 451.174 208.238C450.367 211.016 449.817 213.861 449.53 216.739L406.256 208.304C406.256 208.304 417.788 211.532 457.771 241.591C462.367 245.047 467.402 247.875 472.744 250.002Z" fill="#2323CC"/>
<path opacity="0.32" d="M610.276 242.3C609.324 245.417 607.591 248.24 605.242 250.499C590.623 264.684 523.293 292.888 523.293 292.888C523.293 292.888 499.376 356.136 485.351 386.759C462.16 437.388 442.066 440.459 442.066 440.459L427.535 415.64C470.065 412.71 513.667 287.494 513.667 287.494C513.667 287.494 573.972 253.585 592.145 238.791C601.872 230.872 599.84 222.943 595.851 217.284C597.25 217.893 598.675 218.552 600.147 219.256C604.311 221.253 607.621 224.675 609.479 228.902C611.337 233.129 611.62 237.882 610.276 242.3Z" fill="#1616A3"/>
<path d="M470.635 248.036L433.239 322.895L428.061 333.268C416.958 324.269 418.669 320.56 410.248 317.922C410.248 317.922 414.004 274.55 423.65 270.045C426.582 268.687 429.427 267.15 432.171 265.443C452.017 253.072 453.728 238.567 453.728 238.567C460.156 239.673 466.287 244.074 470.635 248.036Z" fill="#FF7E21"/>
<path d="M525.346 297.734L498.535 385.984C498.535 385.984 492.29 381.556 483.144 374.895C475.289 369.188 465.285 361.858 455.251 354.319L494.611 252.552C502.615 252.627 510.35 252.896 515.185 253.105C518.322 253.239 520.246 253.34 520.246 253.34C495.771 280.232 525.346 297.734 525.346 297.734Z" fill="#FF7E21"/>
<path d="M525.346 297.734L498.534 385.984C498.534 385.984 492.29 381.555 483.144 374.895C493.941 348.226 528.348 309.451 510.828 290.458C495.762 274.123 508.412 259.212 515.181 253.103C518.317 253.237 520.241 253.338 520.241 253.338C495.771 280.232 525.346 297.734 525.346 297.734Z" fill="#E26814"/>
<path d="M433.237 322.898L428.06 333.272C416.956 324.273 418.668 320.564 410.247 317.926C410.247 317.926 414.003 274.554 423.648 270.049C426.58 268.691 429.426 267.154 432.169 265.447C426.895 277.412 419.613 296.193 422.486 302.9C425.298 309.442 430.148 317.798 433.237 322.898Z" fill="#E26814"/>
<path d="M259.955 485.725C259.955 485.725 238.665 549.335 231.428 568.624C230.106 572.158 229.251 574.206 229.083 574.107C228.277 573.634 175.009 568.397 147.907 565.743C145.548 565.519 143.368 564.389 141.825 562.59C140.282 560.791 139.497 558.464 139.635 556.099C139.697 554.887 140.006 553.702 140.542 552.614C141.079 551.527 141.833 550.56 142.756 549.774C150.86 542.749 170.435 547.741 188.458 537.175C193.672 534.114 199.851 533.35 201.191 527.461L215.081 466.52L259.955 485.725Z" fill="white"/>
<path d="M135.663 460.866L63.414 475.627C62.9826 475.714 55.7529 477.691 55.3226 477.793C54.5168 477.999 53.6836 478.078 52.8534 478.026C48.682 477.686 48.4776 472.706 46.7616 467.084L32.8574 421.569C31.131 416.029 30.7267 410.162 31.6772 404.438C32.4385 400.003 35.2449 395.806 38.3883 395.126C39.8788 394.793 41.4363 395.267 42.8667 396.906C54.5316 410.298 58.3963 422.058 64.9172 432.039C67.4612 435.921 73.3205 433.081 77.6771 431.469C92.9625 425.822 117.397 418.24 120.776 415.64C125.425 412.088 135.663 460.866 135.663 460.866Z" fill="white"/>
<path opacity="0.17" d="M54.0502 468.345C53.1661 469.98 51.4134 471.498 49.5631 472.747C45.7255 472.344 45.643 467.751 44.1843 462.535L32.3662 420.31C30.8953 415.17 30.6475 409.756 31.6424 404.503C32.4393 400.434 35.1382 396.635 38.0265 396.071C39.8479 398.023 41.8367 402.004 43.5761 409.711C48.3047 430.7 56.2735 464.105 54.0502 468.345Z" fill="#0000FF"/>
<path opacity="0.17" d="M231.426 568.639C230.104 572.173 229.249 574.221 229.081 574.121C228.275 573.649 175.006 568.412 147.905 565.758C145.546 565.534 143.366 564.404 141.823 562.605C140.28 560.806 139.495 558.479 139.633 556.114C143.188 558.077 148.311 559.866 155.321 560.059C167.949 560.416 214.808 566.457 231.426 568.639Z" fill="#0000FF"/>
<path d="M475.976 209.824C477.876 204.107 476.18 198.398 472.19 197.072C468.199 195.746 463.425 199.307 461.526 205.024C459.626 210.741 461.322 216.45 465.312 217.776C469.303 219.101 474.077 215.541 475.976 209.824Z" fill="#7B80DB"/>
<path d="M489.747 262.461L478.273 263.748C476.829 263.907 475.367 263.773 473.976 263.353C470.703 262.361 469.024 260.496 467.909 257.082L472.069 246.232L472.755 244.895L475.285 239.916L497.4 223.828L501.412 220.907L489.747 262.461Z" fill="#FFA77B"/>
<path d="M498.991 222.922C487.759 240.583 478.357 244.511 472.736 244.891L475.266 239.912L497.381 223.824L498.991 222.922Z" fill="#EA875C"/>
<path d="M544.887 208.957L538.195 224.414C538.195 224.414 530.636 225.731 518.809 229.3C518.496 229.396 518.162 229.403 517.846 229.321C517.529 229.238 517.242 229.069 517.016 228.832C516.79 228.595 516.635 228.3 516.567 227.98C516.5 227.66 516.523 227.327 516.634 227.019C517.474 224.814 520.071 221.863 527.526 219.733C527.93 219.62 522.384 220.106 518.088 219.074C519.435 218.108 520.873 206.169 519.869 202.005C528.257 202.855 537.175 204.337 544.887 208.957Z" fill="#FFA77B"/>
<path d="M506.649 219.593C505.42 220.512 504.331 221.604 503.416 222.836C503.402 222.795 503.393 222.753 503.389 222.709C503.144 220.956 504.584 220.046 506.649 219.593Z" fill="#FFB5A4"/>
<path d="M505.511 230.22C496.662 233.232 500.353 224.057 500.353 224.057C495.411 232.549 474.827 244.097 463.758 238.705C452.829 233.396 460.426 213.684 467.393 200.07C467.683 199.499 467.969 198.942 468.261 198.401C471.891 191.478 475.133 186.51 475.133 186.51C476.023 185.467 477.058 184.558 478.208 183.811C488.956 177.035 499.812 196.272 498.06 207.589C496.217 219.49 502.334 218.938 502.838 218.893L502.865 218.9C504.315 217.863 505.88 216.996 507.528 216.316C517.323 212.494 513.313 227.564 505.511 230.22Z" fill="#FFA77B"/>
<path d="M75.0101 425.715C76.7262 425.818 253.616 354.647 389.629 350.509L449.835 414.856C449.835 414.856 419.725 454.34 293.73 422.781C218.796 404.016 270.265 440.322 88.8178 476.807L75.0101 425.715Z" fill="#9C9EF9"/>
<path opacity="0.07" d="M75.0101 425.715C76.7262 425.818 253.616 354.647 389.629 350.509L449.835 414.856C449.835 414.856 419.725 454.34 293.73 422.781C218.796 404.016 270.265 440.322 88.8178 476.807L75.0101 425.715Z" fill="#0000FF"/>
<g opacity="0.32">
<path d="M108.234 453.207C120.722 449.501 133.182 445.683 145.613 441.751C151.817 439.783 158.01 437.767 164.19 435.702C170.362 433.634 176.537 431.571 182.671 429.398C188.806 427.224 194.915 425 200.999 422.718C207.083 420.435 213.119 418.015 219.096 415.484C225.072 412.953 231.002 410.338 236.775 407.434C238.218 406.708 239.643 405.953 241.08 405.211C242.516 404.469 243.876 403.645 245.306 402.873C248.242 401.168 251.367 399.81 254.617 398.826C257.866 397.854 261.214 397.248 264.598 397.018C267.947 396.799 271.309 396.855 274.649 397.186C277.956 397.513 281.243 398.026 284.494 398.722C287.729 399.404 290.926 400.199 294.086 401.107C300.401 402.895 306.604 404.959 312.798 406.963C318.992 408.967 325.172 410.967 331.421 412.667C337.651 414.41 343.977 415.794 350.366 416.809C356.747 417.832 363.205 418.298 369.667 418.203C372.896 418.156 376.126 417.97 379.342 417.603C382.558 417.235 385.755 416.694 388.927 416.035C395.283 414.647 401.502 412.687 407.505 410.179C404.561 411.579 401.575 412.895 398.509 414.043C395.444 415.191 392.325 416.166 389.154 416.993C385.973 417.813 382.752 418.471 379.504 418.964C376.261 419.461 372.986 419.775 369.71 419.935C363.136 420.234 356.549 419.955 350.024 419.103C343.509 418.237 337.054 416.973 330.693 415.319C317.961 412.163 305.646 407.719 293.167 404.321C286.931 402.644 280.643 401.182 274.299 400.612C271.149 400.314 267.981 400.274 264.825 400.494C261.701 400.717 258.611 401.287 255.613 402.192C252.62 403.084 249.739 404.319 247.029 405.872C245.58 406.664 244.146 407.475 242.692 408.251C241.237 409.027 239.769 409.762 238.282 410.491C232.395 413.387 226.398 416.058 220.339 418.534C208.219 423.469 195.924 427.902 183.518 431.96C171.112 436.018 158.62 439.8 146.068 443.354C133.516 446.908 120.94 450.264 108.234 453.207Z" fill="#1616A3"/>
</g>
<path d="M295.137 377.095C293.282 384.648 289.087 400.212 283.771 419.336C267.844 476.689 242.185 565.844 242.185 565.844L224.524 556.359L196.576 541.345L180.169 532.529C186.713 527.866 242.726 316.226 280.709 311.62C307.557 308.369 354.658 326.09 391.957 341.843C405.267 347.457 417.318 352.815 426.755 356.875C432.807 359.482 438.372 363.098 443.212 367.57C456.545 379.905 463.645 398.113 461.089 416.825C456.911 447.421 412.312 467.454 295.137 377.095Z" fill="#9C9EF9"/>
<path opacity="0.36" d="M443.203 367.548C442.856 368.076 442.361 368.491 441.781 368.742C441.781 368.742 325.625 317.535 284.6 318.6C248.42 319.539 203.088 512.128 196.595 541.35L180.188 532.534C186.731 527.87 242.745 316.23 280.727 311.624C307.576 308.373 354.676 326.094 391.975 341.847C405.285 347.461 417.337 352.819 426.774 356.879C432.814 359.481 438.369 363.088 443.203 367.548Z" fill="white"/>
<path opacity="0.13" d="M295.138 377.095C293.282 384.647 289.088 400.212 283.772 419.336C267.845 476.689 242.186 565.844 242.186 565.844L224.525 556.359C234.116 520.026 290.405 360.838 290.405 360.838C290.405 360.838 407.527 449.741 461.087 416.795C456.912 447.42 412.313 467.454 295.138 377.095Z" fill="#0000FF"/>
<g opacity="0.32">
<path d="M454.156 415.078C452.44 415.822 450.664 416.417 448.846 416.856C447.934 417.115 447.027 417.292 446.111 417.487C445.195 417.681 444.274 417.856 443.347 417.975C441.494 418.273 439.63 418.456 437.76 418.605L434.951 418.769L432.14 418.821C428.389 418.845 424.638 418.658 420.908 418.261C419.969 418.156 419.023 418.078 418.09 417.95L415.295 417.544C413.423 417.31 411.589 416.918 409.741 416.589C402.378 415.114 395.132 413.11 388.058 410.592C384.495 409.389 381.022 407.971 377.538 406.561L372.383 404.296C371.513 403.908 370.636 403.553 369.814 403.148L367.282 401.928C360.481 398.743 353.912 395.103 347.402 391.381L342.597 388.459L340.198 386.992C339.395 386.51 338.594 386.019 337.816 385.495L333.108 382.409C331.54 381.387 329.961 380.372 328.434 379.283C316.081 370.799 304.171 361.685 292.753 351.979L295.549 351.219L291.466 363.284L287.339 375.334L279.088 399.434L270.762 423.511C267.971 431.533 265.221 439.565 262.4 447.574L253.98 471.619L245.507 495.683L236.9 519.663L232.6 531.631L228.217 543.58L232.056 531.43L235.96 519.306L243.775 495.055L251.696 470.84L259.697 446.655C262.349 438.589 265.073 430.546 267.757 422.488L275.86 398.337L284.03 374.212L288.113 362.147L292.241 350.097C292.315 349.878 292.432 349.677 292.584 349.503C292.737 349.33 292.922 349.189 293.129 349.087C293.337 348.986 293.562 348.926 293.793 348.912C294.023 348.898 294.254 348.93 294.472 349.005C294.679 349.077 294.872 349.186 295.039 349.328C306.377 358.963 318.122 368.105 330.303 376.626C331.805 377.718 333.358 378.741 334.905 379.768L339.544 382.837C340.312 383.363 341.098 383.856 341.89 384.344L344.248 385.821L348.98 388.768C355.374 392.529 361.805 396.26 368.475 399.525L370.962 400.772C371.789 401.197 372.64 401.561 373.479 401.955L378.537 404.283L383.664 406.445L384.945 406.986C385.383 407.166 385.827 407.323 386.267 407.494L388.865 408.485C395.802 411.125 402.909 413.29 410.14 414.965C411.973 415.357 413.756 415.795 415.589 416.091L418.329 416.581C419.256 416.737 420.167 416.84 421.084 416.973C424.762 417.487 428.466 417.796 432.179 417.899C435.895 418.01 439.614 417.858 443.309 417.445C444.234 417.368 445.149 417.197 446.07 417.081C446.991 416.965 447.908 416.77 448.818 416.579C450.636 416.23 452.422 415.728 454.156 415.078Z" fill="#1616A3"/>
</g>
<path d="M502.838 218.884C489.479 220.697 492.974 199.321 490.19 189.857C488.66 184.633 481.377 182.902 478.167 183.812C488.916 177.036 499.772 196.273 498.019 207.589C496.213 219.5 502.33 218.947 502.838 218.884Z" fill="#EA875C"/>
<path d="M469.404 204.653C469.782 203.566 469.704 202.55 469.23 202.385C468.756 202.221 468.065 202.968 467.687 204.056C467.309 205.143 467.386 206.158 467.86 206.323C468.334 206.488 469.025 205.74 469.404 204.653Z" fill="black"/>
<path d="M484.291 210.823C484.67 209.736 484.592 208.72 484.118 208.556C483.644 208.391 482.953 209.138 482.575 210.226C482.196 211.313 482.274 212.329 482.748 212.493C483.222 212.658 483.913 211.911 484.291 210.823Z" fill="black"/>
<path d="M474.304 200.35C474.217 200.398 474.121 200.428 474.022 200.44C473.923 200.451 473.823 200.442 473.727 200.415C473.631 200.387 473.542 200.341 473.464 200.279C473.386 200.217 473.321 200.14 473.273 200.053C471.661 197.167 469.253 197.348 468.139 197.619C468.429 197.049 468.715 196.492 469.008 195.951C470.817 195.87 473.074 196.56 474.607 199.314C474.704 199.492 474.726 199.7 474.67 199.894C474.613 200.088 474.482 200.252 474.304 200.35Z" fill="#66311A"/>
<path d="M481.242 203.284C481.107 203.241 480.987 203.163 480.894 203.056C480.802 202.95 480.74 202.82 480.717 202.681C480.694 202.542 480.71 202.399 480.762 202.268C480.815 202.138 480.904 202.024 481.017 201.94C481.063 201.908 485.729 198.607 490.625 204.069C490.754 204.221 490.819 204.417 490.806 204.616C490.792 204.815 490.702 205.001 490.553 205.134C490.404 205.267 490.21 205.336 490.01 205.327C489.811 205.319 489.623 205.232 489.487 205.087C485.552 200.681 482.075 203.073 481.929 203.177C481.831 203.247 481.717 203.294 481.598 203.312C481.479 203.33 481.357 203.321 481.242 203.284Z" fill="#66311A"/>
<path d="M470.157 215.424C469.645 215.292 469.195 214.985 468.884 214.557C467.686 212.758 472.205 207.384 473.622 205.778C473.711 205.677 473.836 205.616 473.97 205.607C474.104 205.598 474.236 205.643 474.337 205.732C474.438 205.821 474.5 205.946 474.509 206.08C474.517 206.215 474.472 206.347 474.383 206.448C471.09 210.193 469.307 213.368 469.733 213.989C470.369 214.936 473.049 214.61 474.586 214.187C474.65 214.169 474.717 214.163 474.784 214.171C474.85 214.179 474.914 214.199 474.973 214.232C475.031 214.265 475.082 214.309 475.124 214.361C475.165 214.414 475.195 214.474 475.213 214.539C475.249 214.669 475.232 214.808 475.166 214.925C475.101 215.043 474.991 215.13 474.861 215.167C474.488 215.273 471.903 215.955 470.157 215.424Z" fill="#EA875C"/>
<path d="M503.324 226.331C503.214 226.294 503.119 226.22 503.055 226.122C502.991 226.024 502.963 225.908 502.974 225.791C503.199 223.68 504.626 219.656 508.413 219.558C508.48 219.557 508.546 219.568 508.608 219.592C508.67 219.616 508.727 219.652 508.776 219.698C508.824 219.744 508.863 219.799 508.89 219.86C508.917 219.921 508.932 219.986 508.933 220.053C508.935 220.119 508.924 220.186 508.9 220.248C508.876 220.31 508.84 220.367 508.794 220.415C508.748 220.464 508.693 220.502 508.632 220.529C508.571 220.556 508.506 220.571 508.439 220.573C504.578 220.676 503.986 225.837 503.971 225.896C503.965 225.963 503.945 226.027 503.913 226.086C503.881 226.145 503.838 226.196 503.786 226.238C503.734 226.28 503.674 226.312 503.61 226.33C503.546 226.349 503.478 226.355 503.412 226.347L503.324 226.331Z" fill="#CE8345"/>
<path d="M468.649 226.115C467.411 225.742 466.349 224.937 465.656 223.846C465.589 223.729 465.571 223.591 465.607 223.461C465.642 223.331 465.728 223.221 465.845 223.154C465.962 223.088 466.1 223.07 466.23 223.106C466.359 223.141 466.47 223.227 466.536 223.344C467.181 224.314 468.178 224.995 469.317 225.242C471.151 225.63 473.297 224.927 475.727 223.165C475.781 223.126 475.842 223.098 475.906 223.083C475.971 223.067 476.038 223.065 476.104 223.075C476.17 223.086 476.233 223.109 476.289 223.144C476.346 223.179 476.395 223.225 476.434 223.279C476.473 223.333 476.501 223.394 476.517 223.458C476.532 223.523 476.535 223.59 476.524 223.656C476.514 223.722 476.49 223.785 476.455 223.841C476.42 223.898 476.375 223.947 476.321 223.986C473.643 225.934 471.204 226.69 469.083 226.232C468.932 226.199 468.787 226.159 468.649 226.115Z" fill="#EA875C"/>
<path d="M516.578 229.664C514.444 234.818 510.021 238.092 505.845 238.007C504.93 237.987 504.026 237.799 503.178 237.453C498.361 235.464 496.572 228.763 499.163 222.477C501.754 216.191 507.756 212.711 512.566 214.674C512.787 214.766 513.003 214.869 513.214 214.983C517.527 217.297 519.049 223.672 516.578 229.664Z" fill="#7B80DB"/>
<path d="M516.577 229.664C514.442 234.817 510.02 238.092 505.844 238.007C501.532 235.708 500.009 229.337 502.48 223.345C504.606 218.185 509.033 214.911 513.213 215.002C517.526 217.297 519.047 223.671 516.577 229.664Z" fill="#9C9EF9"/>
<path d="M489.039 172.791C489.039 172.791 522.735 178.174 509.829 217.374L511.911 220.683C511.911 220.683 531.364 179.788 490.961 171.194C490.961 171.194 475.694 167.357 471.862 181.64C471.908 181.651 477.006 171.051 489.039 172.791Z" fill="#9C9EF9"/>
<path d="M511.499 219.314C511.499 219.314 516.033 218.532 514.587 225.712C512.687 235.216 506.334 235.841 507.529 234.943C509.513 233.467 517.175 223.212 511.499 219.314Z" fill="#7B80DB"/>
<path d="M485.071 289.08L507.476 296.456L505.224 300.259L491.178 302.356L483.716 293.181L485.071 289.08Z" fill="#E26814"/>
<path d="M518.133 25.8967L545.686 15.0674L523.973 34.9003L543.468 56.2753L517.213 43.2374L502.26 72.6709L507.195 39.3822L477 36.3379L507.762 28.6674L506.687 0L518.133 25.8967Z" fill="#FFD297"/>
</svg>
