<svg width="427" height="373" viewBox="0 0 427 373" fill="none" xmlns="http://www.w3.org/2000/svg">
<path d="M266.555 81.0819C266.555 81.0819 274.349 84.1063 274.686 83.2564C275.023 82.4065 273.333 75.6935 273.333 75.6935C273.333 75.6935 267.934 74.7262 266.555 81.0819Z" fill="#21204F"/>
<path d="M346.896 100.732L334.024 171.311C333.681 173.191 332.657 174.879 331.148 176.053C329.639 177.227 327.751 177.804 325.844 177.674L320.235 177.29L288.209 175.112L288.763 169.548L297.656 80.3379C297.87 78.1965 298.802 76.1904 300.3 74.6462C301.799 73.1019 303.777 72.1105 305.911 71.8332L319.508 74.2998L321.202 74.722L332.419 77.5165C337.371 78.7538 341.649 81.8666 344.35 86.198C347.052 90.5295 347.964 95.7409 346.896 100.732Z" fill="#FF9852"/>
<path d="M325.192 79.4239C329.641 79.0588 334.052 80.4737 337.458 83.3578C338.304 84.0909 339.077 84.904 339.766 85.786C339.941 86.002 340.11 86.2259 340.267 86.4543C340.424 86.6827 340.6 86.9062 340.742 87.1468L341.188 87.86C341.339 88.1297 341.468 88.4115 341.572 88.7024C341.921 89.7928 342.126 90.9242 342.181 92.0677C342.259 93.182 342.268 94.2847 342.242 95.3854C342.194 97.5866 342.015 99.7718 341.767 101.942C341.518 104.111 341.231 106.272 340.895 108.423C340.213 112.727 339.392 117 338.518 121.26C337.643 125.52 336.656 129.756 335.638 133.978C334.62 138.2 333.544 142.409 332.399 146.596C330.134 154.984 327.704 163.322 324.966 171.563L330.959 146.233C331.931 142.01 332.946 137.795 333.883 133.566C334.821 129.337 335.785 125.114 336.65 120.873C337.514 116.633 338.378 112.385 339.109 108.147C339.885 103.912 340.433 99.6391 340.751 95.3456C340.809 94.2776 340.837 93.2111 340.8 92.1595C340.781 91.1359 340.64 90.1183 340.381 89.1279C340.311 88.9048 340.224 88.6874 340.122 88.4774L339.734 87.7917C339.611 87.5615 339.459 87.3481 339.317 87.1227C339.176 86.8973 339.03 86.6798 338.874 86.4704C338.274 85.6111 337.593 84.8111 336.84 84.0813C333.685 81.114 329.524 79.4502 325.192 79.4239Z" fill="white"/>
<path d="M329.91 95.4595L317.038 166.038C316.844 167.101 316.432 168.112 315.825 169.006C315.219 169.9 314.433 170.658 313.517 171.232L288.777 169.547L297.671 80.3371C297.884 78.1957 298.816 76.1896 300.315 74.6453C301.814 73.1011 303.791 72.1097 305.925 71.8324L319.522 74.299L321.216 74.7212C324.609 76.8774 327.26 80.0203 328.814 83.7275C330.368 87.4347 330.751 91.5287 329.91 95.4595Z" fill="#FF7E21"/>
<path d="M407.511 55.8399L407.831 61.9076C407.868 62.6044 407.667 63.2932 407.262 63.8611C406.856 64.4289 406.27 64.8422 405.599 65.0332L403.388 65.6652C394.208 68.2905 384.552 68.7996 375.147 67.1542L372.881 66.7582C372.194 66.6382 371.568 66.2886 371.105 65.7667C370.642 65.2448 370.37 64.5813 370.333 63.8847L370.013 57.817C369.967 56.9752 370.201 56.1419 370.679 55.4474C371.157 54.7529 371.851 54.2365 372.654 53.9789L374.092 53.5214L373.995 51.6828C373.965 51.1413 374.115 50.6052 374.422 50.1577C374.728 49.7101 375.174 49.3762 375.689 49.2077C383.859 46.5987 392.563 46.1398 400.961 47.8753C401.491 47.9878 401.969 48.2724 402.321 48.6846C402.672 49.0967 402.878 49.6135 402.906 50.1547L403.003 51.9971L403.694 52.1439L404.466 52.3093C405.293 52.4778 406.04 52.9158 406.591 53.5548C407.142 54.1937 407.466 54.9974 407.511 55.8399Z" fill="#FF7E21"/>
<path d="M379.41 117.8L403.109 98.8651L377.973 90.552L367.024 103.329L364.604 108.835L379.41 117.8Z" fill="#FEAB83"/>
<path d="M283.394 179.228C282.318 180.661 281.17 182.039 279.955 183.356C273.903 189.977 264.814 197.282 253.948 204.913C249.162 208.272 244.041 211.695 238.677 215.15C222.802 225.385 204.886 235.91 187.722 245.935C183.086 248.652 178.505 251.325 174.021 253.948C149.995 268.04 129.187 280.638 120.225 289.329C95.5955 313.202 87.5927 323.877 87.5927 323.877L85.5018 322.953C77.9317 319.608 71.4135 314.268 66.6447 307.504C61.876 300.739 59.0361 292.806 58.4289 284.552L135.017 226.207L152.063 213.224L185.616 185.418L206.228 168.337L206.467 168.37L214.07 169.447L215.224 169.611L223.15 170.72L240.102 173.113L249.871 174.506L283.394 179.228Z" fill="#21204F"/>
<path opacity="0.46" d="M87.8191 311.381C87.8615 314.258 87.6568 317.133 87.2073 319.975C85.31 319.243 83.4759 318.356 81.7235 317.325C74.713 313.301 63.4132 304.377 62.7498 288.391C62.6904 286.923 62.7187 285.453 62.8345 283.989C64.6054 284.144 66.3566 284.473 68.0625 284.973C75.2653 286.998 87.448 293.12 87.8191 311.381Z" fill="black"/>
<path opacity="0.59" d="M189.346 201.497C184.617 235.242 151.611 230.924 135.15 226.555L151.947 213.76L185.009 186.361C188.779 187.77 190.64 192.305 189.346 201.497Z" fill="#7760D9"/>
<g opacity="0.25">
<path opacity="0.25" d="M85.3674 297.395C87.2031 296.469 88.9791 295.43 90.6848 294.282C92.4084 293.165 94.0908 291.988 95.7524 290.778C99.0646 288.344 102.283 285.792 105.407 283.123C111.69 277.83 117.655 272.171 123.485 266.398L127.803 262.002C129.253 260.543 130.682 259.041 132.152 257.608C135.119 254.726 138.199 251.968 141.34 249.283C147.623 243.913 154.208 238.928 160.921 234.127C167.634 229.326 174.553 224.808 181.509 220.418C188.466 216.028 195.585 211.832 202.766 207.793C217.111 199.688 231.768 192.14 246.744 185.289C244.907 186.222 243.087 187.176 241.267 188.139L235.808 191.019C232.182 192.953 228.571 194.925 224.974 196.934C221.377 198.943 217.793 200.951 214.222 202.959C210.647 204.99 207.087 207.047 203.542 209.13C196.465 213.32 189.428 217.558 182.512 221.991C175.596 226.425 168.743 230.959 162.046 235.705C155.349 240.452 148.816 245.415 142.508 250.66C139.364 253.288 136.281 255.989 133.311 258.81C131.824 260.221 130.38 261.637 128.907 263.104L124.498 267.44L120.008 271.685C118.498 273.089 116.951 274.453 115.425 275.839C113.898 277.225 112.307 278.542 110.753 279.902C109.199 281.263 107.591 282.546 105.967 283.823C102.739 286.386 99.4298 288.851 96.0486 291.182C94.3383 292.338 92.6192 293.47 90.8418 294.511C89.0787 295.585 87.2504 296.548 85.3674 297.395Z" fill="white"/>
</g>
<path opacity="0.05" d="M215.234 169.603C200.356 182.297 163.649 217.025 138.859 234.151C110.96 253.433 84.8 273.096 74.2742 282.98L63.8617 280.388L152.061 213.201L206.226 168.314L206.465 168.348L214.068 169.424L215.234 169.603Z" fill="white"/>
<path opacity="0.46" d="M283.395 179.231C282.319 180.665 281.171 182.042 279.956 183.359C273.904 189.981 264.815 197.285 253.949 204.916C249.163 208.275 244.042 211.698 238.678 215.153C222.803 225.388 204.887 235.914 187.723 245.938C183.087 248.656 178.507 251.329 174.022 253.951C149.996 268.043 129.188 280.642 120.226 289.332C95.5965 313.206 87.5937 323.881 87.5937 323.881L88.4273 321.737C89.7368 318.347 90.3148 314.719 90.1234 311.09C89.9321 307.46 88.9757 303.913 87.3171 300.679C121.239 286.531 147.201 248.636 172.788 236.404C196.951 224.823 235.566 188.433 249.853 174.507L283.395 179.231Z" fill="black"/>
<path d="M300.682 54.4352C300.096 56.4272 299.72 58.4748 299.558 60.5448C298.767 70.7439 293.181 70.4239 293.181 70.4239C293.181 70.4239 271.943 70.2266 266.466 55.2429C266.359 54.9509 266.259 54.6508 266.163 54.3467C261.219 38.4798 268.172 37.6552 268.172 37.6552C267.848 36.5736 267.816 35.4257 268.078 34.3275C268.339 33.2293 268.886 32.2196 269.663 31.4004C270.45 30.5474 271.397 29.8567 272.45 29.3678C277.649 27.5668 281.595 29.0726 286.432 31.4018C291.269 33.731 295.643 30.4657 299.54 38.1389C302.763 44.4505 301.731 50.8682 300.682 54.4352Z" fill="#7F3604"/>
<path opacity="0.23" d="M205.152 176.232C205.299 176.484 220.14 201.681 228.252 221.747C216.458 229.076 203.93 236.462 191.677 243.628C190.354 244.403 189.036 245.173 187.722 245.94L164.609 203.063L168.204 200.083L206.478 168.364L214.081 169.44L223.161 170.725L240.113 173.117C240.876 177.327 241.956 181.474 243.344 185.521C225.094 183.273 208.176 177.336 205.514 176.369L205.152 176.232Z" fill="black"/>
<path d="M283.444 180.164C282.384 181.577 281.252 182.935 280.055 184.233C257.629 181.628 236.219 175.619 224.091 171.777L283.444 180.164Z" fill="black"/>
<path opacity="0.34" d="M284.602 39.657C284.515 39.9632 287.036 36.7383 287.336 36.9362C291.968 40.0129 289.23 59.0179 289.23 59.0179L288.139 58.5983L284.602 39.657Z" fill="black"/>
<path d="M283.396 179.231C283.308 179.3 283.224 179.366 283.136 179.428C273.376 186.76 257.931 187.318 243.346 185.518C225.096 183.27 208.178 177.333 205.516 176.367L205.162 176.233C205.309 176.485 220.15 201.682 228.262 221.748C230.623 227.579 232.412 232.981 233.108 237.197C236.212 256.035 245.284 279.387 245.284 279.387L239.842 281.964L239.016 282.355L222.069 290.345L217.912 292.304L191.68 243.641L168.207 200.096L154.338 174.37L146.768 160.317C144.414 155.953 143.248 151.046 143.388 146.089C143.527 141.132 144.967 136.299 147.563 132.073C150.159 127.848 153.82 124.379 158.179 122.014C162.538 119.65 167.442 118.472 172.399 118.599L175.839 118.685L195.757 119.196C197.74 119.145 199.67 119.135 201.566 119.173C208.985 119.248 216.38 120.041 223.647 121.539C224.295 121.677 224.937 121.822 225.578 121.968C230.229 123.038 234.784 124.484 239.2 126.292C243.65 128.116 247.918 130.352 251.951 132.972C258.554 137.279 264.402 142.645 269.259 148.855C274.094 155.042 277.935 161.944 280.644 169.314C282.796 175.231 283.396 179.231 283.396 179.231Z" fill="#21204F"/>
<path opacity="0.59" d="M154.203 173.698L146.744 159.854C144.425 155.552 143.278 150.717 143.416 145.833C143.554 140.948 144.973 136.186 147.531 132.023C150.089 127.859 153.696 124.441 157.991 122.111C162.286 119.78 167.118 118.619 172.002 118.743L175.377 118.829C178.743 129.515 184.582 158.748 154.203 173.698Z" fill="#7760D9"/>
<path opacity="0.05" d="M206.163 194.279C210.462 209.867 230.801 261.647 239.007 282.342L222.06 290.332L217.904 292.292L146.767 160.3C144.413 155.936 143.247 151.029 143.387 146.072C143.526 141.115 144.966 136.281 147.562 132.056C150.158 127.831 153.819 124.362 158.178 121.997C162.537 119.633 167.441 118.455 172.398 118.582L195.741 119.18C197.723 119.129 199.654 119.119 201.55 119.156C208.969 119.232 216.364 120.024 223.631 121.523C224.279 121.661 224.92 121.806 225.562 121.952C230.212 123.021 234.768 124.467 239.184 126.276C243.633 128.1 247.902 130.336 251.935 132.955C221.791 131.51 163.857 124.262 162.806 136.616C161.142 156.237 200.75 174.646 206.163 194.279Z" fill="white"/>
<path d="M227.057 119.948L225.435 119.945L227.057 119.948Z" fill="white"/>
<path opacity="0.44" d="M281.544 176.443L277.292 179.561C259.442 175.494 257.555 147.949 250.942 139.374C244.386 130.875 226.789 123.851 226.45 123.713C231.032 124.765 235.522 126.188 239.874 127.967C253.53 133.588 262.972 141.869 269.491 150.191L281.544 176.443Z" fill="black"/>
<path opacity="0.76" d="M283.188 180.361C283.276 180.299 283.36 180.234 283.445 180.168C283.445 180.164 283.528 180.878 283.188 180.361Z" fill="#D85700"/>
<path opacity="0.39" d="M205.514 176.368C210.339 178.107 261.158 195.937 283.133 179.429C282.881 179.061 282.393 177.987 281.466 175.463C277.681 177.461 262.97 180.87 250.279 178.131C246.854 177.391 243.647 176.793 240.659 176.245C213.332 171.242 192.544 157.062 192.544 157.062L183.643 150.473C185.993 160.656 201.214 161.853 210.689 189.811C212.75 195.897 218.733 224.886 220.148 231.163C228.108 266.3 239.831 281.951 239.831 281.951L245.272 279.374C245.272 279.374 236.201 256.022 233.097 237.183C230.004 218.417 205.344 176.545 205.151 176.22L205.505 176.354L205.514 176.368Z" fill="black"/>
<g opacity="0.25">
<path opacity="0.25" d="M278.356 168.001C273.258 168.161 268.156 167.986 263.082 167.478C258.004 167.013 252.944 166.329 247.913 165.461C237.854 163.682 227.929 161.214 218.208 158.072C216.989 157.69 215.777 157.284 214.568 156.871L212.753 156.26L210.948 155.619C209.746 155.186 208.544 154.757 207.351 154.281C206.158 153.806 204.96 153.392 203.767 152.909C201.38 151.955 199.042 150.895 196.73 149.764C195.578 149.199 194.436 148.616 193.305 148.014L191.616 147.099L190.774 146.636L190.354 146.402C190.212 146.322 190.106 146.262 189.961 146.201C188.907 145.704 187.775 145.391 186.614 145.274C186.042 145.21 185.465 145.202 184.892 145.251C184.376 145.287 183.872 145.419 183.404 145.638C183.235 145.706 183.085 145.814 182.968 145.954C182.851 146.093 182.77 146.259 182.733 146.437C182.688 146.887 182.772 147.341 182.973 147.745C183.208 148.262 183.498 148.752 183.837 149.208C184.006 149.447 184.19 149.681 184.382 149.919L184.982 150.651C186.613 152.634 188.145 154.683 189.663 156.752C191.18 158.821 192.606 160.953 193.98 163.121C199.505 171.811 203.661 181.299 206.303 191.252C207.591 196.215 208.593 201.247 209.304 206.325C210.041 211.385 210.504 216.484 210.932 221.553C211.144 224.061 211.543 226.56 212.006 229.043C212.469 231.527 213.031 233.997 213.679 236.448C214.945 241.344 216.514 246.193 218.209 250.982C221.652 260.559 225.637 269.933 230.145 279.057C227.71 274.582 225.469 270.009 223.316 265.378C221.163 260.747 219.187 256.053 217.355 251.29C216.436 248.911 215.571 246.509 214.761 244.086C213.947 241.667 213.18 239.207 212.497 236.762C211.815 234.317 211.175 231.816 210.673 229.304C210.142 226.789 209.742 224.248 209.473 221.691C208.482 211.571 207.217 201.476 204.542 191.723C203.21 186.859 201.52 182.099 199.485 177.484C198.46 175.18 197.351 172.915 196.157 170.69C194.964 168.465 193.687 166.289 192.328 164.162C190.971 162.03 189.558 159.941 188.089 157.896C186.6 155.853 185.088 153.825 183.492 151.86L182.9 151.127C182.695 150.871 182.49 150.599 182.285 150.324C181.867 149.755 181.512 149.143 181.226 148.498C180.873 147.747 180.751 146.909 180.874 146.089C180.969 145.619 181.181 145.181 181.49 144.816C181.778 144.478 182.129 144.2 182.524 143.998C183.207 143.668 183.946 143.471 184.703 143.417C185.399 143.358 186.099 143.368 186.793 143.444C188.172 143.587 189.516 143.968 190.765 144.571C190.918 144.651 191.094 144.744 191.228 144.821L191.623 145.06L192.449 145.524L194.112 146.44C195.224 147.042 196.343 147.632 197.472 148.199C199.726 149.332 202.019 150.394 204.353 151.355C209.052 153.237 213.821 155.005 218.625 156.634C223.429 158.262 228.296 159.723 233.198 161.045C238.101 162.367 243.049 163.545 248.032 164.527C253.016 165.509 258.03 166.359 263.078 166.967C265.601 167.272 268.132 167.52 270.672 167.712C273.265 167.884 275.807 168.021 278.356 168.001Z" fill="white"/>
</g>
<path d="M379.313 124.041C379.313 124.041 382.551 128.695 374.622 143.664C368.087 155.983 361.545 176.188 344.391 172.279C340.872 171.447 337.616 169.752 334.917 167.347C332.218 164.941 330.16 161.901 328.93 158.502L314.206 118.652L314.204 118.621L314.208 118.701L314.212 118.766L314.19 118.939L314.178 119.062L314.146 119.323L314.083 119.876C313.546 124.16 311.428 138.72 305.855 152.622C305.844 152.645 305.835 152.668 305.828 152.692C301.194 164.201 294.191 175.243 283.747 179.584C283.747 179.584 273.49 174.727 266.179 160.661C264.042 156.522 262.395 152.149 261.27 147.629C259.77 141.699 255.269 137.039 249.33 133.371C248.331 132.76 247.298 132.178 246.23 131.626C245.897 131.449 245.556 131.28 245.214 131.107C244.873 130.934 244.489 130.744 244.121 130.573C241.661 129.419 239.14 128.399 236.57 127.517C234.389 126.754 232.166 126.077 229.946 125.465C214.452 121.197 199.101 120.358 199.101 120.358C199.101 120.358 192.977 117.867 192.994 112.183L188.438 107.079C188.438 107.079 195.377 109.664 204.53 100.974L208.309 103.783C208.309 103.783 215.856 101.259 229.196 121.951C229.196 121.951 229.255 121.768 229.371 121.43C230.848 117.081 241.742 86.8278 260.051 81.1293C264.181 79.8388 268.703 79.8065 273.573 81.6072L298.036 76.5193C299.687 76.1768 301.361 75.9609 303.045 75.8736C303.365 75.8567 303.688 75.8396 304.008 75.8228C304.328 75.8059 304.649 75.8119 304.969 75.8141C305.29 75.8163 305.531 75.8188 305.81 75.8308L306.108 75.8418L306.774 75.8716L306.946 75.8816C307.241 75.9004 307.533 75.927 307.828 75.9534L308.434 76.0169L308.819 76.0616L309.026 76.0887C309.253 76.115 309.476 76.149 309.703 76.1829L310.508 76.316L310.805 76.3729C311.051 76.4171 311.298 76.4653 311.541 76.5173L311.626 76.5357C311.912 76.5932 312.194 76.6585 312.476 76.7276L313.296 76.9324L313.443 76.9743C313.711 77.048 313.974 77.1219 314.219 77.2006L314.378 77.2495C314.638 77.3274 314.898 77.4091 315.155 77.4986C315.411 77.5882 315.718 77.6865 315.998 77.7901L316.282 77.8934C316.469 77.9599 316.671 78.0332 316.836 78.1047C317.116 78.2159 317.393 78.3273 317.67 78.4425L318.018 78.5921L318.628 78.8691L318.878 78.9857L319.38 79.2303C319.74 79.406 320.1 79.574 320.455 79.7881C320.695 79.9167 320.935 80.0492 321.171 80.1856C321.667 80.4724 322.16 80.7709 322.642 81.0852L323.081 81.375L323.552 81.6938C323.806 81.8751 324.063 82.0485 324.314 82.2452C324.565 82.4419 324.814 82.6006 325.062 82.8165C325.31 83.0325 325.552 83.2067 325.796 83.4115C326.291 83.8243 326.771 84.2533 327.245 84.6978C327.458 84.9041 327.672 85.1105 327.885 85.3244C327.9 85.3357 327.914 85.3492 327.925 85.3643C328.135 85.5747 328.329 85.7896 328.547 86.0072C328.765 86.2247 328.98 86.4729 329.191 86.7137C329.402 86.9545 329.598 87.1923 329.814 87.4443C330.029 87.6963 330.177 87.8833 330.353 88.1069C330.838 88.72 331.303 89.3546 331.747 90.0106L331.971 90.3499C332.502 91.1541 332.998 91.9894 333.458 92.8558C333.602 93.1268 333.743 93.4019 333.883 93.6807C337.437 100.78 340.758 108.228 343.443 114.622C344.128 116.25 344.756 117.812 345.375 119.28C348.061 125.841 349.825 130.561 350.132 131.385L350.181 131.508C350.927 128.562 351.85 125.663 352.945 122.827C354.521 118.774 356.722 114.315 359.427 111.905L363.899 104.931L374.827 112.585L382.021 117.626L379.313 124.041Z" fill="#6F7FED"/>
<path opacity="0.59" d="M379.31 124.046C379.31 124.046 382.548 128.7 374.619 143.669C368.084 155.988 361.542 176.194 344.388 172.285C340.869 171.453 337.614 169.758 334.914 167.352C332.215 164.947 330.157 161.907 328.927 158.507L314.203 118.657C314.81 119.824 334.341 157.294 349.226 160.296C361.603 162.796 371.615 126.009 374.836 112.601L382.03 117.643L379.31 124.046Z" fill="#2E309C"/>
<path opacity="0.59" d="M330.977 88.9434C330.589 88.8378 305.109 82.0775 314.037 119.881C313.062 127.724 306.755 169.999 283.701 179.589C283.701 179.589 273.444 174.733 266.133 160.666C290.441 147.987 292.71 96.6217 292.696 77.613L297.982 76.5137C309.944 74.0278 322.211 78.3358 329.802 87.4326L330.931 88.8618L330.955 88.8949L330.977 88.9434Z" fill="#2E309C"/>
<path opacity="0.28" d="M259.919 91.7251C259.395 92.7593 258.968 93.8399 258.643 94.9531L258.457 95.3446C255.824 97.5905 253.531 100.509 253.012 104.942C252.841 106.405 252.626 107.817 252.38 109.174C249.848 123.049 243.814 131.173 243.814 131.173C241.354 130.026 238.833 129.012 236.264 128.136L236.455 127.492C237.476 124.484 243.156 109.431 252.617 98.5382C254.777 95.9897 257.228 93.7032 259.919 91.7251Z" fill="black"/>
<path d="M403 59.3945L403.514 103.085C403.521 103.706 403.34 104.314 402.996 104.831C402.653 105.347 402.161 105.748 401.586 105.981L401.186 106.14C394.98 108.65 388.103 108.967 381.693 107.038C381.111 106.862 380.594 106.519 380.206 106.051C380.191 106.034 380.177 106.015 380.165 105.996C379.968 105.752 379.813 105.478 379.706 105.184C379.608 104.935 379.544 104.674 379.516 104.408L379.431 103.592L374.919 60.8789C378.3 59.7701 381.782 58.9985 385.314 58.575C386.498 58.4312 387.684 58.3291 388.875 58.2689C393.612 58.0207 398.362 58.3991 403 59.3945Z" fill="white"/>
<path opacity="0.59" d="M391.797 106.975C397.352 106.682 401.776 104.953 401.679 103.114C401.582 101.274 397.001 100.02 391.446 100.313C385.892 100.606 381.468 102.334 381.565 104.174C381.662 106.014 386.243 107.267 391.797 106.975Z" fill="#2E309C"/>
<path opacity="0.58" d="M392.827 98.1104C388.159 98.5588 385.441 99.2633 383.688 100.047C381.823 100.882 381.04 101.805 380.173 102.595L374.895 60.8462C375.75 60.6331 376.613 60.4235 377.485 60.2363C381.316 59.3923 385.192 58.7711 389.094 58.376L392.827 98.1104Z" fill="url(#paint0_linear_1584_5598)"/>
<path opacity="0.6" d="M381.949 101.038C380.584 101.874 380.029 102.792 379.411 103.588L374.899 60.8756C375.526 60.6708 376.157 60.4734 376.777 60.2956L381.949 101.038Z" fill="#2E309C"/>
<path d="M385.596 71.9442C385.189 73.5324 384.591 75.065 383.813 76.508C383.484 77.1438 383.119 77.8272 382.673 78.5607C380.679 81.9257 380.086 82.7013 379.927 82.8051C380.951 86.3636 381.459 90.0505 381.436 93.7533C381.433 94.4838 381.405 95.2284 381.351 95.987C381.351 95.987 381.356 96.0821 381.359 96.1316C381.361 96.1811 381.336 96.3581 381.315 96.6035L381.254 97.1907C381.257 97.244 381.26 97.3049 381.237 97.3634C381.235 97.3736 381.236 97.3839 381.238 97.3938C381.237 97.4014 381.237 97.4093 381.239 97.4167C381.239 97.437 381.24 97.4574 381.243 97.4776C381.243 97.4776 381.246 97.5347 381.225 97.6503C380.948 99.9606 380.379 102.226 379.531 104.393L378.802 104.328L367.061 103.317C367.061 103.317 363.655 87.9535 372.343 79.4871C381.83 70.2456 381.483 66.0535 385.235 67.9971C385.235 67.9971 385.709 68.3729 385.833 69.4925C385.897 70.3173 385.817 71.147 385.596 71.9442Z" fill="#FEAB83"/>
<path d="M411.334 87.2915C408.826 97.6422 403.107 98.8638 403.107 98.8638L402.512 87.5734C395.452 88.1823 393.08 86.2805 392.297 84.7491C392.203 84.5624 392.158 84.3554 392.163 84.1466C392.169 83.9378 392.226 83.7338 392.33 83.5525C392.434 83.3713 392.581 83.2186 392.758 83.108C392.936 82.9974 393.137 82.9324 393.346 82.9188L394.621 82.8515L403.288 82.3068L403.159 80.8822C403.159 80.8822 403.871 80.8447 397.412 80.4676C393.966 80.2676 392.684 78.9762 392.252 77.8194C392.186 77.6399 392.135 77.4548 392.101 77.2663C392.071 77.0988 392.077 76.927 392.118 76.7618C392.159 76.5967 392.234 76.4419 392.339 76.3076C392.443 76.1733 392.574 76.0624 392.724 75.9821C392.874 75.9017 393.04 75.8538 393.209 75.8413L394.903 75.752C394.444 75.7322 393.997 75.594 393.607 75.3508C393.113 75.0217 392.735 74.5446 392.528 73.9878C392.447 73.7888 392.417 73.5727 392.442 73.3593C392.467 73.146 392.545 72.9423 392.669 72.7671C392.793 72.592 392.96 72.4511 393.153 72.3574C393.346 72.2637 393.56 72.2202 393.775 72.231L403.056 72.696L403.936 72.7412C401.267 71.6299 399.473 70.4839 398.301 69.3967C395.351 66.6512 396.337 64.286 397.108 63.8484C398.179 63.2423 402.411 66.6988 407.041 68.9397C411.671 71.1806 413.823 76.9455 411.334 87.2915Z" fill="#FEAB83"/>
<path d="M88.0453 309.806L84.9112 313.205L82.6291 315.676L70.0165 329.346L67.8499 331.694C67.7742 331.778 67.7019 331.854 67.6182 331.931C66.5881 332.984 65.3927 333.862 64.0793 334.53C61.716 335.747 59.0505 336.253 56.4057 335.985C53.7609 335.718 51.2503 334.69 49.1779 333.025C32.1796 319.332 19.322 291.504 14.119 279.338C13.3456 277.557 13.2186 275.561 13.7601 273.696C14.3015 271.831 15.4774 270.214 17.0846 269.123C17.3347 268.958 17.5945 268.808 17.8625 268.674C19.0454 268.069 20.3074 267.634 21.6115 267.381C25.4204 266.646 30.4636 267.384 35.4728 272.979C40.5994 278.701 45.1669 282.507 49.1607 284.987C50.6252 285.913 52.1585 286.726 53.7472 287.418C55.0637 287.986 56.4274 288.437 57.8226 288.768C59.2807 289.117 60.7771 289.282 62.2764 289.258C62.9944 289.176 63.6849 288.934 64.2964 288.548C64.6083 288.383 64.9377 288.186 65.2773 287.966C66.5945 287.096 67.8574 286.146 69.059 285.122C73.9393 286.391 81.3066 289.652 85.2949 298.11C85.801 299.19 86.2346 300.302 86.5926 301.439C87.4284 304.156 87.9166 306.967 88.0453 309.806Z" fill="#FF7E21"/>
<path opacity="0.16" d="M88.0461 309.803L84.912 313.201L82.6299 315.673L70.0173 329.343C65.0418 322.796 59.7695 312.065 69.0131 303.058C74.2052 298.005 80.0034 297.134 85.2939 298.073C85.8 299.152 86.2335 300.264 86.5916 301.402C87.4309 304.129 87.9197 306.952 88.0461 309.803Z" fill="white"/>
<path d="M335.655 83.0278L331.048 80.5719L332.579 80.6477L331.048 80.5757C331.089 78.3485 330.765 76.1297 330.088 74.0075C328.727 69.9261 326.086 67.6873 322.266 67.3466C313.254 66.5431 312.348 74.7023 312.245 75.433L309.216 75.1079C309.211 75.0051 310.307 63.4996 322.537 64.3091C333.914 65.0605 335.914 77.7273 335.655 83.0278Z" fill="#5FFFD9"/>
<path opacity="0.34" d="M279.095 43.1137L266.465 55.2311C266.358 54.939 266.258 54.6389 266.162 54.3347C261.218 38.4679 268.172 37.6432 268.172 37.6432C267.848 36.5617 267.815 35.4138 268.077 34.3156C268.339 33.2174 268.886 32.2077 269.663 31.3885C269.663 31.3885 270.828 44.5917 279.095 43.1137Z" fill="black"/>
<path opacity="0.6" d="M280.323 92.6375C280.323 92.6375 271.804 86.0707 271.809 83.8527C271.413 86.0379 271.147 88.2391 270.939 90.4526C270.729 92.6767 270.652 94.9115 270.708 97.1448C270.768 98.2868 270.565 113.184 277.569 103.116C277.899 102.636 278.355 101.65 278.766 101.262C278.555 102.56 278.322 103.847 278.026 105.119C277.781 106.242 277.479 107.352 277.121 108.445C276.932 108.986 276.797 109.535 276.558 110.067L276.253 110.865C276.145 111.131 276.028 111.389 275.912 111.647C274.966 113.737 273.883 115.763 272.67 117.711C271.482 119.705 270.246 121.679 269.1 123.763C266.781 128.004 265.612 132.764 265.285 137.488C265.115 139.848 265.142 142.217 265.365 144.572C265.569 146.916 265.993 149.235 266.631 151.499C266.367 149.186 266.245 146.86 266.263 144.533C266.272 142.227 266.426 139.924 266.724 137.637C267.344 133.097 268.57 128.635 270.755 124.675C271.867 122.678 273.082 120.671 274.254 118.632C275.455 116.581 276.48 114.433 277.32 112.21C277.42 111.93 277.527 111.649 277.619 111.366L277.883 110.512C278.071 109.945 278.204 109.35 278.349 108.785C278.616 107.626 279.915 102.286 279.96 100.883C280.271 101.366 281.382 105.423 283.383 107.107C290.973 113.502 295.381 89.5266 295.388 87.7703C295.004 89.8175 280.323 92.6375 280.323 92.6375Z" fill="#2E309C"/>
<path opacity="0.6" d="M352.935 122.841C352.772 124.376 352.559 125.914 352.326 127.431C351.945 129.851 351.492 132.258 350.966 134.652C350.441 137.046 349.855 139.424 349.208 141.784C348.56 144.159 347.791 146.501 346.906 148.799C346.922 148.508 346.948 148.216 346.971 147.925L346.888 148.311L345.868 128.958C341.902 117.743 333.987 97.5703 325.69 88.9191C313.888 76.6203 286.09 83.5368 270.615 81.7341C266.221 81.2024 257.65 89.2199 255.358 96.9407C250.903 111.906 254.704 127.963 264.761 139.892C265.839 141.175 266.78 142.567 267.568 144.046C270.383 149.291 272.955 154.641 275.485 159.317C278.402 164.702 286.086 164.907 289.244 159.653C292.752 153.78 295.334 146.876 297.651 142.46C302.67 132.885 298.996 131.105 306.356 128.45C313.717 125.794 309.842 98.9846 309.842 98.9846L313.96 119.185L313.965 119.265L313.968 119.33L313.947 119.503L313.934 119.626L313.902 119.887L313.839 120.44C313.299 124.667 311.244 138.899 305.833 152.625C305.823 152.647 305.814 152.671 305.806 152.695C301.178 164.39 294.115 175.737 283.503 180.148C283.503 180.148 267.159 172.41 261.027 148.208C259.195 140.972 252.897 135.624 244.968 131.686C244.968 131.686 245.425 131.662 246.206 131.644C245.872 131.471 245.535 131.298 245.19 131.125C244.845 130.952 244.465 130.762 244.097 130.591C241.637 129.437 239.116 128.417 236.546 127.535C234.364 126.772 232.141 126.095 229.922 125.483C214.428 121.215 199.077 120.376 199.077 120.376C199.077 120.376 192.953 117.885 192.97 112.201L188.414 107.097C188.414 107.097 195.353 109.682 204.506 100.992L208.284 103.801C208.284 103.801 215.831 101.277 229.171 121.969C229.171 121.969 229.231 121.786 229.346 121.448C230.823 117.099 241.718 86.8458 260.026 81.1472C264.157 79.8568 268.679 79.8246 273.549 81.6253L298.012 76.5374C299.663 76.1949 301.337 75.979 303.02 75.8916C303.34 75.8748 303.664 75.8577 303.983 75.8408C304.303 75.824 304.624 75.8299 304.945 75.8321C305.266 75.8343 305.506 75.8369 305.786 75.8489L306.084 75.8598L306.75 75.8897L306.922 75.8997C307.217 75.9185 307.508 75.945 307.804 75.9715L308.41 76.0349L308.794 76.0796L309.002 76.1068C309.228 76.133 309.452 76.1671 309.679 76.2009L310.483 76.3341L310.78 76.3909C311.027 76.4352 311.274 76.4832 311.517 76.5353L311.602 76.5537C311.887 76.6112 312.17 76.6765 312.452 76.7456L313.272 76.9505L313.419 76.9924C313.686 77.0661 313.95 77.14 314.195 77.2187L314.354 77.2675C314.613 77.3454 314.873 77.4272 315.13 77.5167C315.387 77.6062 315.693 77.7046 315.974 77.8082L316.258 77.9114C316.445 77.9779 316.647 78.0513 316.811 78.1228C317.092 78.234 317.369 78.3453 317.646 78.4605L317.993 78.6101L318.603 78.8872L318.854 79.0037L319.355 79.2483C319.716 79.424 320.076 79.592 320.431 79.8062C320.67 79.9348 320.91 80.0672 321.146 80.2036C321.642 80.4905 322.135 80.7889 322.618 81.1032L323.057 81.3931L323.528 81.7117C323.781 81.893 324.039 82.0665 324.29 82.2632C324.541 82.46 324.789 82.6187 325.037 82.8346C325.285 83.0506 325.527 83.2248 325.771 83.4295C326.266 83.8424 326.747 84.2713 327.221 84.7159C327.434 84.9222 327.647 85.1285 327.861 85.3425C327.876 85.3538 327.89 85.3672 327.901 85.3824C328.111 85.5927 328.305 85.8077 328.523 86.0252C328.74 86.2428 328.956 86.491 329.167 86.7318C329.378 86.9726 329.574 87.2104 329.789 87.4624C330.005 87.7144 330.152 87.9013 330.328 88.1249C330.814 88.7381 331.278 89.3726 331.723 90.0287L331.947 90.368C332.478 91.1721 332.973 92.0074 333.434 92.8738C333.578 93.1449 333.718 93.4199 333.859 93.6988C337.413 100.798 340.734 108.246 343.418 114.64L345.362 119.499L345.35 119.283C348.036 125.844 349.8 130.564 350.107 131.388L350.156 131.511C350.908 128.568 351.836 125.673 352.935 122.841Z" fill="#2E309C"/>
<path d="M271.21 80.8946C271.21 80.8946 269.835 102.878 273.358 103.528C275.983 104.012 279.203 99.7079 280.323 92.6405C280.323 92.6405 279.539 100.652 283.449 105.305C288.096 110.839 299.494 86.801 297.987 76.5322C296.479 66.2633 275.789 70.1445 271.21 80.8946Z" fill="white"/>
<path opacity="0.6" d="M364.358 114.821C365.86 115.305 367.323 115.906 368.732 116.617C370.135 117.307 371.48 118.064 372.824 118.871C374.169 119.678 375.451 120.549 376.707 121.48C377.984 122.408 379.187 123.434 380.304 124.55C378.801 124.07 377.338 123.47 375.93 122.757C374.528 122.068 373.163 121.311 371.838 120.5C370.512 119.688 369.215 118.821 367.959 117.891C366.682 116.962 365.478 115.935 364.358 114.821Z" fill="#2E309C"/>
<path opacity="0.6" d="M209.245 104.296C209.074 105.45 208.605 106.541 207.885 107.459C207.182 108.391 206.319 109.191 205.338 109.823C204.848 110.133 204.333 110.404 203.8 110.633C203.527 110.739 203.266 110.856 202.992 110.947C202.718 111.037 202.435 111.102 202.157 111.174C201.879 111.251 201.596 111.305 201.31 111.337C201.026 111.375 200.741 111.401 200.456 111.424C200.17 111.442 199.883 111.439 199.597 111.416C199.309 111.402 199.022 111.372 198.737 111.327C199.235 111.003 199.735 110.775 200.221 110.52C200.459 110.389 200.696 110.262 200.934 110.143L201.307 109.967C201.422 109.9 201.536 109.829 201.651 109.769C201.881 109.642 202.112 109.52 202.342 109.404L203.012 109.01L203.35 108.828L203.671 108.621C203.889 108.483 204.116 108.36 204.325 108.204C205.181 107.651 206.005 107.055 206.818 106.412C207.632 105.77 208.41 105.103 209.245 104.296Z" fill="#2E309C"/>
<path d="M274.845 75.5628C272.719 76.806 270.844 78.435 269.315 80.3662C267.306 82.8693 265.12 85.2176 262.891 87.5262C262.221 88.2197 261.611 88.9696 261.07 89.7675C260.641 90.3962 260.258 91.0542 259.922 91.7366C259.397 92.7708 258.97 93.8513 258.645 94.9644L258.46 95.3559C257.993 96.3539 257.546 97.3623 257.13 98.3805C256.897 98.9577 256.68 99.5494 256.459 100.122C256.237 100.695 256.032 101.29 255.837 101.877C255.056 104.227 254.431 106.626 253.968 109.06C253.915 109.364 253.863 109.668 253.798 109.973L253.619 110.914C253.492 111.539 253.391 112.171 253.237 112.793C253.113 113.327 252.996 113.863 252.868 114.401C252.637 112.586 252.473 110.846 252.375 109.182C252.35 108.702 252.325 108.234 252.3 107.77C252.163 104.686 252.265 101.595 252.607 98.5273C254.566 81.5179 263.831 76.1778 263.831 76.1778L274.845 75.5628Z" fill="#FF7E21"/>
<path d="M299.208 56.7145C299.208 56.7145 299.21 56.7411 299.212 56.7868C298.586 60.2552 296.583 62.9527 292.401 61.2417L294.227 77.7806C294.363 79.0046 294.168 80.2427 293.662 81.3657C293.157 82.4887 292.36 83.4556 291.353 84.1656L286.061 87.9029L283.393 89.788C283.017 90.0538 282.586 90.2318 282.131 90.3089C281.677 90.3859 281.211 90.36 280.769 90.2332C280.326 90.1064 279.917 89.8819 279.572 89.5761C279.228 89.2703 278.956 88.891 278.777 88.4663L276.058 82.0633L275.431 76.1225L275.364 75.4962L275.265 74.5662L275.166 73.6248C275.166 73.6248 264.955 73.9837 266.116 57.2759C266.966 45.0161 265.91 43.6595 270.275 39.4977C270.275 39.4977 272.699 46.5194 278.348 43.5419C283.584 40.777 284.824 38.6619 286.535 39.5489C286.675 39.6246 286.808 39.7135 286.931 39.8143C287.825 40.4924 288.136 58.6228 288.136 58.6228C288.356 58.7043 288.591 58.74 288.825 58.7277C289.062 58.7161 289.294 58.654 289.504 58.5454C289.715 58.4369 289.9 58.2843 290.048 58.0983L290.105 58.0266C290.369 57.6843 290.668 57.2678 290.975 56.786C291.877 55.3773 292.494 53.8054 292.792 52.1591C293.475 48.1037 294.685 46.5015 297.155 47.3141C298.82 47.8371 299.901 52.7578 299.208 56.7145Z" fill="#FEAB83"/>
<path d="M288.242 66.9901C288.175 66.9502 288.096 66.9377 288.021 66.9552C287.945 66.9728 287.88 67.0189 287.838 67.084C287.799 67.1471 283.578 71.9999 277.86 73.3052C277.413 73.367 276.928 73.4383 276.409 73.5191C270.018 74.5126 267.795 57.8344 268.027 50.7222C268.259 43.6101 270.251 42.2263 270.251 42.2263C274.067 51.1061 286.193 40.5155 286.193 40.5155L286.523 39.5323C284.823 38.6447 283.583 40.7599 278.336 43.5254C272.686 46.4953 270.263 39.4811 270.263 39.4811C265.902 43.6579 266.956 45.03 266.104 57.2593C264.943 73.9671 275.154 73.6082 275.154 73.6082L275.253 74.5496L275.352 75.4796L275.419 76.1059L276.058 82.069L278.755 88.4808C278.934 88.9055 279.206 89.2848 279.55 89.5906C279.895 89.8964 280.304 90.1209 280.747 90.2477C281.189 90.3745 281.655 90.4004 282.109 90.3234C282.564 90.2463 282.995 90.0683 283.371 89.8025L286.039 87.9174C285.865 88.0106 281.572 90.0616 280.645 86.5337C279.909 83.7898 277.941 78.6869 277.426 76.1604C284.546 75.5904 288.286 67.4688 288.32 67.402C288.343 67.3701 288.359 67.334 288.368 67.2956C288.376 67.2573 288.377 67.2177 288.369 67.1792C288.362 67.1407 288.347 67.104 288.325 67.0715C288.303 67.0391 288.274 67.0113 288.242 66.9901Z" fill="#D3714A"/>
<path opacity="0.42" d="M266.376 59.9605C268.6 59.8432 270.287 57.5394 270.143 54.8148C270 52.0902 268.08 49.9765 265.856 50.0938C263.632 50.2111 261.945 52.5149 262.089 55.2395C262.232 57.9641 264.152 60.0778 266.376 59.9605Z" fill="white"/>
<path d="M266.4 60.3932C263.937 60.523 261.804 58.2193 261.647 55.2577C261.491 52.2962 263.37 49.777 265.833 49.6472C268.296 49.5173 270.425 51.8214 270.581 54.7867C270.738 57.752 268.862 60.2633 266.4 60.3932ZM265.879 50.5265C263.9 50.6309 262.4 52.7331 262.531 55.2112C262.661 57.6893 264.374 59.6183 266.353 59.5139C268.333 59.4095 269.833 57.3073 269.702 54.8331C269.572 52.3588 267.856 50.4338 265.88 50.538L265.879 50.5265Z" fill="url(#paint1_linear_1584_5598)"/>
<path opacity="0.42" d="M283.834 53.7907C283.977 56.5162 282.294 58.8342 280.071 58.9514C277.848 59.0686 275.927 56.9559 275.783 54.2152C275.638 51.4744 277.326 49.1715 279.549 49.0543C281.494 48.9517 283.205 50.5602 283.7 52.7862C283.773 53.1168 283.817 53.4527 283.834 53.7907Z" fill="white"/>
<path d="M280.091 59.3825C277.628 59.5124 275.495 57.2085 275.339 54.2432C275.183 51.2779 277.062 48.7663 279.525 48.6364C281.987 48.5066 284.117 50.8106 284.273 53.7722C284.429 56.7337 282.554 59.2526 280.091 59.3825ZM279.571 49.5158C277.592 49.6202 276.092 51.7224 276.222 54.1966C276.352 56.6709 278.065 58.6075 280.045 58.5032C282.024 58.3988 283.524 56.2966 283.394 53.8185C283.263 51.3404 281.547 49.4116 279.571 49.5158Z" fill="black"/>
<path d="M279.764 55.7848C280.171 55.7633 280.467 55.0863 280.424 54.2727C280.382 53.4591 280.016 52.817 279.608 52.8385C279.2 52.86 278.905 53.5369 278.947 54.3505C278.99 55.1641 279.356 55.8063 279.764 55.7848Z" fill="black"/>
<path d="M267.58 56.4274C267.988 56.4059 268.284 55.7288 268.241 54.9152C268.198 54.1016 267.833 53.4596 267.425 53.4811C267.017 53.5026 266.721 54.1795 266.764 54.9931C266.807 55.8067 267.173 56.4489 267.58 56.4274Z" fill="black"/>
<path d="M270.591 48.9172C270.511 48.9218 270.431 48.91 270.356 48.8825C270.281 48.8549 270.213 48.8122 270.155 48.757C268.387 47.0829 266.359 48.4342 266.274 48.4921C266.211 48.5361 266.139 48.5671 266.063 48.5834C265.988 48.5997 265.91 48.6009 265.834 48.587C265.758 48.5731 265.685 48.5443 265.62 48.5024C265.555 48.4604 265.499 48.4062 265.455 48.3426C265.411 48.279 265.38 48.2073 265.364 48.1317C265.348 48.0562 265.346 47.9781 265.36 47.902C265.374 47.826 265.403 47.7534 265.445 47.6884C265.487 47.6235 265.541 47.5675 265.605 47.5235C266.595 46.8377 268.992 46.0318 270.969 47.9011C271.053 47.9799 271.113 48.082 271.14 48.1945C271.166 48.307 271.159 48.4248 271.119 48.5334C271.08 48.6419 271.008 48.7363 270.915 48.8045C270.822 48.8728 270.71 48.9119 270.595 48.917L270.591 48.9172Z" fill="#592400"/>
<path d="M276.026 48.6815C275.869 48.6892 275.715 48.6341 275.598 48.5285C275.541 48.4772 275.494 48.4151 275.461 48.3458C275.428 48.2765 275.409 48.2013 275.405 48.1245C275.401 48.0478 275.412 47.9709 275.437 47.8985C275.463 47.8261 275.503 47.7594 275.555 47.7024C275.583 47.6703 278.396 44.621 283.229 47.0153C283.369 47.0844 283.475 47.2062 283.525 47.3539C283.575 47.5016 283.565 47.6631 283.496 47.8029C283.427 47.9427 283.305 48.0493 283.157 48.0994C283.01 48.1494 282.848 48.1387 282.708 48.0696C278.702 46.086 276.519 48.396 276.428 48.4885C276.377 48.5457 276.315 48.5921 276.246 48.6252C276.177 48.6584 276.103 48.6775 276.026 48.6815Z" fill="#592400"/>
<path d="M275.58 53.9324C274.675 53.1212 273.743 52.7467 272.823 52.8257C271.852 52.9623 270.965 53.4505 270.33 54.1977L269.872 53.8401C270.606 52.9669 271.639 52.3992 272.77 52.2483C273.86 52.1564 274.94 52.5805 275.974 53.507L275.58 53.9324Z" fill="black"/>
<path d="M272.136 61.3013C272.069 61.3105 272.001 61.3141 271.934 61.3119C271.749 61.2829 271.574 61.2087 271.424 61.0961C271.274 60.9836 271.154 60.836 271.075 60.6663C270.3 59.207 271.975 54.351 272.168 53.8027C272.194 53.7302 272.248 53.671 272.317 53.6374C272.387 53.6039 272.467 53.5986 272.54 53.6227C272.612 53.6492 272.671 53.7032 272.704 53.7729C272.737 53.8426 272.742 53.9224 272.716 53.9952C272.215 55.4187 271.605 57.6915 272.157 58.7351C272.305 59.0097 273.899 59.6318 274.019 59.7438C274.048 59.7696 274.071 59.8008 274.088 59.8356C274.105 59.8704 274.114 59.9082 274.116 59.9467C274.118 59.9852 274.113 60.0239 274.1 60.0602C274.087 60.0966 274.067 60.1301 274.041 60.1588C273.936 60.2673 273.019 61.2547 272.136 61.3013Z" fill="#D3714A"/>
<path d="M274.176 65.8398C273.955 65.8529 273.733 65.8506 273.512 65.8329C273.435 65.8212 273.366 65.7803 273.318 65.7188C273.271 65.6573 273.249 65.5799 273.258 65.5027C273.262 65.4645 273.274 65.4275 273.293 65.394C273.312 65.3604 273.337 65.331 273.367 65.3074C273.398 65.2837 273.433 65.2663 273.47 65.2563C273.507 65.2463 273.546 65.2438 273.584 65.2489C273.768 65.2697 277.906 65.7004 280.026 60.6607C280.056 60.5915 280.112 60.5367 280.181 60.5074C280.251 60.4781 280.329 60.4768 280.399 60.5036C280.468 60.5337 280.523 60.5896 280.552 60.6593C280.58 60.7291 280.581 60.8073 280.553 60.8773C278.788 65.131 275.577 65.7659 274.176 65.8398Z" fill="#D3714A"/>
<path d="M297.28 50.8259C297.083 50.6393 296.846 50.4999 296.587 50.4184C296.328 50.3368 296.054 50.3151 295.786 50.3549C295.209 50.496 294.764 51.0348 294.458 51.9518C293.799 53.9409 293.885 55.574 294.713 56.4274C294.904 56.6251 295.138 56.7778 295.395 56.8745C295.653 56.9711 295.93 57.0093 296.204 56.9863C296.422 56.9733 296.638 56.9351 296.847 56.8722C296.922 56.8501 296.985 56.7993 297.023 56.7309C297.061 56.6624 297.07 56.5818 297.049 56.5065C297.003 56.3524 295.594 56.4954 295.115 56.0206C295.074 55.9781 295.036 55.9329 295.001 55.8854C294.902 55.7403 294.838 55.5735 294.817 55.399C294.795 55.2245 294.815 55.0473 294.875 54.8821C294.935 54.717 295.034 54.5685 295.164 54.4493C295.293 54.33 295.449 54.2432 295.618 54.1962L295.749 54.155L296.683 53.4072C296.722 53.3915 296.756 53.368 296.785 53.3381C296.814 53.3082 296.836 53.2727 296.85 53.2337C296.865 53.1947 296.87 53.1532 296.868 53.1118C296.865 53.0704 296.853 53.0301 296.834 52.9934C296.815 52.9567 296.788 52.9244 296.756 52.8987C296.723 52.8729 296.685 52.8543 296.645 52.844C296.605 52.8336 296.563 52.8317 296.522 52.8385C296.481 52.8454 296.442 52.8607 296.408 52.8835L295.483 53.375C295.402 53.4192 295.31 53.4391 295.218 53.4321C295.126 53.4251 295.039 53.3915 294.965 53.3356C294.892 53.2797 294.837 53.2037 294.806 53.1169C294.775 53.0301 294.77 52.9362 294.791 52.8466C294.848 52.6184 294.915 52.382 294.998 52.1371C295.232 51.4377 295.546 51.0165 295.905 50.9442C296.379 50.8275 297.16 51.378 297.272 51.2538C297.302 51.2269 297.326 51.1942 297.342 51.1577C297.359 51.1212 297.368 51.0816 297.369 51.0415C297.369 51.0014 297.362 50.9616 297.347 50.9245C297.332 50.8874 297.309 50.8539 297.28 50.8259Z" fill="#D3714A"/>
<path d="M409.814 79.4462C409.78 79.4916 409.737 79.5288 409.687 79.5552C409.637 79.5816 409.581 79.5966 409.525 79.5989C409.437 79.6038 409.351 79.5788 409.28 79.5278L405.412 76.678C404.973 76.3584 404.444 76.1834 403.901 76.1775L394.908 76.1096C394.79 76.1158 393.947 75.9733 393.217 75.8171L394.911 75.7278C394.451 75.7079 394.005 75.5698 393.615 75.3266C394.076 75.3252 394.524 75.3359 394.761 75.3425C394.864 75.3447 394.967 75.3393 395.069 75.3262L403.947 74.507C404.321 74.4723 404.698 74.5194 405.052 74.6451C405.406 74.7708 405.728 74.9721 405.997 75.2349L409.728 78.8896C409.772 78.9189 409.81 78.9571 409.838 79.0017C409.867 79.0463 409.886 79.0964 409.894 79.1488C409.902 79.2012 409.899 79.2547 409.885 79.3059C409.872 79.3571 409.848 79.4049 409.814 79.4462Z" fill="#D3714A"/>
<path d="M407.662 84.8919C407.597 84.9536 407.513 84.9905 407.423 84.9961C407.368 84.9996 407.312 84.9908 407.26 84.9705C407.208 84.9501 407.162 84.9187 407.123 84.8783L404.749 83.2896L395.011 83.0701C394.935 83.0739 394.859 83.0545 394.793 83.0143C394.728 82.9742 394.676 82.9152 394.645 82.8451L403.311 82.3004L403.183 80.8757C403.183 80.8757 403.895 80.8382 397.435 80.4612C393.989 80.2611 392.707 78.9698 392.276 77.813L403.349 80.1989C404.296 80.4015 405.137 80.9386 405.719 81.7115L407.699 84.3517C407.732 84.3895 407.757 84.4334 407.773 84.4811C407.79 84.5288 407.796 84.5792 407.793 84.6294C407.789 84.6796 407.776 84.7287 407.754 84.7737C407.731 84.8188 407.7 84.8589 407.662 84.8919Z" fill="#D3714A"/>
<path d="M409.454 75.9156C409.392 76.0411 408.686 75.3988 408.553 75.4058C408.487 75.4091 408.422 75.3954 408.364 75.3661L403.95 72.7322C401.28 71.6209 399.487 70.4749 398.315 69.3877C400.729 70.1498 404.895 71.6136 405.028 71.6791L408.706 74.6839C408.89 74.7811 409.551 75.7273 409.454 75.9156Z" fill="#D3714A"/>
<path d="M303.779 121.787C309.638 142.194 316.825 127.058 316.825 127.058L319.203 133.494L320.646 137.396C320.646 137.396 301.238 155.405 295.385 118.455C289.839 83.423 321.216 74.7222 321.216 74.7222L321.918 75.3073L324.434 77.4116L325.121 77.9861C324.918 78.1037 324.715 78.2251 324.51 78.3504C312.155 85.7582 298.014 101.711 303.779 121.787Z" fill="#FF7E21"/>
<path opacity="0.6" d="M310.74 106.366C311.792 108.265 312.735 110.223 313.565 112.229C314.403 114.22 315.173 116.234 315.876 118.268C316.578 120.302 317.22 122.36 317.8 124.442C318.389 126.532 318.859 128.653 319.208 130.796C318.155 128.897 317.212 126.94 316.383 124.933C315.546 122.941 314.777 120.928 314.076 118.893C313.376 116.859 312.734 114.8 312.151 112.716C311.564 110.627 311.093 108.507 310.74 106.366Z" fill="#2E309C"/>
<path d="M299.209 56.7144C299.209 56.7144 299.21 56.7411 299.213 56.7867C298.586 60.2552 296.583 62.9527 292.401 61.2417C291.839 60.5766 291.393 60.0008 291.043 59.5116C290.762 59.1129 290.606 58.6396 290.595 58.152C290.585 57.6645 290.719 57.1848 290.982 56.7741L291.024 56.7719C291.581 56.8917 292.076 57.2103 292.415 57.6681C293.417 59.0086 296.234 61.826 299.209 56.7144Z" fill="#D3714A"/>
<g opacity="0.6">
<path opacity="0.6" d="M270.988 109.814L270.859 109.821C270.651 109.819 270.446 109.77 270.259 109.676C270.073 109.583 269.911 109.448 269.785 109.282C269.55 108.955 269.452 108.549 269.511 108.151C269.562 107.718 269.77 107.318 270.095 107.027C270.419 106.736 270.839 106.573 271.276 106.569C271.484 106.57 271.689 106.62 271.876 106.713C272.062 106.806 272.224 106.942 272.35 107.108C272.588 107.434 272.688 107.84 272.627 108.239C272.572 108.662 272.373 109.052 272.063 109.345C271.772 109.623 271.391 109.79 270.988 109.814ZM271.167 106.896C270.861 106.947 270.58 107.099 270.37 107.327C270.159 107.555 270.031 107.847 270.004 108.156C269.951 108.492 270.033 108.836 270.23 109.113C270.307 109.222 270.407 109.312 270.524 109.376C270.64 109.44 270.77 109.476 270.902 109.483C271.184 109.475 271.451 109.358 271.649 109.157C271.908 108.908 272.074 108.577 272.118 108.22C272.171 107.883 272.09 107.54 271.892 107.262C271.817 107.154 271.717 107.064 271.601 107C271.485 106.936 271.356 106.899 271.224 106.893L271.167 106.896Z" fill="#2E309C"/>
</g>
<g opacity="0.6">
<path opacity="0.6" d="M266.497 118.523C266.13 118.549 265.765 118.448 265.463 118.238C265.301 118.111 265.166 117.951 265.066 117.77C264.967 117.589 264.906 117.39 264.886 117.184C264.866 116.978 264.889 116.771 264.951 116.574C265.014 116.377 265.117 116.195 265.252 116.039C265.412 115.828 265.614 115.651 265.844 115.52C266.075 115.389 266.33 115.307 266.594 115.277C266.993 115.229 267.396 115.328 267.727 115.557C267.889 115.685 268.023 115.844 268.122 116.025C268.221 116.206 268.282 116.405 268.302 116.61C268.322 116.815 268.299 117.022 268.237 117.219C268.174 117.415 268.073 117.597 267.938 117.753C267.778 117.963 267.577 118.14 267.347 118.271C267.117 118.401 266.863 118.484 266.6 118.514L266.497 118.523ZM266.725 115.603L266.672 115.605C266.489 115.633 266.314 115.696 266.157 115.792C265.999 115.889 265.862 116.015 265.755 116.165C265.53 116.43 265.419 116.772 265.446 117.119C265.473 117.465 265.635 117.786 265.898 118.013C266.085 118.151 266.318 118.212 266.548 118.185C266.731 118.157 266.906 118.094 267.064 117.998C267.221 117.902 267.358 117.775 267.465 117.625C267.691 117.361 267.802 117.02 267.776 116.674C267.75 116.329 267.588 116.008 267.326 115.781C267.148 115.65 266.93 115.587 266.71 115.603L266.725 115.603Z" fill="#2E309C"/>
</g>
<g opacity="0.6">
<path opacity="0.6" d="M262.129 133.442C261.802 133.461 261.479 133.357 261.224 133.15C260.931 132.869 260.749 132.492 260.713 132.088C260.676 131.683 260.787 131.279 261.024 130.95C261.153 130.747 261.324 130.574 261.526 130.444C261.728 130.314 261.957 130.23 262.195 130.198C262.371 130.175 262.55 130.189 262.721 130.238C262.892 130.288 263.05 130.372 263.187 130.485C263.48 130.765 263.662 131.142 263.699 131.546C263.735 131.949 263.625 132.353 263.387 132.681C263.259 132.884 263.088 133.056 262.887 133.186C262.685 133.316 262.458 133.4 262.22 133.433L262.129 133.442ZM261.587 132.929C261.665 132.996 261.756 133.047 261.855 133.077C261.954 133.108 262.058 133.117 262.161 133.104C262.326 133.075 262.483 133.01 262.621 132.914C262.758 132.819 262.874 132.695 262.96 132.551C263.359 131.942 263.299 131.094 262.825 130.707C262.747 130.637 262.656 130.586 262.557 130.555C262.458 130.524 262.353 130.514 262.25 130.527C262.085 130.557 261.929 130.622 261.791 130.718C261.653 130.813 261.537 130.937 261.451 131.081C261.052 131.689 261.112 132.538 261.587 132.929Z" fill="#2E309C"/>
</g>
<path d="M67.8619 331.692C66.7795 332.849 65.5035 333.809 64.0912 334.528L17.0961 269.114C17.1741 268.999 18.5807 266.936 21.623 267.371C24.6653 267.806 29.2674 270.675 35.8072 280.323C49.1351 299.985 49.5775 317.498 67.8619 331.692Z" fill="white"/>
<path d="M271.498 33.3726C271.896 34.2639 272.293 35.1323 272.734 35.9794C273.157 36.7973 273.674 37.563 274.275 38.261C274.836 38.925 275.612 39.3727 276.468 39.5272C277.326 39.6575 278.246 39.3799 279.155 39.0228C278.794 39.3627 278.381 39.6422 277.931 39.8507C277.699 39.9602 277.457 40.0472 277.208 40.1103C277.08 40.1399 276.947 40.1583 276.83 40.1798C276.713 40.2012 276.568 40.1936 276.431 40.2009C275.891 40.1967 275.36 40.0623 274.883 39.8091C274.416 39.5604 273.996 39.2326 273.641 38.8402C272.974 38.0807 272.459 37.201 272.123 36.2482C271.767 35.3277 271.556 34.3577 271.498 33.3726Z" fill="black"/>
<path d="M274.491 33.4359C274.719 34.1923 275.039 34.9177 275.444 35.5958C275.799 36.2186 276.342 36.7127 276.996 37.0066C277.32 37.1368 277.663 37.2141 278.012 37.2355C278.383 37.2503 278.756 37.2307 279.123 37.1769C279.908 37.0393 280.683 36.8557 281.446 36.6269C280.814 37.1764 280.078 37.593 279.281 37.8518C278.863 37.9843 278.429 38.056 277.991 38.0649C277.534 38.0691 277.081 37.984 276.657 37.8145C276.23 37.6351 275.847 37.3648 275.535 37.0225C275.238 36.6959 274.999 36.3213 274.827 35.9146C274.502 35.1317 274.386 34.2774 274.491 33.4359Z" fill="black"/>
<path d="M291.951 35.5483C292.634 35.5292 293.31 35.6911 293.911 36.0176C294.536 36.3415 295.069 36.8174 295.461 37.4016C295.56 37.5468 295.649 37.6991 295.726 37.8571C295.813 38.0111 295.884 38.1737 295.938 38.3422C295.989 38.5074 296.047 38.6724 296.094 38.8416C296.141 39.0109 296.147 39.1824 296.171 39.3529L296.184 39.608C296.189 39.6955 296.193 39.7792 296.198 39.863L296.175 40.3719C296.128 40.7037 296.052 41.0308 295.948 41.3496C295.851 41.0227 295.815 40.7039 295.741 40.3948L295.622 39.9392C295.618 39.8631 295.587 39.7883 295.572 39.7128L295.491 39.4956C295.442 39.3531 295.392 39.2107 295.351 39.0679C295.309 38.9251 295.225 38.7958 295.165 38.6616C295.107 38.5324 295.037 38.4084 294.958 38.2908C294.894 38.1612 294.819 38.0374 294.733 37.9209C294.396 37.4278 293.987 36.9887 293.519 36.6185C293.03 36.2144 292.505 35.8562 291.951 35.5483Z" fill="black"/>
<path d="M289.717 36.4541C290.106 36.5425 290.469 36.7222 290.775 36.9785C290.934 37.0999 291.072 37.2454 291.22 37.3826C291.355 37.5307 291.482 37.6858 291.6 37.8474C292.061 38.5007 292.389 39.2382 292.565 40.0181C292.658 40.4002 292.724 40.7882 292.764 41.1794C292.784 41.5601 292.804 41.9407 292.801 42.3226C292.799 42.7045 292.746 43.0889 292.69 43.4736C292.623 43.8541 292.536 44.2308 292.429 44.6021C292.348 44.2246 292.305 43.8452 292.259 43.4659C292.212 43.0866 292.146 42.7083 292.108 42.3553L291.936 41.2651L291.823 40.7748C291.796 40.596 291.756 40.4195 291.703 40.2468C291.548 39.5477 291.314 38.8684 291.005 38.2223C290.931 38.0582 290.836 37.9105 290.758 37.7467C290.681 37.5828 290.574 37.4357 290.463 37.2927C290.255 36.9798 290.004 36.6975 289.717 36.4541Z" fill="black"/>
<path d="M65.8031 333.492C63.3604 335.234 60.4153 336.131 57.4161 336.045C54.4169 335.959 51.5278 334.896 49.1887 333.017C32.1904 319.324 19.3327 291.495 14.1298 279.329C13.3563 277.548 13.2294 275.552 13.7708 273.687C14.3123 271.822 15.4882 270.205 17.0954 269.115C19.723 269.358 22.8852 270.764 26.531 274.32C38.3281 285.798 48.3781 319.451 60.7285 328.175C63.4678 330.103 65.0274 331.884 65.8031 333.492Z" fill="#FFCAA6"/>
<path d="M49.6388 290.845C50.0168 288.313 49.748 286.4 49.1919 284.975C50.6564 285.901 52.1897 286.713 53.7784 287.405C56.4154 296.297 48.4667 298.587 49.6388 290.845Z" fill="white"/>
<path d="M57.6769 290.423C57.7632 289.866 57.8165 289.305 57.8365 288.742C59.2946 289.092 60.7909 289.257 62.2902 289.233C63.0856 296.211 56.6288 297.475 57.6769 290.423Z" fill="white"/>
<path opacity="0.46" d="M88.0472 309.806L84.9131 313.205L65.2778 287.94C66.595 287.069 67.8579 286.119 69.0595 285.095C75.7656 286.822 87.1258 292.33 88.0472 309.806Z" fill="#A54300"/>
<path d="M385.597 71.9399C385.201 73.106 384.599 74.7332 383.815 76.5038C383.486 77.1395 383.121 77.8229 382.675 78.5564C380.68 81.9214 380.087 82.697 379.929 82.8008C380.952 86.3593 381.46 90.0462 381.437 93.749L381.388 93.7516C381.338 93.7451 381.29 93.7287 381.247 93.7036C381.203 93.6785 381.165 93.645 381.135 93.6051C381.104 93.5652 381.082 93.5198 381.069 93.4712C381.056 93.4227 381.053 93.3721 381.06 93.3223C381.522 89.9961 377.143 83.1042 377.143 83.1042C381.12 77.6039 385.438 69.8641 385.457 69.7943C385.477 69.7173 385.52 69.6483 385.581 69.5972C385.642 69.5461 385.718 69.5153 385.797 69.5092C385.871 70.3249 385.803 71.1473 385.597 71.9399Z" fill="#D3714A"/>
<path d="M381.342 96.1435C381.346 96.2158 381.32 96.3699 381.298 96.6153L381.238 97.2025C381.241 97.2672 381.222 97.337 381.218 97.4059C381.215 97.3564 381.216 97.364 381.219 97.4287L381.222 97.4896C381.222 97.4896 381.225 97.5467 381.205 97.6623C380.94 99.8712 379.722 107.402 378.829 109.648L378.779 104.367L378.784 100.981C378.914 100.619 380.739 98.9695 381.365 95.9973C381.365 95.9973 381.354 96.0092 381.342 96.1435Z" fill="#D3714A"/>
<path d="M403.708 52.1343C391.879 50.2501 380.104 53.3101 379.285 53.7045C379.216 53.752 379.136 53.7788 379.052 53.7817C378.996 53.7822 378.94 53.7713 378.887 53.7498C378.835 53.7283 378.788 53.6966 378.748 53.6565C378.709 53.6173 378.678 53.5707 378.657 53.5195C378.636 53.4683 378.625 53.4134 378.625 53.358C378.626 53.3026 378.637 53.2479 378.658 53.1969C378.68 53.1459 378.711 53.0996 378.751 53.0608C379.233 52.5811 390.958 47.9855 402.894 49.6465L403.017 51.9875L403.708 52.1343Z" fill="#BC4C00"/>
<path opacity="0.34" d="M383.501 23.1811C383.501 23.1811 390.805 26.7734 386.105 33.2585C381.404 39.7436 388.412 42.7714 388.412 42.7714C388.412 42.7714 372.651 37.3498 382.171 31.8474C388.468 28.2097 383.501 23.1811 383.501 23.1811Z" fill="white"/>
<path opacity="0.34" d="M389.353 0.99461C389.353 0.99461 382.611 8.15224 388.201 18.5227C393.79 28.8931 387.266 35.0468 387.266 35.0468C387.266 35.0468 402.136 23.5748 391.903 15.56C385.117 10.2799 389.353 0.99461 389.353 0.99461Z" fill="white"/>
<path d="M292.838 51.6386L283.741 52.3032L283.805 53.1814L292.902 52.5169L292.838 51.6386Z" fill="black"/>
<path opacity="0.58" d="M268.622 75.8908C264.233 79.5195 253.317 89.6761 252.875 114.385C252.645 112.57 252.481 110.83 252.383 109.166C252.357 108.687 252.333 108.218 252.308 107.754C252.171 104.67 252.273 101.58 252.615 98.5117C254.573 81.5023 263.838 76.1621 263.838 76.1621L268.622 75.8908Z" fill="#BC4C00"/>
<path d="M252.933 307.244L209.292 359.592C208.23 360.862 206.776 361.742 205.158 362.094C203.54 362.445 201.852 362.247 200.359 361.532C199.624 361.179 198.953 360.705 198.376 360.129C198.376 360.129 197.057 359.134 196.856 355.335C196.609 350.641 198.045 341.683 205.776 325.049C206.53 323.421 207.347 321.717 208.228 319.938C208.933 318.504 209.684 317.02 210.478 315.487C211.17 314.133 211.914 312.739 212.685 311.301C212.996 310.728 213.294 310.15 213.579 309.567C214.177 308.39 214.723 307.159 215.223 305.93C216.088 303.824 216.816 301.664 217.401 299.464C217.914 297.526 218.306 295.559 218.576 293.573C218.796 291.92 218.926 290.257 218.966 288.59L232.816 283.417L243.32 279.496L249.774 288.737L253.035 293.401L254.274 295.18C258.492 299.164 256.657 302.788 252.933 307.244Z" fill="#FF7E21"/>
<path opacity="0.16" d="M254.276 295.172C239.388 307.092 234.38 295.431 232.814 283.405L243.318 279.485L249.772 288.726L253.033 293.39L254.276 295.172Z" fill="white"/>
<path d="M252.935 307.247L209.294 359.595C208.232 360.865 206.778 361.745 205.16 362.097C203.542 362.448 201.854 362.251 200.361 361.536C210.851 353.215 239.449 315.272 247.22 306.152C252.728 299.689 253.392 296.283 253.037 293.401L254.276 295.179C258.494 299.167 256.659 302.791 252.935 307.247Z" fill="white"/>
<path d="M225.834 310.76C225.711 311.461 225.337 312.094 224.783 312.541C224.162 313.053 223.415 313.388 222.62 313.51L210.543 315.479L210.448 315.484C211.14 314.13 211.883 312.736 212.655 311.298C212.966 310.724 213.263 310.146 213.548 309.564L220.696 307.572C223.435 306.817 226.158 308.517 225.834 310.76Z" fill="white"/>
<path d="M222.921 321.04C222.818 321.693 222.504 322.295 222.026 322.752C221.548 323.209 220.933 323.496 220.275 323.569L206.561 325.094C206.295 325.124 206.025 325.108 205.764 325.048C206.518 323.42 207.336 321.717 208.216 319.937C211.375 319.32 215.965 318.346 219.313 317.627C219.791 317.525 220.287 317.541 220.757 317.673C221.228 317.805 221.659 318.05 222.014 318.386C222.369 318.721 222.637 319.139 222.795 319.601C222.953 320.063 222.996 320.557 222.921 321.04Z" fill="white"/>
<path d="M229.211 300.736C229.089 301.121 228.873 301.468 228.581 301.747C228.291 302.023 227.934 302.22 227.546 302.321C225.061 302.967 219.402 304.659 215.217 305.933C216.082 303.827 216.809 301.667 217.395 299.466L226.462 297.675C226.869 297.591 227.292 297.615 227.687 297.745C228.083 297.875 228.437 298.107 228.715 298.416C228.993 298.726 229.186 299.103 229.273 299.51C229.36 299.917 229.338 300.34 229.211 300.736Z" fill="white"/>
<path opacity="0.46" d="M249.77 288.728C242.3 287.037 234.499 287.573 227.33 290.27L218.564 293.568C218.785 291.915 218.915 290.252 218.954 288.585L243.313 279.491L249.77 288.728Z" fill="#A54300"/>
<path opacity="0.58" d="M316.826 127.061L319.203 133.498C318.17 134.739 316.692 135.525 315.086 135.688C299.714 136.991 298.137 109.827 303.744 96.0686C308.013 85.5982 317.591 78.2262 321.918 75.3032L322.338 75.4489C323.465 75.821 324.409 76.6058 324.981 77.6457C325.044 77.7502 325.091 77.8636 325.121 77.9819C312.766 85.3973 298.014 101.715 303.764 121.791C309.638 142.197 316.826 127.061 316.826 127.061Z" fill="#BC4C00"/>
<path d="M212.939 89.1718L193.274 90.2086L174.297 54.8393C174.119 54.5085 174.028 54.1381 174.032 53.7627C174.036 53.3872 174.134 53.0188 174.319 52.6916C174.503 52.3644 174.766 52.089 175.085 51.8909C175.404 51.6928 175.768 51.5784 176.143 51.5584L193.296 50.6541C194.04 50.6147 194.781 50.7881 195.431 51.154C196.081 51.5198 196.613 52.0631 196.966 52.7203L214.766 85.892C214.943 86.2214 215.034 86.59 215.031 86.9639C215.028 87.3377 214.931 87.7048 214.749 88.0314C214.567 88.358 214.306 88.6336 213.99 88.8329C213.673 89.0322 213.312 89.1487 212.939 89.1718Z" fill="white"/>
<path opacity="0.58" d="M212.939 89.1687L193.274 90.2055L174.297 54.8363C174.107 54.4823 174.016 54.0835 174.034 53.6821L191.213 52.7763C191.958 52.7374 192.698 52.9109 193.348 53.2768C193.998 53.6426 194.531 54.1856 194.884 54.8425L212.665 88.0152C212.86 88.3672 212.955 88.7662 212.939 89.1687Z" fill="url(#paint2_linear_1584_5598)"/>
<path d="M203.84 90.3612L204.229 101.559C203.632 103.101 202.848 104.563 201.893 105.912C199.721 108.954 196.039 112.019 190.839 109.262C190.839 109.262 178.861 95.358 179.12 84.9235C179.136 83.5494 179.418 82.1915 179.951 80.9251C186.945 64.864 188.19 61.4048 190.596 62.0109C190.719 62.0418 190.84 62.0801 190.958 62.1255C190.958 62.1255 190.992 61.9824 191.06 61.7574C191.302 60.9813 191.955 59.1832 192.968 59.1299C193.832 59.0843 195.176 59.5288 195.631 62.2913C195.856 63.6727 195.864 65.6305 195.48 68.4068L195.099 78.3324L194.975 81.5644C195.041 80.7249 196.129 67.2579 198.08 65.6663C199.361 64.6254 202.116 67.3621 201.729 73.7725C201.736 73.8981 201.716 74.0251 201.707 74.1553C201.822 74.214 201.926 74.2925 202.013 74.3873C202.508 74.8688 203.398 76.2495 203.165 79.8576C202.852 84.783 203.84 90.3612 203.84 90.3612Z" fill="#FEAB83"/>
<path d="M201.892 105.907C199.721 108.949 196.038 112.014 190.839 109.257C190.839 109.257 178.861 95.3532 179.12 84.9187C181.117 85.7982 183.158 86.1372 184.823 85.2096C189.944 82.3592 196.624 90.0307 196.624 90.0307L201.892 105.907Z" fill="#D3714A"/>
<path d="M191.321 62.2341C191.283 62.3697 187.251 76.0339 187.145 81.7118C187.144 81.8084 187.105 81.9008 187.038 81.9703C186.971 82.0397 186.88 82.081 186.783 82.0858L186.757 82.0872C186.656 82.0857 186.56 82.0444 186.49 81.9723C186.42 81.9001 186.381 81.8031 186.382 81.7024C186.493 75.9174 184.864 73.4114 190.592 62.0129C190.715 62.0438 190.835 62.0821 190.953 62.1275C190.953 62.1275 190.988 61.9845 191.056 61.7595C191.105 61.7728 191.15 61.7957 191.19 61.8269C191.23 61.8581 191.263 61.8969 191.288 61.9411C191.313 61.9852 191.328 62.0339 191.334 62.0842C191.34 62.1345 191.335 62.1855 191.321 62.2341Z" fill="#D3714A"/>
<path d="M202.015 74.3694C201.795 74.7627 199.87 78.5858 199.663 87.6816C199.661 87.7782 199.623 87.8706 199.556 87.94C199.488 88.0095 199.397 88.0509 199.301 88.0557L199.267 88.0575C199.166 88.055 199.07 88.0126 199 87.9398C198.931 87.8669 198.893 87.7694 198.895 87.6687C198.379 77.8934 197.761 80.2811 201.374 73.945C201.41 73.8857 201.461 73.8373 201.523 73.8052C201.585 73.773 201.654 73.7582 201.723 73.7625C201.73 73.8881 201.71 74.0151 201.701 74.1453C201.818 74.2009 201.924 74.2768 202.015 74.3694Z" fill="#D3714A"/>
<path d="M195.483 68.393L195.102 78.3186L194.608 84.746C194.601 84.8388 194.56 84.9257 194.493 84.9904C194.427 85.0551 194.338 85.0931 194.245 85.0972L194.196 85.0998C194.095 85.0918 194.002 85.0443 193.936 84.9676C193.871 84.8909 193.838 84.7914 193.846 84.6908L193.469 77.5496C193.485 77.3389 195.418 62.3004 195.631 62.2892C195.86 63.6704 195.868 65.6282 195.483 68.393Z" fill="#D3714A"/>
<defs>
<linearGradient id="paint0_linear_1584_5598" x1="375.955" y1="80.9449" x2="391.878" y2="80.1053" gradientUnits="userSpaceOnUse">
<stop stop-color="#3939FA"/>
<stop offset="1" stop-color="#ADADFF" stop-opacity="0"/>
</linearGradient>
<linearGradient id="paint1_linear_1584_5598" x1="270.581" y1="54.7867" x2="261.647" y2="55.2577" gradientUnits="userSpaceOnUse">
<stop stop-color="#1D1D1B"/>
<stop offset="1" stop-color="#3939FA"/>
</linearGradient>
<linearGradient id="paint2_linear_1584_5598" x1="175.002" y1="72.4" x2="211.964" y2="70.4512" gradientUnits="userSpaceOnUse">
<stop stop-color="#ADADFF" stop-opacity="0"/>
<stop offset="1" stop-color="#3939FA"/>
</linearGradient>
</defs>
</svg>
