<svg width="233" height="30" viewBox="0 0 233 30" fill="none" xmlns="http://www.w3.org/2000/svg">
<path d="M60.3016 7.5388C61.5584 7.49348 62.7998 7.82767 63.864 8.49782C64.9283 9.16798 65.7661 10.1431 66.2683 11.2961C66.8151 12.5144 67.0884 13.8377 67.0691 15.173V23.3711H65.4993V15.3903C65.5089 14.3094 65.3074 13.2371 64.906 12.2336C64.5447 11.3067 63.9348 10.4975 63.1433 9.89472C62.2957 9.32861 61.3012 9.02241 60.282 9.01373C59.2628 9.00506 58.2632 9.29429 57.4061 9.8459C56.6124 10.4175 55.9956 11.2009 55.6263 12.1066C55.2112 13.1066 55.0044 14.1807 55.0184 15.2633V23.3711H53.4779V15.2633C53.4889 14.184 53.2761 13.1142 52.8529 12.1213C52.4751 11.2082 51.8482 10.4198 51.0439 9.8459C50.1794 9.2667 49.1541 8.97534 48.1142 9.01339C47.0917 8.97844 46.0872 9.28891 45.2627 9.89472C44.481 10.4976 43.877 11.3007 43.5147 12.2189C43.112 13.2161 42.9104 14.2831 42.9214 15.3585V23.3711H41.3833V15.2316C41.3635 13.8776 41.6358 12.5353 42.1817 11.2961C42.6696 10.1835 43.4638 9.23268 44.4717 8.55441C45.54 7.86442 46.7916 7.51299 48.0629 7.54612C49.2144 7.51887 50.3527 7.79504 51.3637 8.34689C52.286 8.86346 53.0544 9.61586 53.5902 10.527C54.147 11.4813 54.4504 12.5621 54.4716 13.6667H54.0883C54.1306 12.5653 54.4326 11.4895 54.9696 10.527C55.478 9.62137 56.2199 8.86853 57.118 8.34689C58.0865 7.79434 59.1868 7.51505 60.3016 7.5388Z" fill="white"/>
<path d="M78.3196 23.6915C76.8709 23.7103 75.4454 23.3275 74.201 22.5856C72.9938 21.8707 71.9862 20.8631 71.2713 19.656C70.5403 18.4255 70.1627 17.0173 70.18 15.5862C70.1653 14.1608 70.5492 12.7596 71.2884 11.5408C72.005 10.3427 73.0128 9.345 74.2181 8.64046C75.4396 7.90842 76.8341 7.51477 78.2581 7.49992C79.6821 7.48507 81.0845 7.84956 82.321 8.55597C83.5576 9.26237 84.5839 10.2852 85.2944 11.5194C86.0049 12.7537 86.374 14.1548 86.3639 15.5789C86.3824 17.0056 86.0173 18.4112 85.3068 19.6486C84.6115 20.8561 83.6179 21.8648 82.4211 22.5783C81.1842 23.3239 79.7637 23.7094 78.3196 23.6915ZM78.3196 22.1852C79.4774 22.2019 80.6165 21.8913 81.6057 21.2892C82.5678 20.7009 83.3662 19.8798 83.9274 18.9016C84.4956 17.8938 84.7941 16.7565 84.7941 15.5996C84.7941 14.4427 84.4956 13.3054 83.9274 12.2976C83.3683 11.3224 82.5691 10.5064 81.6057 9.92706C80.6134 9.33387 79.4755 9.02869 78.3196 9.04572C77.1487 9.02649 75.9954 9.33152 74.9871 9.92706C74.0131 10.5043 73.2023 11.3201 72.6312 12.2976C72.0537 13.3023 71.7498 14.4408 71.7498 15.5996C71.7498 16.7584 72.0537 17.8969 72.6312 18.9016C73.2044 19.882 74.0144 20.7029 74.9871 21.2892C75.9923 21.8935 77.1468 22.2039 78.3196 22.1852Z" fill="white"/>
<path d="M91.0435 23.372H89.5054V13.6919C89.4849 12.6116 89.7147 11.5412 90.1768 10.5645C90.5926 9.69431 91.2416 8.95651 92.0518 8.43321C92.9236 7.90129 93.9313 7.63412 94.9521 7.66418C95.4214 7.66218 95.8896 7.71047 96.3486 7.80822C96.7891 7.90621 97.2145 8.06305 97.6132 8.27452V9.87607C97.2404 9.64669 96.8356 9.47391 96.4121 9.36338C95.9771 9.25387 95.53 9.19973 95.0815 9.20225C94.5312 9.18109 93.983 9.28223 93.4764 9.49837C92.9698 9.71451 92.5174 10.0403 92.1519 10.4522C91.4146 11.2872 91.0459 12.3988 91.0459 13.7872L91.0435 23.372Z" fill="white"/>
<path d="M105.787 23.6595C104.356 23.6838 102.947 23.312 101.714 22.5853C100.531 21.8836 99.5516 20.8835 98.8751 19.685C98.1728 18.4334 97.814 17.0184 97.8351 15.5835C97.8154 14.1683 98.1459 12.7703 98.797 11.5137C99.4084 10.3254 100.327 9.32299 101.458 8.61089C102.652 7.87721 104.032 7.50417 105.433 7.53669C106.79 7.50619 108.131 7.84364 109.312 8.51324C110.407 9.1486 111.301 10.0792 111.893 11.1988C112.518 12.4114 112.831 13.7605 112.806 15.1245V16.1499H98.9264L99.4147 14.8681C99.2933 16.121 99.5029 17.3838 100.023 18.5302C100.512 19.6147 101.299 20.5377 102.293 21.1913C103.321 21.8618 104.526 22.208 105.752 22.185C106.818 22.1951 107.871 21.9595 108.831 21.4965C109.807 21.0036 110.611 20.2275 111.138 19.2699L112.359 19.9413C111.7 21.1133 110.729 22.0794 109.554 22.7318C108.397 23.355 107.101 23.6742 105.787 23.6595ZM99.4391 14.8462H111.233C111.258 13.7703 110.993 12.7076 110.464 11.77C109.974 10.9151 109.259 10.2109 108.397 9.73393C107.478 9.23543 106.446 8.98312 105.401 9.00151C104.38 8.98145 103.373 9.2388 102.487 9.74614C101.601 10.2535 100.869 10.9918 100.369 11.8823C99.8494 12.7918 99.5321 13.8028 99.4391 14.8462Z" fill="white"/>
<path d="M121.395 23.7251C120.056 23.7553 118.73 23.4578 117.532 22.8584C116.421 22.271 115.519 21.3532 114.952 20.2315L117.484 18.8643C117.825 19.5451 118.361 20.1086 119.024 20.483C119.719 20.8293 120.489 20.9971 121.265 20.9713C121.804 20.9798 122.341 20.8973 122.852 20.7271C123.272 20.5921 123.648 20.3487 123.943 20.0216C124.213 19.7046 124.355 19.2995 124.344 18.8839C124.355 18.6427 124.299 18.4032 124.184 18.1914C124.068 17.9796 123.896 17.8036 123.687 17.6827C123.168 17.3845 122.605 17.1679 122.02 17.0406C121.346 16.8779 120.625 16.7151 119.857 16.5524C119.111 16.3863 118.386 16.1408 117.694 15.8199C117.035 15.5242 116.462 15.0674 116.026 14.4918C115.589 13.9132 115.369 13.1247 115.369 12.1188C115.358 11.2381 115.621 10.3756 116.121 9.65059C116.651 8.89913 117.378 8.30791 118.221 7.94162C119.181 7.52377 120.219 7.31648 121.265 7.33372C122.17 7.31746 123.07 7.45872 123.926 7.75119C124.654 8.00402 125.327 8.3898 125.914 8.88888C126.448 9.34255 126.893 9.89138 127.227 10.5075L124.695 11.9479C124.426 11.3166 123.937 10.8046 123.319 10.5075C122.695 10.2288 122.019 10.0904 121.336 10.1022C120.891 10.0993 120.45 10.1822 120.037 10.3464C119.664 10.4924 119.33 10.7231 119.061 11.0202C118.805 11.3064 118.667 11.6789 118.675 12.0627C118.667 12.3007 118.724 12.5365 118.838 12.7452C118.953 12.954 119.122 13.128 119.327 13.2492C119.844 13.5568 120.407 13.7785 120.994 13.9059C121.668 14.0687 122.389 14.2314 123.157 14.3942C123.903 14.5602 124.628 14.8058 125.32 15.1266C125.981 15.4262 126.555 15.8891 126.988 16.4718C127.426 17.0594 127.645 17.8447 127.645 18.8277C127.665 19.7695 127.365 20.6904 126.795 21.44C126.202 22.2017 125.417 22.7916 124.52 23.149C123.527 23.5466 122.464 23.7424 121.395 23.7251Z" fill="white"/>
<path d="M137.741 23.7255C136.251 23.7481 134.78 23.3776 133.479 22.6513C132.238 21.9543 131.208 20.9355 130.498 19.7021C129.758 18.3987 129.382 16.9207 129.409 15.4224C129.392 13.9781 129.733 12.5521 130.402 11.2721C131.044 10.0439 132.008 9.01342 133.19 8.29114C134.448 7.53727 135.892 7.1539 137.358 7.18519C138.805 7.14602 140.235 7.50673 141.491 8.22766C142.628 8.90393 143.55 9.88726 144.152 11.0645C144.78 12.2943 145.099 13.6584 145.082 15.0391V16.3208H131.972L132.583 15.0708C132.504 16.067 132.686 17.0664 133.11 17.9712C133.509 18.8169 134.144 19.5291 134.939 20.022C135.781 20.5363 136.754 20.7982 137.741 20.7763C138.659 20.7885 139.566 20.5738 140.38 20.1514C141.187 19.719 141.845 19.0549 142.27 18.2446L144.804 19.5581C144.166 20.8536 143.163 21.934 141.918 22.666C140.646 23.3869 139.203 23.7529 137.741 23.7255ZM132.741 14.2383H141.774C141.748 13.4769 141.522 12.7358 141.118 12.0899C140.735 11.4817 140.2 10.9842 139.565 10.6471C138.866 10.3044 138.096 10.1289 137.318 10.1344C136.539 10.1399 135.772 10.3263 135.078 10.6788C134.432 11.0238 133.886 11.528 133.491 12.1436C133.091 12.779 132.836 13.4939 132.741 14.2383Z" fill="white"/>
<path d="M155.081 23.7258C153.981 23.7521 152.889 23.544 151.876 23.1154C150.89 22.7013 149.997 22.0965 149.246 21.3357C148.496 20.5744 147.898 19.6771 147.484 18.6916C147.055 17.6786 146.837 16.5887 146.844 15.4886C146.836 14.3923 147.054 13.3062 147.484 12.2977C147.901 11.3194 148.499 10.4283 149.246 9.67076C150.009 8.89936 150.918 8.288 151.92 7.87254C152.922 7.45708 153.996 7.24589 155.081 7.25135C156.495 7.26117 157.885 7.61297 159.134 8.27673C160.435 8.99234 161.474 10.1041 162.1 11.4505L159.344 12.9569C158.945 12.1559 158.321 11.4884 157.549 11.0355C156.798 10.6072 155.946 10.3857 155.081 10.3934C154.201 10.3789 153.335 10.6169 152.586 11.0794C151.851 11.5377 151.24 12.171 150.809 12.9227C150.367 13.705 150.136 14.5879 150.136 15.4861C150.136 16.3843 150.367 17.2673 150.809 18.0496C151.241 18.8049 151.851 19.4434 152.586 19.9099C153.328 20.3822 154.192 20.6274 155.071 20.6155C155.95 20.628 156.815 20.3946 157.568 19.9417C158.322 19.4887 158.933 18.8342 159.334 18.052L162.107 19.5583C161.471 20.8931 160.434 21.9965 159.141 22.715C157.895 23.3888 156.498 23.7364 155.081 23.7258Z" fill="white"/>
<path d="M171.682 23.7467C170.212 23.764 168.762 23.3922 167.482 22.6689C166.201 21.9456 165.134 20.8966 164.39 19.6281C163.651 18.371 163.268 16.9361 163.284 15.4778C163.264 14.0136 163.646 12.572 164.39 11.3104C165.123 10.0856 166.161 9.07131 167.403 8.36606C168.705 7.62271 170.183 7.24169 171.682 7.26256C173.148 7.22923 174.595 7.58944 175.874 8.30567C177.152 9.02189 178.216 10.0679 178.953 11.3348C179.692 12.592 180.074 14.0269 180.059 15.4851C180.074 16.9434 179.692 18.3783 178.953 19.6355C178.226 20.874 177.194 21.9054 175.955 22.631C174.659 23.3867 173.182 23.7726 171.682 23.7467ZM171.682 20.6047C172.59 20.6195 173.483 20.3811 174.263 19.9162C175.017 19.4623 175.641 18.8216 176.074 18.0559C176.522 17.2856 176.757 16.4102 176.755 15.5193C176.762 14.6273 176.537 13.7488 176.102 12.9702C175.667 12.1916 175.036 11.5397 174.273 11.0784C173.493 10.6136 172.6 10.3752 171.692 10.39C170.78 10.3767 169.882 10.6149 169.097 11.0784C168.326 11.5337 167.688 12.1837 167.248 12.9631C166.807 13.7425 166.58 14.624 166.587 15.5193C166.587 16.4058 166.817 17.2771 167.255 18.0476C167.694 18.8181 168.325 19.4612 169.087 19.9138C169.871 20.3816 170.769 20.6241 171.682 20.6145V20.6047Z" fill="white"/>
<path d="M190.401 10.4544C189.495 10.4182 188.601 10.675 187.853 11.1868C187.178 11.684 186.656 12.3607 186.346 13.1399C186.011 13.9865 185.845 14.8906 185.858 15.801V23.3693H182.516V15.447C182.493 14.0111 182.807 12.5898 183.431 11.2967C184.025 10.0946 184.94 9.08054 186.075 8.36702C187.228 7.63135 188.67 7.26352 190.401 7.26352C192.133 7.26352 193.587 7.62647 194.762 8.35237C195.921 9.05775 196.853 10.0814 197.447 11.3016C198.067 12.5903 198.379 14.005 198.36 15.4348V23.3717H195.018V15.8035C195.026 14.8911 194.852 13.9863 194.505 13.1424C194.183 12.3608 193.65 11.6845 192.965 11.1893C192.21 10.6779 191.312 10.4204 190.401 10.4544Z" fill="white"/>
<path d="M209.184 23.7469C207.687 23.7688 206.213 23.3804 204.921 22.6239C203.685 21.9009 202.654 20.875 201.925 19.643C201.187 18.4032 200.805 16.9842 200.819 15.5415C200.791 14.047 201.156 12.5713 201.876 11.2617C202.566 10.0301 203.579 9.01034 204.806 8.31256C206.096 7.58429 207.556 7.21424 209.037 7.2408C210.238 7.23393 211.42 7.53752 212.47 8.12213C213.494 8.67931 214.368 9.47585 215.018 10.4439C215.647 11.3707 215.982 12.4659 215.978 13.5859L214.249 12.8169L214.281 0.422028H217.582V15.5586C217.602 17.0063 217.231 18.4327 216.509 19.6876C215.787 20.9425 214.74 21.9796 213.478 22.6898C212.164 23.413 210.683 23.7775 209.184 23.7469ZM209.184 20.6366C210.098 20.6495 210.998 20.405 211.781 19.9311C212.537 19.4754 213.165 18.8364 213.607 18.0732C214.059 17.2951 214.292 16.4094 214.281 15.5097C214.283 14.6166 214.054 13.7382 213.616 12.9599C213.178 12.1817 212.546 11.5302 211.781 11.0689C210.995 10.6054 210.096 10.3672 209.184 10.3804C208.276 10.3656 207.382 10.604 206.603 11.0689C205.842 11.5356 205.214 12.1901 204.78 12.9695C204.345 13.7489 204.118 14.627 204.12 15.5195C204.109 16.4191 204.342 17.3049 204.794 18.083C205.233 18.8432 205.855 19.4818 206.603 19.9408C207.379 20.4163 208.274 20.6611 209.184 20.6464V20.6366Z" fill="white"/>
<path d="M226.747 23.7251C225.408 23.755 224.082 23.4575 222.884 22.8584C221.774 22.271 220.873 21.3531 220.306 20.2315L222.838 18.8643C223.178 19.5449 223.714 20.1085 224.376 20.4829C225.072 20.829 225.843 20.9968 226.62 20.9712C227.159 20.9796 227.695 20.8971 228.207 20.7271C228.626 20.5928 229.002 20.3492 229.296 20.0215C229.565 19.7046 229.707 19.2994 229.696 18.8838C229.707 18.6427 229.652 18.4031 229.536 18.1913C229.42 17.9795 229.248 17.8036 229.039 17.6827C228.52 17.384 227.957 17.1674 227.372 17.0406C226.7 16.8819 225.978 16.7159 225.209 16.5523C224.464 16.3859 223.739 16.1404 223.046 15.8199C222.388 15.5234 221.814 15.0668 221.378 14.4918C220.941 13.9132 220.721 13.1246 220.721 12.1188C220.71 11.2376 220.974 10.3749 221.476 9.65054C222.004 8.89796 222.731 8.30645 223.575 7.94158C224.535 7.52373 225.573 7.31644 226.62 7.33368C227.524 7.31771 228.425 7.45897 229.281 7.75115C230.008 8.00398 230.682 8.38976 231.268 8.88883C231.802 9.34318 232.247 9.89187 232.582 10.5075L230.05 11.9479C229.779 11.3169 229.289 10.8052 228.671 10.5075C228.047 10.2232 227.368 10.0807 226.683 10.09C226.239 10.0873 225.798 10.1702 225.384 10.3341C225.011 10.4802 224.677 10.7108 224.408 11.0079C224.153 11.2944 224.016 11.667 224.025 12.0504C224.015 12.2911 224.07 12.5299 224.186 12.7411C224.302 12.9524 224.473 13.128 224.681 13.2491C225.197 13.5567 225.759 13.7785 226.346 13.9059C227.02 14.0646 227.74 14.2306 228.512 14.3941C229.257 14.5606 229.982 14.8061 230.675 15.1266C231.335 15.4262 231.908 15.8892 232.34 16.4718C232.779 17.0593 232.999 17.8446 232.999 18.8277C233.018 19.7693 232.719 20.6898 232.15 21.44C231.556 22.2023 230.77 22.7923 229.872 23.1489C228.879 23.5465 227.816 23.7424 226.747 23.7251Z" fill="white"/>
<path d="M21.5256 1.55547L16.909 13.6623L12.2899 1.55547C12.1504 1.18933 11.9029 0.874204 11.5803 0.651853C11.2577 0.429503 10.8751 0.310416 10.4833 0.310369H1.93845C1.68421 0.310049 1.4324 0.359807 1.19739 0.456805C0.962377 0.553802 0.748773 0.696139 0.568771 0.875687C0.388769 1.05524 0.245894 1.26848 0.148304 1.50325C0.0507142 1.73801 0.000320404 1.9897 0 2.24394L0 24.7925C1.05249 25.2129 1.9642 25.9232 2.62936 26.8408C2.62936 26.8408 3.59127 23.5913 6.92863 22.3047V8.32785L12.0995 22.024C12.2826 22.0606 12.4681 22.1021 12.6585 22.146C12.6585 22.146 14.4481 18.9869 17.5193 20.5567L22.6267 15.0001L20.6125 14.5778C20.6125 14.5778 22.1628 12.6735 23.3542 13.0519C23.3542 13.0519 23.5446 6.43334 28.7838 6.5603C30.6979 11.0231 25.4953 14.0456 25.4953 14.0456C26.1545 15.1051 25.1242 17.5904 25.1242 17.5904L24.0036 15.9205L20.571 22.605C24.2136 24.6363 22.1994 28.0176 22.1994 28.0176C24.885 27.4438 25.715 28.7207 25.9665 29.6899H31.8819C32.136 29.6902 32.3875 29.6404 32.6223 29.5434C32.857 29.4463 33.0703 29.3039 33.2499 29.1243C33.4295 28.9447 33.5719 28.7314 33.669 28.4967C33.766 28.2619 33.8158 28.0103 33.8155 27.7563V2.24394C33.8155 1.73113 33.6118 1.23931 33.2492 0.876699C32.8866 0.514084 32.3948 0.310369 31.8819 0.310369H23.3371C22.9445 0.309425 22.5608 0.42805 22.2372 0.650466C21.9136 0.872882 21.6654 1.18855 21.5256 1.55547Z" fill="url(#paint0_linear_1804_401)"/>
<defs>
<linearGradient id="paint0_linear_1804_401" x1="16.526" y1="9.49147" x2="14.6898" y2="38.871" gradientUnits="userSpaceOnUse">
<stop stop-color="#FF7F00"/>
<stop offset="0.54" stop-color="#F54714"/>
<stop offset="1" stop-color="#ED1C24"/>
</linearGradient>
</defs>
</svg>
