<svg xmlns="http://www.w3.org/2000/svg" viewBox="0 0 494.19 319.44"><title>HG-logo-black</title><g id="Layer_2" data-name="Layer 2"><g id="Layer_1-2" data-name="Layer 1"><path d="M104,116.92V70.62H73.46v46.3H44.72V0H73.46V45H104V0h28.74V116.92Z" fill="#ffffff"/><path d="M164.6,116.92V0h79.48V25.62H193.33V45.16h43.36V70.78H193.33V91.3h50.75v25.62Z" fill="#ffffff"/><path d="M272.65,116.92V0h28.74V91.3h49.1v25.62Z" fill="#ffffff"/><path d="M421.75,75.21H404.18v41.71H375.45V0h46.3c25.95,0,39.91,18.39,39.91,37.61S447.7,75.21,421.75,75.21Zm-1.31-49.43H404.18V49.43h16.26c7.88,0,12.48-5.75,12.48-11.82S428.32,25.78,420.44,25.78Z" fill="#ffffff"/><path d="M116.74,306.31c-10,10.34-21.18,13.13-34,13.13-13.63,0-24-4.6-32.52-13.13C37.92,294,38.41,277.56,38.41,260s-.49-34,11.82-46.32c8.54-8.53,18.4-13.14,32.52-13.14,30.05,0,42.86,19.55,45.65,38.76H99.5c-2.3-8.87-6.9-13.13-16.75-13.13a14,14,0,0,0-11.33,5.08c-2.63,3.45-4.27,7.39-4.27,28.75s1.64,25.45,4.27,28.9c2.13,2.79,6.07,4.92,11.33,4.92,6.07,0,10.18-1.81,12.81-4.59,3.28-3.29,4.43-8.05,4.43-12.49V275.1H82.75v-24h45.82v16.26C128.57,286.27,125.61,297.27,116.74,306.31Z" fill="#ffffff"/><path d="M227.36,306.31c-8.53,8.53-18.39,13.13-32.67,13.13s-24.15-4.6-32.68-13.13C149.69,294,150.18,277.56,150.18,260s-.49-34,11.83-46.32c8.53-8.53,18.39-13.14,32.68-13.14s24.14,4.61,32.67,13.14C239.68,226,239.19,242.42,239.19,260S239.68,294,227.36,306.31Zm-21.18-75.06a14.41,14.41,0,0,0-11.49-5.08c-5.26,0-9.37,2.3-11.5,5.08-2.63,3.45-4.27,7.39-4.27,28.75s1.64,25.12,4.27,28.57a15.21,15.21,0,0,0,23,0c2.63-3.45,4.27-7.23,4.27-28.57S208.81,234.7,206.18,231.25Z" fill="#ffffff"/><path d="M335.26,306.31c-8.54,8.53-18.4,13.13-32.68,13.13s-24.14-4.6-32.68-13.13C257.58,294,258.08,277.56,258.08,260s-.5-34,11.82-46.32c8.54-8.53,18.39-13.14,32.68-13.14s24.14,4.61,32.68,13.14C347.57,226,347.08,242.42,347.08,260S347.57,294,335.26,306.31Zm-21.19-75.06a14.41,14.41,0,0,0-11.49-5.08c-5.26,0-9.37,2.3-11.5,5.08-2.63,3.45-4.27,7.39-4.27,28.75s1.64,25.12,4.27,28.57a15.21,15.21,0,0,0,23,0c2.63-3.45,4.27-7.23,4.27-28.57S316.7,234.7,314.07,231.25Z" fill="#ffffff"/><path d="M443.58,307c-8.05,8.05-19.38,11.5-31.53,11.5H368.7V201.53h43.35c12.15,0,23.48,3.45,31.53,11.5,13.63,13.63,12.15,28.57,12.15,47S457.21,293.33,443.58,307Zm-19.71-73.24c-2.62-3.95-6.56-6.57-13.79-6.57H397.43v65.69h12.65c7.23,0,11.17-2.63,13.79-6.57C426.18,283,427,279.86,427,260S426.18,237,423.87,233.72Z" fill="#ffffff"/><rect y="149.99" width="494.19" height="17.49" fill="#ffffff"/></g></g></svg>